<svg xmlns="http://www.w3.org/2000/svg" xmlns:xlink="http://www.w3.org/1999/xlink" width="40" zoomAndPan="magnify" viewBox="0 0 30 30.000001" height="40" preserveAspectRatio="xMidYMid meet" version="1.0"><defs><clipPath id="06ab0cd65e"><path d="M 7.101562 6.617188 L 22.898438 6.617188 L 22.898438 22.414062 L 7.101562 22.414062 Z M 7.101562 6.617188 " clip-rule="nonzero"/></clipPath><clipPath id="30d941f421"><path d="M 15 6.617188 C 10.636719 6.617188 7.101562 10.152344 7.101562 14.515625 C 7.101562 18.878906 10.636719 22.414062 15 22.414062 C 19.363281 22.414062 22.898438 18.878906 22.898438 14.515625 C 22.898438 10.152344 19.363281 6.617188 15 6.617188 Z M 15 6.617188 " clip-rule="nonzero"/></clipPath><clipPath id="732122655b"><path d="M 16 9.515625 L 19 9.515625 L 19 13 L 16 13 Z M 16 9.515625 " clip-rule="nonzero"/></clipPath><clipPath id="9b8abf9bc7"><path d="M 11 9.515625 L 14 9.515625 L 14 13 L 11 13 Z M 11 9.515625 " clip-rule="nonzero"/></clipPath><clipPath id="564823d447"><path d="M 9.371094 13 L 20.984375 13 L 20.984375 19.675781 L 9.371094 19.675781 Z M 9.371094 13 " clip-rule="nonzero"/></clipPath></defs><g clip-path="url(#06ab0cd65e)"><g clip-path="url(#30d941f421)"><path fill="#0071b8" d="M 7.101562 6.617188 L 22.898438 6.617188 L 22.898438 22.414062 L 7.101562 22.414062 Z M 7.101562 6.617188 " fill-opacity="1" fill-rule="nonzero"/></g></g><path fill="#ffffff" d="M 15.8125 10.652344 C 15.605469 10.433594 15.320312 10.320312 14.960938 10.320312 C 14.597656 10.320312 14.3125 10.433594 14.105469 10.652344 C 13.847656 10.929688 13.730469 11.371094 13.769531 11.929688 C 13.800781 12.394531 14.175781 13.511719 14.914062 13.511719 C 15.710938 13.511719 16.109375 12.480469 16.148438 11.929688 C 16.1875 11.371094 16.070312 10.929688 15.8125 10.652344 Z M 15.75 11.902344 C 15.738281 12.078125 15.660156 12.378906 15.523438 12.636719 C 15.382812 12.898438 15.179688 13.113281 14.914062 13.113281 C 14.523438 13.113281 14.195312 12.328125 14.167969 11.902344 C 14.144531 11.589844 14.171875 11.167969 14.398438 10.925781 C 14.527344 10.789062 14.710938 10.71875 14.960938 10.71875 C 15.207031 10.71875 15.390625 10.789062 15.523438 10.925781 C 15.75 11.171875 15.769531 11.589844 15.75 11.902344 Z M 15.75 11.902344 " fill-opacity="1" fill-rule="nonzero"/><g clip-path="url(#732122655b)"><path fill="#ffffff" d="M 18.480469 9.855469 C 18.273438 9.636719 17.988281 9.523438 17.625 9.523438 C 17.265625 9.523438 16.976562 9.636719 16.773438 9.855469 C 16.515625 10.132812 16.398438 10.570312 16.4375 11.132812 C 16.46875 11.597656 16.84375 12.714844 17.582031 12.714844 C 18.378906 12.714844 18.78125 11.683594 18.816406 11.132812 C 18.855469 10.570312 18.738281 10.132812 18.480469 9.855469 Z M 18.417969 11.105469 C 18.40625 11.277344 18.332031 11.578125 18.191406 11.839844 C 18.050781 12.101562 17.847656 12.316406 17.582031 12.316406 C 17.191406 12.316406 16.863281 11.53125 16.835938 11.105469 C 16.8125 10.792969 16.835938 10.371094 17.066406 10.128906 C 17.195312 9.988281 17.378906 9.921875 17.628906 9.921875 C 17.875 9.921875 18.058594 9.988281 18.191406 10.128906 C 18.417969 10.371094 18.441406 10.792969 18.417969 11.105469 Z M 18.417969 11.105469 " fill-opacity="1" fill-rule="nonzero"/></g><g clip-path="url(#9b8abf9bc7)"><path fill="#ffffff" d="M 13.21875 9.855469 C 13.011719 9.636719 12.726562 9.523438 12.367188 9.523438 C 12.003906 9.523438 11.71875 9.636719 11.511719 9.855469 C 11.253906 10.132812 11.136719 10.570312 11.175781 11.132812 C 11.207031 11.597656 11.582031 12.714844 12.320312 12.714844 C 13.117188 12.714844 13.515625 11.683594 13.554688 11.132812 C 13.59375 10.570312 13.476562 10.132812 13.21875 9.855469 Z M 13.15625 11.105469 C 13.144531 11.277344 13.070312 11.578125 12.929688 11.839844 C 12.789062 12.101562 12.585938 12.316406 12.320312 12.316406 C 11.929688 12.316406 11.601562 11.53125 11.574219 11.105469 C 11.550781 10.792969 11.578125 10.371094 11.804688 10.128906 C 11.933594 9.988281 12.117188 9.921875 12.367188 9.921875 C 12.613281 9.921875 12.800781 9.988281 12.929688 10.128906 C 13.15625 10.371094 13.179688 10.792969 13.15625 11.105469 Z M 13.15625 11.105469 " fill-opacity="1" fill-rule="nonzero"/></g><g clip-path="url(#564823d447)"><path fill="#ffffff" d="M 18.097656 13.113281 L 17.15625 13.113281 C 16.433594 13.113281 15.78125 13.421875 15.320312 13.914062 L 14.671875 13.914062 C 14.210938 13.421875 13.558594 13.113281 12.835938 13.113281 L 11.894531 13.113281 C 10.503906 13.113281 9.371094 14.246094 9.371094 15.636719 C 9.371094 15.785156 9.492188 15.90625 9.644531 15.90625 L 12.019531 15.90625 C 11.984375 16.078125 11.964844 16.253906 11.964844 16.433594 C 11.964844 16.582031 12.085938 16.707031 12.238281 16.707031 L 12.597656 16.707031 C 12.589844 16.761719 12.578125 16.816406 12.574219 16.875 C 12.566406 16.949219 12.5625 17.027344 12.5625 17.105469 C 12.5625 18.425781 13.636719 19.496094 14.957031 19.496094 C 16.277344 19.496094 17.351562 18.425781 17.351562 17.105469 C 17.351562 17.027344 17.347656 16.949219 17.34375 16.875 C 17.335938 16.816406 17.328125 16.761719 17.316406 16.707031 L 17.679688 16.707031 C 17.828125 16.707031 17.949219 16.582031 17.949219 16.433594 C 17.949219 16.253906 17.929688 16.078125 17.894531 15.90625 L 20.347656 15.90625 C 20.496094 15.90625 20.621094 15.785156 20.621094 15.636719 C 20.621094 14.246094 19.488281 13.113281 18.097656 13.113281 Z M 9.773438 15.507812 C 9.839844 14.398438 10.765625 13.511719 11.894531 13.511719 L 12.835938 13.511719 C 13.3125 13.511719 13.757812 13.671875 14.113281 13.941406 C 13.210938 14.074219 12.46875 14.6875 12.140625 15.507812 Z M 14.957031 19.097656 C 13.859375 19.097656 12.960938 18.203125 12.960938 17.105469 C 12.960938 17.027344 12.96875 16.949219 12.976562 16.875 C 12.992188 16.738281 13.023438 16.601562 13.0625 16.476562 C 13.109375 16.335938 13.171875 16.203125 13.25 16.078125 C 13.335938 15.929688 13.445312 15.796875 13.5625 15.679688 C 13.871094 15.375 14.28125 15.171875 14.730469 15.125 C 14.765625 15.117188 14.800781 15.117188 14.839844 15.113281 C 14.878906 15.113281 14.917969 15.109375 14.957031 15.109375 C 15.023438 15.109375 15.085938 15.113281 15.148438 15.121094 C 15.1875 15.121094 15.226562 15.128906 15.265625 15.132812 C 15.683594 15.199219 16.0625 15.394531 16.351562 15.679688 C 16.472656 15.796875 16.582031 15.933594 16.667969 16.078125 C 16.742188 16.203125 16.804688 16.335938 16.851562 16.476562 C 16.894531 16.605469 16.921875 16.738281 16.941406 16.875 C 16.949219 16.949219 16.953125 17.027344 16.953125 17.105469 C 16.953125 18.207031 16.054688 19.097656 14.957031 19.097656 Z M 17.546875 16.304688 L 17.214844 16.304688 C 17.183594 16.226562 17.152344 16.152344 17.117188 16.078125 C 17.050781 15.933594 16.972656 15.804688 16.878906 15.679688 C 16.511719 15.183594 15.957031 14.835938 15.324219 14.738281 C 15.25 14.726562 15.179688 14.71875 15.105469 14.714844 C 15.058594 14.710938 15.007812 14.710938 14.957031 14.710938 C 14.933594 14.710938 14.90625 14.710938 14.882812 14.710938 C 14.808594 14.714844 14.734375 14.71875 14.664062 14.730469 C 14 14.808594 13.417969 15.167969 13.035156 15.679688 C 12.941406 15.804688 12.863281 15.9375 12.796875 16.078125 C 12.761719 16.152344 12.730469 16.226562 12.703125 16.304688 L 12.367188 16.304688 C 12.375 16.171875 12.398438 16.039062 12.429688 15.90625 C 12.464844 15.769531 12.515625 15.636719 12.578125 15.507812 C 12.921875 14.800781 13.648438 14.3125 14.484375 14.3125 L 15.425781 14.3125 C 15.453125 14.3125 15.472656 14.3125 15.496094 14.316406 C 16.304688 14.339844 17 14.820312 17.335938 15.507812 C 17.398438 15.636719 17.449219 15.769531 17.484375 15.910156 C 17.515625 16.035156 17.539062 16.171875 17.546875 16.304688 Z M 17.773438 15.507812 C 17.457031 14.703125 16.738281 14.101562 15.867188 13.953125 C 16.222656 13.675781 16.667969 13.511719 17.15625 13.511719 L 18.097656 13.511719 C 19.226562 13.511719 20.152344 14.398438 20.21875 15.507812 Z M 17.773438 15.507812 " fill-opacity="1" fill-rule="nonzero"/></g><path fill="#ffffff" d="M 14.847656 16.679688 C 14.8125 16.730469 14.796875 16.785156 14.796875 16.855469 L 14.796875 18.148438 C 14.796875 18.21875 14.8125 18.273438 14.847656 18.324219 C 14.886719 18.375 14.9375 18.398438 14.996094 18.398438 C 15.054688 18.398438 15.105469 18.375 15.140625 18.324219 C 15.175781 18.273438 15.195312 18.21875 15.195312 18.148438 L 15.195312 16.855469 C 15.195312 16.785156 15.175781 16.730469 15.140625 16.679688 C 15.066406 16.578125 14.925781 16.578125 14.847656 16.679688 Z M 14.847656 16.679688 " fill-opacity="1" fill-rule="nonzero"/><path fill="#ffffff" d="M 15.144531 15.949219 C 15.113281 15.921875 15.0625 15.90625 14.996094 15.90625 C 14.933594 15.90625 14.886719 15.921875 14.851562 15.945312 C 14.816406 15.972656 14.796875 16.019531 14.796875 16.082031 L 14.796875 16.128906 C 14.796875 16.191406 14.8125 16.234375 14.84375 16.265625 C 14.878906 16.292969 14.925781 16.304688 14.992188 16.304688 C 15.058594 16.304688 15.109375 16.292969 15.140625 16.265625 C 15.175781 16.238281 15.195312 16.195312 15.195312 16.128906 L 15.195312 16.082031 C 15.195312 16.019531 15.179688 15.976562 15.144531 15.949219 Z M 15.144531 15.949219 " fill-opacity="1" fill-rule="nonzero"/></svg>