<svg xmlns="http://www.w3.org/2000/svg" xmlns:xlink="http://www.w3.org/1999/xlink" width="40" zoomAndPan="magnify" viewBox="0 0 30 30.000001" height="40" preserveAspectRatio="xMidYMid meet" version="1.0"><defs><clipPath id="ee2d1b12bb"><path d="M 0.484375 0 L 29.515625 0 L 29.515625 29.03125 L 0.484375 29.03125 Z M 0.484375 0 " clip-rule="nonzero"/></clipPath><clipPath id="fd114a87ea"><path d="M 15 0 C 6.984375 0 0.484375 6.5 0.484375 14.515625 C 0.484375 22.53125 6.984375 29.03125 15 29.03125 C 23.015625 29.03125 29.515625 22.53125 29.515625 14.515625 C 29.515625 6.5 23.015625 0 15 0 Z M 15 0 " clip-rule="nonzero"/></clipPath><clipPath id="9e7e198811"><path d="M 17 5.328125 L 23 5.328125 L 23 12 L 17 12 Z M 17 5.328125 " clip-rule="nonzero"/></clipPath><clipPath id="87310ec117"><path d="M 7 5.328125 L 13 5.328125 L 13 12 L 7 12 Z M 7 5.328125 " clip-rule="nonzero"/></clipPath><clipPath id="af464f0104"><path d="M 4.65625 11 L 25.707031 11 L 25.707031 23.472656 L 4.65625 23.472656 Z M 4.65625 11 " clip-rule="nonzero"/></clipPath></defs><g clip-path="url(#ee2d1b12bb)"><g clip-path="url(#fd114a87ea)"><path fill="#0071b8" d="M 0.484375 0 L 29.515625 0 L 29.515625 29.03125 L 0.484375 29.03125 Z M 0.484375 0 " fill-opacity="1" fill-rule="nonzero"/></g></g><path fill="#ffffff" d="M 16.5 7.421875 C 16.121094 7.015625 15.59375 6.808594 14.929688 6.808594 C 14.265625 6.808594 13.738281 7.015625 13.359375 7.421875 C 12.882812 7.925781 12.671875 8.738281 12.742188 9.769531 C 12.800781 10.625 13.488281 12.675781 14.847656 12.675781 C 16.3125 12.675781 17.046875 10.78125 17.117188 9.769531 C 17.1875 8.738281 16.976562 7.925781 16.5 7.421875 Z M 16.386719 9.71875 C 16.367188 10.035156 16.222656 10.589844 15.964844 11.066406 C 15.707031 11.546875 15.335938 11.945312 14.851562 11.945312 L 14.847656 11.945312 C 14.132812 11.945312 13.527344 10.5 13.476562 9.71875 C 13.4375 9.144531 13.480469 8.367188 13.898438 7.917969 C 14.136719 7.667969 14.472656 7.542969 14.929688 7.542969 C 15.386719 7.542969 15.726562 7.667969 15.964844 7.917969 C 16.382812 8.371094 16.425781 9.144531 16.386719 9.71875 Z M 16.386719 9.71875 " fill-opacity="1" fill-rule="nonzero"/><g clip-path="url(#9e7e198811)"><path fill="#ffffff" d="M 21.40625 5.953125 C 21.027344 5.546875 20.5 5.339844 19.835938 5.339844 C 19.171875 5.339844 18.644531 5.546875 18.265625 5.953125 C 17.792969 6.460938 17.574219 7.269531 17.648438 8.300781 C 17.703125 9.15625 18.394531 11.210938 19.753906 11.210938 C 21.21875 11.210938 21.957031 9.3125 22.019531 8.300781 C 22.097656 7.269531 21.878906 6.460938 21.40625 5.953125 Z M 21.292969 8.25 C 21.269531 8.570312 21.128906 9.121094 20.871094 9.597656 C 20.613281 10.078125 20.242188 10.476562 19.753906 10.476562 C 19.035156 10.476562 18.433594 9.03125 18.378906 8.25 C 18.339844 7.675781 18.382812 6.902344 18.800781 6.453125 C 19.039062 6.199219 19.378906 6.074219 19.835938 6.074219 C 20.292969 6.074219 20.632812 6.199219 20.871094 6.453125 C 21.289062 6.902344 21.332031 7.679688 21.292969 8.25 Z M 21.292969 8.25 " fill-opacity="1" fill-rule="nonzero"/></g><g clip-path="url(#87310ec117)"><path fill="#ffffff" d="M 11.734375 5.953125 C 11.351562 5.546875 10.824219 5.339844 10.164062 5.339844 C 9.5 5.339844 8.96875 5.546875 8.59375 5.953125 C 8.117188 6.460938 7.902344 7.269531 7.972656 8.300781 C 8.03125 9.15625 8.71875 11.210938 10.078125 11.210938 C 10.082031 11.210938 10.082031 11.210938 10.082031 11.210938 C 11.542969 11.210938 12.277344 9.3125 12.347656 8.300781 C 12.417969 7.269531 12.207031 6.460938 11.734375 5.953125 Z M 11.617188 8.25 C 11.597656 8.570312 11.453125 9.121094 11.195312 9.597656 C 10.941406 10.078125 10.566406 10.476562 10.082031 10.476562 L 10.078125 10.476562 C 9.363281 10.476562 8.757812 9.03125 8.707031 8.25 C 8.667969 7.675781 8.710938 6.898438 9.128906 6.453125 C 9.367188 6.199219 9.703125 6.074219 10.164062 6.074219 C 10.617188 6.074219 10.960938 6.199219 11.195312 6.453125 C 11.617188 6.902344 11.65625 7.679688 11.617188 8.25 Z M 11.617188 8.25 " fill-opacity="1" fill-rule="nonzero"/></g><g clip-path="url(#af464f0104)"><path fill="#ffffff" d="M 20.703125 11.945312 L 18.96875 11.945312 C 17.640625 11.945312 16.4375 12.507812 15.589844 13.410156 L 14.402344 13.410156 C 13.554688 12.507812 12.355469 11.945312 11.023438 11.945312 L 9.292969 11.945312 C 6.738281 11.945312 4.65625 14.023438 4.65625 16.582031 C 4.65625 16.855469 4.878906 17.078125 5.15625 17.078125 L 9.527344 17.078125 C 9.460938 17.390625 9.425781 17.714844 9.425781 18.046875 C 9.425781 18.324219 9.648438 18.546875 9.925781 18.546875 L 10.589844 18.546875 C 10.570312 18.648438 10.554688 18.753906 10.542969 18.859375 C 10.535156 19 10.527344 19.136719 10.527344 19.28125 C 10.527344 21.707031 12.5 23.683594 14.929688 23.683594 C 17.355469 23.683594 19.328125 21.707031 19.328125 19.28125 C 19.328125 19.136719 19.324219 19 19.3125 18.859375 C 19.300781 18.753906 19.285156 18.648438 19.269531 18.546875 L 19.933594 18.546875 C 20.207031 18.546875 20.429688 18.324219 20.429688 18.046875 C 20.429688 17.714844 20.394531 17.390625 20.328125 17.078125 L 24.839844 17.078125 C 25.113281 17.078125 25.339844 16.855469 25.339844 16.582031 C 25.339844 14.023438 23.257812 11.945312 20.703125 11.945312 Z M 5.398438 16.34375 C 5.519531 14.300781 7.21875 12.675781 9.292969 12.675781 L 11.023438 12.675781 C 11.90625 12.675781 12.71875 12.972656 13.371094 13.464844 C 11.71875 13.710938 10.347656 14.832031 9.75 16.34375 Z M 14.929688 22.949219 C 12.90625 22.949219 11.261719 21.304688 11.261719 19.28125 C 11.261719 19.136719 11.265625 18.996094 11.285156 18.859375 C 11.316406 18.605469 11.367188 18.359375 11.445312 18.125 C 11.53125 17.867188 11.644531 17.621094 11.785156 17.390625 C 11.945312 17.125 12.144531 16.878906 12.363281 16.65625 C 12.933594 16.105469 13.679688 15.730469 14.511719 15.636719 C 14.578125 15.628906 14.644531 15.625 14.710938 15.621094 C 14.78125 15.617188 14.855469 15.613281 14.929688 15.613281 C 15.046875 15.613281 15.164062 15.621094 15.28125 15.632812 C 15.351562 15.636719 15.421875 15.648438 15.492188 15.65625 C 16.261719 15.773438 16.957031 16.136719 17.492188 16.660156 C 17.714844 16.878906 17.910156 17.125 18.074219 17.390625 C 18.210938 17.625 18.324219 17.871094 18.410156 18.125 C 18.488281 18.359375 18.542969 18.605469 18.574219 18.859375 C 18.589844 19 18.597656 19.136719 18.597656 19.28125 C 18.597656 21.304688 16.949219 22.949219 14.929688 22.949219 Z M 19.691406 17.8125 L 19.074219 17.8125 C 19.023438 17.667969 18.964844 17.527344 18.902344 17.390625 C 18.78125 17.132812 18.632812 16.890625 18.460938 16.65625 C 17.785156 15.75 16.765625 15.109375 15.597656 14.929688 C 15.464844 14.910156 15.335938 14.898438 15.203125 14.890625 C 15.109375 14.882812 15.019531 14.878906 14.925781 14.878906 C 14.882812 14.878906 14.835938 14.878906 14.792969 14.882812 C 14.65625 14.886719 14.519531 14.898438 14.386719 14.914062 C 13.164062 15.0625 12.097656 15.71875 11.394531 16.660156 C 11.222656 16.890625 11.078125 17.132812 10.953125 17.390625 C 10.890625 17.527344 10.832031 17.671875 10.78125 17.8125 L 10.164062 17.8125 C 10.179688 17.5625 10.21875 17.320312 10.277344 17.082031 C 10.34375 16.828125 10.4375 16.582031 10.554688 16.347656 C 11.183594 15.046875 12.519531 14.148438 14.0625 14.148438 L 15.792969 14.148438 C 15.835938 14.148438 15.875 14.148438 15.917969 14.152344 C 17.40625 14.199219 18.6875 15.082031 19.300781 16.347656 C 19.414062 16.582031 19.507812 16.828125 19.574219 17.082031 C 19.632812 17.316406 19.675781 17.5625 19.691406 17.8125 Z M 20.105469 16.34375 C 19.519531 14.867188 18.199219 13.761719 16.597656 13.484375 C 17.253906 12.976562 18.074219 12.675781 18.972656 12.675781 L 20.703125 12.675781 C 22.777344 12.675781 24.476562 14.300781 24.597656 16.34375 Z M 20.105469 16.34375 " fill-opacity="1" fill-rule="nonzero"/></g><path fill="#ffffff" d="M 14.730469 18.503906 C 14.664062 18.589844 14.632812 18.695312 14.632812 18.824219 L 14.632812 21.199219 C 14.632812 21.328125 14.664062 21.433594 14.730469 21.523438 C 14.796875 21.617188 14.890625 21.664062 14.996094 21.664062 C 15.101562 21.664062 15.195312 21.617188 15.265625 21.523438 C 15.332031 21.433594 15.363281 21.328125 15.363281 21.199219 L 15.363281 18.824219 C 15.363281 18.695312 15.332031 18.589844 15.265625 18.503906 C 15.128906 18.316406 14.867188 18.316406 14.730469 18.503906 Z M 14.730469 18.503906 " fill-opacity="1" fill-rule="nonzero"/><path fill="#ffffff" d="M 15.269531 17.152344 C 15.210938 17.105469 15.121094 17.078125 14.996094 17.078125 C 14.882812 17.078125 14.796875 17.105469 14.734375 17.148438 C 14.664062 17.195312 14.632812 17.28125 14.632812 17.402344 L 14.632812 17.488281 C 14.632812 17.605469 14.664062 17.683594 14.722656 17.738281 C 14.785156 17.785156 14.871094 17.8125 14.996094 17.8125 C 15.113281 17.8125 15.207031 17.785156 15.265625 17.742188 C 15.328125 17.691406 15.367188 17.609375 15.367188 17.488281 L 15.367188 17.402344 C 15.363281 17.285156 15.332031 17.207031 15.269531 17.152344 Z M 15.269531 17.152344 " fill-opacity="1" fill-rule="nonzero"/></svg>