<svg xmlns="http://www.w3.org/2000/svg" xmlns:xlink="http://www.w3.org/1999/xlink" width="40" zoomAndPan="magnify" viewBox="0 0 30 30.000001" height="40" preserveAspectRatio="xMidYMid meet" version="1.0"><defs><clipPath id="ab7eba27fc"><path d="M 7.066406 6.582031 L 22.933594 6.582031 L 22.933594 22.449219 L 7.066406 22.449219 Z M 7.066406 6.582031 " clip-rule="nonzero"/></clipPath><clipPath id="6616609662"><path d="M 15 6.582031 C 10.617188 6.582031 7.066406 10.136719 7.066406 14.515625 C 7.066406 18.898438 10.617188 22.449219 15 22.449219 C 19.382812 22.449219 22.933594 18.898438 22.933594 14.515625 C 22.933594 10.136719 19.382812 6.582031 15 6.582031 Z M 15 6.582031 " clip-rule="nonzero"/></clipPath><clipPath id="004558e936"><path d="M 8.460938 10.363281 L 21.527344 10.363281 L 21.527344 18.347656 L 8.460938 18.347656 Z M 8.460938 10.363281 " clip-rule="nonzero"/></clipPath></defs><g clip-path="url(#ab7eba27fc)"><g clip-path="url(#6616609662)"><path fill="#0071b8" d="M 7.066406 6.582031 L 22.933594 6.582031 L 22.933594 22.449219 L 7.066406 22.449219 Z M 7.066406 6.582031 " fill-opacity="1" fill-rule="nonzero"/></g></g><g clip-path="url(#004558e936)"><path fill="#ffffff" d="M 20.460938 10.371094 C 19.882812 10.371094 16.765625 10.578125 16.1875 10.847656 C 15.609375 10.558594 12.488281 10.371094 11.910156 10.371094 C 11.289062 10.371094 10.816406 10.660156 10.816406 11.054688 C 10.816406 11.445312 11.289062 11.734375 11.910156 11.734375 C 12.507812 11.734375 15.277344 11.550781 16.042969 11.324219 L 16.042969 12.273438 L 15.421875 12.273438 C 15.339844 12.273438 15.257812 12.335938 15.257812 12.4375 L 15.257812 12.832031 C 14.636719 12.851562 14.121094 12.996094 13.789062 13.59375 L 10.464844 13.699219 C 10.257812 13.410156 9.925781 13.203125 9.554688 13.203125 C 8.957031 13.203125 8.460938 13.699219 8.460938 14.296875 C 8.460938 14.898438 8.957031 15.390625 9.554688 15.390625 C 9.949219 15.390625 10.277344 15.1875 10.464844 14.898438 L 13.667969 15.019531 C 13.957031 16.261719 14.96875 17.191406 16.207031 17.375 L 16.207031 18.324219 L 15.648438 18.324219 C 15.566406 18.324219 15.484375 18.386719 15.484375 18.492188 C 15.484375 18.59375 15.546875 18.65625 15.648438 18.65625 L 20.214844 18.65625 C 20.773438 18.65625 21.226562 18.203125 21.226562 17.644531 C 21.226562 17.5625 21.164062 17.480469 21.0625 17.480469 C 20.980469 17.480469 20.894531 17.539062 20.894531 17.644531 C 20.894531 18.035156 20.585938 18.347656 20.195312 18.347656 L 19.492188 18.347656 L 19.492188 17.4375 L 20.050781 17.4375 C 20.730469 17.4375 21.226562 16.796875 21.082031 16.15625 C 20.667969 14.359375 19.203125 13.097656 17.53125 12.871094 C 17.382812 12.851562 17.238281 12.832031 17.09375 12.832031 L 17.09375 12.4375 C 17.09375 12.355469 17.035156 12.273438 16.929688 12.273438 L 16.308594 12.273438 L 16.308594 11.324219 C 17.074219 11.550781 19.863281 11.734375 20.441406 11.734375 C 21.0625 11.734375 21.535156 11.445312 21.535156 11.054688 C 21.535156 10.660156 21.082031 10.371094 20.460938 10.371094 Z M 9.554688 15.082031 C 9.121094 15.082031 8.769531 14.730469 8.769531 14.296875 C 8.769531 13.863281 9.121094 13.511719 9.554688 13.511719 C 9.988281 13.511719 10.339844 13.863281 10.339844 14.296875 C 10.339844 14.730469 9.988281 15.082031 9.554688 15.082031 Z M 19.203125 18.324219 L 16.515625 18.324219 L 16.515625 17.417969 C 16.578125 17.417969 16.640625 17.417969 16.703125 17.417969 L 19.203125 17.417969 Z M 20.070312 17.128906 C 19.820312 17.128906 18.519531 17.128906 16.703125 17.128906 C 15.359375 17.128906 14.203125 16.175781 13.957031 14.855469 C 13.933594 14.792969 13.871094 14.730469 13.8125 14.730469 L 10.609375 14.609375 C 10.628906 14.503906 10.652344 14.421875 10.652344 14.316406 C 10.652344 14.214844 10.628906 14.113281 10.609375 14.027344 L 13.894531 13.90625 C 13.957031 13.90625 13.996094 13.863281 14.019531 13.824219 C 14.285156 13.265625 14.742188 13.160156 15.359375 13.140625 C 15.382812 13.140625 16.539062 13.160156 16.929688 13.140625 C 17.074219 13.140625 17.199219 13.140625 17.34375 13.160156 L 17.34375 15.804688 C 17.34375 15.886719 17.40625 15.972656 17.507812 15.972656 L 20.710938 15.972656 C 20.730469 16.054688 20.773438 16.15625 20.792969 16.238281 C 20.894531 16.671875 20.546875 17.128906 20.070312 17.128906 Z M 20.628906 15.621094 L 17.675781 15.621094 L 17.675781 13.183594 C 18.996094 13.429688 20.132812 14.359375 20.628906 15.621094 Z M 16.804688 12.808594 C 16.164062 12.808594 16.578125 12.808594 15.585938 12.808594 L 15.585938 12.582031 L 16.804688 12.582031 Z M 11.910156 11.40625 C 11.457031 11.40625 11.125 11.21875 11.125 11.035156 C 11.125 10.867188 11.457031 10.660156 11.910156 10.660156 C 12.53125 10.660156 15.03125 10.847656 15.835938 11.035156 C 15.03125 11.21875 12.53125 11.40625 11.910156 11.40625 Z M 20.460938 11.40625 C 19.84375 11.40625 17.34375 11.21875 16.539062 11.035156 C 17.34375 10.847656 19.84375 10.660156 20.460938 10.660156 C 20.917969 10.660156 21.246094 10.847656 21.246094 11.035156 C 21.269531 11.21875 20.917969 11.40625 20.460938 11.40625 Z M 20.460938 11.40625 " fill-opacity="1" fill-rule="nonzero"/></g><path fill="#ffffff" d="M 16.746094 14.234375 L 16.269531 14.234375 L 16.269531 13.78125 C 16.269531 13.699219 16.207031 13.617188 16.105469 13.617188 L 15.339844 13.617188 C 15.257812 13.617188 15.175781 13.679688 15.175781 13.78125 L 15.175781 14.234375 L 14.71875 14.234375 C 14.636719 14.234375 14.574219 14.296875 14.574219 14.402344 L 14.574219 15.164062 C 14.574219 15.246094 14.636719 15.332031 14.71875 15.332031 L 15.175781 15.332031 L 15.175781 15.785156 C 15.175781 15.867188 15.238281 15.949219 15.339844 15.949219 L 16.105469 15.949219 C 16.1875 15.949219 16.269531 15.886719 16.269531 15.785156 L 16.269531 15.332031 L 16.746094 15.332031 C 16.828125 15.332031 16.910156 15.269531 16.910156 15.164062 L 16.910156 14.402344 C 16.890625 14.296875 16.828125 14.234375 16.746094 14.234375 Z M 16.578125 15 L 16.105469 15 C 16.019531 15 15.9375 15.0625 15.9375 15.164062 L 15.9375 15.621094 L 15.484375 15.621094 L 15.484375 15.164062 C 15.484375 15.082031 15.421875 15 15.320312 15 L 14.863281 15 L 14.863281 14.546875 L 15.320312 14.546875 C 15.402344 14.546875 15.484375 14.484375 15.484375 14.378906 L 15.484375 13.925781 L 15.9375 13.925781 L 15.9375 14.378906 C 15.9375 14.460938 16 14.546875 16.105469 14.546875 L 16.578125 14.546875 Z M 16.578125 15 " fill-opacity="1" fill-rule="nonzero"/><path fill="#ffffff" d="M 9.90625 13.945312 C 9.84375 13.882812 9.742188 13.882812 9.679688 13.945312 L 9.535156 14.089844 L 9.390625 13.945312 C 9.328125 13.882812 9.226562 13.882812 9.164062 13.945312 C 9.101562 14.007812 9.101562 14.113281 9.164062 14.171875 L 9.328125 14.296875 L 9.183594 14.441406 C 9.121094 14.503906 9.121094 14.609375 9.183594 14.667969 C 9.246094 14.730469 9.347656 14.730469 9.410156 14.667969 L 9.554688 14.523438 L 9.699219 14.667969 C 9.742188 14.710938 9.84375 14.710938 9.90625 14.648438 C 9.96875 14.585938 9.96875 14.484375 9.90625 14.421875 L 9.761719 14.296875 L 9.90625 14.152344 C 9.96875 14.089844 9.96875 13.988281 9.90625 13.945312 Z M 9.90625 13.945312 " fill-opacity="1" fill-rule="nonzero"/></svg>