<svg xmlns="http://www.w3.org/2000/svg" xmlns:xlink="http://www.w3.org/1999/xlink" width="40" zoomAndPan="magnify" viewBox="0 0 30 30.000001" height="40" preserveAspectRatio="xMidYMid meet" version="1.0"><defs><clipPath id="b4a6e90844"><path d="M 0.484375 0 L 29.515625 0 L 29.515625 29.03125 L 0.484375 29.03125 Z M 0.484375 0 " clip-rule="nonzero"/></clipPath><clipPath id="4488531ef7"><path d="M 15 0 C 6.984375 0 0.484375 6.5 0.484375 14.515625 C 0.484375 22.53125 6.984375 29.03125 15 29.03125 C 23.015625 29.03125 29.515625 22.53125 29.515625 14.515625 C 29.515625 6.5 23.015625 0 15 0 Z M 15 0 " clip-rule="nonzero"/></clipPath><clipPath id="7c3549ddf5"><path d="M 3.035156 6.917969 L 26.984375 6.917969 L 26.984375 22.160156 L 3.035156 22.160156 Z M 3.035156 6.917969 " clip-rule="nonzero"/></clipPath></defs><g clip-path="url(#b4a6e90844)"><g clip-path="url(#4488531ef7)"><path fill="#0071b8" d="M 0.484375 0 L 29.515625 0 L 29.515625 29.03125 L 0.484375 29.03125 Z M 0.484375 0 " fill-opacity="1" fill-rule="nonzero"/></g></g><g clip-path="url(#7c3549ddf5)"><path fill="#ffffff" d="M 24.996094 6.9375 C 23.9375 6.9375 18.230469 7.316406 17.171875 7.804688 C 16.113281 7.277344 10.40625 6.9375 9.347656 6.9375 C 8.210938 6.9375 7.34375 7.464844 7.34375 8.183594 C 7.34375 8.902344 8.210938 9.429688 9.347656 9.429688 C 10.441406 9.429688 15.507812 9.089844 16.90625 8.675781 L 16.90625 10.414062 L 15.773438 10.414062 C 15.621094 10.414062 15.472656 10.527344 15.472656 10.71875 L 15.472656 11.433594 C 14.335938 11.472656 13.390625 11.738281 12.785156 12.832031 L 6.699219 13.023438 C 6.324219 12.492188 5.71875 12.117188 5.039062 12.117188 C 3.941406 12.117188 3.035156 13.023438 3.035156 14.117188 C 3.035156 15.214844 3.941406 16.121094 5.039062 16.121094 C 5.753906 16.121094 6.359375 15.746094 6.699219 15.214844 L 12.558594 15.441406 C 13.089844 17.710938 14.941406 19.410156 17.210938 19.75 L 17.210938 21.492188 L 16.1875 21.492188 C 16.039062 21.492188 15.886719 21.605469 15.886719 21.792969 C 15.886719 21.980469 16 22.09375 16.1875 22.09375 L 24.542969 22.09375 C 25.5625 22.09375 26.394531 21.265625 26.394531 20.242188 C 26.394531 20.09375 26.28125 19.941406 26.09375 19.941406 C 25.941406 19.941406 25.789062 20.054688 25.789062 20.242188 C 25.789062 20.960938 25.222656 21.527344 24.503906 21.527344 L 23.21875 21.527344 L 23.21875 19.863281 L 24.242188 19.863281 C 25.488281 19.863281 26.394531 18.691406 26.132812 17.519531 C 25.375 14.234375 22.691406 11.925781 19.628906 11.511719 C 19.363281 11.472656 19.101562 11.433594 18.835938 11.433594 L 18.835938 10.71875 C 18.835938 10.566406 18.722656 10.414062 18.53125 10.414062 L 17.398438 10.414062 L 17.398438 8.675781 C 18.796875 9.089844 23.902344 9.429688 24.960938 9.429688 C 26.09375 9.429688 26.960938 8.902344 26.960938 8.183594 C 26.960938 7.464844 26.132812 6.9375 24.996094 6.9375 Z M 5.039062 15.554688 C 4.242188 15.554688 3.601562 14.914062 3.601562 14.117188 C 3.601562 13.324219 4.242188 12.683594 5.039062 12.683594 C 5.832031 12.683594 6.472656 13.324219 6.472656 14.117188 C 6.472656 14.914062 5.832031 15.554688 5.039062 15.554688 Z M 22.691406 21.492188 L 17.777344 21.492188 L 17.777344 19.828125 C 17.890625 19.828125 18.003906 19.828125 18.117188 19.828125 L 22.691406 19.828125 Z M 24.277344 19.296875 C 23.824219 19.296875 21.445312 19.296875 18.117188 19.296875 C 15.660156 19.296875 13.542969 17.558594 13.089844 15.140625 C 13.050781 15.027344 12.9375 14.914062 12.824219 14.914062 L 6.964844 14.6875 C 7.003906 14.496094 7.039062 14.347656 7.039062 14.15625 C 7.039062 13.96875 7.003906 13.777344 6.964844 13.628906 L 12.976562 13.402344 C 13.089844 13.402344 13.164062 13.324219 13.203125 13.25 C 13.695312 12.230469 14.527344 12.039062 15.660156 12.003906 C 15.699219 12.003906 17.816406 12.039062 18.53125 12.003906 C 18.796875 12.003906 19.023438 12.003906 19.289062 12.039062 L 19.289062 16.878906 C 19.289062 17.03125 19.402344 17.179688 19.589844 17.179688 L 25.449219 17.179688 C 25.488281 17.332031 25.5625 17.519531 25.601562 17.671875 C 25.789062 18.464844 25.148438 19.296875 24.277344 19.296875 Z M 25.300781 16.539062 L 19.894531 16.539062 L 19.894531 12.078125 C 22.3125 12.53125 24.390625 14.234375 25.300781 16.539062 Z M 18.304688 11.398438 C 17.132812 11.398438 17.890625 11.398438 16.074219 11.398438 L 16.074219 10.980469 L 18.304688 10.980469 Z M 9.347656 8.828125 C 8.515625 8.828125 7.910156 8.488281 7.910156 8.144531 C 7.910156 7.84375 8.515625 7.464844 9.347656 7.464844 C 10.480469 7.464844 15.054688 7.804688 16.53125 8.144531 C 15.054688 8.488281 10.480469 8.828125 9.347656 8.828125 Z M 24.996094 8.828125 C 23.863281 8.828125 19.289062 8.488281 17.816406 8.144531 C 19.289062 7.804688 23.863281 7.464844 24.996094 7.464844 C 25.828125 7.464844 26.433594 7.804688 26.433594 8.144531 C 26.472656 8.488281 25.828125 8.828125 24.996094 8.828125 Z M 24.996094 8.828125 " fill-opacity="1" fill-rule="nonzero"/></g><path fill="#ffffff" d="M 18.191406 14.003906 L 17.324219 14.003906 L 17.324219 13.175781 C 17.324219 13.023438 17.210938 12.871094 17.019531 12.871094 L 15.621094 12.871094 C 15.472656 12.871094 15.320312 12.984375 15.320312 13.175781 L 15.320312 14.003906 L 14.488281 14.003906 C 14.335938 14.003906 14.222656 14.117188 14.222656 14.308594 L 14.222656 15.707031 C 14.222656 15.859375 14.335938 16.007812 14.488281 16.007812 L 15.320312 16.007812 L 15.320312 16.839844 C 15.320312 16.992188 15.433594 17.144531 15.621094 17.144531 L 17.019531 17.144531 C 17.171875 17.144531 17.324219 17.03125 17.324219 16.839844 L 17.324219 16.007812 L 18.191406 16.007812 C 18.34375 16.007812 18.496094 15.894531 18.496094 15.707031 L 18.496094 14.308594 C 18.457031 14.117188 18.34375 14.003906 18.191406 14.003906 Z M 17.890625 15.40625 L 17.019531 15.40625 C 16.871094 15.40625 16.71875 15.519531 16.71875 15.707031 L 16.71875 16.539062 L 15.886719 16.539062 L 15.886719 15.707031 C 15.886719 15.554688 15.773438 15.40625 15.585938 15.40625 L 14.753906 15.40625 L 14.753906 14.574219 L 15.585938 14.574219 C 15.734375 14.574219 15.886719 14.460938 15.886719 14.269531 L 15.886719 13.4375 L 16.71875 13.4375 L 16.71875 14.269531 C 16.71875 14.421875 16.832031 14.574219 17.019531 14.574219 L 17.890625 14.574219 Z M 17.890625 15.40625 " fill-opacity="1" fill-rule="nonzero"/><path fill="#ffffff" d="M 5.679688 13.476562 C 5.566406 13.363281 5.378906 13.363281 5.265625 13.476562 L 5 13.742188 L 4.734375 13.476562 C 4.621094 13.363281 4.433594 13.363281 4.320312 13.476562 C 4.207031 13.589844 4.207031 13.777344 4.320312 13.890625 L 4.621094 14.117188 L 4.355469 14.382812 C 4.242188 14.496094 4.242188 14.6875 4.355469 14.800781 C 4.46875 14.914062 4.660156 14.914062 4.773438 14.800781 L 5.039062 14.535156 L 5.300781 14.800781 C 5.378906 14.875 5.566406 14.875 5.679688 14.761719 C 5.792969 14.648438 5.792969 14.460938 5.679688 14.347656 L 5.414062 14.117188 L 5.679688 13.855469 C 5.792969 13.742188 5.792969 13.550781 5.679688 13.476562 Z M 5.679688 13.476562 " fill-opacity="1" fill-rule="nonzero"/></svg>