<svg xmlns="http://www.w3.org/2000/svg" xmlns:xlink="http://www.w3.org/1999/xlink" width="40" zoomAndPan="magnify" viewBox="0 0 30 30.000001" height="40" preserveAspectRatio="xMidYMid meet" version="1.0"><defs><clipPath id="20894e4de8"><path d="M 0.484375 0 L 29.515625 0 L 29.515625 29.03125 L 0.484375 29.03125 Z M 0.484375 0 " clip-rule="nonzero"/></clipPath><clipPath id="6d655d2021"><path d="M 15 0 C 6.984375 0 0.484375 6.5 0.484375 14.515625 C 0.484375 22.53125 6.984375 29.03125 15 29.03125 C 23.015625 29.03125 29.515625 22.53125 29.515625 14.515625 C 29.515625 6.5 23.015625 0 15 0 Z M 15 0 " clip-rule="nonzero"/></clipPath><clipPath id="51f1b282d2"><path d="M 4.242188 5.796875 L 20.9375 5.796875 L 20.9375 22.492188 L 4.242188 22.492188 Z M 4.242188 5.796875 " clip-rule="nonzero"/></clipPath><clipPath id="47ceb156f6"><path d="M 12.203125 4.136719 L 28.898438 4.136719 L 28.898438 20.101562 L 12.203125 20.101562 Z M 12.203125 4.136719 " clip-rule="nonzero"/></clipPath></defs><g clip-path="url(#20894e4de8)"><g clip-path="url(#6d655d2021)"><path fill="#0071b8" d="M 0.484375 0 L 29.515625 0 L 29.515625 29.03125 L 0.484375 29.03125 Z M 0.484375 0 " fill-opacity="1" fill-rule="nonzero"/></g></g><g clip-path="url(#51f1b282d2)"><path fill="#ffffff" d="M 17.226562 11.390625 C 18.683594 10.234375 19.816406 8.714844 20.507812 6.984375 C 20.671875 6.566406 20.46875 6.09375 20.050781 5.929688 C 19.859375 5.851562 19.644531 5.851562 19.449219 5.929688 C 17.71875 6.617188 16.199219 7.75 15.042969 9.210938 C 14.976562 9.292969 14.859375 9.332031 14.757812 9.300781 L 5.886719 6.773438 C 5.789062 6.746094 5.6875 6.773438 5.621094 6.84375 L 4.453125 8.007812 C 4.242188 8.21875 4.242188 8.5625 4.453125 8.777344 C 4.496094 8.820312 4.550781 8.855469 4.609375 8.882812 L 11.769531 12.238281 C 11.90625 12.300781 11.964844 12.464844 11.902344 12.597656 C 11.890625 12.621094 11.875 12.644531 11.859375 12.660156 C 10.347656 14.417969 8.914062 16.242188 7.570312 18.128906 C 7.507812 18.214844 7.402344 18.257812 7.296875 18.238281 L 4.996094 17.765625 C 4.882812 17.742188 4.769531 17.792969 4.707031 17.890625 L 4.320312 18.53125 C 4.242188 18.660156 4.28125 18.828125 4.410156 18.90625 C 4.417969 18.910156 4.425781 18.914062 4.429688 18.914062 L 6.414062 19.902344 C 6.464844 19.929688 6.507812 19.96875 6.535156 20.023438 L 7.519531 22.003906 C 7.585938 22.140625 7.75 22.195312 7.882812 22.125 C 7.890625 22.125 7.898438 22.121094 7.902344 22.117188 L 8.546875 21.726562 C 8.644531 21.667969 8.695312 21.554688 8.671875 21.441406 L 8.199219 19.140625 C 8.179688 19.035156 8.222656 18.925781 8.308594 18.863281 C 10.195312 17.519531 12.019531 16.089844 13.773438 14.574219 C 13.890625 14.476562 14.058594 14.488281 14.15625 14.601562 C 14.175781 14.621094 14.1875 14.640625 14.195312 14.664062 L 17.554688 21.828125 C 17.679688 22.097656 18.003906 22.214844 18.273438 22.085938 C 18.332031 22.0625 18.382812 22.027344 18.429688 21.980469 L 19.59375 20.816406 C 19.664062 20.746094 19.691406 20.644531 19.664062 20.550781 L 17.136719 11.679688 C 17.105469 11.574219 17.144531 11.460938 17.230469 11.390625 L 17.226562 11.390625 " fill-opacity="1" fill-rule="nonzero"/></g><g clip-path="url(#47ceb156f6)"><path fill="#ffffff" d="M 27.164062 4.5625 C 27.578125 4.542969 27.929688 4.863281 27.953125 5.28125 C 27.957031 5.386719 27.941406 5.496094 27.898438 5.59375 C 27.257812 7.199219 26.210938 8.605469 24.859375 9.679688 C 24.78125 9.742188 24.746094 9.847656 24.773438 9.945312 L 27.117188 18.167969 C 27.140625 18.253906 27.117188 18.347656 27.050781 18.414062 L 25.96875 19.496094 C 25.773438 19.691406 25.457031 19.691406 25.261719 19.496094 C 25.21875 19.453125 25.1875 19.40625 25.160156 19.351562 L 22.050781 12.714844 C 21.992188 12.585938 21.839844 12.535156 21.71875 12.59375 C 21.695312 12.601562 21.675781 12.613281 21.65625 12.628906 C 20.03125 14.03125 18.339844 15.359375 16.589844 16.605469 C 16.511719 16.664062 16.46875 16.761719 16.492188 16.859375 L 16.929688 18.992188 C 16.949219 19.097656 16.902344 19.203125 16.8125 19.257812 L 16.21875 19.621094 C 16.097656 19.691406 15.945312 19.65625 15.871094 19.535156 C 15.867188 19.53125 15.863281 19.523438 15.863281 19.519531 L 14.949219 17.679688 C 14.925781 17.632812 14.882812 17.589844 14.835938 17.566406 L 13 16.652344 C 12.875 16.59375 12.824219 16.441406 12.882812 16.316406 C 12.886719 16.3125 12.890625 16.304688 12.894531 16.296875 L 13.257812 15.703125 C 13.3125 15.613281 13.417969 15.566406 13.519531 15.585938 L 15.652344 16.023438 C 15.75 16.042969 15.851562 16.003906 15.910156 15.925781 C 17.15625 14.175781 18.480469 12.484375 19.882812 10.855469 C 19.976562 10.753906 19.964844 10.59375 19.859375 10.503906 C 19.839844 10.488281 19.820312 10.476562 19.800781 10.464844 L 13.160156 7.355469 C 12.910156 7.238281 12.800781 6.9375 12.917969 6.683594 C 12.945312 6.632812 12.980469 6.585938 13.019531 6.542969 L 14.101562 5.464844 C 14.164062 5.398438 14.257812 5.375 14.347656 5.398438 L 22.570312 7.742188 C 22.664062 7.769531 22.769531 7.734375 22.835938 7.65625 C 23.90625 6.304688 25.316406 5.257812 26.917969 4.617188 C 26.996094 4.585938 27.078125 4.570312 27.160156 4.5625 Z M 27.136719 4.136719 C 27.007812 4.144531 26.878906 4.171875 26.757812 4.21875 C 25.125 4.871094 23.683594 5.933594 22.570312 7.296875 L 14.460938 4.988281 C 14.226562 4.921875 13.96875 4.988281 13.796875 5.160156 L 12.714844 6.242188 C 12.351562 6.605469 12.351562 7.195312 12.714844 7.558594 C 12.792969 7.632812 12.882812 7.695312 12.980469 7.742188 L 19.40625 10.753906 C 18.078125 12.308594 16.816406 13.917969 15.625 15.582031 L 13.605469 15.167969 C 13.324219 15.109375 13.035156 15.234375 12.886719 15.480469 L 12.527344 16.078125 C 12.332031 16.398438 12.433594 16.816406 12.753906 17.007812 C 12.769531 17.019531 12.789062 17.027344 12.804688 17.035156 L 14.589844 17.925781 L 15.476562 19.707031 C 15.644531 20.042969 16.050781 20.179688 16.386719 20.015625 C 16.402344 20.003906 16.417969 19.996094 16.4375 19.988281 L 17.03125 19.625 C 17.277344 19.476562 17.402344 19.1875 17.34375 18.90625 L 16.929688 16.886719 C 18.59375 15.699219 20.207031 14.4375 21.757812 13.105469 L 24.769531 19.535156 C 24.988281 20 25.542969 20.199219 26.007812 19.984375 C 26.105469 19.9375 26.195312 19.875 26.273438 19.796875 L 27.351562 18.71875 C 27.527344 18.542969 27.589844 18.289062 27.523438 18.050781 L 25.214844 9.941406 C 26.582031 8.832031 27.640625 7.390625 28.292969 5.753906 C 28.535156 5.148438 28.242188 4.460938 27.632812 4.21875 C 27.476562 4.15625 27.308594 4.128906 27.136719 4.136719 " fill-opacity="1" fill-rule="nonzero"/></g></svg>