<svg xmlns="http://www.w3.org/2000/svg" xmlns:xlink="http://www.w3.org/1999/xlink" width="40" zoomAndPan="magnify" viewBox="0 0 30 30.000001" height="40" preserveAspectRatio="xMidYMid meet" version="1.0"><defs><clipPath id="96c440ebbc"><path d="M 7.046875 6.5625 L 22.953125 6.5625 L 22.953125 22.46875 L 7.046875 22.46875 Z M 7.046875 6.5625 " clip-rule="nonzero"/></clipPath><clipPath id="29b9ce988a"><path d="M 15 6.5625 C 10.605469 6.5625 7.046875 10.125 7.046875 14.515625 C 7.046875 18.910156 10.605469 22.46875 15 22.46875 C 19.394531 22.46875 22.953125 18.910156 22.953125 14.515625 C 22.953125 10.125 19.394531 6.5625 15 6.5625 Z M 15 6.5625 " clip-rule="nonzero"/></clipPath><clipPath id="f513e8262f"><path d="M 9.105469 9.738281 L 17.816406 9.738281 L 17.816406 18.449219 L 9.105469 18.449219 Z M 9.105469 9.738281 " clip-rule="nonzero"/></clipPath><clipPath id="188ae70622"><path d="M 13.46875 8.828125 L 22.179688 8.828125 L 22.179688 17.539062 L 13.46875 17.539062 Z M 13.46875 8.828125 " clip-rule="nonzero"/></clipPath></defs><g clip-path="url(#96c440ebbc)"><g clip-path="url(#29b9ce988a)"><path fill="#0071b8" d="M 7.046875 6.5625 L 22.953125 6.5625 L 22.953125 22.46875 L 7.046875 22.46875 Z M 7.046875 6.5625 " fill-opacity="1" fill-rule="nonzero"/></g></g><g clip-path="url(#f513e8262f)"><path fill="#ffffff" d="M 16.21875 12.804688 C 17.019531 12.171875 17.640625 11.335938 18.015625 10.390625 C 18.109375 10.160156 17.996094 9.902344 17.769531 9.8125 C 17.664062 9.769531 17.542969 9.769531 17.4375 9.8125 C 16.488281 10.1875 15.660156 10.808594 15.023438 11.609375 C 14.988281 11.65625 14.925781 11.675781 14.867188 11.660156 L 10.007812 10.273438 C 9.953125 10.257812 9.898438 10.273438 9.859375 10.3125 L 9.222656 10.949219 C 9.105469 11.066406 9.105469 11.253906 9.222656 11.371094 C 9.246094 11.394531 9.273438 11.414062 9.304688 11.429688 L 13.230469 13.269531 C 13.304688 13.304688 13.335938 13.390625 13.300781 13.464844 C 13.296875 13.476562 13.289062 13.488281 13.28125 13.5 C 12.449219 14.460938 11.667969 15.460938 10.929688 16.496094 C 10.894531 16.542969 10.835938 16.566406 10.777344 16.554688 L 9.519531 16.296875 C 9.457031 16.285156 9.394531 16.3125 9.359375 16.363281 L 9.148438 16.71875 C 9.105469 16.785156 9.128906 16.878906 9.195312 16.921875 C 9.199219 16.921875 9.203125 16.925781 9.207031 16.925781 L 10.296875 17.464844 C 10.324219 17.480469 10.347656 17.503906 10.363281 17.535156 L 10.902344 18.621094 C 10.9375 18.695312 11.027344 18.722656 11.101562 18.6875 C 11.105469 18.683594 11.109375 18.683594 11.113281 18.679688 L 11.464844 18.46875 C 11.515625 18.433594 11.546875 18.371094 11.53125 18.308594 L 11.273438 17.050781 C 11.261719 16.992188 11.285156 16.933594 11.332031 16.898438 C 12.367188 16.160156 13.367188 15.378906 14.328125 14.546875 C 14.390625 14.496094 14.484375 14.5 14.539062 14.5625 C 14.546875 14.574219 14.554688 14.585938 14.558594 14.597656 L 16.398438 18.523438 C 16.46875 18.671875 16.644531 18.734375 16.792969 18.664062 C 16.824219 18.652344 16.855469 18.632812 16.878906 18.605469 L 17.519531 17.96875 C 17.554688 17.929688 17.570312 17.875 17.554688 17.824219 L 16.171875 12.960938 C 16.152344 12.902344 16.175781 12.84375 16.222656 12.804688 L 16.21875 12.804688 " fill-opacity="1" fill-rule="nonzero"/></g><g clip-path="url(#188ae70622)"><path fill="#ffffff" d="M 21.664062 9.0625 C 21.890625 9.050781 22.085938 9.226562 22.097656 9.457031 C 22.101562 9.515625 22.089844 9.574219 22.070312 9.628906 C 21.71875 10.507812 21.144531 11.277344 20.402344 11.867188 C 20.359375 11.902344 20.339844 11.960938 20.355469 12.011719 L 21.640625 16.519531 C 21.652344 16.566406 21.640625 16.617188 21.605469 16.652344 L 21.011719 17.246094 C 20.90625 17.351562 20.730469 17.351562 20.621094 17.246094 C 20.601562 17.222656 20.582031 17.195312 20.566406 17.167969 L 18.863281 13.527344 C 18.832031 13.460938 18.75 13.429688 18.679688 13.464844 C 18.667969 13.46875 18.660156 13.476562 18.648438 13.484375 C 17.757812 14.25 16.828125 14.980469 15.871094 15.664062 C 15.828125 15.695312 15.804688 15.75 15.816406 15.800781 L 16.054688 16.96875 C 16.066406 17.027344 16.042969 17.085938 15.992188 17.117188 L 15.667969 17.3125 C 15.601562 17.355469 15.515625 17.332031 15.476562 17.269531 C 15.476562 17.265625 15.472656 17.261719 15.472656 17.257812 L 14.972656 16.25 C 14.957031 16.222656 14.9375 16.203125 14.910156 16.1875 L 13.902344 15.6875 C 13.835938 15.65625 13.808594 15.570312 13.839844 15.503906 C 13.84375 15.5 13.84375 15.496094 13.84375 15.492188 L 14.042969 15.167969 C 14.074219 15.117188 14.132812 15.09375 14.1875 15.105469 L 15.359375 15.34375 C 15.410156 15.355469 15.464844 15.332031 15.496094 15.289062 C 16.179688 14.328125 16.90625 13.402344 17.675781 12.511719 C 17.726562 12.453125 17.71875 12.367188 17.664062 12.316406 C 17.652344 12.308594 17.640625 12.300781 17.628906 12.296875 L 13.992188 10.59375 C 13.855469 10.527344 13.796875 10.363281 13.859375 10.226562 C 13.875 10.195312 13.890625 10.171875 13.914062 10.148438 L 14.507812 9.554688 C 14.542969 9.519531 14.59375 9.507812 14.640625 9.519531 L 19.148438 10.804688 C 19.199219 10.820312 19.257812 10.800781 19.292969 10.757812 C 19.878906 10.015625 20.652344 9.441406 21.53125 9.09375 C 21.574219 9.074219 21.617188 9.066406 21.664062 9.0625 Z M 21.652344 8.828125 C 21.582031 8.832031 21.511719 8.847656 21.445312 8.875 C 20.546875 9.230469 19.757812 9.8125 19.148438 10.5625 L 14.703125 9.296875 C 14.574219 9.257812 14.433594 9.292969 14.339844 9.390625 L 13.746094 9.980469 C 13.550781 10.179688 13.550781 10.503906 13.746094 10.703125 C 13.789062 10.746094 13.839844 10.78125 13.890625 10.804688 L 17.414062 12.453125 C 16.6875 13.304688 15.996094 14.1875 15.34375 15.101562 L 14.234375 14.875 C 14.082031 14.84375 13.925781 14.910156 13.84375 15.046875 L 13.644531 15.371094 C 13.539062 15.546875 13.59375 15.777344 13.769531 15.882812 C 13.777344 15.890625 13.789062 15.894531 13.796875 15.898438 L 14.773438 16.382812 L 15.261719 17.363281 C 15.351562 17.546875 15.574219 17.621094 15.761719 17.53125 C 15.769531 17.527344 15.777344 17.519531 15.785156 17.515625 L 16.113281 17.316406 C 16.246094 17.234375 16.316406 17.078125 16.285156 16.921875 L 16.058594 15.816406 C 16.96875 15.164062 17.851562 14.472656 18.703125 13.742188 L 20.355469 17.265625 C 20.472656 17.523438 20.777344 17.632812 21.03125 17.511719 C 21.085938 17.488281 21.136719 17.453125 21.175781 17.410156 L 21.769531 16.820312 C 21.863281 16.722656 21.898438 16.585938 21.863281 16.453125 L 20.597656 12.011719 C 21.347656 11.402344 21.925781 10.609375 22.285156 9.714844 C 22.417969 9.382812 22.253906 9.007812 21.921875 8.875 C 21.835938 8.839844 21.746094 8.824219 21.652344 8.828125 " fill-opacity="1" fill-rule="nonzero"/></g></svg>