<svg xmlns="http://www.w3.org/2000/svg" xmlns:xlink="http://www.w3.org/1999/xlink" width="40" zoomAndPan="magnify" viewBox="0 0 30 30.000001" height="40" preserveAspectRatio="xMidYMid meet" version="1.0"><defs><clipPath id="d13e0f8e03"><path d="M 0.484375 0 L 29.515625 0 L 29.515625 29.03125 L 0.484375 29.03125 Z M 0.484375 0 " clip-rule="nonzero"/></clipPath><clipPath id="ee6588e6cc"><path d="M 15 0 C 6.984375 0 0.484375 6.5 0.484375 14.515625 C 0.484375 22.53125 6.984375 29.03125 15 29.03125 C 23.015625 29.03125 29.515625 22.53125 29.515625 14.515625 C 29.515625 6.5 23.015625 0 15 0 Z M 15 0 " clip-rule="nonzero"/></clipPath><clipPath id="5a76ad8631"><path d="M 20.371094 9.925781 L 27.761719 9.925781 L 27.761719 16.328125 L 20.371094 16.328125 Z M 20.371094 9.925781 " clip-rule="nonzero"/></clipPath><clipPath id="87a137d4dd"><path d="M 5.992188 5.890625 L 24.171875 5.890625 L 24.171875 23.136719 L 5.992188 23.136719 Z M 5.992188 5.890625 " clip-rule="nonzero"/></clipPath></defs><g clip-path="url(#d13e0f8e03)"><g clip-path="url(#ee6588e6cc)"><path fill="#0071b8" d="M 0.484375 0 L 29.515625 0 L 29.515625 29.03125 L 0.484375 29.03125 Z M 0.484375 0 " fill-opacity="1" fill-rule="nonzero"/></g></g><g clip-path="url(#5a76ad8631)"><path fill="#ffffff" d="M 27.535156 10.441406 C 27.195312 10.023438 26.652344 9.785156 26.1875 10.148438 C 26.070312 10.242188 25.953125 10.335938 25.835938 10.429688 C 25.25 10.890625 24.664062 11.351562 24.082031 11.8125 C 23.40625 12.34375 22.730469 12.878906 22.054688 13.410156 C 21.824219 13.59375 21.597656 13.773438 21.367188 13.957031 C 21.273438 14.027344 21.132812 14.105469 21.070312 14.210938 C 20.917969 14.46875 20.84375 14.804688 20.738281 15.082031 C 20.628906 15.367188 20.519531 15.65625 20.410156 15.941406 C 20.355469 16.09375 20.507812 16.308594 20.675781 16.285156 C 21.265625 16.210938 21.851562 16.136719 22.441406 16.0625 C 22.476562 16.054688 22.507812 16.046875 22.539062 16.03125 C 22.570312 16.023438 22.605469 16.003906 22.636719 15.980469 C 23.640625 15.1875 24.640625 14.398438 25.644531 13.605469 C 26.222656 13.148438 26.800781 12.691406 27.378906 12.238281 C 27.492188 12.148438 27.601562 12.0625 27.714844 11.972656 C 28.25 11.550781 27.871094 10.847656 27.535156 10.441406 " fill-opacity="1" fill-rule="nonzero"/></g><g clip-path="url(#87a137d4dd)"><path fill="#ffffff" d="M 24.136719 16.160156 C 24.136719 15.785156 23.558594 15.785156 23.558594 16.160156 C 23.558594 16.695312 23.558594 17.230469 23.558594 17.765625 C 23.558594 18.753906 22.757812 19.546875 21.773438 19.5625 C 21.136719 19.574219 20.5 19.5625 19.863281 19.5625 C 17.03125 19.5625 14.195312 19.5625 11.363281 19.5625 C 10.671875 19.5625 9.976562 19.5625 9.285156 19.5625 C 9.132812 19.5625 9.046875 19.675781 8.949219 19.773438 C 8.769531 19.953125 8.589844 20.132812 8.410156 20.3125 C 7.890625 20.832031 7.371094 21.351562 6.851562 21.867188 C 6.757812 21.960938 6.664062 22.054688 6.570312 22.152344 C 6.570312 20.382812 6.570312 18.613281 6.570312 16.847656 C 6.570312 14.476562 6.570312 12.101562 6.570312 9.730469 C 6.570312 9.296875 6.570312 8.863281 6.570312 8.429688 C 6.570312 7.808594 6.761719 7.273438 7.25 6.863281 C 7.863281 6.347656 8.808594 6.480469 9.554688 6.480469 C 12.339844 6.480469 15.121094 6.480469 17.90625 6.480469 C 19.003906 6.480469 20.101562 6.480469 21.203125 6.480469 C 21.390625 6.480469 21.582031 6.480469 21.769531 6.480469 C 22.726562 6.480469 23.511719 7.25 23.558594 8.199219 C 23.597656 9.121094 23.558594 10.054688 23.558594 10.976562 C 23.558594 11.351562 24.136719 11.351562 24.136719 10.976562 C 24.136719 10.433594 24.136719 9.890625 24.136719 9.34375 C 24.136719 8.746094 24.203125 8.085938 24.015625 7.507812 C 23.699219 6.558594 22.769531 5.898438 21.773438 5.898438 C 21.589844 5.898438 21.40625 5.898438 21.222656 5.898438 C 18.617188 5.898438 16.015625 5.898438 13.410156 5.898438 C 12.132812 5.898438 10.859375 5.898438 9.582031 5.898438 C 8.78125 5.898438 7.929688 5.808594 7.195312 6.203125 C 6.441406 6.613281 5.992188 7.449219 5.992188 8.296875 C 5.992188 8.628906 5.992188 8.960938 5.992188 9.292969 C 5.992188 10.703125 5.992188 12.113281 5.992188 13.527344 C 5.992188 15.339844 5.992188 17.15625 5.992188 18.972656 C 5.992188 20.265625 5.992188 21.558594 5.992188 22.851562 C 5.992188 23.101562 6.308594 23.234375 6.484375 23.054688 C 7.457031 22.085938 8.429688 21.113281 9.398438 20.144531 C 11.402344 20.144531 13.40625 20.144531 15.410156 20.144531 C 17.53125 20.144531 19.648438 20.144531 21.769531 20.144531 C 22.910156 20.144531 23.914062 19.300781 24.101562 18.175781 C 24.160156 17.832031 24.136719 17.472656 24.136719 17.128906 C 24.136719 16.804688 24.136719 16.480469 24.136719 16.160156 " fill-opacity="1" fill-rule="nonzero"/></g><path fill="#ffffff" d="M 20.855469 9.21875 C 18.742188 9.21875 16.625 9.21875 14.507812 9.21875 C 12.746094 9.21875 10.984375 9.21875 9.222656 9.21875 C 8.476562 9.21875 8.476562 10.378906 9.222656 10.378906 C 11.339844 10.378906 13.457031 10.378906 15.570312 10.378906 C 17.332031 10.378906 19.09375 10.378906 20.855469 10.378906 C 21.605469 10.378906 21.605469 9.21875 20.855469 9.21875 " fill-opacity="1" fill-rule="nonzero"/><path fill="#ffffff" d="M 19.179688 15.707031 C 16.929688 15.707031 14.679688 15.707031 12.429688 15.707031 C 11.359375 15.707031 10.292969 15.707031 9.222656 15.707031 C 8.476562 15.707031 8.476562 16.867188 9.222656 16.867188 C 11.472656 16.867188 13.726562 16.867188 15.976562 16.867188 C 17.042969 16.867188 18.113281 16.867188 19.179688 16.867188 C 19.925781 16.867188 19.925781 15.707031 19.179688 15.707031 " fill-opacity="1" fill-rule="nonzero"/><path fill="#ffffff" d="M 19.179688 12.550781 C 16.929688 12.550781 14.679688 12.550781 12.429688 12.550781 C 11.359375 12.550781 10.292969 12.550781 9.222656 12.550781 C 8.476562 12.550781 8.476562 13.710938 9.222656 13.710938 C 11.472656 13.710938 13.726562 13.710938 15.976562 13.710938 C 17.042969 13.710938 18.113281 13.710938 19.179688 13.710938 C 19.925781 13.710938 19.925781 12.550781 19.179688 12.550781 " fill-opacity="1" fill-rule="nonzero"/></svg>