<svg xmlns="http://www.w3.org/2000/svg" xmlns:xlink="http://www.w3.org/1999/xlink" width="40" zoomAndPan="magnify" viewBox="0 0 30 30.000001" height="40" preserveAspectRatio="xMidYMid meet" version="1.0"><defs><clipPath id="0cdebb5968"><path d="M 7.0625 6.578125 L 22.9375 6.578125 L 22.9375 22.457031 L 7.0625 22.457031 Z M 7.0625 6.578125 " clip-rule="nonzero"/></clipPath><clipPath id="8c7e53ab20"><path d="M 15 6.578125 C 10.617188 6.578125 7.0625 10.132812 7.0625 14.515625 C 7.0625 18.902344 10.617188 22.457031 15 22.457031 C 19.382812 22.457031 22.9375 18.902344 22.9375 14.515625 C 22.9375 10.132812 19.382812 6.578125 15 6.578125 Z M 15 6.578125 " clip-rule="nonzero"/></clipPath><clipPath id="80b5bf49ba"><path d="M 17.933594 12.003906 L 22.09375 12.003906 L 22.09375 15.5 L 17.933594 15.5 Z M 17.933594 12.003906 " clip-rule="nonzero"/></clipPath><clipPath id="053bbedd03"><path d="M 10.078125 9.796875 L 20 9.796875 L 20 19.222656 L 10.078125 19.222656 Z M 10.078125 9.796875 " clip-rule="nonzero"/></clipPath></defs><g clip-path="url(#0cdebb5968)"><g clip-path="url(#8c7e53ab20)"><path fill="#0071b8" d="M 7.0625 6.578125 L 22.9375 6.578125 L 22.9375 22.457031 L 7.0625 22.457031 Z M 7.0625 6.578125 " fill-opacity="1" fill-rule="nonzero"/></g></g><g clip-path="url(#80b5bf49ba)"><path fill="#ffffff" d="M 21.851562 12.285156 C 21.664062 12.058594 21.367188 11.925781 21.113281 12.125 C 21.050781 12.175781 20.984375 12.226562 20.921875 12.277344 C 20.601562 12.53125 20.28125 12.78125 19.960938 13.035156 C 19.59375 13.324219 19.226562 13.617188 18.855469 13.90625 C 18.730469 14.007812 18.605469 14.105469 18.480469 14.203125 C 18.429688 14.246094 18.351562 14.285156 18.316406 14.34375 C 18.234375 14.484375 18.191406 14.667969 18.136719 14.820312 C 18.078125 14.976562 18.015625 15.132812 17.957031 15.289062 C 17.925781 15.375 18.007812 15.492188 18.101562 15.480469 C 18.421875 15.4375 18.746094 15.394531 19.066406 15.355469 C 19.085938 15.351562 19.105469 15.347656 19.117188 15.339844 C 19.136719 15.335938 19.15625 15.324219 19.171875 15.3125 C 19.722656 14.878906 20.269531 14.445312 20.816406 14.011719 C 21.132812 13.765625 21.449219 13.515625 21.765625 13.265625 C 21.824219 13.21875 21.886719 13.167969 21.949219 13.121094 C 22.242188 12.890625 22.035156 12.507812 21.851562 12.285156 " fill-opacity="1" fill-rule="nonzero"/></g><g clip-path="url(#053bbedd03)"><path fill="#ffffff" d="M 19.992188 15.410156 C 19.992188 15.203125 19.675781 15.203125 19.675781 15.410156 C 19.675781 15.699219 19.675781 15.992188 19.675781 16.285156 C 19.675781 16.828125 19.242188 17.261719 18.703125 17.269531 C 18.355469 17.273438 18.007812 17.269531 17.660156 17.269531 C 16.109375 17.269531 14.5625 17.269531 13.015625 17.269531 C 12.636719 17.269531 12.257812 17.269531 11.878906 17.269531 C 11.796875 17.269531 11.746094 17.332031 11.695312 17.382812 C 11.597656 17.480469 11.5 17.578125 11.402344 17.679688 C 11.117188 17.960938 10.832031 18.246094 10.550781 18.527344 C 10.5 18.578125 10.449219 18.632812 10.394531 18.683594 C 10.394531 17.714844 10.394531 16.75 10.394531 15.785156 C 10.394531 14.488281 10.394531 13.191406 10.394531 11.894531 C 10.394531 11.660156 10.394531 11.421875 10.394531 11.1875 C 10.394531 10.847656 10.5 10.554688 10.765625 10.328125 C 11.101562 10.046875 11.617188 10.121094 12.027344 10.121094 C 13.546875 10.121094 15.066406 10.121094 16.589844 10.121094 C 17.1875 10.121094 17.789062 10.121094 18.390625 10.121094 C 18.492188 10.121094 18.597656 10.121094 18.699219 10.121094 C 19.222656 10.121094 19.652344 10.539062 19.675781 11.058594 C 19.699219 11.5625 19.675781 12.074219 19.675781 12.578125 C 19.675781 12.78125 19.992188 12.78125 19.992188 12.578125 C 19.992188 12.28125 19.992188 11.984375 19.992188 11.6875 C 19.992188 11.359375 20.03125 11 19.925781 10.683594 C 19.753906 10.164062 19.246094 9.804688 18.699219 9.804688 C 18.601562 9.804688 18.5 9.804688 18.402344 9.804688 C 16.976562 9.804688 15.554688 9.804688 14.132812 9.804688 C 13.433594 9.804688 12.738281 9.804688 12.042969 9.804688 C 11.601562 9.804688 11.136719 9.753906 10.738281 9.96875 C 10.324219 10.191406 10.078125 10.648438 10.078125 11.113281 C 10.078125 11.292969 10.078125 11.476562 10.078125 11.65625 C 10.078125 12.429688 10.078125 13.199219 10.078125 13.96875 C 10.078125 14.960938 10.078125 15.953125 10.078125 16.945312 C 10.078125 17.652344 10.078125 18.359375 10.078125 19.066406 C 10.078125 19.203125 10.25 19.273438 10.347656 19.175781 C 10.878906 18.644531 11.410156 18.117188 11.941406 17.585938 C 13.035156 17.585938 14.128906 17.585938 15.226562 17.585938 C 16.382812 17.585938 17.542969 17.585938 18.699219 17.585938 C 19.324219 17.585938 19.871094 17.125 19.976562 16.511719 C 20.007812 16.324219 19.992188 16.128906 19.992188 15.9375 C 19.992188 15.761719 19.992188 15.585938 19.992188 15.410156 " fill-opacity="1" fill-rule="nonzero"/></g><path fill="#ffffff" d="M 18.199219 11.617188 C 17.042969 11.617188 15.890625 11.617188 14.734375 11.617188 C 13.769531 11.617188 12.808594 11.617188 11.84375 11.617188 C 11.4375 11.617188 11.4375 12.25 11.84375 12.25 C 13 12.25 14.15625 12.25 15.3125 12.25 C 16.277344 12.25 17.238281 12.25 18.199219 12.25 C 18.609375 12.25 18.609375 11.617188 18.199219 11.617188 " fill-opacity="1" fill-rule="nonzero"/><path fill="#ffffff" d="M 17.285156 15.164062 C 16.054688 15.164062 14.824219 15.164062 13.597656 15.164062 C 13.011719 15.164062 12.429688 15.164062 11.84375 15.164062 C 11.4375 15.164062 11.4375 15.796875 11.84375 15.796875 C 13.074219 15.796875 14.304688 15.796875 15.535156 15.796875 C 16.117188 15.796875 16.699219 15.796875 17.285156 15.796875 C 17.691406 15.796875 17.691406 15.164062 17.285156 15.164062 " fill-opacity="1" fill-rule="nonzero"/><path fill="#ffffff" d="M 17.285156 13.4375 C 16.054688 13.4375 14.824219 13.4375 13.597656 13.4375 C 13.011719 13.4375 12.429688 13.4375 11.84375 13.4375 C 11.4375 13.4375 11.4375 14.070312 11.84375 14.070312 C 13.074219 14.070312 14.304688 14.070312 15.535156 14.070312 C 16.117188 14.070312 16.699219 14.070312 17.285156 14.070312 C 17.691406 14.070312 17.691406 13.4375 17.285156 13.4375 " fill-opacity="1" fill-rule="nonzero"/></svg>