<svg xmlns="http://www.w3.org/2000/svg" xmlns:xlink="http://www.w3.org/1999/xlink" width="40" zoomAndPan="magnify" viewBox="0 0 30 30.000001" height="40" preserveAspectRatio="xMidYMid meet" version="1.0"><defs><clipPath id="04109aa146"><path d="M 7.066406 6.582031 L 22.933594 6.582031 L 22.933594 22.449219 L 7.066406 22.449219 Z M 7.066406 6.582031 " clip-rule="nonzero"/></clipPath><clipPath id="81b0cbdae5"><path d="M 15 6.582031 C 10.617188 6.582031 7.066406 10.132812 7.066406 14.515625 C 7.066406 18.898438 10.617188 22.449219 15 22.449219 C 19.382812 22.449219 22.933594 18.898438 22.933594 14.515625 C 22.933594 10.132812 19.382812 6.582031 15 6.582031 Z M 15 6.582031 " clip-rule="nonzero"/></clipPath><clipPath id="faa23658dc"><path d="M 9.441406 9.390625 L 20.328125 9.390625 L 20.328125 19.554688 L 9.441406 19.554688 Z M 9.441406 9.390625 " clip-rule="nonzero"/></clipPath></defs><g clip-path="url(#04109aa146)"><g clip-path="url(#81b0cbdae5)"><path fill="#0071b8" d="M 7.066406 6.582031 L 22.933594 6.582031 L 22.933594 22.449219 L 7.066406 22.449219 Z M 7.066406 6.582031 " fill-opacity="1" fill-rule="nonzero"/></g></g><g clip-path="url(#faa23658dc)"><path fill="#ffffff" d="M 13.539062 9.390625 C 15.082031 9.390625 16.429688 10.242188 17.125 11.503906 C 19.0625 11.703125 20.554688 13.339844 20.554688 15.3125 C 20.554688 16.074219 20.332031 16.800781 19.921875 17.421875 L 19.929688 17.414062 L 19.96875 19.347656 C 19.972656 19.515625 19.804688 19.632812 19.652344 19.574219 L 19.636719 19.566406 L 18.121094 18.878906 L 18.085938 18.894531 C 17.679688 19.046875 17.246094 19.132812 16.800781 19.140625 L 16.726562 19.140625 C 15.492188 19.140625 14.359375 18.550781 13.644531 17.582031 L 13.539062 17.582031 C 13.035156 17.582031 12.542969 17.492188 12.082031 17.316406 L 12.039062 17.300781 L 10.0625 18.199219 L 10.117188 15.738281 L 10.085938 15.691406 C 9.679688 15.054688 9.457031 14.324219 9.441406 13.554688 L 9.441406 13.484375 C 9.441406 11.222656 11.277344 9.390625 13.539062 9.390625 Z M 17.367188 12.015625 C 17.390625 12.078125 17.414062 12.140625 17.433594 12.207031 C 17.433594 12.207031 17.433594 12.210938 17.433594 12.214844 C 17.449219 12.257812 17.464844 12.304688 17.476562 12.351562 C 17.480469 12.355469 17.480469 12.363281 17.484375 12.371094 C 17.503906 12.441406 17.519531 12.511719 17.539062 12.585938 C 17.539062 12.589844 17.539062 12.597656 17.542969 12.601562 C 17.546875 12.621094 17.550781 12.636719 17.550781 12.65625 C 17.554688 12.664062 17.554688 12.671875 17.558594 12.683594 C 17.566406 12.730469 17.578125 12.78125 17.585938 12.832031 C 17.585938 12.832031 17.585938 12.832031 17.585938 12.835938 L 17.585938 12.832031 C 17.589844 12.855469 17.59375 12.882812 17.597656 12.90625 C 17.597656 12.914062 17.597656 12.917969 17.597656 12.925781 C 17.601562 12.945312 17.605469 12.964844 17.605469 12.984375 C 17.605469 12.992188 17.609375 12.996094 17.609375 13.003906 C 17.613281 13.050781 17.621094 13.101562 17.625 13.148438 L 17.625 13.160156 C 17.625 13.164062 17.625 13.164062 17.625 13.167969 C 17.625 13.191406 17.628906 13.210938 17.628906 13.230469 C 17.628906 13.238281 17.628906 13.242188 17.628906 13.246094 C 17.632812 13.265625 17.632812 13.289062 17.632812 13.308594 C 17.632812 13.3125 17.632812 13.320312 17.632812 13.328125 C 17.632812 13.347656 17.636719 13.367188 17.636719 13.386719 C 17.636719 13.421875 17.636719 13.453125 17.636719 13.484375 L 17.636719 13.410156 C 17.636719 13.433594 17.636719 13.460938 17.636719 13.484375 L 17.636719 13.46875 L 17.636719 13.484375 C 17.636719 13.507812 17.636719 13.53125 17.636719 13.550781 C 17.636719 13.585938 17.636719 13.617188 17.632812 13.652344 C 17.632812 13.660156 17.632812 13.667969 17.632812 13.679688 C 17.632812 13.6875 17.632812 13.691406 17.632812 13.699219 C 17.628906 13.714844 17.628906 13.726562 17.628906 13.742188 C 17.628906 13.753906 17.628906 13.761719 17.628906 13.773438 C 17.625 13.777344 17.625 13.785156 17.625 13.789062 C 17.625 13.804688 17.625 13.824219 17.621094 13.839844 C 17.621094 13.847656 17.621094 13.855469 17.621094 13.859375 C 17.617188 13.875 17.617188 13.886719 17.617188 13.898438 C 17.617188 13.90625 17.613281 13.910156 17.613281 13.914062 C 17.601562 14.023438 17.589844 14.128906 17.570312 14.234375 C 17.566406 14.246094 17.566406 14.253906 17.5625 14.265625 C 17.5625 14.277344 17.558594 14.289062 17.554688 14.300781 C 17.554688 14.308594 17.554688 14.3125 17.550781 14.320312 C 17.40625 15.015625 17.089844 15.644531 16.640625 16.164062 C 16.632812 16.171875 16.625 16.183594 16.617188 16.191406 C 16.609375 16.199219 16.601562 16.207031 16.597656 16.214844 C 16.589844 16.222656 16.585938 16.226562 16.578125 16.234375 C 16.558594 16.257812 16.535156 16.28125 16.515625 16.304688 C 16.507812 16.3125 16.5 16.316406 16.496094 16.324219 C 16.488281 16.332031 16.484375 16.335938 16.476562 16.34375 C 15.996094 16.835938 15.394531 17.210938 14.714844 17.414062 C 14.710938 17.414062 14.710938 17.414062 14.707031 17.414062 C 14.667969 17.425781 14.628906 17.4375 14.589844 17.445312 C 14.589844 17.449219 14.585938 17.449219 14.585938 17.449219 C 14.566406 17.453125 14.550781 17.457031 14.53125 17.460938 C 14.527344 17.460938 14.523438 17.464844 14.523438 17.464844 L 14.53125 17.460938 C 14.515625 17.464844 14.496094 17.472656 14.476562 17.476562 C 14.46875 17.476562 14.464844 17.476562 14.457031 17.480469 C 14.449219 17.480469 14.441406 17.484375 14.429688 17.484375 C 14.414062 17.488281 14.394531 17.492188 14.375 17.496094 C 14.359375 17.5 14.347656 17.503906 14.335938 17.503906 C 14.332031 17.507812 14.324219 17.507812 14.320312 17.507812 C 14.289062 17.515625 14.253906 17.519531 14.222656 17.527344 L 14.273438 17.515625 C 14.253906 17.519531 14.230469 17.523438 14.207031 17.527344 L 14.226562 17.550781 C 14.84375 18.238281 15.722656 18.652344 16.671875 18.667969 L 16.726562 18.667969 C 17.183594 18.667969 17.625 18.578125 18.035156 18.402344 C 18.097656 18.378906 18.164062 18.378906 18.226562 18.40625 L 19.488281 18.980469 L 19.453125 17.347656 C 19.453125 17.308594 19.460938 17.265625 19.484375 17.230469 L 19.492188 17.210938 L 19.527344 17.160156 C 19.890625 16.617188 20.082031 15.980469 20.082031 15.3125 C 20.082031 13.6875 18.925781 12.320312 17.375 12.019531 Z M 13.539062 9.863281 C 11.539062 9.863281 9.914062 11.484375 9.914062 13.484375 C 9.914062 14.226562 10.140625 14.9375 10.550781 15.535156 L 10.59375 15.597656 L 10.554688 17.457031 L 12.03125 16.785156 L 12.128906 16.824219 C 12.570312 17.011719 13.046875 17.109375 13.539062 17.109375 C 13.613281 17.109375 13.6875 17.109375 13.757812 17.101562 C 13.773438 17.101562 13.785156 17.101562 13.796875 17.101562 L 13.757812 17.101562 C 13.777344 17.101562 13.796875 17.101562 13.816406 17.097656 L 13.796875 17.101562 C 13.816406 17.097656 13.835938 17.097656 13.855469 17.097656 L 13.816406 17.097656 C 13.835938 17.097656 13.855469 17.097656 13.871094 17.09375 L 13.855469 17.097656 C 13.910156 17.089844 13.96875 17.085938 14.027344 17.078125 C 14.035156 17.078125 14.042969 17.074219 14.050781 17.074219 L 14.027344 17.078125 C 14.042969 17.074219 14.0625 17.074219 14.078125 17.070312 L 14.050781 17.074219 C 14.070312 17.070312 14.089844 17.070312 14.109375 17.066406 L 14.078125 17.070312 C 14.097656 17.066406 14.117188 17.0625 14.136719 17.0625 L 14.109375 17.066406 C 14.125 17.0625 14.140625 17.058594 14.160156 17.058594 L 14.136719 17.0625 C 14.15625 17.058594 14.175781 17.054688 14.191406 17.050781 L 14.160156 17.058594 C 14.183594 17.054688 14.203125 17.050781 14.226562 17.046875 L 14.191406 17.050781 C 14.210938 17.046875 14.230469 17.042969 14.246094 17.039062 L 14.226562 17.046875 C 14.25 17.039062 14.269531 17.035156 14.292969 17.03125 L 14.246094 17.039062 C 14.265625 17.039062 14.285156 17.035156 14.300781 17.03125 L 14.292969 17.03125 C 15.027344 16.875 15.679688 16.5 16.175781 15.972656 C 16.183594 15.964844 16.191406 15.957031 16.195312 15.949219 L 16.175781 15.972656 C 16.1875 15.960938 16.203125 15.945312 16.214844 15.933594 L 16.195312 15.949219 C 16.210938 15.933594 16.222656 15.921875 16.238281 15.90625 L 16.214844 15.933594 C 16.226562 15.917969 16.238281 15.90625 16.25 15.890625 L 16.238281 15.90625 C 16.25 15.894531 16.261719 15.882812 16.269531 15.867188 L 16.25 15.890625 C 16.261719 15.878906 16.273438 15.867188 16.285156 15.851562 L 16.269531 15.867188 C 16.746094 15.324219 17.058594 14.640625 17.140625 13.886719 C 17.144531 13.875 17.144531 13.863281 17.144531 13.851562 L 17.140625 13.886719 C 17.148438 13.832031 17.152344 13.777344 17.15625 13.722656 C 17.160156 13.6875 17.160156 13.65625 17.160156 13.621094 C 17.164062 13.578125 17.164062 13.53125 17.164062 13.484375 C 17.164062 13.421875 17.164062 13.355469 17.160156 13.289062 C 17.160156 13.28125 17.15625 13.269531 17.15625 13.261719 L 17.160156 13.289062 C 17.15625 13.265625 17.15625 13.242188 17.152344 13.214844 L 17.15625 13.261719 C 17.152344 13.164062 17.140625 13.066406 17.128906 12.972656 C 17.125 12.964844 17.125 12.953125 17.125 12.945312 L 17.128906 12.972656 C 17.113281 12.875 17.097656 12.78125 17.074219 12.6875 C 17.074219 12.675781 17.070312 12.667969 17.070312 12.65625 L 17.074219 12.6875 C 17.070312 12.667969 17.066406 12.652344 17.0625 12.632812 L 17.070312 12.65625 C 17.0625 12.636719 17.058594 12.617188 17.054688 12.597656 L 17.0625 12.632812 C 17.058594 12.609375 17.050781 12.585938 17.046875 12.566406 L 17.054688 12.597656 C 17.050781 12.582031 17.046875 12.5625 17.039062 12.546875 L 17.046875 12.566406 C 16.996094 12.382812 16.9375 12.203125 16.859375 12.03125 C 16.859375 12.023438 16.855469 12.015625 16.851562 12.011719 L 16.859375 12.03125 C 16.851562 12.011719 16.84375 11.992188 16.832031 11.96875 C 16.832031 11.96875 16.832031 11.964844 16.832031 11.964844 L 16.832031 11.96875 C 16.257812 10.726562 15 9.863281 13.539062 9.863281 Z M 13.5625 15.058594 C 13.726562 15.058594 13.859375 15.191406 13.859375 15.355469 C 13.859375 15.519531 13.726562 15.648438 13.5625 15.648438 C 13.398438 15.648438 13.265625 15.519531 13.265625 15.355469 C 13.265625 15.191406 13.398438 15.058594 13.5625 15.058594 Z M 14.339844 13.457031 L 14.316406 13.480469 C 14.28125 13.515625 14.25 13.546875 14.21875 13.582031 C 14.035156 13.78125 13.921875 13.996094 13.859375 14.207031 C 13.828125 14.3125 13.816406 14.398438 13.8125 14.464844 L 13.8125 14.519531 C 13.8125 14.660156 13.707031 14.777344 13.570312 14.789062 C 13.433594 14.796875 13.3125 14.695312 13.292969 14.554688 L 13.292969 14.519531 C 13.289062 14.402344 13.304688 14.238281 13.359375 14.046875 C 13.445312 13.757812 13.597656 13.472656 13.839844 13.207031 C 13.867188 13.179688 13.894531 13.148438 13.921875 13.121094 L 13.964844 13.078125 C 14.429688 12.636719 14.175781 11.917969 13.585938 11.988281 C 13.304688 12.023438 13.125 12.148438 13.007812 12.339844 C 12.957031 12.417969 12.921875 12.507812 12.902344 12.59375 L 12.890625 12.632812 L 12.886719 12.664062 L 12.882812 12.6875 L 12.882812 12.695312 C 12.871094 12.84375 12.746094 12.957031 12.601562 12.945312 C 12.457031 12.933594 12.351562 12.804688 12.363281 12.652344 C 12.363281 12.609375 12.375 12.539062 12.398438 12.453125 C 12.433594 12.316406 12.488281 12.175781 12.570312 12.042969 C 12.769531 11.71875 13.085938 11.5 13.527344 11.449219 C 14.636719 11.3125 15.125 12.675781 14.339844 13.457031 Z M 14.339844 13.457031 " fill-opacity="1" fill-rule="nonzero"/></g></svg>