<svg xmlns="http://www.w3.org/2000/svg" xmlns:xlink="http://www.w3.org/1999/xlink" width="40" zoomAndPan="magnify" viewBox="0 0 30 30.000001" height="40" preserveAspectRatio="xMidYMid meet" version="1.0"><defs><clipPath id="c03c0bc2d7"><path d="M 0.484375 0 L 29.515625 0 L 29.515625 29.03125 L 0.484375 29.03125 Z M 0.484375 0 " clip-rule="nonzero"/></clipPath><clipPath id="e31a9017b1"><path d="M 15 0 C 6.984375 0 0.484375 6.5 0.484375 14.515625 C 0.484375 22.53125 6.984375 29.03125 15 29.03125 C 23.015625 29.03125 29.515625 22.53125 29.515625 14.515625 C 29.515625 6.5 23.015625 0 15 0 Z M 15 0 " clip-rule="nonzero"/></clipPath><clipPath id="69713cfd2a"><path d="M 4.832031 5.140625 L 25.152344 5.140625 L 25.152344 24 L 4.832031 24 Z M 4.832031 5.140625 " clip-rule="nonzero"/></clipPath></defs><g clip-path="url(#c03c0bc2d7)"><g clip-path="url(#e31a9017b1)"><path fill="#0071b8" d="M 0.484375 0 L 29.515625 0 L 29.515625 29.03125 L 0.484375 29.03125 Z M 0.484375 0 " fill-opacity="1" fill-rule="nonzero"/></g></g><g clip-path="url(#69713cfd2a)"><path fill="#ffffff" d="M 12.328125 5.140625 C 15.152344 5.140625 17.613281 6.703125 18.890625 9.007812 C 22.433594 9.375 25.164062 12.371094 25.164062 15.976562 C 25.164062 17.367188 24.757812 18.699219 24.003906 19.839844 L 24.015625 19.820312 L 24.09375 23.359375 C 24.101562 23.667969 23.792969 23.878906 23.511719 23.773438 L 23.480469 23.761719 L 20.710938 22.5 L 20.644531 22.527344 C 19.898438 22.808594 19.105469 22.964844 18.296875 22.980469 L 18.160156 22.980469 C 15.902344 22.980469 13.828125 21.90625 12.519531 20.128906 L 12.453125 20.128906 L 12.328125 20.132812 C 11.402344 20.132812 10.503906 19.964844 9.65625 19.640625 L 9.582031 19.613281 L 5.96875 21.257812 L 6.066406 16.757812 L 6.007812 16.667969 C 5.265625 15.507812 4.855469 14.164062 4.832031 12.761719 L 4.832031 12.636719 C 4.832031 8.496094 8.1875 5.140625 12.328125 5.140625 Z M 19.328125 9.949219 C 19.371094 10.0625 19.410156 10.175781 19.449219 10.292969 C 19.453125 10.296875 19.453125 10.304688 19.453125 10.308594 C 19.480469 10.390625 19.507812 10.472656 19.53125 10.558594 C 19.535156 10.570312 19.539062 10.582031 19.542969 10.59375 C 19.578125 10.722656 19.613281 10.855469 19.640625 10.984375 C 19.644531 10.996094 19.644531 11.007812 19.648438 11.019531 C 19.65625 11.050781 19.664062 11.082031 19.667969 11.113281 C 19.671875 11.132812 19.675781 11.148438 19.679688 11.164062 C 19.695312 11.253906 19.714844 11.347656 19.726562 11.4375 C 19.730469 11.441406 19.730469 11.441406 19.730469 11.441406 L 19.726562 11.4375 C 19.734375 11.484375 19.742188 11.53125 19.75 11.578125 C 19.75 11.585938 19.753906 11.597656 19.753906 11.609375 C 19.757812 11.644531 19.761719 11.683594 19.769531 11.71875 C 19.769531 11.730469 19.769531 11.738281 19.773438 11.75 C 19.78125 11.839844 19.792969 11.929688 19.796875 12.019531 L 19.800781 12.035156 C 19.800781 12.042969 19.800781 12.050781 19.800781 12.054688 C 19.804688 12.09375 19.808594 12.128906 19.808594 12.167969 C 19.808594 12.179688 19.808594 12.1875 19.8125 12.199219 C 19.8125 12.234375 19.816406 12.273438 19.816406 12.308594 C 19.816406 12.320312 19.816406 12.332031 19.816406 12.34375 C 19.820312 12.382812 19.820312 12.417969 19.820312 12.457031 C 19.824219 12.515625 19.824219 12.574219 19.824219 12.636719 L 19.820312 12.496094 C 19.824219 12.542969 19.824219 12.589844 19.824219 12.636719 L 19.824219 12.601562 L 19.824219 12.636719 C 19.824219 12.675781 19.824219 12.714844 19.824219 12.753906 C 19.820312 12.816406 19.820312 12.875 19.816406 12.9375 C 19.816406 12.953125 19.816406 12.972656 19.816406 12.988281 C 19.816406 13 19.8125 13.015625 19.8125 13.027344 C 19.8125 13.050781 19.808594 13.078125 19.808594 13.105469 C 19.808594 13.121094 19.808594 13.140625 19.804688 13.160156 C 19.804688 13.167969 19.804688 13.179688 19.804688 13.191406 C 19.800781 13.21875 19.796875 13.25 19.796875 13.28125 C 19.792969 13.292969 19.792969 13.308594 19.792969 13.320312 C 19.789062 13.34375 19.789062 13.367188 19.785156 13.390625 C 19.785156 13.402344 19.785156 13.410156 19.78125 13.421875 C 19.761719 13.621094 19.734375 13.816406 19.699219 14.007812 C 19.695312 14.023438 19.691406 14.042969 19.6875 14.058594 C 19.683594 14.082031 19.679688 14.105469 19.675781 14.125 C 19.671875 14.136719 19.671875 14.148438 19.667969 14.160156 C 19.40625 15.433594 18.820312 16.585938 18 17.535156 C 17.984375 17.550781 17.96875 17.570312 17.957031 17.585938 C 17.941406 17.601562 17.929688 17.613281 17.917969 17.628906 C 17.910156 17.640625 17.898438 17.652344 17.886719 17.664062 C 17.847656 17.707031 17.808594 17.75 17.769531 17.792969 C 17.757812 17.804688 17.746094 17.816406 17.734375 17.828125 C 17.722656 17.839844 17.710938 17.851562 17.699219 17.863281 C 16.824219 18.765625 15.71875 19.449219 14.476562 19.820312 C 14.472656 19.820312 14.46875 19.820312 14.464844 19.824219 C 14.394531 19.84375 14.324219 19.863281 14.25 19.882812 C 14.246094 19.882812 14.242188 19.882812 14.238281 19.886719 C 14.207031 19.894531 14.175781 19.902344 14.144531 19.910156 C 14.136719 19.910156 14.128906 19.914062 14.125 19.914062 L 14.144531 19.910156 C 14.109375 19.917969 14.074219 19.925781 14.039062 19.933594 C 14.027344 19.9375 14.015625 19.941406 14.003906 19.941406 C 13.988281 19.945312 13.972656 19.949219 13.957031 19.953125 C 13.921875 19.960938 13.886719 19.96875 13.851562 19.976562 C 13.828125 19.980469 13.804688 19.984375 13.78125 19.988281 C 13.773438 19.992188 13.765625 19.992188 13.753906 19.996094 C 13.695312 20.007812 13.636719 20.015625 13.578125 20.027344 L 13.671875 20.011719 C 13.632812 20.019531 13.589844 20.023438 13.550781 20.03125 L 13.585938 20.070312 C 14.710938 21.332031 16.320312 22.085938 18.058594 22.117188 L 18.160156 22.117188 C 18.992188 22.117188 19.800781 21.949219 20.550781 21.632812 C 20.664062 21.585938 20.789062 21.585938 20.902344 21.636719 L 23.210938 22.6875 L 23.148438 19.703125 C 23.144531 19.625 23.164062 19.550781 23.199219 19.484375 L 23.222656 19.453125 L 23.285156 19.359375 C 23.941406 18.363281 24.300781 17.195312 24.300781 15.976562 C 24.300781 13.003906 22.179688 10.503906 19.34375 9.949219 Z M 12.328125 6.003906 C 8.664062 6.003906 5.695312 8.972656 5.695312 12.636719 C 5.695312 13.992188 6.105469 15.289062 6.859375 16.386719 L 6.9375 16.5 L 6.863281 19.902344 L 9.566406 18.667969 L 9.742188 18.742188 C 10.554688 19.085938 11.429688 19.265625 12.328125 19.265625 C 12.460938 19.265625 12.59375 19.261719 12.726562 19.253906 C 12.75 19.253906 12.777344 19.25 12.800781 19.25 L 12.726562 19.253906 C 12.761719 19.25 12.800781 19.25 12.835938 19.246094 L 12.800781 19.25 C 12.832031 19.246094 12.867188 19.242188 12.902344 19.242188 L 12.835938 19.246094 C 12.867188 19.242188 12.902344 19.242188 12.933594 19.238281 L 12.902344 19.242188 C 13.007812 19.230469 13.113281 19.21875 13.214844 19.207031 C 13.230469 19.203125 13.246094 19.203125 13.261719 19.199219 L 13.214844 19.207031 C 13.25 19.203125 13.28125 19.199219 13.3125 19.191406 L 13.261719 19.199219 C 13.296875 19.195312 13.332031 19.191406 13.367188 19.183594 L 13.3125 19.191406 C 13.351562 19.1875 13.386719 19.183594 13.421875 19.175781 L 13.367188 19.183594 C 13.398438 19.179688 13.429688 19.175781 13.460938 19.167969 L 13.421875 19.175781 C 13.457031 19.171875 13.488281 19.164062 13.519531 19.160156 L 13.460938 19.167969 C 13.5 19.164062 13.542969 19.15625 13.582031 19.148438 L 13.519531 19.160156 C 13.554688 19.152344 13.589844 19.144531 13.621094 19.140625 L 13.582031 19.148438 C 13.625 19.140625 13.664062 19.132812 13.703125 19.121094 L 13.621094 19.140625 C 13.65625 19.132812 13.6875 19.125 13.722656 19.121094 L 13.703125 19.121094 C 15.046875 18.839844 16.242188 18.148438 17.148438 17.1875 C 17.164062 17.171875 17.175781 17.15625 17.1875 17.144531 L 17.148438 17.1875 C 17.171875 17.160156 17.195312 17.136719 17.21875 17.109375 L 17.1875 17.144531 C 17.214844 17.117188 17.238281 17.089844 17.265625 17.0625 L 17.21875 17.109375 C 17.242188 17.085938 17.261719 17.0625 17.285156 17.039062 L 17.265625 17.0625 C 17.285156 17.039062 17.304688 17.015625 17.324219 16.996094 L 17.285156 17.039062 C 17.308594 17.011719 17.328125 16.988281 17.351562 16.964844 L 17.324219 16.996094 C 18.191406 16 18.765625 14.75 18.917969 13.371094 C 18.921875 13.347656 18.921875 13.324219 18.925781 13.300781 L 18.917969 13.371094 C 18.929688 13.269531 18.9375 13.167969 18.945312 13.066406 C 18.949219 13.003906 18.953125 12.945312 18.953125 12.882812 C 18.957031 12.800781 18.957031 12.71875 18.957031 12.636719 C 18.957031 12.515625 18.953125 12.394531 18.949219 12.277344 C 18.949219 12.257812 18.945312 12.242188 18.945312 12.222656 L 18.949219 12.277344 C 18.945312 12.230469 18.941406 12.1875 18.941406 12.140625 L 18.945312 12.222656 C 18.933594 12.046875 18.917969 11.871094 18.890625 11.699219 C 18.890625 11.679688 18.886719 11.660156 18.882812 11.644531 L 18.890625 11.699219 C 18.867188 11.519531 18.835938 11.34375 18.796875 11.171875 C 18.792969 11.15625 18.789062 11.136719 18.785156 11.121094 L 18.796875 11.171875 C 18.789062 11.140625 18.78125 11.109375 18.773438 11.074219 L 18.785156 11.121094 C 18.777344 11.082031 18.765625 11.046875 18.757812 11.011719 L 18.773438 11.074219 C 18.761719 11.035156 18.753906 10.992188 18.742188 10.949219 L 18.757812 11.011719 C 18.75 10.980469 18.742188 10.945312 18.734375 10.914062 L 18.742188 10.949219 C 18.652344 10.613281 18.539062 10.289062 18.402344 9.976562 C 18.398438 9.960938 18.390625 9.949219 18.386719 9.933594 L 18.402344 9.976562 C 18.386719 9.9375 18.367188 9.898438 18.351562 9.859375 C 18.351562 9.859375 18.347656 9.855469 18.347656 9.851562 L 18.351562 9.859375 C 17.300781 7.585938 15 6.003906 12.328125 6.003906 Z M 12.371094 15.511719 C 12.667969 15.511719 12.910156 15.753906 12.910156 16.054688 C 12.910156 16.351562 12.667969 16.59375 12.371094 16.59375 C 12.070312 16.59375 11.828125 16.351562 11.828125 16.054688 C 11.828125 15.753906 12.070312 15.511719 12.371094 15.511719 Z M 13.792969 12.585938 L 13.75 12.628906 C 13.683594 12.6875 13.625 12.75 13.566406 12.8125 C 13.234375 13.179688 13.023438 13.566406 12.914062 13.953125 C 12.855469 14.144531 12.832031 14.308594 12.828125 14.421875 L 12.828125 14.527344 C 12.828125 14.785156 12.632812 15 12.382812 15.019531 C 12.132812 15.035156 11.914062 14.847656 11.878906 14.589844 L 11.875 14.535156 L 11.875 14.527344 C 11.867188 14.308594 11.898438 14.011719 12 13.664062 C 12.152344 13.132812 12.433594 12.609375 12.875 12.125 C 12.925781 12.070312 12.972656 12.019531 13.027344 11.96875 L 13.105469 11.890625 C 13.953125 11.085938 13.492188 9.765625 12.414062 9.898438 C 11.902344 9.960938 11.570312 10.1875 11.351562 10.535156 C 11.261719 10.683594 11.199219 10.84375 11.160156 11 L 11.140625 11.074219 L 11.132812 11.132812 L 11.125 11.175781 L 11.125 11.1875 C 11.105469 11.460938 10.875 11.667969 10.613281 11.648438 C 10.347656 11.625 10.152344 11.386719 10.171875 11.113281 C 10.179688 11.027344 10.195312 10.902344 10.238281 10.746094 C 10.300781 10.492188 10.402344 10.238281 10.550781 9.996094 C 10.917969 9.402344 11.5 9.003906 12.304688 8.90625 C 14.335938 8.660156 15.230469 11.152344 13.792969 12.585938 Z M 13.792969 12.585938 " fill-opacity="1" fill-rule="nonzero"/></g></svg>