<svg xmlns="http://www.w3.org/2000/svg" xmlns:xlink="http://www.w3.org/1999/xlink" width="40" zoomAndPan="magnify" viewBox="0 0 30 30.000001" height="40" preserveAspectRatio="xMidYMid meet" version="1.0"><defs><clipPath id="8149f1a96a"><path d="M 7.058594 6.574219 L 22.941406 6.574219 L 22.941406 22.457031 L 7.058594 22.457031 Z M 7.058594 6.574219 " clip-rule="nonzero"/></clipPath><clipPath id="27b0d0de59"><path d="M 15 6.574219 C 10.613281 6.574219 7.058594 10.128906 7.058594 14.515625 C 7.058594 18.902344 10.613281 22.457031 15 22.457031 C 19.386719 22.457031 22.941406 18.902344 22.941406 14.515625 C 22.941406 10.128906 19.386719 6.574219 15 6.574219 Z M 15 6.574219 " clip-rule="nonzero"/></clipPath><clipPath id="6eb2af471d"><path d="M 9.554688 9.070312 L 20.441406 9.070312 L 20.441406 19.957031 L 9.554688 19.957031 Z M 9.554688 9.070312 " clip-rule="nonzero"/></clipPath><clipPath id="af0ea669d4"><path d="M 15 9.070312 L 20 9.070312 L 20 15 L 15 15 Z M 15 9.070312 " clip-rule="nonzero"/></clipPath></defs><g clip-path="url(#8149f1a96a)"><g clip-path="url(#27b0d0de59)"><path fill="#0071b8" d="M 7.058594 6.574219 L 22.941406 6.574219 L 22.941406 22.457031 L 7.058594 22.457031 Z M 7.058594 6.574219 " fill-opacity="1" fill-rule="nonzero"/></g></g><g clip-path="url(#6eb2af471d)"><path fill="#ffffff" d="M 19.046875 15.6875 C 18.957031 15.597656 18.851562 15.527344 18.734375 15.480469 C 18.617188 15.429688 18.492188 15.40625 18.363281 15.40625 C 18.234375 15.40625 18.113281 15.429688 17.992188 15.480469 C 17.875 15.527344 17.769531 15.597656 17.679688 15.6875 L 17.355469 16.011719 C 17.261719 16.105469 17.148438 16.183594 17.023438 16.234375 C 16.820312 16.324219 16.609375 16.351562 16.390625 16.308594 C 16.171875 16.269531 15.984375 16.167969 15.828125 16.011719 L 13.5 13.679688 C 13.34375 13.523438 13.246094 13.339844 13.203125 13.121094 C 13.164062 12.902344 13.1875 12.695312 13.277344 12.492188 C 13.328125 12.367188 13.402344 12.257812 13.5 12.160156 L 13.820312 11.839844 C 13.914062 11.746094 13.984375 11.644531 14.03125 11.523438 C 14.082031 11.40625 14.105469 11.28125 14.105469 11.152344 C 14.105469 11.027344 14.082031 10.902344 14.03125 10.785156 C 13.984375 10.664062 13.914062 10.558594 13.820312 10.46875 L 12.804688 9.441406 C 12.613281 9.253906 12.386719 9.160156 12.117188 9.160156 C 11.851562 9.160156 11.625 9.253906 11.433594 9.441406 L 10.765625 10.109375 L 10.757812 10.121094 C 10.464844 10.421875 10.246094 10.769531 10.089844 11.160156 C 9.9375 11.546875 9.859375 11.953125 9.867188 12.371094 C 9.871094 12.789062 9.953125 13.191406 10.113281 13.578125 C 10.277344 13.964844 10.503906 14.304688 10.800781 14.601562 L 14.90625 18.707031 C 15.203125 19.003906 15.546875 19.234375 15.933594 19.394531 C 16.320312 19.558594 16.722656 19.640625 17.144531 19.644531 C 17.5625 19.648438 17.96875 19.570312 18.359375 19.417969 C 18.746094 19.261719 19.09375 19.035156 19.394531 18.746094 L 19.433594 18.710938 L 20.066406 18.074219 C 20.257812 17.886719 20.351562 17.65625 20.351562 17.390625 C 20.351562 17.121094 20.257812 16.894531 20.066406 16.707031 Z M 13.054688 12.160156 C 12.984375 12.265625 12.933594 12.378906 12.898438 12.496094 L 10.894531 10.492188 C 10.941406 10.433594 10.992188 10.378906 11.046875 10.328125 L 11.128906 10.246094 Z M 17.015625 16.613281 C 17.132812 16.578125 17.246094 16.523438 17.351562 16.457031 L 19.265625 18.382812 L 19.175781 18.472656 C 19.125 18.527344 19.070312 18.578125 19.011719 18.625 Z M 17.015625 16.613281 " fill-opacity="1" fill-rule="nonzero"/></g><g clip-path="url(#af0ea669d4)"><path fill="#ffffff" d="M 19.707031 14.261719 C 19.820312 14.257812 19.878906 14.195312 19.878906 14.082031 C 19.84375 12.808594 19.367188 11.734375 18.453125 10.847656 C 17.597656 10.0625 16.589844 9.65625 15.425781 9.628906 C 15.335938 9.652344 15.289062 9.710938 15.289062 9.804688 C 15.289062 9.898438 15.335938 9.957031 15.425781 9.980469 C 16.5 10.003906 17.429688 10.378906 18.214844 11.109375 C 19.0625 11.921875 19.5 12.917969 19.53125 14.089844 C 19.535156 14.203125 19.59375 14.257812 19.707031 14.261719 Z M 19.707031 14.261719 " fill-opacity="1" fill-rule="nonzero"/></g><path fill="#ffffff" d="M 15.871094 11.238281 C 15.757812 11.234375 15.699219 11.292969 15.691406 11.410156 C 15.691406 11.527344 15.753906 11.589844 15.871094 11.589844 C 16.144531 11.59375 16.402344 11.648438 16.652344 11.753906 C 16.902344 11.859375 17.121094 12.007812 17.3125 12.203125 C 17.507812 12.394531 17.65625 12.613281 17.761719 12.863281 C 17.867188 13.113281 17.921875 13.371094 17.925781 13.644531 C 17.929688 13.757812 17.992188 13.816406 18.105469 13.816406 C 18.226562 13.816406 18.285156 13.753906 18.285156 13.632812 C 18.28125 13.316406 18.21875 13.011719 18.09375 12.71875 C 17.96875 12.425781 17.792969 12.167969 17.566406 11.945312 C 17.34375 11.71875 17.082031 11.546875 16.789062 11.425781 C 16.496094 11.300781 16.191406 11.238281 15.871094 11.238281 Z M 15.871094 11.238281 " fill-opacity="1" fill-rule="nonzero"/></svg>