<svg xmlns="http://www.w3.org/2000/svg" xmlns:xlink="http://www.w3.org/1999/xlink" width="40" zoomAndPan="magnify" viewBox="0 0 30 30.000001" height="40" preserveAspectRatio="xMidYMid meet" version="1.0"><defs><clipPath id="1cf230547e"><path d="M 0.484375 0 L 29.515625 0 L 29.515625 29.03125 L 0.484375 29.03125 Z M 0.484375 0 " clip-rule="nonzero"/></clipPath><clipPath id="2679c604d3"><path d="M 15 0 C 6.984375 0 0.484375 6.5 0.484375 14.515625 C 0.484375 22.53125 6.984375 29.03125 15 29.03125 C 23.015625 29.03125 29.515625 22.53125 29.515625 14.515625 C 29.515625 6.5 23.015625 0 15 0 Z M 15 0 " clip-rule="nonzero"/></clipPath><clipPath id="ff473dc137"><path d="M 5.046875 4.5625 L 24.644531 4.5625 L 24.644531 24 L 5.046875 24 Z M 5.046875 4.5625 " clip-rule="nonzero"/></clipPath></defs><g clip-path="url(#1cf230547e)"><g clip-path="url(#2679c604d3)"><path fill="#0071b8" d="M 0.484375 0 L 29.515625 0 L 29.515625 29.03125 L 0.484375 29.03125 Z M 0.484375 0 " fill-opacity="1" fill-rule="nonzero"/></g></g><g clip-path="url(#ff473dc137)"><path fill="#ffffff" d="M 22.402344 16.664062 C 22.238281 16.496094 22.046875 16.367188 21.828125 16.277344 C 21.613281 16.1875 21.386719 16.144531 21.152344 16.144531 C 20.917969 16.144531 20.691406 16.1875 20.472656 16.277344 C 20.257812 16.367188 20.066406 16.496094 19.902344 16.664062 L 19.3125 17.25 C 19.136719 17.425781 18.933594 17.5625 18.703125 17.660156 C 18.332031 17.828125 17.945312 17.871094 17.546875 17.796875 C 17.148438 17.722656 16.804688 17.539062 16.519531 17.25 L 12.261719 12.992188 C 11.972656 12.707031 11.792969 12.367188 11.71875 11.96875 C 11.644531 11.570312 11.6875 11.1875 11.851562 10.816406 C 11.949219 10.589844 12.085938 10.386719 12.261719 10.210938 L 12.847656 9.625 C 13.015625 9.457031 13.140625 9.265625 13.234375 9.050781 C 13.324219 8.832031 13.367188 8.605469 13.367188 8.371094 C 13.367188 8.136719 13.324219 7.910156 13.234375 7.695312 C 13.140625 7.476562 13.015625 7.285156 12.847656 7.121094 L 10.988281 5.242188 C 10.820312 5.078125 10.628906 4.949219 10.414062 4.859375 C 10.195312 4.773438 9.96875 4.726562 9.734375 4.726562 C 9.5 4.726562 9.277344 4.773438 9.058594 4.859375 C 8.84375 4.949219 8.652344 5.078125 8.484375 5.242188 L 7.261719 6.464844 L 7.246094 6.484375 C 6.980469 6.757812 6.75 7.054688 6.542969 7.371094 C 6.339844 7.691406 6.167969 8.027344 6.027344 8.378906 C 5.886719 8.734375 5.78125 9.09375 5.714844 9.46875 C 5.644531 9.839844 5.613281 10.21875 5.617188 10.597656 C 5.621094 10.976562 5.660156 11.351562 5.738281 11.722656 C 5.8125 12.09375 5.925781 12.453125 6.070312 12.804688 C 6.21875 13.152344 6.398438 13.484375 6.609375 13.800781 C 6.820312 14.117188 7.058594 14.40625 7.328125 14.675781 L 14.832031 22.179688 C 15.101562 22.449219 15.394531 22.6875 15.707031 22.902344 C 16.023438 23.113281 16.359375 23.292969 16.707031 23.4375 C 17.058594 23.585938 17.421875 23.699219 17.792969 23.773438 C 18.164062 23.851562 18.539062 23.890625 18.921875 23.894531 C 19.300781 23.898438 19.679688 23.863281 20.050781 23.792969 C 20.425781 23.722656 20.789062 23.617188 21.140625 23.476562 C 21.492188 23.335938 21.832031 23.160156 22.148438 22.957031 C 22.46875 22.75 22.765625 22.515625 23.039062 22.25 L 23.105469 22.1875 L 24.269531 21.023438 C 24.433594 20.855469 24.558594 20.664062 24.648438 20.449219 C 24.738281 20.230469 24.785156 20.007812 24.785156 19.773438 C 24.785156 19.539062 24.738281 19.3125 24.648438 19.09375 C 24.558594 18.878906 24.433594 18.6875 24.269531 18.519531 Z M 11.445312 10.210938 C 11.320312 10.402344 11.226562 10.609375 11.160156 10.828125 L 7.496094 7.164062 C 7.582031 7.058594 7.675781 6.957031 7.773438 6.859375 L 7.921875 6.710938 Z M 18.683594 18.351562 C 18.902344 18.285156 19.109375 18.191406 19.300781 18.066406 L 22.800781 21.589844 L 22.636719 21.75 C 22.542969 21.847656 22.441406 21.941406 22.332031 22.027344 Z M 18.683594 18.351562 " fill-opacity="1" fill-rule="nonzero"/></g><path fill="#ffffff" d="M 23.605469 14.054688 C 23.695312 14.050781 23.769531 14.015625 23.828125 13.953125 C 23.890625 13.886719 23.921875 13.8125 23.921875 13.722656 C 23.890625 12.605469 23.648438 11.535156 23.199219 10.515625 C 22.746094 9.492188 22.121094 8.589844 21.316406 7.816406 C 20.558594 7.121094 19.703125 6.578125 18.75 6.195312 C 17.796875 5.808594 16.808594 5.605469 15.78125 5.582031 C 15.613281 5.625 15.53125 5.734375 15.53125 5.90625 C 15.53125 6.078125 15.613281 6.183594 15.78125 6.226562 C 16.730469 6.246094 17.640625 6.433594 18.519531 6.789062 C 19.398438 7.144531 20.1875 7.644531 20.882812 8.289062 C 21.625 9.003906 22.203125 9.835938 22.621094 10.777344 C 23.035156 11.722656 23.257812 12.710938 23.285156 13.738281 C 23.289062 13.828125 23.324219 13.898438 23.386719 13.960938 C 23.445312 14.019531 23.519531 14.050781 23.605469 14.054688 Z M 23.605469 14.054688 " fill-opacity="1" fill-rule="nonzero"/><path fill="#ffffff" d="M 16.597656 8.523438 C 16.507812 8.523438 16.433594 8.554688 16.371094 8.613281 C 16.304688 8.675781 16.273438 8.75 16.265625 8.835938 C 16.265625 8.929688 16.300781 9.007812 16.363281 9.070312 C 16.429688 9.136719 16.507812 9.167969 16.597656 9.167969 C 17.09375 9.175781 17.570312 9.277344 18.023438 9.472656 C 18.480469 9.664062 18.882812 9.9375 19.234375 10.285156 C 19.582031 10.636719 19.855469 11.039062 20.046875 11.496094 C 20.242188 11.953125 20.34375 12.429688 20.351562 12.921875 C 20.355469 13.011719 20.390625 13.085938 20.453125 13.148438 C 20.515625 13.207031 20.59375 13.238281 20.679688 13.238281 C 20.773438 13.238281 20.851562 13.207031 20.914062 13.140625 C 20.980469 13.074219 21.011719 13 21.011719 12.90625 C 21.007812 12.617188 20.976562 12.335938 20.914062 12.054688 C 20.855469 11.769531 20.769531 11.496094 20.65625 11.234375 C 20.542969 10.96875 20.40625 10.714844 20.246094 10.476562 C 20.082031 10.238281 19.902344 10.019531 19.695312 9.816406 C 19.492188 9.613281 19.269531 9.433594 19.03125 9.273438 C 18.792969 9.113281 18.539062 8.976562 18.273438 8.867188 C 18.007812 8.753906 17.734375 8.671875 17.453125 8.613281 C 17.171875 8.554688 16.886719 8.527344 16.597656 8.523438 Z M 16.597656 8.523438 " fill-opacity="1" fill-rule="nonzero"/></svg>