<svg xmlns="http://www.w3.org/2000/svg" xmlns:xlink="http://www.w3.org/1999/xlink" width="40" zoomAndPan="magnify" viewBox="0 0 30 30.000001" height="40" preserveAspectRatio="xMidYMid meet" version="1.0"><defs><clipPath id="fc966db0b4"><path d="M 7.078125 6.59375 L 22.921875 6.59375 L 22.921875 22.441406 L 7.078125 22.441406 Z M 7.078125 6.59375 " clip-rule="nonzero"/></clipPath><clipPath id="a4cb5755bb"><path d="M 15 6.59375 C 10.625 6.59375 7.078125 10.140625 7.078125 14.515625 C 7.078125 18.890625 10.625 22.441406 15 22.441406 C 19.375 22.441406 22.921875 18.890625 22.921875 14.515625 C 22.921875 10.140625 19.375 6.59375 15 6.59375 Z M 15 6.59375 " clip-rule="nonzero"/></clipPath><clipPath id="46fa9e953c"><path d="M 10 16 L 20.519531 16 L 20.519531 20 L 10 20 Z M 10 16 " clip-rule="nonzero"/></clipPath><clipPath id="faa3113df4"><path d="M 10 9.121094 L 19 9.121094 L 19 14 L 10 14 Z M 10 9.121094 " clip-rule="nonzero"/></clipPath><clipPath id="e16040af8d"><path d="M 9.632812 12 L 18 12 L 18 17 L 9.632812 17 Z M 9.632812 12 " clip-rule="nonzero"/></clipPath></defs><g clip-path="url(#fc966db0b4)"><g clip-path="url(#a4cb5755bb)"><path fill="#0071b8" d="M 7.078125 6.59375 L 22.921875 6.59375 L 22.921875 22.441406 L 7.078125 22.441406 Z M 7.078125 6.59375 " fill-opacity="1" fill-rule="nonzero"/></g></g><g clip-path="url(#46fa9e953c)"><path fill="#ffffff" d="M 19.355469 17.640625 L 19.324219 17.585938 C 19.320312 17.582031 18.929688 17.003906 18.0625 16.753906 C 17.214844 16.515625 16.664062 16.714844 15.328125 17.207031 C 15.261719 17.230469 15.1875 17.257812 15.109375 17.285156 C 14.71875 17.421875 14.261719 17.582031 13.914062 17.851562 C 13.90625 17.859375 13.898438 17.867188 13.886719 17.875 C 13.753906 17.984375 13.640625 18.113281 13.554688 18.261719 C 13.542969 18.28125 13.550781 18.300781 13.558594 18.3125 C 13.566406 18.324219 13.585938 18.339844 13.609375 18.335938 C 13.75 18.3125 13.910156 18.285156 14.082031 18.25 C 15.683594 17.945312 16.664062 18.253906 16.570312 18.253906 C 15.964844 18.253906 14.910156 18.445312 14.144531 18.585938 C 13.972656 18.617188 13.808594 18.644531 13.667969 18.667969 C 13.519531 18.695312 13.371094 18.632812 13.28125 18.507812 C 13.191406 18.382812 13.183594 18.226562 13.257812 18.09375 C 13.320312 17.988281 13.394531 17.890625 13.472656 17.800781 C 12.972656 17.632812 11.855469 17.296875 11.078125 17.296875 C 11.070312 17.296875 11.058594 17.296875 11.050781 17.296875 C 10.574219 17.300781 10.316406 17.519531 10.183594 17.699219 C 10.167969 17.722656 10.171875 17.746094 10.175781 17.757812 C 10.179688 17.769531 10.1875 17.789062 10.214844 17.800781 L 14.484375 19.460938 C 14.53125 19.480469 14.578125 19.484375 14.625 19.472656 C 15.371094 19.3125 17.136719 18.945312 17.492188 18.945312 C 17.859375 18.945312 19.550781 19.613281 20.238281 19.890625 L 20.359375 17.933594 L 19.355469 17.640625 " fill-opacity="1" fill-rule="nonzero"/></g><g clip-path="url(#faa3113df4)"><path fill="#ffffff" d="M 10.597656 12.367188 C 10.734375 12.40625 10.871094 12.328125 10.910156 12.191406 C 11.351562 10.644531 12.832031 9.667969 14.425781 9.871094 C 15.839844 10.046875 16.964844 11.15625 17.203125 12.53125 L 16.878906 12.289062 C 16.765625 12.207031 16.605469 12.230469 16.523438 12.339844 C 16.4375 12.453125 16.460938 12.613281 16.574219 12.695312 L 17.378906 13.296875 C 17.421875 13.332031 17.476562 13.347656 17.53125 13.347656 C 17.542969 13.347656 17.554688 13.347656 17.566406 13.347656 C 17.632812 13.335938 17.695312 13.300781 17.734375 13.246094 L 18.335938 12.441406 C 18.417969 12.328125 18.398438 12.171875 18.285156 12.085938 C 18.171875 12.003906 18.011719 12.027344 17.929688 12.136719 L 17.703125 12.4375 C 17.429688 10.832031 16.152344 9.574219 14.488281 9.367188 C 12.644531 9.132812 10.933594 10.261719 10.421875 12.054688 C 10.382812 12.1875 10.460938 12.328125 10.597656 12.367188 " fill-opacity="1" fill-rule="nonzero"/></g><g clip-path="url(#e16040af8d)"><path fill="#ffffff" d="M 13.574219 16.8125 C 13.734375 16.832031 13.894531 16.839844 14.054688 16.839844 C 15.707031 16.839844 17.171875 15.757812 17.640625 14.125 C 17.679688 13.988281 17.597656 13.847656 17.464844 13.808594 C 17.328125 13.769531 17.1875 13.847656 17.152344 13.984375 C 16.710938 15.53125 15.230469 16.507812 13.636719 16.308594 C 12.226562 16.128906 11.101562 15.027344 10.859375 13.65625 L 11.171875 13.898438 C 11.28125 13.984375 11.441406 13.964844 11.527344 13.851562 C 11.613281 13.742188 11.59375 13.582031 11.484375 13.496094 L 10.691406 12.878906 C 10.582031 12.792969 10.421875 12.8125 10.335938 12.921875 L 9.71875 13.714844 C 9.632812 13.824219 9.652344 13.984375 9.761719 14.070312 C 9.808594 14.109375 9.863281 14.125 9.917969 14.125 C 9.992188 14.125 10.066406 14.089844 10.117188 14.027344 L 10.355469 13.722656 C 10.625 15.339844 11.902344 16.601562 13.574219 16.8125 " fill-opacity="1" fill-rule="nonzero"/></g><path fill="#ffffff" d="M 13.460938 12.417969 C 13.464844 12.464844 13.476562 12.511719 13.492188 12.5625 C 13.507812 12.601562 13.535156 12.640625 13.570312 12.671875 C 13.617188 12.71875 13.675781 12.757812 13.761719 12.800781 C 13.796875 12.820312 13.84375 12.835938 13.898438 12.851562 L 13.898438 11.894531 C 13.769531 11.921875 13.671875 11.972656 13.601562 12.046875 C 13.5 12.152344 13.453125 12.273438 13.460938 12.417969 " fill-opacity="1" fill-rule="nonzero"/><path fill="#ffffff" d="M 14.433594 13.445312 L 14.433594 14.289062 C 14.460938 14.28125 14.484375 14.269531 14.507812 14.257812 C 14.582031 14.21875 14.621094 14.179688 14.640625 14.15625 C 14.667969 14.121094 14.6875 14.085938 14.699219 14.050781 C 14.71875 13.992188 14.71875 13.96875 14.71875 13.964844 C 14.71875 13.964844 14.71875 13.960938 14.71875 13.960938 C 14.722656 13.78125 14.6875 13.648438 14.617188 13.566406 C 14.574219 13.515625 14.511719 13.476562 14.433594 13.445312 " fill-opacity="1" fill-rule="nonzero"/><path fill="#ffffff" d="M 15.203125 13.980469 C 15.1875 14.167969 15.105469 14.347656 14.960938 14.507812 C 14.839844 14.644531 14.660156 14.734375 14.433594 14.773438 L 14.433594 14.859375 C 14.433594 14.949219 14.398438 15.023438 14.332031 15.070312 C 14.28125 15.109375 14.222656 15.128906 14.160156 15.128906 C 14.097656 15.128906 14.039062 15.109375 13.988281 15.066406 C 13.945312 15.03125 13.898438 14.96875 13.898438 14.859375 L 13.898438 14.78125 C 13.664062 14.753906 13.453125 14.683594 13.277344 14.574219 C 13.046875 14.425781 12.902344 14.210938 12.851562 13.933594 C 12.828125 13.839844 12.867188 13.773438 12.894531 13.742188 C 12.921875 13.707031 12.980469 13.65625 13.089844 13.664062 C 13.21875 13.667969 13.316406 13.75 13.332031 13.875 C 13.359375 13.980469 13.429688 14.085938 13.542969 14.171875 C 13.628906 14.234375 13.746094 14.28125 13.898438 14.300781 L 13.898438 13.34375 C 13.652344 13.304688 13.449219 13.21875 13.289062 13.085938 C 13.097656 12.921875 12.988281 12.707031 12.960938 12.449219 C 12.945312 12.308594 12.964844 12.171875 13.015625 12.039062 C 13.070312 11.910156 13.144531 11.796875 13.242188 11.707031 C 13.335938 11.613281 13.453125 11.542969 13.601562 11.484375 C 13.699219 11.449219 13.792969 11.425781 13.898438 11.410156 L 13.898438 11.316406 C 13.898438 11.21875 13.941406 11.15625 13.980469 11.121094 C 14.089844 11.023438 14.230469 11.027344 14.335938 11.109375 C 14.402344 11.167969 14.433594 11.238281 14.433594 11.316406 L 14.433594 11.441406 C 14.621094 11.484375 14.777344 11.574219 14.90625 11.699219 C 15.074219 11.863281 15.164062 12.085938 15.171875 12.359375 C 15.171875 12.371094 15.167969 12.386719 15.167969 12.398438 C 15.140625 12.523438 15.054688 12.605469 14.941406 12.621094 C 14.804688 12.636719 14.699219 12.546875 14.683594 12.40625 C 14.679688 12.34375 14.667969 12.285156 14.648438 12.226562 C 14.628906 12.175781 14.601562 12.125 14.566406 12.085938 C 14.527344 12.039062 14.484375 11.996094 14.433594 11.960938 L 14.433594 12.9375 C 14.570312 12.972656 14.679688 13.019531 14.773438 13.078125 C 14.890625 13.152344 14.984375 13.242188 15.054688 13.34375 C 15.125 13.453125 15.167969 13.558594 15.183594 13.671875 C 15.207031 13.78125 15.210938 13.882812 15.203125 13.980469 Z M 14.003906 10.675781 C 12.671875 10.691406 11.601562 11.78125 11.613281 13.113281 C 11.628906 14.441406 12.71875 15.511719 14.046875 15.5 C 15.378906 15.488281 16.449219 14.398438 16.4375 13.066406 C 16.421875 11.734375 15.332031 10.664062 14.003906 10.675781 " fill-opacity="1" fill-rule="nonzero"/></svg>