<svg xmlns="http://www.w3.org/2000/svg" xmlns:xlink="http://www.w3.org/1999/xlink" width="40" zoomAndPan="magnify" viewBox="0 0 30 30.000001" height="40" preserveAspectRatio="xMidYMid meet" version="1.0"><defs><clipPath id="5b34b9cb47"><path d="M 0.484375 0 L 29.515625 0 L 29.515625 29.03125 L 0.484375 29.03125 Z M 0.484375 0 " clip-rule="nonzero"/></clipPath><clipPath id="e604581495"><path d="M 15 0 C 6.984375 0 0.484375 6.5 0.484375 14.515625 C 0.484375 22.53125 6.984375 29.03125 15 29.03125 C 23.015625 29.03125 29.515625 22.53125 29.515625 14.515625 C 29.515625 6.5 23.015625 0 15 0 Z M 15 0 " clip-rule="nonzero"/></clipPath><clipPath id="89e291f9d3"><path d="M 6 18 L 24.761719 18 L 24.761719 24.226562 L 6 24.226562 Z M 6 18 " clip-rule="nonzero"/></clipPath><clipPath id="6466f1e842"><path d="M 5.164062 11 L 20 11 L 20 19 L 5.164062 19 Z M 5.164062 11 " clip-rule="nonzero"/></clipPath></defs><g clip-path="url(#5b34b9cb47)"><g clip-path="url(#e604581495)"><path fill="#0071b8" d="M 0.484375 0 L 29.515625 0 L 29.515625 29.03125 L 0.484375 29.03125 Z M 0.484375 0 " fill-opacity="1" fill-rule="nonzero"/></g></g><g clip-path="url(#89e291f9d3)"><path fill="#ffffff" d="M 22.992188 20.246094 L 22.925781 20.148438 C 22.921875 20.140625 22.207031 19.078125 20.617188 18.625 C 19.066406 18.183594 18.054688 18.554688 15.609375 19.453125 C 15.484375 19.5 15.347656 19.546875 15.207031 19.59375 C 14.488281 19.847656 13.648438 20.140625 13.015625 20.636719 C 13.003906 20.652344 12.984375 20.664062 12.96875 20.675781 C 12.722656 20.878906 12.511719 21.109375 12.355469 21.386719 C 12.332031 21.425781 12.347656 21.457031 12.359375 21.480469 C 12.375 21.5 12.410156 21.53125 12.457031 21.523438 C 12.714844 21.476562 13.007812 21.425781 13.320312 21.367188 C 16.261719 20.804688 18.054688 21.367188 17.882812 21.367188 C 16.769531 21.367188 14.84375 21.71875 13.433594 21.976562 C 13.117188 22.035156 12.824219 22.085938 12.5625 22.132812 C 12.289062 22.179688 12.015625 22.070312 11.851562 21.835938 C 11.691406 21.609375 11.679688 21.320312 11.816406 21.078125 C 11.925781 20.882812 12.058594 20.703125 12.207031 20.539062 C 11.285156 20.234375 9.242188 19.613281 7.816406 19.613281 C 7.800781 19.613281 7.78125 19.613281 7.765625 19.613281 C 6.894531 19.625 6.421875 20.023438 6.179688 20.359375 C 6.148438 20.398438 6.15625 20.4375 6.160156 20.460938 C 6.167969 20.480469 6.183594 20.519531 6.234375 20.539062 L 14.054688 23.582031 C 14.144531 23.617188 14.230469 23.625 14.320312 23.605469 C 15.683594 23.316406 18.925781 22.640625 19.570312 22.640625 C 20.242188 22.640625 23.34375 23.863281 24.605469 24.371094 L 24.828125 20.78125 L 22.992188 20.246094 " fill-opacity="1" fill-rule="nonzero"/></g><path fill="#ffffff" d="M 6.9375 10.582031 C 7.183594 10.652344 7.441406 10.507812 7.511719 10.261719 C 8.320312 7.425781 11.027344 5.636719 13.953125 6.003906 C 16.542969 6.332031 18.605469 8.363281 19.042969 10.882812 L 18.449219 10.441406 C 18.242188 10.285156 17.949219 10.328125 17.796875 10.535156 C 17.644531 10.738281 17.6875 11.03125 17.890625 11.1875 L 19.367188 12.289062 C 19.449219 12.347656 19.546875 12.378906 19.644531 12.378906 C 19.667969 12.378906 19.691406 12.378906 19.710938 12.375 C 19.835938 12.359375 19.945312 12.292969 20.019531 12.191406 L 21.121094 10.71875 C 21.273438 10.511719 21.230469 10.21875 21.023438 10.066406 C 20.820312 9.914062 20.527344 9.957031 20.375 10.160156 L 19.960938 10.710938 C 19.460938 7.765625 17.117188 5.464844 14.066406 5.082031 C 10.6875 4.652344 7.550781 6.726562 6.613281 10.007812 C 6.542969 10.253906 6.6875 10.511719 6.9375 10.582031 " fill-opacity="1" fill-rule="nonzero"/><g clip-path="url(#6466f1e842)"><path fill="#ffffff" d="M 12.390625 18.726562 C 12.683594 18.765625 12.976562 18.78125 13.269531 18.78125 C 16.304688 18.78125 18.988281 16.792969 19.84375 13.800781 C 19.914062 13.550781 19.769531 13.292969 19.523438 13.222656 C 19.273438 13.152344 19.019531 13.296875 18.945312 13.542969 C 18.140625 16.382812 15.425781 18.167969 12.507812 17.800781 C 9.917969 17.476562 7.863281 15.453125 7.417969 12.941406 L 7.988281 13.386719 C 8.1875 13.542969 8.480469 13.507812 8.640625 13.304688 C 8.796875 13.101562 8.761719 12.808594 8.558594 12.652344 L 7.109375 11.519531 C 6.90625 11.359375 6.613281 11.398438 6.453125 11.601562 L 5.320312 13.050781 C 5.164062 13.253906 5.199219 13.546875 5.402344 13.703125 C 5.488281 13.769531 5.589844 13.804688 5.6875 13.804688 C 5.828125 13.804688 5.964844 13.742188 6.058594 13.625 L 6.492188 13.066406 C 6.984375 16.027344 9.332031 18.339844 12.390625 18.726562 " fill-opacity="1" fill-rule="nonzero"/></g><path fill="#ffffff" d="M 12.183594 10.675781 C 12.195312 10.761719 12.214844 10.847656 12.246094 10.941406 C 12.269531 11.007812 12.320312 11.078125 12.382812 11.140625 C 12.46875 11.222656 12.578125 11.296875 12.734375 11.375 C 12.800781 11.410156 12.886719 11.441406 12.984375 11.464844 L 12.984375 9.714844 C 12.753906 9.761719 12.574219 9.855469 12.441406 9.996094 C 12.257812 10.1875 12.171875 10.414062 12.183594 10.675781 " fill-opacity="1" fill-rule="nonzero"/><path fill="#ffffff" d="M 13.964844 12.554688 L 13.964844 14.101562 C 14.015625 14.085938 14.0625 14.066406 14.101562 14.046875 C 14.234375 13.972656 14.308594 13.902344 14.347656 13.855469 C 14.398438 13.796875 14.433594 13.726562 14.453125 13.664062 C 14.488281 13.558594 14.488281 13.515625 14.488281 13.507812 C 14.488281 13.507812 14.488281 13.503906 14.488281 13.503906 C 14.496094 13.175781 14.433594 12.929688 14.300781 12.777344 C 14.222656 12.6875 14.109375 12.613281 13.964844 12.554688 " fill-opacity="1" fill-rule="nonzero"/><path fill="#ffffff" d="M 15.375 13.539062 C 15.351562 13.882812 15.203125 14.210938 14.933594 14.507812 C 14.710938 14.753906 14.382812 14.917969 13.964844 14.992188 L 13.964844 15.152344 C 13.964844 15.3125 13.898438 15.449219 13.777344 15.539062 C 13.683594 15.609375 13.578125 15.644531 13.464844 15.644531 C 13.351562 15.644531 13.242188 15.605469 13.152344 15.53125 C 13.074219 15.464844 12.984375 15.347656 12.984375 15.152344 L 12.984375 15.007812 C 12.554688 14.957031 12.171875 14.828125 11.84375 14.625 C 11.421875 14.351562 11.160156 13.960938 11.066406 13.453125 C 11.023438 13.28125 11.097656 13.15625 11.144531 13.097656 C 11.191406 13.039062 11.304688 12.945312 11.503906 12.957031 C 11.742188 12.964844 11.921875 13.117188 11.949219 13.347656 C 11.996094 13.542969 12.125 13.730469 12.335938 13.886719 C 12.492188 14.007812 12.710938 14.085938 12.984375 14.128906 L 12.984375 12.371094 C 12.535156 12.300781 12.160156 12.144531 11.867188 11.898438 C 11.519531 11.597656 11.320312 11.207031 11.265625 10.734375 C 11.242188 10.472656 11.273438 10.222656 11.367188 9.980469 C 11.464844 9.742188 11.605469 9.539062 11.78125 9.371094 C 11.953125 9.203125 12.171875 9.066406 12.445312 8.964844 C 12.617188 8.902344 12.796875 8.855469 12.984375 8.828125 L 12.984375 8.65625 C 12.984375 8.472656 13.066406 8.359375 13.132812 8.292969 C 13.339844 8.117188 13.597656 8.125 13.789062 8.277344 C 13.90625 8.382812 13.964844 8.511719 13.964844 8.65625 L 13.964844 8.882812 C 14.308594 8.964844 14.597656 9.125 14.832031 9.359375 C 15.140625 9.660156 15.304688 10.066406 15.316406 10.566406 C 15.316406 10.589844 15.316406 10.613281 15.308594 10.640625 C 15.257812 10.867188 15.105469 11.019531 14.898438 11.042969 C 14.648438 11.078125 14.457031 10.90625 14.425781 10.648438 C 14.414062 10.539062 14.394531 10.433594 14.359375 10.324219 C 14.324219 10.226562 14.277344 10.136719 14.214844 10.0625 C 14.140625 9.976562 14.058594 9.902344 13.964844 9.835938 L 13.964844 11.628906 C 14.214844 11.691406 14.421875 11.777344 14.589844 11.886719 C 14.800781 12.019531 14.976562 12.183594 15.105469 12.371094 C 15.230469 12.566406 15.308594 12.769531 15.34375 12.972656 C 15.382812 13.167969 15.390625 13.355469 15.375 13.539062 Z M 13.175781 7.484375 C 10.734375 7.507812 8.777344 9.503906 8.800781 11.945312 C 8.820312 14.386719 10.820312 16.347656 13.261719 16.324219 C 15.699219 16.300781 17.660156 14.300781 17.636719 11.859375 C 17.613281 9.421875 15.617188 7.460938 13.175781 7.484375 " fill-opacity="1" fill-rule="nonzero"/></svg>