<svg xmlns="http://www.w3.org/2000/svg" xmlns:xlink="http://www.w3.org/1999/xlink" width="40" zoomAndPan="magnify" viewBox="0 0 30 30.000001" height="40" preserveAspectRatio="xMidYMid meet" version="1.0"><defs><clipPath id="fdc7c7c47c"><path d="M 0.484375 0 L 29.515625 0 L 29.515625 29.03125 L 0.484375 29.03125 Z M 0.484375 0 " clip-rule="nonzero"/></clipPath><clipPath id="1a2bee7ab9"><path d="M 15 0 C 6.984375 0 0.484375 6.5 0.484375 14.515625 C 0.484375 22.53125 6.984375 29.03125 15 29.03125 C 23.015625 29.03125 29.515625 22.53125 29.515625 14.515625 C 29.515625 6.5 23.015625 0 15 0 Z M 15 0 " clip-rule="nonzero"/></clipPath><clipPath id="e00752ece8"><path d="M 17 16 L 24.667969 16 L 24.667969 24.207031 L 17 24.207031 Z M 17 16 " clip-rule="nonzero"/></clipPath><clipPath id="00273c11a9"><path d="M 5.070312 4.609375 L 11 4.609375 L 11 13 L 5.070312 13 Z M 5.070312 4.609375 " clip-rule="nonzero"/></clipPath><clipPath id="3edbf500bf"><path d="M 24 12 L 24.667969 12 L 24.667969 15 L 24 15 Z M 24 12 " clip-rule="nonzero"/></clipPath><clipPath id="d84a80b538"><path d="M 5.070312 15 L 7 15 L 7 18 L 5.070312 18 Z M 5.070312 15 " clip-rule="nonzero"/></clipPath><clipPath id="9119aeaa03"><path d="M 5.070312 17 L 6 17 L 6 20 L 5.070312 20 Z M 5.070312 17 " clip-rule="nonzero"/></clipPath></defs><g clip-path="url(#fdc7c7c47c)"><g clip-path="url(#1a2bee7ab9)"><path fill="#0071b8" d="M 0.484375 0 L 29.515625 0 L 29.515625 29.03125 L 0.484375 29.03125 Z M 0.484375 0 " fill-opacity="1" fill-rule="nonzero"/></g></g><g clip-path="url(#e00752ece8)"><path fill="#ffffff" d="M 23.464844 20.898438 L 22.90625 21.132812 C 22.632812 20.625 22.324219 20.136719 21.980469 19.675781 L 23.4375 18.800781 C 23.714844 18.632812 23.898438 18.355469 23.9375 18.035156 C 23.976562 17.714844 23.867188 17.398438 23.636719 17.171875 C 23.300781 16.832031 22.777344 16.769531 22.367188 17.015625 L 20.558594 18.097656 L 20.003906 17.542969 C 19.453125 16.992188 18.554688 16.992188 18 17.542969 C 17.449219 18.09375 17.449219 18.996094 18 19.546875 L 18.554688 20.101562 L 17.472656 21.910156 C 17.226562 22.320312 17.289062 22.84375 17.628906 23.179688 C 17.824219 23.378906 18.089844 23.488281 18.363281 23.488281 C 18.40625 23.488281 18.449219 23.484375 18.492188 23.480469 C 18.8125 23.4375 19.089844 23.257812 19.257812 22.980469 L 20.132812 21.519531 C 20.59375 21.867188 21.082031 22.175781 21.589844 22.449219 L 21.355469 23.007812 C 21.191406 23.386719 21.277344 23.824219 21.570312 24.117188 C 21.761719 24.3125 22.019531 24.414062 22.285156 24.414062 C 22.347656 24.414062 22.410156 24.410156 22.472656 24.398438 C 22.800781 24.335938 23.078125 24.113281 23.210938 23.800781 L 23.527344 23.070312 L 24.261719 22.753906 C 24.570312 22.621094 24.792969 22.34375 24.855469 22.015625 C 24.914062 21.6875 24.8125 21.351562 24.574219 21.113281 C 24.28125 20.820312 23.84375 20.734375 23.464844 20.898438 Z M 22.730469 17.621094 C 22.863281 17.542969 23.027344 17.5625 23.136719 17.671875 C 23.210938 17.746094 23.246094 17.847656 23.230469 17.949219 C 23.21875 18.050781 23.160156 18.140625 23.074219 18.195312 L 21.5625 19.101562 L 21.074219 18.617188 Z M 18.5 18.042969 C 18.777344 17.769531 19.226562 17.769531 19.503906 18.042969 L 20.253906 18.796875 L 20.441406 18.984375 C 21.246094 19.789062 21.90625 20.710938 22.410156 21.722656 C 22.410156 21.726562 22.410156 21.726562 22.410156 21.726562 C 22.410156 21.730469 22.414062 21.734375 22.414062 21.734375 C 22.484375 21.875 22.546875 22.011719 22.613281 22.15625 C 22.46875 22.09375 22.328125 22.027344 22.191406 21.957031 C 22.1875 21.957031 22.1875 21.957031 22.183594 21.953125 C 22.183594 21.953125 22.179688 21.953125 22.179688 21.953125 C 21.164062 21.453125 20.246094 20.792969 19.441406 19.984375 L 19.253906 19.796875 L 18.5 19.046875 C 18.226562 18.769531 18.226562 18.320312 18.5 18.046875 Z M 18.648438 22.617188 C 18.597656 22.703125 18.507812 22.761719 18.40625 22.777344 C 18.304688 22.789062 18.203125 22.753906 18.128906 22.679688 C 18.023438 22.574219 18 22.40625 18.078125 22.273438 C 18.078125 22.273438 19.074219 20.621094 19.074219 20.621094 L 19.558594 21.105469 Z M 22.339844 23.703125 C 22.242188 23.722656 22.144531 23.691406 22.070312 23.617188 C 21.984375 23.53125 21.957031 23.402344 22.007812 23.285156 L 22.230469 22.761719 C 22.378906 22.828125 22.527344 22.890625 22.679688 22.953125 L 22.789062 22.996094 L 22.5625 23.523438 C 22.519531 23.617188 22.441406 23.683594 22.339844 23.703125 Z M 24.160156 21.882812 C 24.140625 21.984375 24.074219 22.066406 23.980469 22.105469 L 23.453125 22.332031 L 23.40625 22.222656 C 23.347656 22.070312 23.28125 21.921875 23.214844 21.773438 L 23.742188 21.550781 C 23.855469 21.5 23.988281 21.527344 24.074219 21.617188 C 24.144531 21.6875 24.175781 21.785156 24.160156 21.882812 Z M 24.160156 21.882812 " fill-opacity="1" fill-rule="nonzero"/></g><g clip-path="url(#00273c11a9)"><path fill="#ffffff" d="M 7.636719 12.277344 C 7.644531 12.289062 7.65625 12.304688 7.671875 12.3125 C 7.675781 12.320312 7.683594 12.324219 7.691406 12.332031 C 7.707031 12.339844 7.71875 12.351562 7.734375 12.359375 C 7.742188 12.363281 7.75 12.367188 7.757812 12.371094 C 7.773438 12.378906 7.789062 12.382812 7.804688 12.390625 C 7.8125 12.390625 7.820312 12.394531 7.828125 12.394531 C 7.851562 12.398438 7.878906 12.402344 7.90625 12.402344 L 9.320312 12.402344 C 9.515625 12.402344 9.675781 12.246094 9.675781 12.050781 C 9.675781 11.855469 9.515625 11.695312 9.320312 11.695312 L 8.605469 11.695312 C 9.34375 10.667969 10.738281 8.574219 10.738281 7.445312 C 10.738281 5.882812 9.46875 4.613281 7.90625 4.613281 C 6.34375 4.613281 5.070312 5.882812 5.070312 7.445312 C 5.070312 8.894531 7.363281 11.925781 7.625 12.265625 C 7.628906 12.269531 7.632812 12.273438 7.636719 12.277344 Z M 7.90625 5.320312 C 9.074219 5.320312 10.027344 6.277344 10.027344 7.445312 C 10.027344 8.347656 8.683594 10.386719 7.90625 11.457031 C 7.125 10.386719 5.78125 8.347656 5.78125 7.445312 C 5.78125 6.277344 6.734375 5.320312 7.90625 5.320312 Z M 7.90625 5.320312 " fill-opacity="1" fill-rule="nonzero"/></g><path fill="#ffffff" d="M 9.320312 7.445312 C 9.320312 6.664062 8.683594 6.03125 7.90625 6.03125 C 7.125 6.03125 6.488281 6.664062 6.488281 7.445312 C 6.488281 8.226562 7.125 8.863281 7.90625 8.863281 C 8.683594 8.863281 9.320312 8.226562 9.320312 7.445312 Z M 7.195312 7.445312 C 7.195312 7.054688 7.515625 6.738281 7.90625 6.738281 C 8.296875 6.738281 8.613281 7.054688 8.613281 7.445312 C 8.613281 7.835938 8.296875 8.15625 7.90625 8.15625 C 7.515625 8.15625 7.195312 7.835938 7.195312 7.445312 Z M 7.195312 7.445312 " fill-opacity="1" fill-rule="nonzero"/><path fill="#ffffff" d="M 16.300781 15.945312 L 17.71875 15.945312 C 17.914062 15.945312 18.070312 15.785156 18.070312 15.589844 C 18.070312 15.394531 17.914062 15.238281 17.71875 15.238281 L 16.300781 15.238281 C 16.105469 15.238281 15.949219 15.394531 15.949219 15.589844 C 15.949219 15.785156 16.105469 15.945312 16.300781 15.945312 Z M 16.300781 15.945312 " fill-opacity="1" fill-rule="nonzero"/><path fill="#ffffff" d="M 13.46875 15.945312 L 14.886719 15.945312 C 15.082031 15.945312 15.238281 15.785156 15.238281 15.589844 C 15.238281 15.394531 15.082031 15.238281 14.886719 15.238281 L 13.46875 15.238281 C 13.273438 15.238281 13.113281 15.394531 13.113281 15.589844 C 13.113281 15.785156 13.273438 15.945312 13.46875 15.945312 Z M 13.46875 15.945312 " fill-opacity="1" fill-rule="nonzero"/><path fill="#ffffff" d="M 13.570312 12.402344 L 14.988281 12.402344 C 15.183594 12.402344 15.339844 12.246094 15.339844 12.050781 C 15.339844 11.855469 15.183594 11.695312 14.988281 11.695312 L 13.570312 11.695312 C 13.375 11.695312 13.214844 11.855469 13.214844 12.050781 C 13.214844 12.246094 13.375 12.402344 13.570312 12.402344 Z M 13.570312 12.402344 " fill-opacity="1" fill-rule="nonzero"/><path fill="#ffffff" d="M 21.96875 15.945312 L 22.777344 15.945312 C 23.019531 15.945312 23.261719 15.902344 23.492188 15.820312 C 23.675781 15.757812 23.769531 15.554688 23.703125 15.371094 C 23.640625 15.183594 23.4375 15.089844 23.253906 15.15625 C 23.101562 15.210938 22.941406 15.238281 22.777344 15.238281 L 21.96875 15.238281 C 21.769531 15.238281 21.613281 15.394531 21.613281 15.589844 C 21.613281 15.785156 21.769531 15.945312 21.96875 15.945312 Z M 21.96875 15.945312 " fill-opacity="1" fill-rule="nonzero"/><path fill="#ffffff" d="M 22.066406 12.402344 L 22.777344 12.402344 C 22.96875 12.402344 23.152344 12.441406 23.328125 12.515625 C 23.371094 12.535156 23.417969 12.542969 23.464844 12.542969 C 23.605469 12.542969 23.734375 12.460938 23.792969 12.328125 C 23.867188 12.148438 23.785156 11.941406 23.605469 11.863281 C 23.34375 11.753906 23.0625 11.695312 22.777344 11.695312 L 22.070312 11.695312 C 21.875 11.695312 21.714844 11.855469 21.714844 12.050781 C 21.714844 12.246094 21.875 12.40625 22.070312 12.40625 Z M 22.066406 12.402344 " fill-opacity="1" fill-rule="nonzero"/><path fill="#ffffff" d="M 16.402344 12.402344 L 17.820312 12.402344 C 18.015625 12.402344 18.171875 12.246094 18.171875 12.050781 C 18.171875 11.855469 18.015625 11.695312 17.820312 11.695312 L 16.402344 11.695312 C 16.207031 11.695312 16.046875 11.855469 16.046875 12.050781 C 16.046875 12.246094 16.207031 12.402344 16.402344 12.402344 Z M 16.402344 12.402344 " fill-opacity="1" fill-rule="nonzero"/><g clip-path="url(#3edbf500bf)"><path fill="#ffffff" d="M 24.238281 14.878906 C 24.289062 14.898438 24.335938 14.910156 24.386719 14.910156 C 24.519531 14.910156 24.648438 14.832031 24.707031 14.703125 C 24.835938 14.425781 24.902344 14.128906 24.902344 13.820312 C 24.902344 13.554688 24.851562 13.296875 24.757812 13.050781 C 24.6875 12.867188 24.480469 12.777344 24.296875 12.847656 C 24.117188 12.917969 24.023438 13.125 24.097656 13.308594 C 24.160156 13.46875 24.191406 13.644531 24.191406 13.820312 C 24.191406 14.027344 24.148438 14.226562 24.066406 14.410156 C 23.984375 14.585938 24.0625 14.796875 24.238281 14.878906 Z M 24.238281 14.878906 " fill-opacity="1" fill-rule="nonzero"/></g><path fill="#ffffff" d="M 19.132812 15.945312 L 20.550781 15.945312 C 20.746094 15.945312 20.90625 15.785156 20.90625 15.589844 C 20.90625 15.394531 20.746094 15.238281 20.550781 15.238281 L 19.132812 15.238281 C 18.9375 15.238281 18.78125 15.394531 18.78125 15.589844 C 18.78125 15.785156 18.9375 15.945312 19.132812 15.945312 Z M 19.132812 15.945312 " fill-opacity="1" fill-rule="nonzero"/><path fill="#ffffff" d="M 19.234375 12.402344 L 20.652344 12.402344 C 20.847656 12.402344 21.003906 12.246094 21.003906 12.050781 C 21.003906 11.855469 20.847656 11.695312 20.652344 11.695312 L 19.234375 11.695312 C 19.039062 11.695312 18.882812 11.855469 18.882812 12.050781 C 18.882812 12.246094 19.039062 12.402344 19.234375 12.402344 Z M 19.234375 12.402344 " fill-opacity="1" fill-rule="nonzero"/><g clip-path="url(#d84a80b538)"><path fill="#ffffff" d="M 6.734375 15.617188 C 6.644531 15.441406 6.433594 15.367188 6.257812 15.453125 C 5.746094 15.707031 5.351562 16.164062 5.175781 16.703125 C 5.113281 16.890625 5.214844 17.089844 5.402344 17.148438 C 5.4375 17.160156 5.476562 17.167969 5.511719 17.167969 C 5.660156 17.167969 5.800781 17.074219 5.847656 16.921875 C 5.964844 16.5625 6.230469 16.257812 6.570312 16.089844 C 6.746094 16.003906 6.820312 15.789062 6.730469 15.613281 Z M 6.734375 15.617188 " fill-opacity="1" fill-rule="nonzero"/></g><path fill="#ffffff" d="M 8.109375 20.195312 L 7.195312 20.195312 C 7.058594 20.195312 6.925781 20.175781 6.796875 20.136719 C 6.609375 20.082031 6.414062 20.1875 6.359375 20.375 C 6.304688 20.566406 6.410156 20.761719 6.597656 20.816406 C 6.792969 20.871094 6.992188 20.902344 7.195312 20.902344 L 8.109375 20.902344 C 8.304688 20.902344 8.460938 20.742188 8.460938 20.546875 C 8.460938 20.351562 8.304688 20.195312 8.109375 20.195312 Z M 8.109375 20.195312 " fill-opacity="1" fill-rule="nonzero"/><path fill="#ffffff" d="M 10.382812 12.050781 C 10.382812 12.246094 10.542969 12.402344 10.738281 12.402344 L 12.152344 12.402344 C 12.347656 12.402344 12.507812 12.246094 12.507812 12.050781 C 12.507812 11.855469 12.347656 11.695312 12.152344 11.695312 L 10.738281 11.695312 C 10.542969 11.695312 10.382812 11.855469 10.382812 12.050781 Z M 10.382812 12.050781 " fill-opacity="1" fill-rule="nonzero"/><path fill="#ffffff" d="M 10.941406 20.195312 L 9.523438 20.195312 C 9.328125 20.195312 9.167969 20.351562 9.167969 20.546875 C 9.167969 20.742188 9.328125 20.902344 9.523438 20.902344 L 10.941406 20.902344 C 11.136719 20.902344 11.292969 20.742188 11.292969 20.546875 C 11.292969 20.351562 11.136719 20.195312 10.941406 20.195312 Z M 10.941406 20.195312 " fill-opacity="1" fill-rule="nonzero"/><path fill="#ffffff" d="M 16.605469 20.195312 L 15.1875 20.195312 C 14.992188 20.195312 14.835938 20.351562 14.835938 20.546875 C 14.835938 20.742188 14.992188 20.902344 15.1875 20.902344 L 16.605469 20.902344 C 16.800781 20.902344 16.960938 20.742188 16.960938 20.546875 C 16.960938 20.351562 16.800781 20.195312 16.605469 20.195312 Z M 16.605469 20.195312 " fill-opacity="1" fill-rule="nonzero"/><path fill="#ffffff" d="M 13.773438 20.195312 L 12.355469 20.195312 C 12.160156 20.195312 12.003906 20.351562 12.003906 20.546875 C 12.003906 20.742188 12.160156 20.902344 12.355469 20.902344 L 13.773438 20.902344 C 13.96875 20.902344 14.125 20.742188 14.125 20.546875 C 14.125 20.351562 13.96875 20.195312 13.773438 20.195312 Z M 13.773438 20.195312 " fill-opacity="1" fill-rule="nonzero"/><g clip-path="url(#9119aeaa03)"><path fill="#ffffff" d="M 5.78125 18.777344 L 5.78125 18.222656 C 5.78125 18.027344 5.621094 17.867188 5.425781 17.867188 C 5.230469 17.867188 5.070312 18.027344 5.070312 18.222656 L 5.070312 18.777344 C 5.070312 19.121094 5.15625 19.464844 5.316406 19.769531 C 5.382812 19.890625 5.503906 19.957031 5.628906 19.957031 C 5.6875 19.957031 5.742188 19.945312 5.796875 19.917969 C 5.96875 19.828125 6.035156 19.613281 5.945312 19.4375 C 5.835938 19.234375 5.78125 19.011719 5.78125 18.777344 Z M 5.78125 18.777344 " fill-opacity="1" fill-rule="nonzero"/></g><path fill="#ffffff" d="M 12.054688 15.238281 L 10.636719 15.238281 C 10.441406 15.238281 10.28125 15.394531 10.28125 15.589844 C 10.28125 15.785156 10.441406 15.945312 10.636719 15.945312 L 12.054688 15.945312 C 12.25 15.945312 12.40625 15.785156 12.40625 15.589844 C 12.40625 15.394531 12.25 15.238281 12.054688 15.238281 Z M 12.054688 15.238281 " fill-opacity="1" fill-rule="nonzero"/><path fill="#ffffff" d="M 9.21875 15.238281 L 7.804688 15.238281 C 7.609375 15.238281 7.449219 15.394531 7.449219 15.589844 C 7.449219 15.785156 7.609375 15.945312 7.804688 15.945312 L 9.21875 15.945312 C 9.414062 15.945312 9.574219 15.785156 9.574219 15.589844 C 9.574219 15.394531 9.414062 15.238281 9.21875 15.238281 Z M 9.21875 15.238281 " fill-opacity="1" fill-rule="nonzero"/></svg>