<svg xmlns="http://www.w3.org/2000/svg" xmlns:xlink="http://www.w3.org/1999/xlink" width="40" zoomAndPan="magnify" viewBox="0 0 30 30.000001" height="40" preserveAspectRatio="xMidYMid meet" version="1.0"><defs><clipPath id="81a6c4a8f8"><path d="M 7.050781 6.570312 L 22.949219 6.570312 L 22.949219 22.464844 L 7.050781 22.464844 Z M 7.050781 6.570312 " clip-rule="nonzero"/></clipPath><clipPath id="c8682cc780"><path d="M 15 6.570312 C 10.609375 6.570312 7.050781 10.125 7.050781 14.515625 C 7.050781 18.90625 10.609375 22.464844 15 22.464844 C 19.390625 22.464844 22.949219 18.90625 22.949219 14.515625 C 22.949219 10.125 19.390625 6.570312 15 6.570312 Z M 15 6.570312 " clip-rule="nonzero"/></clipPath><clipPath id="ccd66638e5"><path d="M 16 15 L 20.453125 15 L 20.453125 19.980469 L 16 19.980469 Z M 16 15 " clip-rule="nonzero"/></clipPath><clipPath id="dcbb549575"><path d="M 9.5625 9.09375 L 13 9.09375 L 13 14 L 9.5625 14 Z M 9.5625 9.09375 " clip-rule="nonzero"/></clipPath><clipPath id="d51c428d9d"><path d="M 10 9.09375 L 12 9.09375 L 12 12 L 10 12 Z M 10 9.09375 " clip-rule="nonzero"/></clipPath><clipPath id="a455697954"><path d="M 19 13 L 20.453125 13 L 20.453125 15 L 19 15 Z M 19 13 " clip-rule="nonzero"/></clipPath><clipPath id="2fb43248a9"><path d="M 9.5625 15 L 11 15 L 11 16 L 9.5625 16 Z M 9.5625 15 " clip-rule="nonzero"/></clipPath><clipPath id="53a72888d4"><path d="M 9.5625 16 L 11 16 L 11 18 L 9.5625 18 Z M 9.5625 16 " clip-rule="nonzero"/></clipPath></defs><g clip-path="url(#81a6c4a8f8)"><g clip-path="url(#c8682cc780)"><path fill="#0071b8" d="M 7.050781 6.570312 L 22.949219 6.570312 L 22.949219 22.464844 L 7.050781 22.464844 Z M 7.050781 6.570312 " fill-opacity="1" fill-rule="nonzero"/></g></g><g clip-path="url(#ccd66638e5)"><path fill="#ffffff" d="M 19.632812 18.007812 L 19.328125 18.136719 C 19.179688 17.855469 19.007812 17.589844 18.820312 17.335938 L 19.617188 16.859375 C 19.769531 16.765625 19.871094 16.613281 19.890625 16.441406 C 19.914062 16.265625 19.851562 16.09375 19.726562 15.96875 C 19.542969 15.78125 19.257812 15.746094 19.03125 15.882812 L 18.042969 16.476562 L 17.738281 16.171875 C 17.4375 15.867188 16.945312 15.867188 16.640625 16.171875 C 16.339844 16.472656 16.339844 16.964844 16.640625 17.265625 L 16.945312 17.570312 L 16.351562 18.558594 C 16.21875 18.785156 16.253906 19.070312 16.4375 19.257812 C 16.546875 19.363281 16.691406 19.425781 16.839844 19.425781 C 16.863281 19.425781 16.886719 19.421875 16.910156 19.417969 C 17.085938 19.398438 17.238281 19.296875 17.328125 19.148438 L 17.808594 18.347656 C 18.0625 18.539062 18.328125 18.707031 18.609375 18.855469 L 18.476562 19.160156 C 18.390625 19.371094 18.433594 19.609375 18.597656 19.769531 C 18.703125 19.875 18.84375 19.933594 18.988281 19.933594 C 19.019531 19.933594 19.054688 19.929688 19.089844 19.921875 C 19.269531 19.886719 19.421875 19.765625 19.496094 19.597656 L 19.667969 19.195312 L 20.070312 19.023438 C 20.238281 18.949219 20.359375 18.796875 20.394531 18.617188 C 20.425781 18.4375 20.371094 18.253906 20.242188 18.125 C 20.078125 17.964844 19.839844 17.917969 19.632812 18.007812 Z M 19.230469 16.214844 C 19.304688 16.171875 19.394531 16.183594 19.453125 16.242188 C 19.492188 16.28125 19.511719 16.335938 19.503906 16.390625 C 19.5 16.449219 19.46875 16.496094 19.417969 16.527344 L 18.589844 17.023438 L 18.324219 16.757812 Z M 16.917969 16.445312 C 17.066406 16.292969 17.3125 16.292969 17.464844 16.445312 L 17.976562 16.957031 C 18.417969 17.402344 18.78125 17.902344 19.054688 18.460938 C 19.054688 18.460938 19.058594 18.464844 19.058594 18.464844 C 19.097656 18.542969 19.132812 18.617188 19.164062 18.695312 C 19.089844 18.660156 19.011719 18.625 18.9375 18.585938 C 18.933594 18.585938 18.933594 18.585938 18.933594 18.585938 C 18.929688 18.585938 18.929688 18.585938 18.929688 18.585938 C 18.375 18.308594 17.871094 17.949219 17.429688 17.507812 L 17.328125 17.402344 L 16.917969 16.992188 C 16.765625 16.84375 16.765625 16.597656 16.917969 16.445312 Z M 16.996094 18.949219 C 16.96875 18.996094 16.917969 19.027344 16.863281 19.035156 C 16.808594 19.042969 16.753906 19.023438 16.710938 18.984375 C 16.652344 18.925781 16.640625 18.832031 16.683594 18.761719 C 16.683594 18.761719 17.230469 17.855469 17.230469 17.855469 L 17.496094 18.121094 Z M 19.015625 19.542969 C 18.964844 19.550781 18.910156 19.535156 18.871094 19.496094 C 18.820312 19.449219 18.808594 19.378906 18.835938 19.3125 L 18.957031 19.027344 C 19.039062 19.0625 19.121094 19.097656 19.203125 19.132812 L 19.261719 19.15625 L 19.140625 19.445312 C 19.117188 19.496094 19.070312 19.53125 19.015625 19.542969 Z M 20.011719 18.546875 C 20.003906 18.601562 19.964844 18.644531 19.914062 18.667969 L 19.625 18.792969 L 19.601562 18.734375 C 19.570312 18.648438 19.535156 18.566406 19.496094 18.484375 L 19.785156 18.363281 C 19.847656 18.335938 19.917969 18.351562 19.96875 18.398438 C 20.007812 18.4375 20.023438 18.492188 20.011719 18.546875 Z M 20.011719 18.546875 " fill-opacity="1" fill-rule="nonzero"/></g><g clip-path="url(#dcbb549575)"><path fill="#ffffff" d="M 10.96875 13.289062 C 10.972656 13.296875 10.980469 13.300781 10.988281 13.308594 C 10.992188 13.3125 10.996094 13.3125 11 13.316406 C 11.007812 13.324219 11.011719 13.328125 11.019531 13.332031 C 11.027344 13.335938 11.03125 13.335938 11.035156 13.339844 C 11.042969 13.34375 11.050781 13.347656 11.0625 13.347656 C 11.066406 13.351562 11.070312 13.351562 11.074219 13.351562 C 11.085938 13.355469 11.101562 13.355469 11.113281 13.355469 L 11.890625 13.355469 C 11.996094 13.355469 12.085938 13.269531 12.085938 13.164062 C 12.085938 13.054688 11.996094 12.96875 11.890625 12.96875 L 11.5 12.96875 C 11.902344 12.40625 12.664062 11.261719 12.664062 10.644531 C 12.664062 9.789062 11.96875 9.09375 11.113281 9.09375 C 10.261719 9.09375 9.5625 9.789062 9.5625 10.644531 C 9.5625 11.4375 10.816406 13.09375 10.960938 13.28125 C 10.964844 13.285156 10.964844 13.285156 10.96875 13.289062 Z M 11.113281 9.480469 C 11.757812 9.480469 12.277344 10.003906 12.277344 10.644531 C 12.277344 11.136719 11.542969 12.253906 11.113281 12.839844 C 10.6875 12.253906 9.953125 11.136719 9.953125 10.644531 C 9.953125 10.003906 10.472656 9.480469 11.113281 9.480469 Z M 11.113281 9.480469 " fill-opacity="1" fill-rule="nonzero"/></g><g clip-path="url(#d51c428d9d)"><path fill="#ffffff" d="M 11.890625 10.644531 C 11.890625 10.214844 11.542969 9.867188 11.113281 9.867188 C 10.6875 9.867188 10.339844 10.214844 10.339844 10.644531 C 10.339844 11.070312 10.6875 11.417969 11.113281 11.417969 C 11.542969 11.417969 11.890625 11.070312 11.890625 10.644531 Z M 10.726562 10.644531 C 10.726562 10.429688 10.902344 10.253906 11.113281 10.253906 C 11.328125 10.253906 11.503906 10.429688 11.503906 10.644531 C 11.503906 10.855469 11.328125 11.03125 11.113281 11.03125 C 10.902344 11.03125 10.726562 10.855469 10.726562 10.644531 Z M 10.726562 10.644531 " fill-opacity="1" fill-rule="nonzero"/></g><path fill="#ffffff" d="M 15.710938 15.296875 L 16.488281 15.296875 C 16.59375 15.296875 16.679688 15.207031 16.679688 15.101562 C 16.679688 14.996094 16.59375 14.90625 16.488281 14.90625 L 15.710938 14.90625 C 15.605469 14.90625 15.519531 14.996094 15.519531 15.101562 C 15.519531 15.207031 15.605469 15.296875 15.710938 15.296875 Z M 15.710938 15.296875 " fill-opacity="1" fill-rule="nonzero"/><path fill="#ffffff" d="M 14.160156 15.296875 L 14.9375 15.296875 C 15.042969 15.296875 15.128906 15.207031 15.128906 15.101562 C 15.128906 14.996094 15.042969 14.90625 14.9375 14.90625 L 14.160156 14.90625 C 14.054688 14.90625 13.96875 14.996094 13.96875 15.101562 C 13.96875 15.207031 14.054688 15.296875 14.160156 15.296875 Z M 14.160156 15.296875 " fill-opacity="1" fill-rule="nonzero"/><path fill="#ffffff" d="M 14.214844 13.355469 L 14.992188 13.355469 C 15.097656 13.355469 15.1875 13.269531 15.1875 13.164062 C 15.1875 13.054688 15.097656 12.96875 14.992188 12.96875 L 14.214844 12.96875 C 14.109375 12.96875 14.023438 13.054688 14.023438 13.164062 C 14.023438 13.269531 14.109375 13.355469 14.214844 13.355469 Z M 14.214844 13.355469 " fill-opacity="1" fill-rule="nonzero"/><path fill="#ffffff" d="M 18.8125 15.296875 L 19.257812 15.296875 C 19.390625 15.296875 19.523438 15.273438 19.648438 15.226562 C 19.746094 15.191406 19.800781 15.082031 19.765625 14.980469 C 19.730469 14.878906 19.617188 14.828125 19.515625 14.863281 C 19.433594 14.894531 19.347656 14.90625 19.257812 14.90625 L 18.8125 14.90625 C 18.707031 14.90625 18.621094 14.996094 18.621094 15.101562 C 18.621094 15.207031 18.707031 15.296875 18.8125 15.296875 Z M 18.8125 15.296875 " fill-opacity="1" fill-rule="nonzero"/><path fill="#ffffff" d="M 18.867188 13.355469 L 19.257812 13.355469 C 19.359375 13.355469 19.460938 13.378906 19.558594 13.417969 C 19.582031 13.429688 19.609375 13.433594 19.632812 13.433594 C 19.710938 13.433594 19.78125 13.390625 19.8125 13.316406 C 19.855469 13.21875 19.808594 13.101562 19.710938 13.0625 C 19.566406 13 19.414062 12.96875 19.257812 12.96875 L 18.867188 12.96875 C 18.761719 12.96875 18.675781 13.054688 18.675781 13.164062 C 18.675781 13.269531 18.761719 13.359375 18.867188 13.359375 Z M 18.867188 13.355469 " fill-opacity="1" fill-rule="nonzero"/><path fill="#ffffff" d="M 15.765625 13.355469 L 16.542969 13.355469 C 16.648438 13.355469 16.734375 13.269531 16.734375 13.164062 C 16.734375 13.054688 16.648438 12.96875 16.542969 12.96875 L 15.765625 12.96875 C 15.660156 12.96875 15.574219 13.054688 15.574219 13.164062 C 15.574219 13.269531 15.660156 13.355469 15.765625 13.355469 Z M 15.765625 13.355469 " fill-opacity="1" fill-rule="nonzero"/><g clip-path="url(#a455697954)"><path fill="#ffffff" d="M 20.058594 14.710938 C 20.082031 14.722656 20.109375 14.730469 20.136719 14.730469 C 20.210938 14.730469 20.28125 14.6875 20.3125 14.617188 C 20.382812 14.464844 20.417969 14.300781 20.417969 14.132812 C 20.417969 13.988281 20.390625 13.84375 20.339844 13.710938 C 20.300781 13.609375 20.1875 13.5625 20.089844 13.601562 C 19.988281 13.640625 19.941406 13.75 19.980469 13.851562 C 20.015625 13.941406 20.03125 14.035156 20.03125 14.132812 C 20.03125 14.246094 20.007812 14.355469 19.960938 14.457031 C 19.917969 14.550781 19.960938 14.667969 20.058594 14.710938 Z M 20.058594 14.710938 " fill-opacity="1" fill-rule="nonzero"/></g><path fill="#ffffff" d="M 17.261719 15.296875 L 18.039062 15.296875 C 18.144531 15.296875 18.230469 15.207031 18.230469 15.101562 C 18.230469 14.996094 18.144531 14.90625 18.039062 14.90625 L 17.261719 14.90625 C 17.15625 14.90625 17.070312 14.996094 17.070312 15.101562 C 17.070312 15.207031 17.15625 15.296875 17.261719 15.296875 Z M 17.261719 15.296875 " fill-opacity="1" fill-rule="nonzero"/><path fill="#ffffff" d="M 17.316406 13.355469 L 18.09375 13.355469 C 18.199219 13.355469 18.285156 13.269531 18.285156 13.164062 C 18.285156 13.054688 18.199219 12.96875 18.09375 12.96875 L 17.316406 12.96875 C 17.210938 12.96875 17.125 13.054688 17.125 13.164062 C 17.125 13.269531 17.210938 13.355469 17.316406 13.355469 Z M 17.316406 13.355469 " fill-opacity="1" fill-rule="nonzero"/><g clip-path="url(#2fb43248a9)"><path fill="#ffffff" d="M 10.472656 15.113281 C 10.425781 15.019531 10.308594 14.980469 10.214844 15.027344 C 9.933594 15.164062 9.71875 15.414062 9.621094 15.710938 C 9.585938 15.8125 9.644531 15.921875 9.746094 15.957031 C 9.765625 15.960938 9.785156 15.964844 9.804688 15.964844 C 9.886719 15.964844 9.960938 15.914062 9.988281 15.832031 C 10.054688 15.632812 10.199219 15.464844 10.386719 15.375 C 10.480469 15.328125 10.519531 15.210938 10.472656 15.113281 Z M 10.472656 15.113281 " fill-opacity="1" fill-rule="nonzero"/></g><path fill="#ffffff" d="M 11.226562 17.621094 L 10.726562 17.621094 C 10.652344 17.621094 10.578125 17.609375 10.507812 17.589844 C 10.40625 17.558594 10.296875 17.617188 10.269531 17.722656 C 10.238281 17.824219 10.296875 17.933594 10.398438 17.960938 C 10.503906 17.992188 10.617188 18.007812 10.726562 18.007812 L 11.226562 18.007812 C 11.332031 18.007812 11.417969 17.921875 11.417969 17.816406 C 11.417969 17.707031 11.332031 17.621094 11.226562 17.621094 Z M 11.226562 17.621094 " fill-opacity="1" fill-rule="nonzero"/><path fill="#ffffff" d="M 12.472656 13.164062 C 12.472656 13.269531 12.558594 13.355469 12.664062 13.355469 L 13.441406 13.355469 C 13.546875 13.355469 13.636719 13.269531 13.636719 13.164062 C 13.636719 13.054688 13.546875 12.96875 13.441406 12.96875 L 12.664062 12.96875 C 12.558594 12.96875 12.472656 13.054688 12.472656 13.164062 Z M 12.472656 13.164062 " fill-opacity="1" fill-rule="nonzero"/><path fill="#ffffff" d="M 12.777344 17.621094 L 12 17.621094 C 11.894531 17.621094 11.808594 17.707031 11.808594 17.816406 C 11.808594 17.921875 11.894531 18.007812 12 18.007812 L 12.777344 18.007812 C 12.882812 18.007812 12.96875 17.921875 12.96875 17.816406 C 12.96875 17.707031 12.882812 17.621094 12.777344 17.621094 Z M 12.777344 17.621094 " fill-opacity="1" fill-rule="nonzero"/><path fill="#ffffff" d="M 15.878906 17.621094 L 15.101562 17.621094 C 14.996094 17.621094 14.910156 17.707031 14.910156 17.816406 C 14.910156 17.921875 14.996094 18.007812 15.101562 18.007812 L 15.878906 18.007812 C 15.984375 18.007812 16.070312 17.921875 16.070312 17.816406 C 16.070312 17.707031 15.984375 17.621094 15.878906 17.621094 Z M 15.878906 17.621094 " fill-opacity="1" fill-rule="nonzero"/><path fill="#ffffff" d="M 14.328125 17.621094 L 13.550781 17.621094 C 13.445312 17.621094 13.359375 17.707031 13.359375 17.816406 C 13.359375 17.921875 13.445312 18.007812 13.550781 18.007812 L 14.328125 18.007812 C 14.433594 18.007812 14.519531 17.921875 14.519531 17.816406 C 14.519531 17.707031 14.433594 17.621094 14.328125 17.621094 Z M 14.328125 17.621094 " fill-opacity="1" fill-rule="nonzero"/><g clip-path="url(#53a72888d4)"><path fill="#ffffff" d="M 9.953125 16.847656 L 9.953125 16.542969 C 9.953125 16.433594 9.867188 16.347656 9.757812 16.347656 C 9.652344 16.347656 9.5625 16.433594 9.5625 16.542969 L 9.5625 16.847656 C 9.5625 17.035156 9.609375 17.222656 9.699219 17.390625 C 9.734375 17.457031 9.800781 17.492188 9.871094 17.492188 C 9.902344 17.492188 9.933594 17.484375 9.960938 17.46875 C 10.054688 17.421875 10.089844 17.304688 10.042969 17.207031 C 9.984375 17.097656 9.953125 16.972656 9.953125 16.847656 Z M 9.953125 16.847656 " fill-opacity="1" fill-rule="nonzero"/></g><path fill="#ffffff" d="M 13.386719 14.90625 L 12.609375 14.90625 C 12.503906 14.90625 12.417969 14.996094 12.417969 15.101562 C 12.417969 15.207031 12.503906 15.296875 12.609375 15.296875 L 13.386719 15.296875 C 13.492188 15.296875 13.578125 15.207031 13.578125 15.101562 C 13.578125 14.996094 13.492188 14.90625 13.386719 14.90625 Z M 13.386719 14.90625 " fill-opacity="1" fill-rule="nonzero"/><path fill="#ffffff" d="M 11.835938 14.90625 L 11.058594 14.90625 C 10.953125 14.90625 10.867188 14.996094 10.867188 15.101562 C 10.867188 15.207031 10.953125 15.296875 11.058594 15.296875 L 11.835938 15.296875 C 11.941406 15.296875 12.027344 15.207031 12.027344 15.101562 C 12.027344 14.996094 11.941406 14.90625 11.835938 14.90625 Z M 11.835938 14.90625 " fill-opacity="1" fill-rule="nonzero"/></svg>