<svg xmlns="http://www.w3.org/2000/svg" xmlns:xlink="http://www.w3.org/1999/xlink" width="40" zoomAndPan="magnify" viewBox="0 0 30 30.000001" height="40" preserveAspectRatio="xMidYMid meet" version="1.0"><defs><clipPath id="2737e0645d"><path d="M 7.128906 6.644531 L 22.871094 6.644531 L 22.871094 22.386719 L 7.128906 22.386719 Z M 7.128906 6.644531 " clip-rule="nonzero"/></clipPath><clipPath id="03c82f5cbd"><path d="M 15 6.644531 C 10.652344 6.644531 7.128906 10.167969 7.128906 14.515625 C 7.128906 18.863281 10.652344 22.386719 15 22.386719 C 19.347656 22.386719 22.871094 18.863281 22.871094 14.515625 C 22.871094 10.167969 19.347656 6.644531 15 6.644531 Z M 15 6.644531 " clip-rule="nonzero"/></clipPath><clipPath id="5e0926d0a1"><path d="M 10 16 L 20.554688 16 L 20.554688 20 L 10 20 Z M 10 16 " clip-rule="nonzero"/></clipPath><clipPath id="387197a248"><path d="M 10 9.15625 L 19 9.15625 L 19 14 L 10 14 Z M 10 9.15625 " clip-rule="nonzero"/></clipPath><clipPath id="d70645303c"><path d="M 9.667969 12 L 18 12 L 18 17 L 9.667969 17 Z M 9.667969 12 " clip-rule="nonzero"/></clipPath></defs><g clip-path="url(#2737e0645d)"><g clip-path="url(#03c82f5cbd)"><path fill="#0071b8" d="M 7.128906 6.644531 L 22.871094 6.644531 L 22.871094 22.386719 L 7.128906 22.386719 Z M 7.128906 6.644531 " fill-opacity="1" fill-rule="nonzero"/></g></g><g clip-path="url(#5e0926d0a1)"><path fill="#ffffff" d="M 19.328125 17.621094 L 19.296875 17.570312 C 19.292969 17.5625 18.90625 16.988281 18.042969 16.742188 C 17.203125 16.503906 16.652344 16.703125 15.328125 17.191406 C 15.257812 17.214844 15.1875 17.242188 15.109375 17.269531 C 14.722656 17.402344 14.265625 17.5625 13.921875 17.832031 C 13.914062 17.839844 13.90625 17.847656 13.894531 17.855469 C 13.761719 17.964844 13.648438 18.089844 13.5625 18.238281 C 13.550781 18.257812 13.558594 18.277344 13.566406 18.289062 C 13.574219 18.300781 13.59375 18.316406 13.621094 18.3125 C 13.761719 18.289062 13.917969 18.261719 14.089844 18.226562 C 15.679688 17.921875 16.652344 18.230469 16.5625 18.230469 C 15.957031 18.230469 14.914062 18.421875 14.148438 18.558594 C 13.976562 18.589844 13.820312 18.621094 13.675781 18.644531 C 13.527344 18.667969 13.378906 18.609375 13.292969 18.484375 C 13.207031 18.359375 13.195312 18.203125 13.269531 18.070312 C 13.332031 17.964844 13.402344 17.867188 13.484375 17.78125 C 12.984375 17.613281 11.875 17.277344 11.105469 17.277344 C 11.09375 17.277344 11.085938 17.277344 11.074219 17.277344 C 10.601562 17.285156 10.347656 17.5 10.214844 17.679688 C 10.199219 17.703125 10.203125 17.726562 10.207031 17.738281 C 10.210938 17.75 10.21875 17.769531 10.246094 17.777344 L 14.488281 19.429688 C 14.53125 19.449219 14.582031 19.453125 14.628906 19.441406 C 15.367188 19.285156 17.125 18.917969 17.476562 18.917969 C 17.839844 18.917969 19.523438 19.582031 20.203125 19.859375 L 20.324219 17.910156 L 19.328125 17.621094 " fill-opacity="1" fill-rule="nonzero"/></g><g clip-path="url(#387197a248)"><path fill="#ffffff" d="M 10.625 12.382812 C 10.761719 12.421875 10.898438 12.34375 10.9375 12.207031 C 11.375 10.671875 12.84375 9.699219 14.429688 9.902344 C 15.835938 10.078125 16.953125 11.179688 17.191406 12.546875 L 16.867188 12.304688 C 16.753906 12.222656 16.597656 12.246094 16.515625 12.355469 C 16.429688 12.46875 16.453125 12.625 16.566406 12.710938 L 17.363281 13.308594 C 17.410156 13.339844 17.460938 13.355469 17.515625 13.355469 C 17.527344 13.355469 17.539062 13.355469 17.550781 13.355469 C 17.617188 13.34375 17.679688 13.308594 17.71875 13.253906 L 18.316406 12.457031 C 18.398438 12.34375 18.375 12.1875 18.265625 12.101562 C 18.152344 12.019531 17.992188 12.042969 17.910156 12.152344 L 17.6875 12.453125 C 17.414062 10.855469 16.144531 9.609375 14.492188 9.398438 C 12.660156 9.167969 10.960938 10.292969 10.453125 12.070312 C 10.414062 12.203125 10.492188 12.34375 10.625 12.382812 " fill-opacity="1" fill-rule="nonzero"/></g><g clip-path="url(#d70645303c)"><path fill="#ffffff" d="M 13.582031 16.796875 C 13.742188 16.816406 13.902344 16.828125 14.058594 16.828125 C 15.703125 16.828125 17.160156 15.75 17.625 14.125 C 17.660156 13.992188 17.582031 13.851562 17.449219 13.816406 C 17.316406 13.777344 17.175781 13.855469 17.136719 13.988281 C 16.699219 15.527344 15.230469 16.496094 13.644531 16.296875 C 12.242188 16.121094 11.128906 15.023438 10.886719 13.660156 L 11.195312 13.902344 C 11.304688 13.988281 11.464844 13.96875 11.550781 13.859375 C 11.636719 13.75 11.617188 13.589844 11.507812 13.503906 L 10.71875 12.890625 C 10.609375 12.804688 10.449219 12.824219 10.367188 12.933594 L 9.75 13.722656 C 9.667969 13.832031 9.683594 13.988281 9.796875 14.074219 C 9.839844 14.109375 9.894531 14.128906 9.949219 14.128906 C 10.027344 14.128906 10.101562 14.09375 10.148438 14.03125 L 10.386719 13.730469 C 10.652344 15.335938 11.925781 16.589844 13.582031 16.796875 " fill-opacity="1" fill-rule="nonzero"/></g><path fill="#ffffff" d="M 13.472656 12.433594 C 13.476562 12.480469 13.488281 12.527344 13.503906 12.578125 C 13.519531 12.613281 13.542969 12.652344 13.582031 12.683594 C 13.625 12.730469 13.6875 12.769531 13.769531 12.8125 C 13.804688 12.832031 13.851562 12.847656 13.90625 12.859375 L 13.90625 11.910156 C 13.78125 11.9375 13.683594 11.988281 13.609375 12.0625 C 13.511719 12.167969 13.464844 12.289062 13.472656 12.433594 " fill-opacity="1" fill-rule="nonzero"/><path fill="#ffffff" d="M 14.4375 13.453125 L 14.4375 14.289062 C 14.464844 14.28125 14.488281 14.273438 14.511719 14.261719 C 14.582031 14.222656 14.625 14.183594 14.644531 14.15625 C 14.671875 14.125 14.691406 14.085938 14.703125 14.054688 C 14.71875 13.996094 14.722656 13.972656 14.722656 13.96875 C 14.722656 13.96875 14.722656 13.964844 14.722656 13.964844 C 14.726562 13.789062 14.691406 13.65625 14.621094 13.570312 C 14.578125 13.523438 14.515625 13.484375 14.4375 13.453125 " fill-opacity="1" fill-rule="nonzero"/><path fill="#ffffff" d="M 15.199219 13.984375 C 15.1875 14.171875 15.105469 14.347656 14.960938 14.511719 C 14.839844 14.644531 14.664062 14.734375 14.4375 14.773438 L 14.4375 14.859375 C 14.4375 14.945312 14.402344 15.019531 14.335938 15.070312 C 14.285156 15.105469 14.226562 15.125 14.167969 15.125 C 14.105469 15.125 14.046875 15.105469 13.996094 15.066406 C 13.953125 15.027344 13.90625 14.964844 13.90625 14.859375 L 13.90625 14.78125 C 13.671875 14.753906 13.464844 14.683594 13.289062 14.574219 C 13.058594 14.425781 12.917969 14.214844 12.867188 13.9375 C 12.839844 13.84375 12.882812 13.777344 12.90625 13.746094 C 12.933594 13.714844 12.992188 13.664062 13.101562 13.671875 C 13.230469 13.675781 13.328125 13.757812 13.34375 13.882812 C 13.371094 13.988281 13.441406 14.089844 13.554688 14.175781 C 13.636719 14.238281 13.757812 14.28125 13.90625 14.304688 L 13.90625 13.351562 C 13.660156 13.3125 13.457031 13.226562 13.300781 13.097656 C 13.113281 12.933594 13.003906 12.71875 12.972656 12.464844 C 12.960938 12.324219 12.980469 12.1875 13.027344 12.054688 C 13.082031 11.925781 13.15625 11.816406 13.253906 11.726562 C 13.347656 11.632812 13.464844 11.5625 13.613281 11.503906 C 13.707031 11.46875 13.804688 11.445312 13.90625 11.433594 L 13.90625 11.339844 C 13.90625 11.238281 13.949219 11.175781 13.984375 11.140625 C 14.097656 11.046875 14.238281 11.050781 14.339844 11.132812 C 14.40625 11.191406 14.4375 11.261719 14.4375 11.339844 L 14.4375 11.460938 C 14.621094 11.503906 14.78125 11.59375 14.90625 11.71875 C 15.074219 11.882812 15.164062 12.101562 15.167969 12.375 C 15.171875 12.386719 15.167969 12.398438 15.164062 12.414062 C 15.140625 12.539062 15.054688 12.617188 14.941406 12.632812 C 14.808594 12.648438 14.703125 12.558594 14.6875 12.417969 C 14.679688 12.359375 14.667969 12.300781 14.648438 12.242188 C 14.632812 12.191406 14.605469 12.140625 14.570312 12.101562 C 14.53125 12.054688 14.488281 12.011719 14.4375 11.976562 L 14.4375 12.949219 C 14.574219 12.984375 14.683594 13.03125 14.777344 13.089844 C 14.890625 13.160156 14.984375 13.25 15.054688 13.351562 C 15.121094 13.457031 15.164062 13.566406 15.183594 13.679688 C 15.203125 13.785156 15.210938 13.886719 15.199219 13.984375 Z M 14.007812 10.703125 C 12.6875 10.714844 11.625 11.796875 11.636719 13.121094 C 11.648438 14.445312 12.730469 15.507812 14.054688 15.496094 C 15.378906 15.480469 16.441406 14.398438 16.425781 13.074219 C 16.414062 11.753906 15.332031 10.691406 14.007812 10.703125 " fill-opacity="1" fill-rule="nonzero"/></svg>