<svg xmlns="http://www.w3.org/2000/svg" xmlns:xlink="http://www.w3.org/1999/xlink" width="40" zoomAndPan="magnify" viewBox="0 0 30 30.000001" height="40" preserveAspectRatio="xMidYMid meet" version="1.0"><defs><clipPath id="540c9f94a9"><path d="M 7.054688 6.570312 L 22.945312 6.570312 L 22.945312 22.464844 L 7.054688 22.464844 Z M 7.054688 6.570312 " clip-rule="nonzero"/></clipPath><clipPath id="b8d7706dbc"><path d="M 15 6.570312 C 10.609375 6.570312 7.054688 10.128906 7.054688 14.515625 C 7.054688 18.90625 10.609375 22.464844 15 22.464844 C 19.390625 22.464844 22.945312 18.90625 22.945312 14.515625 C 22.945312 10.128906 19.390625 6.570312 15 6.570312 Z M 15 6.570312 " clip-rule="nonzero"/></clipPath><clipPath id="b038339e2c"><path d="M 18 18 L 20 18 L 20 19.769531 L 18 19.769531 Z M 18 18 " clip-rule="nonzero"/></clipPath><clipPath id="9ba655fe44"><path d="M 19 17 L 20.28125 17 L 20.28125 19 L 19 19 Z M 19 17 " clip-rule="nonzero"/></clipPath><clipPath id="637b675944"><path d="M 18 19 L 19 19 L 19 19.769531 L 18 19.769531 Z M 18 19 " clip-rule="nonzero"/></clipPath><clipPath id="8bb0704de1"><path d="M 18 19 L 19 19 L 19 19.769531 L 18 19.769531 Z M 18 19 " clip-rule="nonzero"/></clipPath><clipPath id="78dc685010"><path d="M 9.394531 10 L 11 10 L 11 12 L 9.394531 12 Z M 9.394531 10 " clip-rule="nonzero"/></clipPath><clipPath id="d1c95dc0cd"><path d="M 9.394531 8.878906 L 20.28125 8.878906 L 20.28125 19.769531 L 9.394531 19.769531 Z M 9.394531 8.878906 " clip-rule="nonzero"/></clipPath><clipPath id="f8a515a273"><path d="M 9.394531 9 L 20.28125 9 L 20.28125 19.769531 L 9.394531 19.769531 Z M 9.394531 9 " clip-rule="nonzero"/></clipPath></defs><g clip-path="url(#540c9f94a9)"><g clip-path="url(#b8d7706dbc)"><path fill="#0071b8" d="M 7.054688 6.570312 L 22.945312 6.570312 L 22.945312 22.464844 L 7.054688 22.464844 Z M 7.054688 6.570312 " fill-opacity="1" fill-rule="nonzero"/></g></g><g clip-path="url(#b038339e2c)"><path fill="#ffffff" d="M 19.078125 18.8125 C 19.023438 18.863281 18.964844 18.917969 18.90625 18.964844 L 19.0625 19.144531 C 19.121094 19.089844 19.179688 19.035156 19.238281 18.984375 Z M 19.078125 18.8125 " fill-opacity="1" fill-rule="nonzero"/></g><g clip-path="url(#9ba655fe44)"><path fill="#ffffff" d="M 19.960938 17.765625 C 19.917969 17.828125 19.875 17.890625 19.832031 17.953125 L 20.019531 18.089844 C 20.066406 18.023438 20.113281 17.960938 20.15625 17.894531 Z M 19.960938 17.765625 " fill-opacity="1" fill-rule="nonzero"/></g><g clip-path="url(#637b675944)"><path fill="#ffffff" d="M 18.5 19.582031 L 18.367188 19.386719 C 18.304688 19.429688 18.238281 19.472656 18.175781 19.515625 L 18.300781 19.710938 C 18.367188 19.667969 18.433594 19.625 18.5 19.582031 Z M 18.5 19.582031 " fill-opacity="1" fill-rule="nonzero"/></g><path fill="#ffffff" d="M 19.878906 18.28125 L 19.695312 18.136719 C 19.648438 18.195312 19.597656 18.253906 19.550781 18.3125 L 19.726562 18.464844 C 19.777344 18.402344 19.828125 18.34375 19.878906 18.28125 Z M 19.878906 18.28125 " fill-opacity="1" fill-rule="nonzero"/><path fill="#ffffff" d="M 19.398438 18.488281 C 19.347656 18.542969 19.292969 18.597656 19.242188 18.652344 L 19.40625 18.816406 C 19.464844 18.757812 19.519531 18.703125 19.570312 18.644531 Z M 19.398438 18.488281 " fill-opacity="1" fill-rule="nonzero"/><g clip-path="url(#8bb0704de1)"><path fill="#ffffff" d="M 18.878906 19.296875 L 18.734375 19.113281 C 18.671875 19.160156 18.613281 19.207031 18.550781 19.253906 L 18.691406 19.441406 C 18.753906 19.394531 18.816406 19.34375 18.878906 19.296875 Z M 18.878906 19.296875 " fill-opacity="1" fill-rule="nonzero"/></g><path fill="#ffffff" d="M 11.386719 9.460938 C 11.324219 9.507812 11.257812 9.554688 11.195312 9.605469 L 11.339844 9.789062 C 11.402344 9.742188 11.460938 9.695312 11.523438 9.652344 Z M 11.386719 9.460938 " fill-opacity="1" fill-rule="nonzero"/><path fill="#ffffff" d="M 11.722656 9.238281 C 11.675781 9.265625 11.628906 9.296875 11.582031 9.328125 L 11.710938 9.519531 C 11.757812 9.492188 11.800781 9.464844 11.847656 9.433594 Z M 11.722656 9.238281 " fill-opacity="1" fill-rule="nonzero"/><path fill="#ffffff" d="M 10.824219 10.242188 L 10.660156 10.074219 C 10.605469 10.132812 10.546875 10.1875 10.496094 10.246094 L 10.664062 10.40625 C 10.714844 10.351562 10.769531 10.296875 10.824219 10.242188 Z M 10.824219 10.242188 " fill-opacity="1" fill-rule="nonzero"/><g clip-path="url(#78dc685010)"><path fill="#ffffff" d="M 9.898438 10.984375 L 10.089844 11.117188 C 10.132812 11.054688 10.175781 10.992188 10.222656 10.933594 L 10.035156 10.792969 C 9.988281 10.855469 9.941406 10.921875 9.898438 10.984375 Z M 9.898438 10.984375 " fill-opacity="1" fill-rule="nonzero"/></g><path fill="#ffffff" d="M 11.011719 9.753906 C 10.953125 9.804688 10.890625 9.859375 10.832031 9.910156 L 10.992188 10.085938 C 11.046875 10.03125 11.105469 9.984375 11.164062 9.933594 Z M 11.011719 9.753906 " fill-opacity="1" fill-rule="nonzero"/><path fill="#ffffff" d="M 10.183594 10.605469 L 10.363281 10.75 C 10.410156 10.691406 10.460938 10.632812 10.511719 10.574219 L 10.335938 10.421875 C 10.28125 10.480469 10.230469 10.542969 10.183594 10.605469 Z M 10.183594 10.605469 " fill-opacity="1" fill-rule="nonzero"/><g clip-path="url(#d1c95dc0cd)"><path fill="#ffffff" d="M 14.996094 8.878906 C 11.910156 8.878906 9.394531 11.394531 9.394531 14.484375 C 9.394531 17.570312 11.910156 20.085938 14.996094 20.085938 C 18.085938 20.085938 20.601562 17.570312 20.601562 14.484375 C 20.601562 11.394531 18.085938 8.878906 14.996094 8.878906 Z M 14.996094 19.851562 C 12.035156 19.851562 9.628906 17.441406 9.628906 14.484375 C 9.628906 11.523438 12.035156 9.113281 14.996094 9.113281 C 17.957031 9.113281 20.367188 11.523438 20.367188 14.484375 C 20.367188 17.441406 17.957031 19.851562 14.996094 19.851562 Z M 14.996094 19.851562 " fill-opacity="1" fill-rule="nonzero"/></g><g clip-path="url(#f8a515a273)"><path fill="#ffffff" d="M 14.996094 9.464844 C 12.230469 9.464844 9.980469 11.714844 9.980469 14.484375 C 9.980469 17.25 12.230469 19.5 14.996094 19.5 C 17.765625 19.5 20.015625 17.25 20.015625 14.484375 C 20.015625 11.714844 17.765625 9.464844 14.996094 9.464844 Z M 19.78125 14.597656 C 19.761719 15.375 19.558594 16.109375 19.210938 16.75 C 19.175781 16.734375 19.144531 16.714844 19.113281 16.695312 L 18.988281 16.894531 C 19.023438 16.917969 19.058594 16.933594 19.09375 16.953125 C 18.914062 17.253906 18.699219 17.527344 18.460938 17.78125 L 18.039062 17.359375 L 17.875 17.527344 L 18.296875 17.945312 C 18.175781 18.058594 18.046875 18.167969 17.917969 18.269531 L 17.890625 18.28125 C 17.890625 18.285156 17.890625 18.285156 17.894531 18.289062 C 17.117188 18.878906 16.15625 19.238281 15.113281 19.265625 L 15.113281 18.667969 L 14.878906 18.667969 L 14.878906 19.265625 C 13.648438 19.234375 12.53125 18.738281 11.699219 17.945312 L 12.121094 17.527344 L 11.953125 17.359375 L 11.535156 17.78125 C 10.742188 16.949219 10.246094 15.832031 10.214844 14.597656 L 10.8125 14.597656 L 10.8125 14.367188 L 10.214844 14.367188 C 10.246094 13.136719 10.742188 12.019531 11.535156 11.183594 L 11.953125 11.605469 L 12.121094 11.441406 L 11.699219 11.019531 C 12.53125 10.226562 13.648438 9.730469 14.878906 9.699219 L 14.878906 10.296875 L 15.113281 10.296875 L 15.113281 9.699219 C 16.34375 9.730469 17.460938 10.226562 18.296875 11.019531 L 17.875 11.441406 L 18.039062 11.605469 L 18.460938 11.183594 C 19.253906 12.019531 19.75 13.136719 19.78125 14.367188 L 19.183594 14.367188 L 19.183594 14.597656 Z M 19.78125 14.597656 " fill-opacity="1" fill-rule="nonzero"/></g><path fill="#ffffff" d="M 14.570312 14.484375 C 14.570312 14.71875 14.761719 14.910156 14.996094 14.910156 C 15.230469 14.910156 15.421875 14.71875 15.421875 14.484375 C 15.421875 14.289062 15.292969 14.125 15.113281 14.074219 L 15.113281 11.332031 L 15.253906 11.472656 L 15.417969 11.308594 L 14.996094 10.886719 L 14.574219 11.308594 L 14.742188 11.472656 L 14.878906 11.332031 L 14.878906 14.074219 C 14.703125 14.125 14.570312 14.289062 14.570312 14.484375 Z M 15.191406 14.484375 C 15.191406 14.589844 15.105469 14.675781 14.996094 14.675781 C 14.890625 14.675781 14.804688 14.589844 14.804688 14.484375 C 14.804688 14.375 14.890625 14.289062 14.996094 14.289062 C 15.105469 14.289062 15.191406 14.375 15.191406 14.484375 Z M 15.191406 14.484375 " fill-opacity="1" fill-rule="nonzero"/><path fill="#ffffff" d="M 13.28125 12.085938 L 13.140625 11.902344 C 12.351562 12.519531 11.886719 13.445312 11.871094 14.441406 L 12.101562 14.445312 C 12.121094 13.519531 12.550781 12.660156 13.28125 12.085938 Z M 13.28125 12.085938 " fill-opacity="1" fill-rule="nonzero"/><path fill="#ffffff" d="M 14.246094 11.578125 L 14.175781 11.355469 C 13.925781 11.433594 13.683594 11.542969 13.457031 11.679688 L 13.578125 11.878906 C 13.789062 11.753906 14.011719 11.652344 14.246094 11.578125 Z M 14.246094 11.578125 " fill-opacity="1" fill-rule="nonzero"/><path fill="#ffffff" d="M 13.644531 12.617188 L 13.496094 12.4375 C 12.890625 12.929688 12.53125 13.660156 12.511719 14.441406 L 12.746094 14.445312 C 12.761719 13.734375 13.089844 13.066406 13.644531 12.617188 Z M 13.644531 12.617188 " fill-opacity="1" fill-rule="nonzero"/><path fill="#ffffff" d="M 13.929688 12.417969 C 14.074219 12.332031 14.230469 12.257812 14.390625 12.203125 L 14.316406 11.984375 C 14.140625 12.042969 13.96875 12.121094 13.808594 12.21875 Z M 13.929688 12.417969 " fill-opacity="1" fill-rule="nonzero"/><path fill="#ffffff" d="M 13.441406 14.0625 L 13.214844 14.003906 C 13.175781 14.144531 13.15625 14.292969 13.152344 14.441406 L 13.386719 14.449219 C 13.390625 14.316406 13.40625 14.1875 13.441406 14.0625 Z M 13.441406 14.0625 " fill-opacity="1" fill-rule="nonzero"/><path fill="#ffffff" d="M 13.292969 13.753906 L 13.511719 13.839844 C 13.695312 13.386719 14.058594 13.023438 14.515625 12.839844 L 14.429688 12.625 C 13.914062 12.828125 13.5 13.238281 13.292969 13.753906 Z M 13.292969 13.753906 " fill-opacity="1" fill-rule="nonzero"/><path fill="#ffffff" d="M 16.484375 16.566406 C 16.550781 16.605469 16.613281 16.648438 16.671875 16.691406 L 16.808594 16.5 C 16.746094 16.453125 16.675781 16.410156 16.609375 16.367188 Z M 16.484375 16.566406 " fill-opacity="1" fill-rule="nonzero"/><path fill="#ffffff" d="M 17 16.648438 L 16.851562 16.828125 C 16.910156 16.875 16.96875 16.925781 17.023438 16.976562 L 17.183594 16.808594 C 17.125 16.753906 17.0625 16.699219 17 16.648438 Z M 17 16.648438 " fill-opacity="1" fill-rule="nonzero"/><path fill="#ffffff" d="M 17.351562 16.976562 L 17.183594 17.136719 C 17.234375 17.191406 17.28125 17.25 17.332031 17.304688 L 17.511719 17.160156 C 17.460938 17.097656 17.40625 17.035156 17.351562 16.976562 Z M 17.351562 16.976562 " fill-opacity="1" fill-rule="nonzero"/><path fill="#ffffff" d="M 17.804688 18.070312 L 18.015625 17.976562 C 17.984375 17.902344 17.949219 17.832031 17.910156 17.757812 L 17.707031 17.871094 C 17.742188 17.9375 17.773438 18.003906 17.804688 18.070312 Z M 17.804688 18.070312 " fill-opacity="1" fill-rule="nonzero"/><path fill="#ffffff" d="M 17.65625 17.351562 L 17.46875 17.484375 C 17.511719 17.546875 17.554688 17.609375 17.59375 17.671875 L 17.792969 17.550781 C 17.75 17.480469 17.703125 17.414062 17.65625 17.351562 Z M 17.65625 17.351562 " fill-opacity="1" fill-rule="nonzero"/><path fill="#ffffff" d="M 15.226562 16.09375 C 15.300781 16.109375 15.375 16.121094 15.445312 16.136719 L 15.5 15.910156 C 15.421875 15.894531 15.34375 15.878906 15.261719 15.863281 Z M 15.226562 16.09375 " fill-opacity="1" fill-rule="nonzero"/><path fill="#ffffff" d="M 16.089844 16.351562 C 16.15625 16.382812 16.226562 16.417969 16.289062 16.453125 L 16.402344 16.246094 C 16.328125 16.210938 16.257812 16.171875 16.183594 16.140625 Z M 16.089844 16.351562 " fill-opacity="1" fill-rule="nonzero"/><path fill="#ffffff" d="M 15.664062 16.195312 C 15.738281 16.21875 15.808594 16.242188 15.878906 16.265625 L 15.960938 16.046875 C 15.886719 16.019531 15.808594 15.996094 15.730469 15.972656 Z M 15.664062 16.195312 " fill-opacity="1" fill-rule="nonzero"/><path fill="#ffffff" d="M 15.074219 15.195312 L 14.761719 15.15625 L 14.441406 15.835938 L 13.671875 15.875 L 13.765625 14.761719 L 13.363281 14.707031 L 12.789062 15.925781 C 12.632812 15.929688 12.269531 15.941406 11.886719 16.226562 C 11.800781 16.289062 11.753906 16.398438 11.769531 16.503906 C 11.816406 16.875 12.539062 16.898438 12.90625 16.808594 L 13.773438 17.835938 L 14.148438 17.683594 L 13.769531 16.628906 L 14.527344 16.46875 L 15.011719 17.042969 L 15.304688 16.925781 L 15 16.085938 Z M 14.613281 16.214844 L 13.457031 16.457031 L 13.855469 17.550781 L 13.84375 17.554688 L 13 16.5625 C 12.792969 16.582031 12.488281 16.710938 12.039062 16.523438 C 12.007812 16.511719 12 16.488281 12 16.472656 C 12 16.460938 11.996094 16.433594 12.03125 16.410156 C 12.429688 16.117188 12.785156 16.171875 12.886719 16.152344 L 12.945312 16.140625 L 13.503906 14.960938 L 13.515625 14.964844 L 13.414062 16.125 L 14.59375 16.058594 L 14.804688 15.609375 L 14.761719 16.117188 L 14.933594 16.59375 Z M 14.613281 16.214844 " fill-opacity="1" fill-rule="nonzero"/><path fill="#ffffff" d="M 15.9375 13.996094 L 16.992188 13.617188 L 17.148438 14.371094 L 16.574219 14.859375 L 16.695312 15.148438 L 17.535156 14.847656 L 18.425781 14.921875 L 18.464844 14.609375 L 17.785156 14.289062 L 17.742188 13.515625 L 18.859375 13.613281 L 18.910156 13.210938 L 17.691406 12.636719 C 17.6875 12.476562 17.675781 12.117188 17.394531 11.734375 C 17.328125 11.644531 17.222656 11.601562 17.117188 11.613281 C 17.007812 11.628906 16.921875 11.695312 16.878906 11.792969 C 16.695312 12.234375 16.773438 12.597656 16.808594 12.753906 L 15.785156 13.621094 Z M 17.058594 12.847656 C 17.039062 12.632812 16.90625 12.335938 17.09375 11.886719 C 17.109375 11.855469 17.132812 11.847656 17.15625 11.847656 C 17.167969 11.847656 17.1875 11.847656 17.210938 11.878906 C 17.503906 12.277344 17.445312 12.632812 17.464844 12.734375 L 17.476562 12.792969 L 18.65625 13.347656 L 18.65625 13.359375 L 17.496094 13.261719 L 17.558594 14.441406 L 18.007812 14.652344 L 17.503906 14.609375 L 17.027344 14.78125 L 17.40625 14.460938 L 17.164062 13.304688 L 16.066406 13.699219 L 16.0625 13.691406 Z M 17.058594 12.847656 " fill-opacity="1" fill-rule="nonzero"/><path fill="#ffffff" d="M 18.132812 15.769531 L 17.945312 15.90625 C 17.992188 15.96875 18.039062 16.035156 18.089844 16.097656 L 18.273438 15.949219 C 18.222656 15.890625 18.175781 15.828125 18.132812 15.769531 Z M 18.132812 15.769531 " fill-opacity="1" fill-rule="nonzero"/><path fill="#ffffff" d="M 17.53125 14.96875 C 17.449219 15.03125 17.476562 15.089844 17.574219 15.289062 L 17.785156 15.1875 C 17.734375 15.085938 17.710938 15.023438 17.710938 15.023438 L 17.601562 15.0625 Z M 17.53125 14.96875 " fill-opacity="1" fill-rule="nonzero"/><path fill="#ffffff" d="M 17.890625 15.390625 L 17.6875 15.503906 C 17.722656 15.566406 17.761719 15.636719 17.808594 15.710938 L 18.007812 15.582031 C 17.960938 15.515625 17.921875 15.449219 17.890625 15.390625 Z M 17.890625 15.390625 " fill-opacity="1" fill-rule="nonzero"/><path fill="#ffffff" d="M 18.597656 16.613281 C 18.660156 16.664062 18.722656 16.714844 18.789062 16.761719 L 18.925781 16.574219 C 18.863281 16.527344 18.804688 16.484375 18.746094 16.433594 Z M 18.597656 16.613281 " fill-opacity="1" fill-rule="nonzero"/><path fill="#ffffff" d="M 18.25 16.28125 C 18.300781 16.339844 18.359375 16.394531 18.417969 16.453125 L 18.578125 16.285156 C 18.523438 16.230469 18.46875 16.175781 18.421875 16.121094 Z M 18.25 16.28125 " fill-opacity="1" fill-rule="nonzero"/></svg>