<svg xmlns="http://www.w3.org/2000/svg" xmlns:xlink="http://www.w3.org/1999/xlink" width="40" zoomAndPan="magnify" viewBox="0 0 30 30.000001" height="40" preserveAspectRatio="xMidYMid meet" version="1.0"><defs><clipPath id="26adf7e170"><path d="M 0.484375 0 L 29.515625 0 L 29.515625 29.03125 L 0.484375 29.03125 Z M 0.484375 0 " clip-rule="nonzero"/></clipPath><clipPath id="af2f768e05"><path d="M 15 0 C 6.984375 0 0.484375 6.5 0.484375 14.515625 C 0.484375 22.53125 6.984375 29.03125 15 29.03125 C 23.015625 29.03125 29.515625 22.53125 29.515625 14.515625 C 29.515625 6.5 23.015625 0 15 0 Z M 15 0 " clip-rule="nonzero"/></clipPath><clipPath id="52d82dcbf3"><path d="M 20 23 L 22 23 L 22 24.542969 L 20 24.542969 Z M 20 23 " clip-rule="nonzero"/></clipPath><clipPath id="2a782ec40e"><path d="M 8 4.222656 L 10 4.222656 L 10 6 L 8 6 Z M 8 4.222656 " clip-rule="nonzero"/></clipPath><clipPath id="11b474eafd"><path d="M 4.761719 4.222656 L 25.085938 4.222656 L 25.085938 24.542969 L 4.761719 24.542969 Z M 4.761719 4.222656 " clip-rule="nonzero"/></clipPath></defs><g clip-path="url(#26adf7e170)"><g clip-path="url(#af2f768e05)"><path fill="#0071b8" d="M 0.484375 0 L 29.515625 0 L 29.515625 29.03125 L 0.484375 29.03125 Z M 0.484375 0 " fill-opacity="1" fill-rule="nonzero"/></g></g><path fill="#ffffff" d="M 22.453125 22.367188 C 22.351562 22.464844 22.246094 22.558594 22.140625 22.648438 L 22.421875 22.96875 C 22.53125 22.875 22.636719 22.777344 22.742188 22.679688 Z M 22.453125 22.367188 " fill-opacity="1" fill-rule="nonzero"/><path fill="#ffffff" d="M 24.066406 20.453125 C 23.988281 20.570312 23.910156 20.683594 23.828125 20.796875 L 24.171875 21.046875 C 24.257812 20.929688 24.339844 20.808594 24.421875 20.6875 Z M 24.066406 20.453125 " fill-opacity="1" fill-rule="nonzero"/><g clip-path="url(#52d82dcbf3)"><path fill="#ffffff" d="M 21.394531 23.769531 L 21.152344 23.417969 C 21.035156 23.496094 20.921875 23.574219 20.800781 23.648438 L 21.03125 24.007812 C 21.152344 23.929688 21.273438 23.851562 21.394531 23.769531 Z M 21.394531 23.769531 " fill-opacity="1" fill-rule="nonzero"/></g><path fill="#ffffff" d="M 23.914062 21.394531 L 23.578125 21.132812 C 23.492188 21.242188 23.402344 21.351562 23.3125 21.457031 L 23.640625 21.730469 C 23.734375 21.621094 23.824219 21.507812 23.914062 21.394531 Z M 23.914062 21.394531 " fill-opacity="1" fill-rule="nonzero"/><path fill="#ffffff" d="M 23.039062 21.769531 C 22.945312 21.875 22.847656 21.976562 22.75 22.074219 L 23.054688 22.375 C 23.15625 22.269531 23.253906 22.164062 23.351562 22.058594 Z M 23.039062 21.769531 " fill-opacity="1" fill-rule="nonzero"/><path fill="#ffffff" d="M 22.089844 23.25 L 21.820312 22.917969 C 21.714844 23.003906 21.601562 23.089844 21.492188 23.175781 L 21.746094 23.515625 C 21.863281 23.429688 21.976562 23.339844 22.089844 23.25 Z M 22.089844 23.25 " fill-opacity="1" fill-rule="nonzero"/><path fill="#ffffff" d="M 8.402344 5.285156 C 8.285156 5.371094 8.167969 5.457031 8.054688 5.546875 L 8.316406 5.882812 C 8.425781 5.796875 8.539062 5.710938 8.652344 5.632812 Z M 8.402344 5.285156 " fill-opacity="1" fill-rule="nonzero"/><g clip-path="url(#2a782ec40e)"><path fill="#ffffff" d="M 9.011719 4.875 C 8.925781 4.925781 8.84375 4.980469 8.757812 5.039062 L 8.996094 5.394531 C 9.074219 5.339844 9.15625 5.285156 9.238281 5.234375 Z M 9.011719 4.875 " fill-opacity="1" fill-rule="nonzero"/></g><path fill="#ffffff" d="M 7.375 6.710938 L 7.074219 6.40625 C 6.972656 6.507812 6.871094 6.609375 6.769531 6.714844 L 7.082031 7.007812 C 7.175781 6.90625 7.273438 6.808594 7.375 6.710938 Z M 7.375 6.710938 " fill-opacity="1" fill-rule="nonzero"/><path fill="#ffffff" d="M 5.679688 8.066406 L 6.03125 8.308594 C 6.109375 8.195312 6.191406 8.082031 6.273438 7.96875 L 5.933594 7.714844 C 5.847656 7.832031 5.761719 7.949219 5.679688 8.066406 Z M 5.679688 8.066406 " fill-opacity="1" fill-rule="nonzero"/><path fill="#ffffff" d="M 7.714844 5.820312 C 7.605469 5.914062 7.496094 6.007812 7.390625 6.105469 L 7.675781 6.421875 C 7.78125 6.328125 7.886719 6.234375 7.992188 6.144531 Z M 7.714844 5.820312 " fill-opacity="1" fill-rule="nonzero"/><path fill="#ffffff" d="M 6.199219 7.371094 L 6.53125 7.640625 C 6.617188 7.53125 6.707031 7.421875 6.800781 7.320312 L 6.476562 7.039062 C 6.382812 7.148438 6.289062 7.257812 6.199219 7.371094 Z M 6.199219 7.371094 " fill-opacity="1" fill-rule="nonzero"/><g clip-path="url(#11b474eafd)"><path fill="#ffffff" d="M 14.996094 4.222656 C 9.351562 4.222656 4.761719 8.8125 4.761719 14.457031 C 4.761719 20.101562 9.351562 24.691406 14.996094 24.691406 C 20.640625 24.691406 25.230469 20.101562 25.230469 14.457031 C 25.230469 8.8125 20.640625 4.222656 14.996094 4.222656 Z M 14.996094 24.265625 C 9.589844 24.265625 5.1875 19.867188 5.1875 14.457031 C 5.1875 9.046875 9.589844 4.648438 14.996094 4.648438 C 20.40625 4.648438 24.804688 9.046875 24.804688 14.457031 C 24.804688 19.867188 20.40625 24.265625 14.996094 24.265625 Z M 14.996094 24.265625 " fill-opacity="1" fill-rule="nonzero"/></g><path fill="#ffffff" d="M 14.996094 5.289062 C 9.941406 5.289062 5.828125 9.402344 5.828125 14.457031 C 5.828125 19.511719 9.941406 23.625 14.996094 23.625 C 20.054688 23.625 24.164062 19.511719 24.164062 14.457031 C 24.164062 9.402344 20.054688 5.289062 14.996094 5.289062 Z M 23.734375 14.671875 C 23.699219 16.089844 23.328125 17.425781 22.691406 18.601562 C 22.632812 18.566406 22.570312 18.535156 22.511719 18.5 L 22.292969 18.867188 C 22.351562 18.902344 22.417969 18.9375 22.480469 18.972656 C 22.152344 19.515625 21.761719 20.023438 21.324219 20.480469 L 20.554688 19.714844 L 20.253906 20.015625 L 21.023438 20.78125 C 20.800781 20.992188 20.570312 21.191406 20.328125 21.378906 L 20.28125 21.394531 C 20.285156 21.402344 20.285156 21.40625 20.289062 21.410156 C 18.871094 22.492188 17.113281 23.148438 15.210938 23.195312 L 15.210938 22.105469 L 14.785156 22.105469 L 14.785156 23.195312 C 12.535156 23.140625 10.492188 22.234375 8.972656 20.78125 L 9.738281 20.015625 L 9.4375 19.714844 L 8.671875 20.480469 C 7.222656 18.960938 6.3125 16.917969 6.261719 14.671875 L 7.347656 14.671875 L 7.347656 14.242188 L 6.261719 14.242188 C 6.3125 11.996094 7.222656 9.953125 8.671875 8.433594 L 9.4375 9.199219 L 9.738281 8.898438 L 8.972656 8.132812 C 10.492188 6.679688 12.535156 5.773438 14.785156 5.71875 L 14.785156 6.808594 L 15.210938 6.808594 L 15.210938 5.71875 C 17.460938 5.773438 19.5 6.679688 21.023438 8.132812 L 20.253906 8.898438 L 20.554688 9.199219 L 21.324219 8.433594 C 22.773438 9.953125 23.679688 11.996094 23.734375 14.242188 L 22.644531 14.242188 L 22.644531 14.671875 Z M 23.734375 14.671875 " fill-opacity="1" fill-rule="nonzero"/><path fill="#ffffff" d="M 14.21875 14.457031 C 14.21875 14.886719 14.566406 15.234375 14.996094 15.234375 C 15.425781 15.234375 15.777344 14.886719 15.777344 14.457031 C 15.777344 14.101562 15.535156 13.804688 15.210938 13.710938 L 15.210938 8.703125 L 15.464844 8.957031 L 15.765625 8.65625 L 14.996094 7.886719 L 14.226562 8.65625 L 14.527344 8.957031 L 14.78125 8.703125 L 14.78125 13.710938 C 14.457031 13.804688 14.21875 14.101562 14.21875 14.457031 Z M 15.347656 14.457031 C 15.347656 14.652344 15.191406 14.808594 14.996094 14.808594 C 14.800781 14.808594 14.644531 14.652344 14.644531 14.457031 C 14.644531 14.261719 14.800781 14.105469 14.996094 14.105469 C 15.191406 14.105469 15.347656 14.261719 15.347656 14.457031 Z M 15.347656 14.457031 " fill-opacity="1" fill-rule="nonzero"/><path fill="#ffffff" d="M 11.863281 10.078125 L 11.601562 9.742188 C 10.160156 10.871094 9.316406 12.5625 9.28125 14.382812 L 9.707031 14.390625 C 9.738281 12.699219 10.527344 11.125 11.863281 10.078125 Z M 11.863281 10.078125 " fill-opacity="1" fill-rule="nonzero"/><path fill="#ffffff" d="M 13.625 9.148438 L 13.496094 8.742188 C 13.039062 8.886719 12.597656 9.089844 12.183594 9.339844 L 12.40625 9.703125 C 12.789062 9.46875 13.199219 9.285156 13.625 9.148438 Z M 13.625 9.148438 " fill-opacity="1" fill-rule="nonzero"/><path fill="#ffffff" d="M 12.527344 11.050781 L 12.257812 10.71875 C 11.144531 11.621094 10.488281 12.957031 10.457031 14.382812 L 10.882812 14.390625 C 10.910156 13.089844 11.511719 11.871094 12.527344 11.050781 Z M 12.527344 11.050781 " fill-opacity="1" fill-rule="nonzero"/><path fill="#ffffff" d="M 13.046875 10.683594 C 13.3125 10.527344 13.597656 10.394531 13.890625 10.296875 L 13.75 9.890625 C 13.429688 10 13.121094 10.144531 12.828125 10.320312 Z M 13.046875 10.683594 " fill-opacity="1" fill-rule="nonzero"/><path fill="#ffffff" d="M 12.152344 13.6875 L 11.738281 13.582031 C 11.671875 13.839844 11.632812 14.109375 11.625 14.378906 L 12.050781 14.394531 C 12.058594 14.152344 12.09375 13.914062 12.152344 13.6875 Z M 12.152344 13.6875 " fill-opacity="1" fill-rule="nonzero"/><path fill="#ffffff" d="M 11.886719 13.128906 L 12.28125 13.285156 C 12.617188 12.453125 13.285156 11.789062 14.117188 11.457031 L 13.960938 11.0625 C 13.019531 11.433594 12.261719 12.1875 11.886719 13.128906 Z M 11.886719 13.128906 " fill-opacity="1" fill-rule="nonzero"/><path fill="#ffffff" d="M 17.71875 18.261719 C 17.832031 18.335938 17.949219 18.410156 18.058594 18.492188 L 18.308594 18.144531 C 18.1875 18.058594 18.066406 17.976562 17.941406 17.898438 Z M 17.71875 18.261719 " fill-opacity="1" fill-rule="nonzero"/><path fill="#ffffff" d="M 18.65625 18.414062 L 18.386719 18.742188 C 18.492188 18.828125 18.597656 18.921875 18.695312 19.015625 L 18.988281 18.703125 C 18.882812 18.601562 18.769531 18.503906 18.65625 18.414062 Z M 18.65625 18.414062 " fill-opacity="1" fill-rule="nonzero"/><path fill="#ffffff" d="M 19.300781 19.015625 L 18.988281 19.304688 C 19.082031 19.40625 19.171875 19.507812 19.261719 19.617188 L 19.589844 19.34375 C 19.496094 19.234375 19.398438 19.121094 19.300781 19.015625 Z M 19.300781 19.015625 " fill-opacity="1" fill-rule="nonzero"/><path fill="#ffffff" d="M 20.125 21.015625 L 20.515625 20.839844 C 20.457031 20.707031 20.390625 20.574219 20.320312 20.445312 L 19.945312 20.644531 C 20.007812 20.765625 20.070312 20.890625 20.125 21.015625 Z M 20.125 21.015625 " fill-opacity="1" fill-rule="nonzero"/><path fill="#ffffff" d="M 19.859375 19.695312 L 19.511719 19.941406 C 19.589844 20.054688 19.667969 20.167969 19.738281 20.285156 L 20.101562 20.0625 C 20.023438 19.9375 19.941406 19.8125 19.859375 19.695312 Z M 19.859375 19.695312 " fill-opacity="1" fill-rule="nonzero"/><path fill="#ffffff" d="M 15.414062 17.402344 C 15.550781 17.425781 15.683594 17.453125 15.820312 17.480469 L 15.914062 17.066406 C 15.773438 17.035156 15.625 17.003906 15.480469 16.980469 Z M 15.414062 17.402344 " fill-opacity="1" fill-rule="nonzero"/><path fill="#ffffff" d="M 16.988281 17.875 C 17.113281 17.929688 17.238281 17.992188 17.359375 18.054688 L 17.558594 17.679688 C 17.433594 17.609375 17.296875 17.546875 17.164062 17.484375 Z M 16.988281 17.875 " fill-opacity="1" fill-rule="nonzero"/><path fill="#ffffff" d="M 16.21875 17.585938 C 16.347656 17.625 16.480469 17.667969 16.609375 17.71875 L 16.757812 17.316406 C 16.621094 17.265625 16.480469 17.21875 16.339844 17.179688 Z M 16.21875 17.585938 " fill-opacity="1" fill-rule="nonzero"/><path fill="#ffffff" d="M 15.140625 15.757812 L 14.570312 15.683594 L 13.984375 16.925781 L 12.574219 17.003906 L 12.746094 14.964844 L 12.011719 14.871094 L 10.964844 17.09375 C 10.675781 17.101562 10.015625 17.125 9.3125 17.640625 C 9.15625 17.757812 9.070312 17.953125 9.097656 18.148438 C 9.1875 18.824219 10.507812 18.871094 11.179688 18.710938 L 12.761719 20.582031 L 13.449219 20.300781 L 12.753906 18.378906 L 14.136719 18.089844 L 15.023438 19.136719 L 15.554688 18.917969 L 15 17.382812 Z M 14.296875 17.621094 L 12.183594 18.0625 L 12.90625 20.0625 L 12.886719 20.070312 L 11.351562 18.253906 C 10.972656 18.289062 10.414062 18.53125 9.589844 18.1875 C 9.539062 18.164062 9.523438 18.121094 9.519531 18.09375 C 9.519531 18.074219 9.515625 18.023438 9.578125 17.976562 C 10.304688 17.441406 10.953125 17.542969 11.140625 17.507812 L 11.25 17.488281 L 12.265625 15.332031 L 12.289062 15.335938 L 12.105469 17.457031 L 14.257812 17.335938 L 14.648438 16.515625 L 14.566406 17.441406 L 14.882812 18.3125 Z M 14.296875 17.621094 " fill-opacity="1" fill-rule="nonzero"/><path fill="#ffffff" d="M 16.714844 13.566406 L 18.636719 12.875 L 18.925781 14.257812 L 17.878906 15.140625 L 18.097656 15.675781 L 19.632812 15.121094 L 21.257812 15.261719 L 21.332031 14.6875 L 20.089844 14.101562 L 20.011719 12.691406 L 22.050781 12.867188 L 22.144531 12.132812 L 19.921875 11.082031 C 19.914062 10.792969 19.890625 10.136719 19.375 9.433594 C 19.257812 9.273438 19.0625 9.195312 18.867188 9.21875 C 18.671875 9.242188 18.511719 9.367188 18.4375 9.546875 C 18.097656 10.351562 18.238281 11.015625 18.308594 11.296875 L 16.433594 12.882812 Z M 18.761719 11.472656 C 18.722656 11.078125 18.484375 10.539062 18.828125 9.710938 C 18.851562 9.65625 18.898438 9.644531 18.9375 9.640625 C 18.960938 9.640625 19 9.644531 19.039062 9.699219 C 19.574219 10.425781 19.472656 11.074219 19.507812 11.261719 L 19.527344 11.367188 L 21.683594 12.386719 L 21.679688 12.40625 L 19.558594 12.226562 L 19.679688 14.378906 L 20.5 14.765625 L 19.574219 14.6875 L 18.707031 15.003906 L 19.398438 14.417969 L 18.957031 12.304688 L 16.953125 13.027344 L 16.945312 13.007812 Z M 18.761719 11.472656 " fill-opacity="1" fill-rule="nonzero"/><path fill="#ffffff" d="M 20.726562 16.808594 L 20.382812 17.058594 C 20.464844 17.175781 20.554688 17.292969 20.648438 17.410156 L 20.980469 17.140625 C 20.890625 17.027344 20.804688 16.917969 20.726562 16.808594 Z M 20.726562 16.808594 " fill-opacity="1" fill-rule="nonzero"/><path fill="#ffffff" d="M 19.628906 15.347656 C 19.472656 15.457031 19.527344 15.566406 19.703125 15.933594 L 20.089844 15.746094 C 19.996094 15.558594 19.953125 15.445312 19.953125 15.445312 L 19.753906 15.519531 Z M 19.628906 15.347656 " fill-opacity="1" fill-rule="nonzero"/><path fill="#ffffff" d="M 20.28125 16.113281 L 19.910156 16.320312 C 19.976562 16.4375 20.050781 16.5625 20.136719 16.699219 L 20.496094 16.46875 C 20.414062 16.339844 20.34375 16.222656 20.28125 16.113281 Z M 20.28125 16.113281 " fill-opacity="1" fill-rule="nonzero"/><path fill="#ffffff" d="M 21.574219 18.351562 C 21.6875 18.445312 21.804688 18.535156 21.921875 18.621094 L 22.171875 18.273438 C 22.0625 18.195312 21.953125 18.109375 21.847656 18.023438 Z M 21.574219 18.351562 " fill-opacity="1" fill-rule="nonzero"/><path fill="#ffffff" d="M 20.9375 17.742188 C 21.035156 17.847656 21.136719 17.953125 21.246094 18.054688 L 21.539062 17.746094 C 21.4375 17.652344 21.34375 17.550781 21.25 17.453125 Z M 20.9375 17.742188 " fill-opacity="1" fill-rule="nonzero"/></svg>