<svg xmlns="http://www.w3.org/2000/svg" xmlns:xlink="http://www.w3.org/1999/xlink" width="40" zoomAndPan="magnify" viewBox="0 0 30 30.000001" height="40" preserveAspectRatio="xMidYMid meet" version="1.0"><defs><clipPath id="3df8ebc92b"><path d="M 0.484375 0 L 29.515625 0 L 29.515625 29.03125 L 0.484375 29.03125 Z M 0.484375 0 " clip-rule="nonzero"/></clipPath><clipPath id="3f019366e0"><path d="M 15 0 C 6.984375 0 0.484375 6.5 0.484375 14.515625 C 0.484375 22.53125 6.984375 29.03125 15 29.03125 C 23.015625 29.03125 29.515625 22.53125 29.515625 14.515625 C 29.515625 6.5 23.015625 0 15 0 Z M 15 0 " clip-rule="nonzero"/></clipPath><clipPath id="4efb198656"><path d="M 3.691406 5.738281 L 26.191406 5.738281 L 26.191406 23.15625 L 3.691406 23.15625 Z M 3.691406 5.738281 " clip-rule="nonzero"/></clipPath></defs><g clip-path="url(#3df8ebc92b)"><g clip-path="url(#3f019366e0)"><path fill="#0071b8" d="M 0.484375 0 L 29.515625 0 L 29.515625 29.03125 L 0.484375 29.03125 Z M 0.484375 0 " fill-opacity="1" fill-rule="nonzero"/></g></g><g clip-path="url(#4efb198656)"><path fill="#ffffff" d="M 6.664062 23.15625 C 6.414062 23.15625 6.214844 22.953125 6.214844 22.707031 C 6.214844 21.421875 6.285156 20.433594 6.546875 19.628906 L 4.140625 19.628906 C 3.898438 19.628906 3.691406 19.425781 3.691406 19.183594 C 3.691406 17.992188 3.816406 17.269531 4.390625 16.695312 C 4.886719 16.203125 5.679688 15.886719 7.003906 15.519531 C 6.554688 15.1875 6.21875 14.597656 6.058594 13.9375 C 5.949219 13.480469 5.917969 12.984375 5.980469 12.511719 C 6.046875 12.023438 6.21875 11.550781 6.515625 11.179688 C 6.90625 10.679688 7.503906 10.359375 8.339844 10.359375 C 9.175781 10.359375 9.773438 10.679688 10.167969 11.179688 C 10.464844 11.550781 10.636719 12.023438 10.703125 12.511719 C 10.769531 12.984375 10.734375 13.480469 10.621094 13.9375 C 10.464844 14.597656 10.132812 15.1875 9.683594 15.519531 C 10.042969 15.617188 10.371094 15.71875 10.65625 15.816406 C 10.988281 15.925781 11.269531 16.039062 11.515625 16.160156 C 11.921875 16.035156 12.367188 15.910156 12.839844 15.777344 L 12.839844 15.3125 C 11.902344 14.792969 11.191406 13.613281 10.867188 12.257812 C 10.65625 11.410156 10.59375 10.488281 10.714844 9.609375 C 10.835938 8.710938 11.148438 7.863281 11.683594 7.1875 C 12.382812 6.3125 13.441406 5.738281 14.941406 5.738281 C 16.441406 5.738281 17.503906 6.3125 18.203125 7.1875 C 18.738281 7.863281 19.046875 8.710938 19.171875 9.609375 C 19.289062 10.488281 19.226562 11.410156 19.019531 12.257812 C 18.691406 13.613281 17.984375 14.792969 17.042969 15.3125 L 17.042969 15.777344 C 17.519531 15.910156 17.960938 16.035156 18.371094 16.160156 C 18.613281 16.039062 18.894531 15.925781 19.226562 15.816406 C 19.511719 15.71875 19.839844 15.621094 20.203125 15.519531 C 19.753906 15.1875 19.421875 14.597656 19.261719 13.9375 C 19.152344 13.480469 19.113281 12.984375 19.179688 12.511719 C 19.246094 12.023438 19.421875 11.550781 19.71875 11.179688 C 20.109375 10.679688 20.707031 10.359375 21.542969 10.359375 C 22.378906 10.359375 22.976562 10.679688 23.371094 11.179688 C 23.664062 11.550781 23.839844 12.023438 23.90625 12.511719 C 23.964844 12.984375 23.9375 13.480469 23.824219 13.9375 C 23.664062 14.597656 23.328125 15.1875 22.878906 15.519531 C 24.207031 15.886719 24.996094 16.203125 25.492188 16.695312 C 26.066406 17.269531 26.191406 17.992188 26.191406 19.183594 C 26.191406 19.425781 25.988281 19.628906 25.742188 19.628906 L 23.339844 19.628906 C 23.597656 20.433594 23.671875 21.421875 23.671875 22.707031 C 23.671875 22.953125 23.472656 23.15625 23.222656 23.15625 Z M 22.769531 22.253906 C 22.746094 21.019531 22.640625 20.128906 22.292969 19.445312 C 22.269531 19.410156 22.246094 19.371094 22.230469 19.328125 C 22.113281 19.117188 21.964844 18.917969 21.78125 18.738281 C 20.929688 17.890625 19.335938 17.320312 16.496094 16.5625 C 16.292969 16.523438 16.140625 16.339844 16.140625 16.125 L 16.140625 15.027344 C 16.140625 14.847656 16.253906 14.679688 16.425781 14.609375 C 17.226562 14.296875 17.851562 13.269531 18.144531 12.050781 C 18.328125 11.300781 18.386719 10.492188 18.277344 9.730469 C 18.179688 8.988281 17.929688 8.285156 17.496094 7.746094 C 16.960938 7.074219 16.136719 6.636719 14.941406 6.636719 C 13.75 6.636719 12.921875 7.074219 12.386719 7.746094 C 11.953125 8.285156 11.703125 8.988281 11.605469 9.730469 C 11.5 10.492188 11.554688 11.300781 11.738281 12.050781 C 12.027344 13.261719 12.644531 14.277344 13.433594 14.597656 C 13.609375 14.660156 13.742188 14.828125 13.742188 15.027344 L 13.742188 16.125 C 13.742188 16.324219 13.609375 16.5 13.40625 16.558594 C 10.554688 17.320312 8.953125 17.886719 8.101562 18.738281 C 7.917969 18.917969 7.769531 19.117188 7.652344 19.328125 C 7.636719 19.371094 7.617188 19.410156 7.589844 19.441406 C 7.242188 20.128906 7.136719 21.019531 7.117188 22.253906 Z M 6.957031 18.730469 C 7.101562 18.511719 7.265625 18.300781 7.464844 18.109375 C 8.066406 17.507812 8.921875 17.046875 10.171875 16.597656 C 9.851562 16.496094 9.484375 16.390625 9.058594 16.277344 C 8.859375 16.222656 8.726562 16.042969 8.726562 15.84375 L 8.726562 15.289062 C 8.726562 15.09375 8.855469 14.925781 9.035156 14.863281 C 9.359375 14.722656 9.621094 14.269531 9.75 13.730469 C 9.835938 13.371094 9.859375 12.992188 9.816406 12.636719 C 9.769531 12.292969 9.65625 11.980469 9.464844 11.734375 C 9.234375 11.445312 8.871094 11.257812 8.339844 11.257812 C 7.816406 11.257812 7.449219 11.445312 7.21875 11.734375 C 7.023438 11.980469 6.914062 12.292969 6.867188 12.636719 C 6.820312 12.992188 6.847656 13.371094 6.933594 13.730469 C 7.066406 14.285156 7.335938 14.742188 7.667969 14.875 C 7.847656 14.941406 7.953125 15.109375 7.953125 15.289062 L 7.953125 15.84375 C 7.953125 16.058594 7.800781 16.242188 7.597656 16.28125 C 6.203125 16.652344 5.429688 16.929688 5.03125 17.324219 C 4.730469 17.625 4.625 18.054688 4.601562 18.730469 Z M 19.710938 16.597656 C 20.960938 17.046875 21.820312 17.507812 22.421875 18.109375 C 22.621094 18.300781 22.78125 18.511719 22.925781 18.730469 L 25.28125 18.730469 C 25.257812 18.054688 25.15625 17.625 24.855469 17.324219 C 24.457031 16.929688 23.679688 16.652344 22.289062 16.28125 C 22.085938 16.242188 21.929688 16.058594 21.929688 15.84375 L 21.929688 15.289062 C 21.929688 15.109375 22.039062 14.941406 22.214844 14.875 C 22.546875 14.742188 22.820312 14.285156 22.953125 13.730469 C 23.039062 13.378906 23.0625 12.992188 23.019531 12.636719 C 22.972656 12.292969 22.859375 11.980469 22.664062 11.734375 C 22.4375 11.445312 22.070312 11.257812 21.542969 11.257812 C 21.011719 11.257812 20.652344 11.445312 20.421875 11.734375 C 20.226562 11.980469 20.113281 12.292969 20.070312 12.636719 C 20.023438 12.992188 20.046875 13.371094 20.136719 13.730469 C 20.261719 14.269531 20.523438 14.722656 20.847656 14.863281 C 21.027344 14.925781 21.15625 15.09375 21.15625 15.289062 L 21.15625 15.84375 C 21.15625 16.042969 21.023438 16.222656 20.824219 16.277344 C 20.402344 16.390625 20.035156 16.496094 19.710938 16.597656 Z M 19.710938 16.597656 " fill-opacity="1" fill-rule="nonzero"/></g></svg>