<svg xmlns="http://www.w3.org/2000/svg" xmlns:xlink="http://www.w3.org/1999/xlink" width="40" zoomAndPan="magnify" viewBox="0 0 30 30.000001" height="40" preserveAspectRatio="xMidYMid meet" version="1.0"><defs><clipPath id="5d8e8843fc"><path d="M 6.824219 6.339844 L 23.175781 6.339844 L 23.175781 22.691406 L 6.824219 22.691406 Z M 6.824219 6.339844 " clip-rule="nonzero"/></clipPath><clipPath id="271929c96b"><path d="M 15 6.339844 C 10.484375 6.339844 6.824219 10 6.824219 14.515625 C 6.824219 19.03125 10.484375 22.691406 15 22.691406 C 19.515625 22.691406 23.175781 19.03125 23.175781 14.515625 C 23.175781 10 19.515625 6.339844 15 6.339844 Z M 15 6.339844 " clip-rule="nonzero"/></clipPath><clipPath id="487a17f407"><path d="M 8.628906 9.570312 L 21.695312 9.570312 L 21.695312 19.730469 L 8.628906 19.730469 Z M 8.628906 9.570312 " clip-rule="nonzero"/></clipPath></defs><g clip-path="url(#5d8e8843fc)"><g clip-path="url(#271929c96b)"><path fill="#0071b8" d="M 6.824219 6.339844 L 23.175781 6.339844 L 23.175781 22.691406 L 6.824219 22.691406 Z M 6.824219 6.339844 " fill-opacity="1" fill-rule="nonzero"/></g></g><g clip-path="url(#487a17f407)"><path fill="#ffffff" d="M 10.355469 19.730469 C 10.210938 19.730469 10.09375 19.613281 10.09375 19.46875 C 10.09375 18.71875 10.136719 18.144531 10.285156 17.675781 L 8.890625 17.675781 C 8.75 17.675781 8.628906 17.554688 8.628906 17.414062 C 8.628906 16.71875 8.703125 16.296875 9.035156 15.960938 C 9.324219 15.675781 9.78125 15.492188 10.554688 15.277344 C 10.292969 15.085938 10.097656 14.738281 10.003906 14.355469 C 9.941406 14.085938 9.921875 13.800781 9.957031 13.523438 C 9.996094 13.238281 10.097656 12.960938 10.269531 12.746094 C 10.496094 12.457031 10.84375 12.269531 11.328125 12.269531 C 11.816406 12.269531 12.160156 12.457031 12.390625 12.746094 C 12.5625 12.960938 12.664062 13.238281 12.699219 13.523438 C 12.738281 13.800781 12.71875 14.085938 12.652344 14.355469 C 12.5625 14.738281 12.367188 15.085938 12.109375 15.277344 C 12.320312 15.332031 12.507812 15.394531 12.675781 15.449219 C 12.867188 15.515625 13.03125 15.578125 13.171875 15.652344 C 13.410156 15.578125 13.667969 15.503906 13.941406 15.429688 L 13.941406 15.15625 C 13.398438 14.851562 12.984375 14.164062 12.796875 13.375 C 12.675781 12.878906 12.636719 12.34375 12.707031 11.828125 C 12.777344 11.308594 12.957031 10.8125 13.269531 10.417969 C 13.675781 9.90625 14.292969 9.570312 15.164062 9.570312 C 16.035156 9.570312 16.648438 9.90625 17.054688 10.417969 C 17.367188 10.8125 17.546875 11.308594 17.617188 11.828125 C 17.6875 12.34375 17.652344 12.878906 17.53125 13.375 C 17.339844 14.164062 16.929688 14.851562 16.382812 15.15625 L 16.382812 15.429688 C 16.660156 15.503906 16.917969 15.578125 17.152344 15.652344 C 17.296875 15.578125 17.457031 15.515625 17.652344 15.449219 C 17.816406 15.394531 18.007812 15.335938 18.21875 15.277344 C 17.957031 15.085938 17.761719 14.738281 17.671875 14.355469 C 17.605469 14.085938 17.585938 13.800781 17.625 13.523438 C 17.664062 13.238281 17.761719 12.960938 17.933594 12.746094 C 18.164062 12.457031 18.511719 12.269531 18.996094 12.269531 C 19.480469 12.269531 19.828125 12.457031 20.054688 12.746094 C 20.226562 12.960938 20.328125 13.238281 20.367188 13.523438 C 20.402344 13.800781 20.386719 14.085938 20.320312 14.355469 C 20.226562 14.738281 20.03125 15.085938 19.773438 15.277344 C 20.542969 15.492188 21 15.675781 21.289062 15.960938 C 21.625 16.296875 21.695312 16.71875 21.695312 17.414062 C 21.695312 17.554688 21.578125 17.675781 21.433594 17.675781 L 20.039062 17.675781 C 20.191406 18.144531 20.230469 18.71875 20.230469 19.46875 C 20.230469 19.613281 20.117188 19.730469 19.96875 19.730469 Z M 19.707031 19.207031 C 19.695312 18.484375 19.632812 17.964844 19.429688 17.566406 C 19.417969 17.546875 19.40625 17.523438 19.394531 17.5 C 19.328125 17.375 19.242188 17.257812 19.136719 17.15625 C 18.640625 16.660156 17.714844 16.328125 16.066406 15.886719 C 15.949219 15.863281 15.859375 15.753906 15.859375 15.628906 L 15.859375 14.988281 C 15.859375 14.886719 15.925781 14.789062 16.023438 14.746094 C 16.488281 14.566406 16.851562 13.964844 17.023438 13.253906 C 17.128906 12.816406 17.164062 12.34375 17.101562 11.902344 C 17.042969 11.46875 16.898438 11.058594 16.648438 10.742188 C 16.335938 10.351562 15.855469 10.097656 15.164062 10.097656 C 14.46875 10.097656 13.988281 10.351562 13.679688 10.742188 C 13.425781 11.058594 13.28125 11.46875 13.226562 11.902344 C 13.164062 12.34375 13.195312 12.816406 13.300781 13.253906 C 13.472656 13.960938 13.828125 14.554688 14.285156 14.738281 C 14.390625 14.777344 14.464844 14.875 14.464844 14.988281 L 14.464844 15.628906 C 14.464844 15.746094 14.390625 15.851562 14.269531 15.882812 C 12.613281 16.328125 11.683594 16.65625 11.191406 17.15625 C 11.082031 17.257812 10.996094 17.375 10.929688 17.5 C 10.921875 17.523438 10.910156 17.546875 10.894531 17.566406 C 10.691406 17.964844 10.628906 18.484375 10.617188 19.207031 Z M 10.527344 17.148438 C 10.609375 17.023438 10.703125 16.902344 10.820312 16.789062 C 11.167969 16.4375 11.667969 16.167969 12.394531 15.90625 C 12.207031 15.847656 11.992188 15.785156 11.746094 15.71875 C 11.632812 15.6875 11.554688 15.582031 11.554688 15.46875 L 11.554688 15.144531 C 11.554688 15.027344 11.628906 14.929688 11.730469 14.894531 C 11.921875 14.8125 12.074219 14.546875 12.148438 14.234375 C 12.195312 14.023438 12.210938 13.800781 12.183594 13.59375 C 12.160156 13.394531 12.09375 13.210938 11.980469 13.070312 C 11.847656 12.902344 11.636719 12.789062 11.328125 12.789062 C 11.023438 12.789062 10.8125 12.902344 10.675781 13.070312 C 10.566406 13.210938 10.5 13.394531 10.472656 13.59375 C 10.445312 13.800781 10.460938 14.023438 10.511719 14.234375 C 10.589844 14.554688 10.746094 14.824219 10.9375 14.902344 C 11.042969 14.9375 11.105469 15.035156 11.105469 15.144531 L 11.105469 15.46875 C 11.105469 15.59375 11.015625 15.699219 10.898438 15.722656 C 10.085938 15.9375 9.636719 16.097656 9.40625 16.332031 C 9.230469 16.503906 9.171875 16.753906 9.15625 17.148438 Z M 17.933594 15.90625 C 18.660156 16.167969 19.15625 16.4375 19.503906 16.789062 C 19.621094 16.902344 19.714844 17.023438 19.796875 17.148438 L 21.167969 17.148438 C 21.152344 16.753906 21.09375 16.503906 20.917969 16.332031 C 20.6875 16.097656 20.238281 15.9375 19.429688 15.722656 C 19.308594 15.699219 19.222656 15.59375 19.222656 15.46875 L 19.222656 15.144531 C 19.222656 15.035156 19.285156 14.9375 19.386719 14.902344 C 19.578125 14.824219 19.738281 14.554688 19.8125 14.234375 C 19.863281 14.027344 19.878906 13.800781 19.851562 13.59375 C 19.824219 13.394531 19.761719 13.210938 19.648438 13.070312 C 19.515625 12.902344 19.300781 12.789062 18.996094 12.789062 C 18.6875 12.789062 18.476562 12.902344 18.34375 13.070312 C 18.230469 13.210938 18.167969 13.394531 18.140625 13.59375 C 18.113281 13.800781 18.128906 14.023438 18.179688 14.234375 C 18.253906 14.546875 18.402344 14.8125 18.59375 14.894531 C 18.695312 14.929688 18.769531 15.027344 18.769531 15.144531 L 18.769531 15.46875 C 18.769531 15.582031 18.695312 15.6875 18.578125 15.71875 C 18.332031 15.785156 18.117188 15.847656 17.933594 15.90625 Z M 17.933594 15.90625 " fill-opacity="1" fill-rule="nonzero"/></g></svg>