<svg xmlns="http://www.w3.org/2000/svg" xmlns:xlink="http://www.w3.org/1999/xlink" width="40" zoomAndPan="magnify" viewBox="0 0 30 30.000001" height="40" preserveAspectRatio="xMidYMid meet" version="1.0"><defs><clipPath id="6e6ad5f02e"><path d="M 7.0625 6.578125 L 22.9375 6.578125 L 22.9375 22.453125 L 7.0625 22.453125 Z M 7.0625 6.578125 " clip-rule="nonzero"/></clipPath><clipPath id="79792bb9fe"><path d="M 15 6.578125 C 10.617188 6.578125 7.0625 10.132812 7.0625 14.515625 C 7.0625 18.898438 10.617188 22.453125 15 22.453125 C 19.382812 22.453125 22.9375 18.898438 22.9375 14.515625 C 22.9375 10.132812 19.382812 6.578125 15 6.578125 Z M 15 6.578125 " clip-rule="nonzero"/></clipPath><clipPath id="05b93eebfb"><path d="M 8.703125 9.9375 L 21.039062 9.9375 L 21.039062 12 L 8.703125 12 Z M 8.703125 9.9375 " clip-rule="nonzero"/></clipPath><clipPath id="cb7139c355"><path d="M 10 12 L 20 12 L 20 19.371094 L 10 19.371094 Z M 10 12 " clip-rule="nonzero"/></clipPath></defs><g clip-path="url(#6e6ad5f02e)"><g clip-path="url(#79792bb9fe)"><path fill="#0071b8" d="M 7.0625 6.578125 L 22.9375 6.578125 L 22.9375 22.453125 L 7.0625 22.453125 Z M 7.0625 6.578125 " fill-opacity="1" fill-rule="nonzero"/></g></g><g clip-path="url(#05b93eebfb)"><path fill="#ffffff" d="M 15.582031 10.960938 L 15.582031 10.925781 C 16.484375 10.929688 21.765625 10.96875 26.519531 11.28125 L 26.527344 11.136719 C 21.769531 10.824219 16.484375 10.785156 15.582031 10.78125 L 15.582031 10.71875 L 15.160156 10.71875 L 15.160156 10.550781 L 15.007812 10.550781 L 15.007812 9.9375 L 14.871094 9.9375 L 14.871094 10.550781 L 14.714844 10.550781 L 14.714844 10.71875 L 14.296875 10.71875 L 14.296875 10.78125 C 13.394531 10.785156 8.109375 10.824219 3.347656 11.136719 L 3.359375 11.28125 C 8.113281 10.96875 13.394531 10.929688 14.296875 10.925781 L 14.296875 10.960938 L 14.714844 10.960938 L 14.714844 11.40625 L 14.46875 11.40625 C 14.363281 11.40625 14.265625 11.460938 14.210938 11.550781 L 13.980469 11.902344 C 14.347656 11.871094 14.703125 11.867188 14.9375 11.867188 C 15.175781 11.867188 15.53125 11.871094 15.898438 11.902344 L 15.667969 11.550781 C 15.613281 11.460938 15.511719 11.40625 15.410156 11.40625 L 15.160156 11.40625 L 15.160156 10.960938 Z M 15.582031 10.960938 " fill-opacity="1" fill-rule="nonzero"/></g><path fill="#ffffff" d="M 11.332031 13.234375 L 11.261719 12.421875 C 11.261719 12.386719 11.230469 12.363281 11.199219 12.363281 C 11.164062 12.363281 11.136719 12.394531 11.136719 12.429688 L 11.214844 14.191406 C 11.214844 14.226562 11.246094 14.253906 11.28125 14.253906 L 11.347656 14.25 C 11.382812 14.246094 11.410156 14.214844 11.40625 14.179688 L 11.351562 13.492188 L 12.097656 13.558594 C 12.132812 13.445312 12.171875 13.335938 12.210938 13.234375 Z M 11.332031 13.234375 " fill-opacity="1" fill-rule="nonzero"/><path fill="#ffffff" d="M 18.527344 13.492188 L 18.46875 14.179688 C 18.46875 14.214844 18.496094 14.246094 18.53125 14.25 L 18.597656 14.253906 C 18.632812 14.253906 18.664062 14.226562 18.664062 14.191406 L 18.742188 12.429688 C 18.742188 12.394531 18.714844 12.363281 18.679688 12.363281 C 18.644531 12.363281 18.617188 12.386719 18.613281 12.421875 L 18.546875 13.234375 L 17.667969 13.234375 C 17.707031 13.335938 17.746094 13.445312 17.78125 13.558594 Z M 18.527344 13.492188 " fill-opacity="1" fill-rule="nonzero"/><g clip-path="url(#cb7139c355)"><path fill="#ffffff" d="M 17.839844 14.574219 C 17.710938 13.59375 17.242188 12.660156 17.101562 12.414062 C 16.960938 12.164062 15.949219 12.039062 14.9375 12.039062 C 13.929688 12.039062 12.917969 12.164062 12.777344 12.414062 C 12.636719 12.660156 12.167969 13.59375 12.039062 14.574219 C 11.917969 15.515625 12.15625 16.5 12.359375 16.960938 L 12.214844 17.058594 L 11.421875 17.578125 C 11.390625 17.601562 11.363281 17.628906 11.351562 17.667969 L 10.992188 18.734375 C 10.949219 18.722656 10.917969 18.707031 10.914062 18.699219 C 10.878906 18.609375 10.777344 18.570312 10.691406 18.605469 C 10.605469 18.640625 10.5625 18.742188 10.597656 18.828125 C 10.699219 19.070312 11.015625 19.085938 11.101562 19.085938 C 11.109375 19.085938 11.113281 19.085938 11.117188 19.085938 C 11.1875 19.085938 11.25 19.039062 11.273438 18.972656 L 11.578125 18.070312 L 12.441406 17.710938 L 12.890625 17.679688 L 13.285156 17.652344 C 13.457031 17.710938 13.640625 17.757812 13.816406 17.792969 C 14.40625 17.914062 14.9375 17.921875 14.9375 17.921875 C 14.9375 17.921875 15.472656 17.914062 16.058594 17.792969 C 16.238281 17.757812 16.417969 17.710938 16.59375 17.652344 L 16.988281 17.679688 L 17.4375 17.710938 L 18.300781 18.070312 L 18.605469 18.972656 C 18.628906 19.039062 18.6875 19.085938 18.761719 19.085938 C 18.765625 19.085938 18.769531 19.085938 18.777344 19.085938 C 18.863281 19.085938 19.179688 19.070312 19.28125 18.828125 C 19.316406 18.742188 19.273438 18.640625 19.1875 18.605469 C 19.097656 18.570312 19 18.609375 18.964844 18.699219 C 18.957031 18.707031 18.925781 18.722656 18.886719 18.734375 L 18.523438 17.667969 C 18.511719 17.628906 18.488281 17.601562 18.457031 17.578125 L 17.664062 17.058594 L 17.515625 16.960938 C 17.722656 16.5 17.960938 15.515625 17.839844 14.574219 Z M 17.261719 14.800781 C 17.261719 14.828125 17.265625 14.851562 17.265625 14.878906 C 16.660156 14.617188 15.875 14.503906 15.015625 14.496094 L 15.015625 12.847656 C 16.085938 12.855469 16.769531 12.976562 16.957031 13.070312 C 17.035156 13.257812 17.183594 13.886719 17.261719 14.800781 Z M 12.917969 13.070312 C 13.109375 12.976562 13.789062 12.855469 14.863281 12.847656 L 14.863281 14.496094 C 14.003906 14.503906 13.21875 14.617188 12.613281 14.878906 C 12.613281 14.851562 12.617188 14.828125 12.617188 14.800781 C 12.691406 13.886719 12.84375 13.257812 12.917969 13.070312 Z M 12.730469 17.59375 L 12.425781 17.613281 C 12.421875 17.617188 12.417969 17.617188 12.410156 17.617188 L 11.621094 17.945312 L 11.65625 17.832031 L 12.40625 17.339844 L 12.554688 17.242188 C 12.6875 17.375 12.867188 17.484375 13.066406 17.570312 Z M 12.65625 16.339844 L 13.578125 16.503906 L 14.078125 17.261719 C 12.992188 17.15625 12.65625 16.339844 12.65625 16.339844 Z M 14.9375 16.546875 C 14.714844 16.546875 14.53125 16.367188 14.53125 16.140625 C 14.53125 15.917969 14.714844 15.734375 14.9375 15.734375 C 15.164062 15.734375 15.34375 15.917969 15.34375 16.140625 C 15.34375 16.367188 15.164062 16.546875 14.9375 16.546875 Z M 16.300781 16.503906 L 17.222656 16.339844 C 17.222656 16.339844 16.886719 17.15625 15.800781 17.261719 Z M 18.257812 17.945312 L 17.464844 17.617188 C 17.460938 17.617188 17.457031 17.617188 17.449219 17.613281 L 17.148438 17.59375 L 16.808594 17.570312 C 17.011719 17.484375 17.191406 17.375 17.324219 17.242188 L 17.472656 17.339844 L 18.21875 17.832031 Z M 18.257812 17.945312 " fill-opacity="1" fill-rule="nonzero"/></g></svg>