<svg xmlns="http://www.w3.org/2000/svg" xmlns:xlink="http://www.w3.org/1999/xlink" width="40" zoomAndPan="magnify" viewBox="0 0 30 30.000001" height="40" preserveAspectRatio="xMidYMid meet" version="1.0"><defs><clipPath id="6b7684d795"><path d="M 0.484375 0 L 29.515625 0 L 29.515625 29.03125 L 0.484375 29.03125 Z M 0.484375 0 " clip-rule="nonzero"/></clipPath><clipPath id="ce12c6633a"><path d="M 15 0 C 6.984375 0 0.484375 6.5 0.484375 14.515625 C 0.484375 22.53125 6.984375 29.03125 15 29.03125 C 23.015625 29.03125 29.515625 22.53125 29.515625 14.515625 C 29.515625 6.5 23.015625 0 15 0 Z M 15 0 " clip-rule="nonzero"/></clipPath><clipPath id="4d526275d6"><path d="M 3.480469 6.140625 L 26.707031 6.140625 L 26.707031 10 L 3.480469 10 Z M 3.480469 6.140625 " clip-rule="nonzero"/></clipPath><clipPath id="8eefd60102"><path d="M 6 9 L 23 9 L 23 22.835938 L 6 22.835938 Z M 6 9 " clip-rule="nonzero"/></clipPath></defs><g clip-path="url(#6b7684d795)"><g clip-path="url(#ce12c6633a)"><path fill="#0071b8" d="M 0.484375 0 L 29.515625 0 L 29.515625 29.03125 L 0.484375 29.03125 Z M 0.484375 0 " fill-opacity="1" fill-rule="nonzero"/></g></g><g clip-path="url(#4d526275d6)"><path fill="#ffffff" d="M 16.066406 8.011719 L 16.066406 7.953125 C 17.710938 7.960938 27.371094 8.03125 36.066406 8.601562 L 36.085938 8.335938 C 27.378906 7.761719 17.710938 7.695312 16.066406 7.6875 L 16.066406 7.574219 L 15.296875 7.574219 L 15.296875 7.265625 L 15.011719 7.265625 L 15.011719 6.144531 L 14.765625 6.144531 L 14.765625 7.265625 L 14.480469 7.265625 L 14.480469 7.574219 L 13.710938 7.574219 L 13.710938 7.6875 C 12.066406 7.695312 2.398438 7.761719 -6.308594 8.335938 L -6.289062 8.601562 C 2.40625 8.03125 12.066406 7.960938 13.710938 7.953125 L 13.710938 8.011719 L 14.480469 8.011719 L 14.480469 8.832031 L 14.03125 8.832031 C 13.835938 8.832031 13.660156 8.929688 13.554688 9.09375 L 13.136719 9.738281 C 13.804688 9.683594 14.457031 9.671875 14.886719 9.671875 C 15.320312 9.671875 15.972656 9.683594 16.640625 9.738281 L 16.222656 9.09375 C 16.117188 8.929688 15.941406 8.832031 15.746094 8.832031 L 15.296875 8.832031 L 15.296875 8.011719 Z M 16.066406 8.011719 " fill-opacity="1" fill-rule="nonzero"/></g><path fill="#ffffff" d="M 8.289062 12.171875 L 8.167969 10.6875 C 8.160156 10.625 8.109375 10.578125 8.046875 10.578125 C 7.980469 10.582031 7.933594 10.636719 7.933594 10.699219 L 8.078125 13.921875 C 8.078125 13.988281 8.132812 14.039062 8.199219 14.035156 L 8.320312 14.027344 C 8.386719 14.027344 8.4375 13.96875 8.429688 13.902344 L 8.328125 12.644531 L 9.691406 12.765625 C 9.757812 12.558594 9.828125 12.359375 9.898438 12.171875 Z M 8.289062 12.171875 " fill-opacity="1" fill-rule="nonzero"/><path fill="#ffffff" d="M 21.449219 12.644531 L 21.347656 13.902344 C 21.339844 13.96875 21.390625 14.027344 21.457031 14.027344 L 21.578125 14.035156 C 21.644531 14.039062 21.699219 13.988281 21.699219 13.921875 L 21.84375 10.699219 C 21.84375 10.636719 21.796875 10.582031 21.730469 10.578125 C 21.667969 10.578125 21.617188 10.625 21.609375 10.6875 L 21.488281 12.171875 L 19.878906 12.171875 C 19.949219 12.359375 20.019531 12.558594 20.085938 12.765625 Z M 21.449219 12.644531 " fill-opacity="1" fill-rule="nonzero"/><g clip-path="url(#8eefd60102)"><path fill="#ffffff" d="M 20.191406 14.621094 C 19.957031 12.832031 19.097656 11.125 18.84375 10.671875 C 18.585938 10.21875 16.738281 9.988281 14.890625 9.988281 C 13.039062 9.988281 11.191406 10.21875 10.933594 10.671875 C 10.679688 11.125 9.820312 12.832031 9.585938 14.621094 C 9.363281 16.34375 9.800781 18.144531 10.175781 18.988281 L 9.90625 19.164062 L 8.453125 20.117188 C 8.394531 20.15625 8.351562 20.214844 8.332031 20.277344 L 7.671875 22.230469 C 7.59375 22.210938 7.535156 22.183594 7.527344 22.164062 C 7.460938 22.003906 7.28125 21.929688 7.121094 21.996094 C 6.960938 22.058594 6.886719 22.242188 6.949219 22.402344 C 7.132812 22.847656 7.714844 22.878906 7.867188 22.878906 C 7.882812 22.878906 7.894531 22.878906 7.898438 22.875 C 8.03125 22.871094 8.144531 22.789062 8.183594 22.664062 L 8.742188 21.015625 L 10.320312 20.363281 L 11.140625 20.304688 L 11.863281 20.253906 C 12.183594 20.359375 12.515625 20.445312 12.839844 20.511719 C 13.910156 20.730469 14.890625 20.746094 14.890625 20.746094 C 14.890625 20.746094 15.867188 20.730469 16.9375 20.511719 C 17.261719 20.445312 17.59375 20.359375 17.914062 20.253906 L 18.636719 20.304688 L 19.457031 20.363281 L 21.035156 21.015625 L 21.59375 22.664062 C 21.632812 22.789062 21.746094 22.871094 21.878906 22.875 C 21.882812 22.878906 21.894531 22.878906 21.910156 22.878906 C 22.0625 22.878906 22.644531 22.847656 22.828125 22.402344 C 22.890625 22.242188 22.816406 22.058594 22.65625 21.996094 C 22.496094 21.929688 22.316406 22.003906 22.25 22.164062 C 22.242188 22.183594 22.183594 22.210938 22.105469 22.230469 L 21.445312 20.277344 C 21.425781 20.214844 21.382812 20.15625 21.324219 20.117188 L 19.871094 19.164062 L 19.601562 18.988281 C 19.976562 18.144531 20.414062 16.34375 20.191406 14.621094 Z M 19.132812 15.039062 C 19.136719 15.085938 19.140625 15.132812 19.144531 15.179688 C 18.035156 14.703125 16.601562 14.492188 15.027344 14.480469 L 15.027344 11.46875 C 16.988281 11.476562 18.238281 11.699219 18.582031 11.875 C 18.722656 12.21875 18.996094 13.367188 19.132812 15.039062 Z M 11.195312 11.875 C 11.539062 11.699219 12.789062 11.476562 14.75 11.46875 L 14.75 14.480469 C 13.175781 14.492188 11.742188 14.703125 10.632812 15.179688 C 10.636719 15.132812 10.640625 15.085938 10.644531 15.039062 C 10.78125 13.367188 11.054688 12.21875 11.195312 11.875 Z M 10.847656 20.144531 L 10.292969 20.183594 C 10.285156 20.183594 10.273438 20.1875 10.265625 20.191406 L 8.816406 20.789062 L 8.886719 20.582031 L 10.253906 19.683594 L 10.523438 19.503906 C 10.769531 19.746094 11.097656 19.945312 11.46875 20.101562 Z M 10.714844 17.855469 L 12.398438 18.152344 L 13.3125 19.539062 C 11.328125 19.347656 10.714844 17.855469 10.714844 17.855469 Z M 14.890625 18.234375 C 14.476562 18.234375 14.144531 17.898438 14.144531 17.488281 C 14.144531 17.078125 14.476562 16.746094 14.890625 16.746094 C 15.300781 16.746094 15.632812 17.078125 15.632812 17.488281 C 15.632812 17.898438 15.300781 18.234375 14.890625 18.234375 Z M 17.378906 18.152344 L 19.0625 17.855469 C 19.0625 17.855469 18.449219 19.347656 16.464844 19.539062 Z M 20.960938 20.789062 L 19.511719 20.191406 C 19.503906 20.1875 19.492188 20.183594 19.484375 20.183594 L 18.929688 20.144531 L 18.308594 20.101562 C 18.679688 19.945312 19.007812 19.746094 19.253906 19.503906 L 19.523438 19.683594 L 20.890625 20.582031 Z M 20.960938 20.789062 " fill-opacity="1" fill-rule="nonzero"/></g></svg>