<svg xmlns="http://www.w3.org/2000/svg" xmlns:xlink="http://www.w3.org/1999/xlink" width="375" zoomAndPan="magnify" viewBox="0 0 281.25 281.249989" height="375" preserveAspectRatio="xMidYMid meet" version="1.0"><defs><clipPath id="180afbc9fe"><path d="M 0 0 L 280.503906 0 L 280.503906 280.503906 L 0 280.503906 Z M 0 0 " clip-rule="nonzero"/></clipPath><clipPath id="c7e93b7da9"><path d="M 53.207031 44.527344 L 227.441406 44.527344 L 227.441406 235.824219 L 53.207031 235.824219 Z M 53.207031 44.527344 " clip-rule="nonzero"/></clipPath></defs><g clip-path="url(#180afbc9fe)"><path fill="#ffffff" d="M 0 0 L 280.503906 0 L 280.503906 280.503906 L 0 280.503906 Z M 0 0 " fill-opacity="1" fill-rule="nonzero"/><path fill="#0071ba" d="M 0 0 L 280.503906 0 L 280.503906 280.503906 L 0 280.503906 Z M 0 0 " fill-opacity="1" fill-rule="nonzero"/></g><g clip-path="url(#c7e93b7da9)"><path fill="#ffffff" d="M 118.757812 164.632812 L 135.640625 164.632812 L 133.019531 143.003906 L 121.378906 143.003906 L 119.304688 160.113281 L 121.378906 143.003906 Z M 205.988281 210.460938 L 205.988281 208.734375 L 202.40625 208.734375 L 198.90625 211.699219 L 198.378906 212.148438 L 199.859375 214.207031 L 196.667969 216.914062 L 205.988281 216.914062 Z M 168.632812 134.726562 C 168.476562 134.679688 168.320312 134.628906 168.164062 134.550781 C 167.101562 134.007812 166.492188 132.851562 166.519531 131.65625 L 165.898438 131.339844 L 165.484375 128.1875 L 165.488281 128.1875 L 165.480469 128.183594 L 166.558594 125.675781 L 166.9375 124.800781 L 136.113281 109.175781 L 135.472656 110.667969 L 135.46875 110.667969 L 134.230469 113.539062 L 131.890625 112.351562 C 131.695312 112.808594 131.441406 113.21875 131.15625 113.589844 L 134.59375 113.589844 L 147.121094 216.914062 L 159.566406 216.914062 L 159.566406 190.609375 C 159.566406 182.328125 167.199219 175.613281 176.609375 175.613281 C 178.070312 175.613281 179.492188 175.777344 180.847656 176.082031 Z M 75.09375 83 C 75.433594 82.207031 75.472656 81.511719 75.195312 81.082031 C 74.921875 80.65625 74.304688 80.453125 73.5 80.53125 L 69.09375 80.945312 C 67.664062 81.082031 66.28125 82.152344 65.65625 83.609375 C 65.449219 84.085938 65.335938 84.574219 65.320312 85.0625 C 65.132812 90.15625 65.449219 95.597656 66.253906 101.234375 C 66.351562 101.90625 66.488281 102.230469 66.574219 102.378906 C 66.695312 102.261719 66.921875 101.984375 67.195312 101.347656 Z M 82.488281 63.28125 C 82.667969 63.265625 82.875 63.019531 83.042969 62.628906 C 83.136719 62.414062 83.214844 62.167969 83.277344 61.882812 L 85.148438 53.582031 C 85.351562 52.699219 85.238281 51.953125 84.851562 51.59375 C 84.511719 51.277344 83.933594 51.269531 83.261719 51.570312 C 82.066406 52.109375 80.886719 52.75 79.761719 53.484375 C 79.28125 53.796875 78.902344 54.261719 78.660156 54.824219 C 78.144531 56.011719 78.28125 57.5 79 58.613281 L 81.394531 62.335938 C 81.867188 63.066406 82.277344 63.304688 82.488281 63.28125 Z M 69.015625 66.644531 C 68.238281 68.453125 67.570312 70.429688 67.03125 72.515625 C 66.816406 73.355469 66.925781 74.113281 67.34375 74.65625 C 67.789062 75.242188 68.550781 75.53125 69.433594 75.445312 L 74.976562 74.921875 C 77.183594 74.707031 79.175781 73.519531 79.578125 72.574219 C 79.980469 71.636719 79.550781 69.214844 78.285156 67.242188 L 75.09375 62.257812 C 74.570312 61.441406 73.847656 60.976562 73.113281 60.980469 C 72.457031 60.984375 71.851562 61.367188 71.414062 62.0625 C 70.523438 63.484375 69.714844 65.027344 69.015625 66.644531 Z M 173.371094 129.128906 L 173.746094 128.253906 L 169.027344 125.859375 L 168.652344 126.738281 L 168.648438 126.738281 Z M 116.246094 185.34375 L 115.855469 188.53125 L 138.539062 188.53125 L 135.917969 166.90625 L 118.480469 166.90625 Z M 114.28125 212.144531 L 141.40625 212.144531 L 138.816406 190.804688 L 115.582031 190.804688 L 112.992188 212.144531 Z M 121.652344 140.730469 L 132.742188 140.730469 L 130.234375 120.054688 L 130.03125 118.355469 L 124.367188 118.355469 L 121.652344 140.730469 L 124.261719 119.238281 Z M 55.902344 230.023438 L 57.105469 228.226562 C 56.898438 227.949219 56.765625 227.597656 56.765625 227.210938 C 56.765625 227.183594 56.773438 227.15625 56.777344 227.128906 L 54.824219 226.441406 C 54.777344 226.691406 54.753906 226.949219 54.753906 227.210938 C 54.753906 228.324219 55.195312 229.324219 55.902344 230.023438 Z M 57.875 225.648438 L 57.875 225.382812 L 57.054688 225.382812 L 57.054688 223.636719 C 56.175781 223.992188 55.453125 224.714844 55.066406 225.644531 L 57.007812 226.328125 C 57.207031 225.996094 57.511719 225.753906 57.875 225.648438 Z M 58.089844 230.074219 L 58.089844 228.816406 C 57.964844 228.800781 57.839844 228.769531 57.726562 228.722656 L 56.527344 230.515625 C 56.992188 230.804688 57.523438 230.980469 58.089844 231.011719 Z M 53.207031 227.210938 C 53.207031 224.636719 54.847656 222.476562 57.054688 221.886719 L 57.054688 220.078125 L 58.171875 220.078125 L 58.171875 219.308594 L 58.585938 219.308594 L 58.585938 218.972656 L 59.578125 218.972656 L 59.578125 219.308594 L 59.992188 219.308594 L 59.992188 220.078125 L 61.273438 220.078125 L 61.273438 195.726562 L 58.953125 195.726562 L 58.953125 193.792969 L 61.273438 193.792969 L 61.273438 191.714844 L 64.003906 191.714844 L 64.003906 139.730469 L 62.816406 139.730469 L 62.816406 137.976562 L 61.386719 137.976562 L 61.386719 136.046875 L 62.816406 136.046875 L 62.816406 134.066406 L 61.386719 134.066406 L 61.386719 132.132812 L 62.816406 132.132812 L 62.816406 127.414062 L 64.109375 127.414062 L 64.109375 113.578125 L 62.972656 113.578125 L 62.867188 113.167969 C 62.578125 112.074219 55.988281 83.839844 64.394531 64.304688 C 71.917969 46.824219 87.226562 44.578125 87.382812 44.558594 L 87.625 44.527344 L 91.945312 46.714844 L 87.125 68.121094 L 87.089844 68.207031 L 172.632812 111.566406 L 173.0625 110.566406 L 175.152344 111.628906 L 174.722656 112.625 L 179.441406 115.019531 L 179.875 114.019531 L 181.96875 115.082031 L 181.535156 116.078125 L 183.238281 116.941406 L 182.699219 118.199219 L 182.597656 118.425781 L 178.550781 127.832031 L 178.46875 128.015625 L 177.542969 130.175781 L 175.839844 129.316406 L 175.117188 130.996094 L 174.382812 132.699219 L 171.886719 134.375 L 171.746094 134.304688 L 184.4375 177.292969 C 184.972656 177.535156 185.492188 177.800781 185.992188 178.089844 C 186.554688 178.417969 187.089844 178.773438 187.601562 179.152344 C 190.269531 177.390625 193.738281 177.320312 196.523438 179.296875 C 196.996094 179.628906 197.421875 180.007812 197.8125 180.417969 C 197.820312 180.425781 197.824219 180.429688 197.832031 180.441406 C 197.839844 180.445312 197.847656 180.453125 197.851562 180.460938 C 200.625 183.410156 202.722656 185.644531 204.386719 187.417969 C 205.355469 186.792969 206.050781 187.3125 205.980469 188.710938 L 205.960938 189.09375 C 209.84375 193.226562 210.972656 194.425781 214.414062 198.089844 C 215.65625 199.40625 215.914062 201.539062 214.921875 203.175781 C 213.9375 204.816406 212.039062 205.417969 210.425781 204.71875 C 208.25 203.773438 206.789062 203.136719 205.285156 202.484375 L 205.222656 203.660156 C 205.203125 204.082031 205.105469 204.542969 204.964844 205.007812 L 221.398438 205.007812 L 221.398438 208.734375 L 208.792969 208.734375 L 208.792969 216.914062 L 227.5625 216.914062 L 227.5625 235.898438 L 93.6875 235.898438 L 93.6875 231.992188 L 100.617188 231.992188 L 100.617188 216.914062 L 107.277344 216.914062 L 119.808594 113.589844 L 123.253906 113.589844 C 121.996094 111.96875 121.640625 109.644531 122.519531 107.601562 L 120.175781 106.414062 L 122.054688 102.050781 L 81.394531 81.4375 L 67.5625 113.578125 L 66.511719 113.578125 L 66.511719 127.414062 L 67.804688 127.414062 L 67.804688 132.132812 L 69.234375 132.132812 L 69.234375 134.066406 L 67.804688 134.066406 L 67.804688 136.046875 L 69.234375 136.046875 L 69.234375 137.976562 L 67.804688 137.976562 L 67.804688 139.730469 L 66.617188 139.730469 L 66.617188 191.714844 L 69.347656 191.714844 L 69.347656 193.792969 L 71.667969 193.792969 L 71.667969 195.726562 L 69.347656 195.726562 L 69.347656 220.078125 L 70.628906 220.078125 L 70.628906 219.308594 L 71.039062 219.308594 L 71.039062 218.972656 L 72.03125 218.972656 L 72.03125 219.308594 L 72.445312 219.308594 L 72.445312 220.078125 L 73.558594 220.078125 L 73.558594 225.382812 L 72.53125 225.382812 L 72.53125 235.898438 L 58.089844 235.898438 L 58.089844 232.6875 C 55.382812 232.589844 53.207031 230.171875 53.207031 227.210938 " fill-opacity="1" fill-rule="nonzero"/></g></svg>