<svg xmlns="http://www.w3.org/2000/svg" xmlns:xlink="http://www.w3.org/1999/xlink" width="40" viewBox="0 0 375 374.999991" height="500" preserveAspectRatio="xMidYMid meet"><defs><clipPath id="e6a625e904"><path d="M 25.027344 8.929688 L 349.75 8.929688 L 349.75 365.929688 L 25.027344 365.929688 Z M 25.027344 8.929688 " clip-rule="nonzero"></path></clipPath></defs><g clip-path="url(#e6a625e904)"><path fill="#ffffff" d="M 147.195312 233.074219 L 178.660156 233.074219 L 173.773438 192.710938 L 152.082031 192.710938 L 148.214844 224.640625 L 152.082031 192.710938 Z M 309.765625 318.601562 L 309.765625 315.375 L 303.09375 315.375 L 296.566406 320.914062 L 295.585938 321.75 L 298.347656 325.589844 L 292.398438 330.644531 L 309.765625 330.644531 Z M 240.148438 177.265625 C 239.855469 177.179688 239.5625 177.078125 239.277344 176.933594 C 237.292969 175.921875 236.15625 173.765625 236.210938 171.53125 L 235.050781 170.945312 L 234.277344 165.058594 L 234.285156 165.058594 L 234.273438 165.054688 L 236.285156 160.375 L 236.988281 158.738281 L 179.539062 129.582031 L 178.34375 132.363281 L 178.339844 132.363281 L 176.03125 137.722656 L 171.667969 135.503906 C 171.304688 136.363281 170.835938 137.128906 170.300781 137.816406 L 176.707031 137.816406 L 200.058594 330.644531 L 223.253906 330.644531 L 223.253906 281.550781 C 223.253906 266.097656 237.476562 253.570312 255.015625 253.570312 C 257.738281 253.570312 260.382812 253.875 262.910156 254.441406 Z M 65.816406 80.734375 C 66.453125 79.253906 66.523438 77.953125 66.007812 77.152344 C 65.5 76.359375 64.347656 75.980469 62.847656 76.121094 L 54.640625 76.894531 C 51.972656 77.148438 49.398438 79.148438 48.230469 81.867188 C 47.84375 82.753906 47.636719 83.667969 47.605469 84.578125 C 47.257812 94.085938 47.84375 104.238281 49.347656 114.761719 C 49.523438 116.011719 49.78125 116.621094 49.941406 116.898438 C 50.167969 116.679688 50.589844 116.160156 51.101562 114.972656 Z M 79.601562 43.933594 C 79.933594 43.902344 80.324219 43.445312 80.636719 42.710938 C 80.8125 42.316406 80.957031 41.851562 81.074219 41.324219 L 84.554688 25.828125 C 84.933594 24.179688 84.726562 22.789062 84.007812 22.121094 C 83.371094 21.527344 82.292969 21.515625 81.042969 22.078125 C 78.8125 23.082031 76.613281 24.28125 74.519531 25.648438 C 73.625 26.230469 72.917969 27.097656 72.464844 28.152344 C 71.507812 30.367188 71.757812 33.144531 73.097656 35.222656 L 77.558594 42.167969 C 78.445312 43.53125 79.207031 43.972656 79.601562 43.933594 Z M 54.492188 50.210938 C 53.042969 53.585938 51.796875 57.273438 50.796875 61.164062 C 50.390625 62.730469 50.597656 64.144531 51.375 65.160156 C 52.207031 66.25 53.628906 66.789062 55.269531 66.628906 L 65.601562 65.652344 C 69.714844 65.253906 73.425781 63.035156 74.175781 61.277344 C 74.929688 59.527344 74.128906 55.007812 71.765625 51.320312 L 65.820312 42.019531 C 64.84375 40.5 63.5 39.632812 62.125 39.640625 C 60.902344 39.644531 59.777344 40.359375 58.964844 41.660156 C 57.300781 44.308594 55.792969 47.1875 54.492188 50.210938 Z M 248.980469 166.820312 L 249.679688 165.1875 L 240.882812 160.71875 L 240.183594 162.355469 L 240.179688 162.355469 Z M 142.511719 271.726562 L 141.789062 277.675781 L 184.0625 277.675781 L 179.179688 237.316406 L 146.679688 237.316406 Z M 138.851562 321.742188 L 189.402344 321.742188 L 184.578125 281.917969 L 141.277344 281.917969 L 136.453125 321.742188 Z M 152.59375 188.46875 L 173.261719 188.46875 L 168.585938 149.882812 L 168.207031 146.714844 L 157.648438 146.714844 L 152.59375 188.46875 L 157.457031 148.359375 Z M 30.050781 355.105469 L 32.292969 351.753906 C 31.90625 351.234375 31.660156 350.582031 31.660156 349.859375 C 31.660156 349.804688 31.675781 349.753906 31.679688 349.703125 L 28.042969 348.421875 C 27.957031 348.886719 27.910156 349.367188 27.910156 349.859375 C 27.910156 351.9375 28.738281 353.800781 30.050781 355.105469 Z M 33.730469 346.945312 L 33.730469 346.449219 L 32.203125 346.449219 L 32.203125 343.191406 C 30.558594 343.851562 29.21875 345.203125 28.496094 346.933594 L 32.113281 348.210938 C 32.484375 347.589844 33.054688 347.140625 33.730469 346.945312 Z M 34.132812 355.203125 L 34.132812 352.851562 C 33.894531 352.828125 33.664062 352.769531 33.453125 352.679688 L 31.21875 356.027344 C 32.085938 356.566406 33.074219 356.894531 34.132812 356.949219 Z M 25.027344 349.859375 C 25.027344 345.054688 28.089844 341.023438 32.203125 339.921875 L 32.203125 336.546875 L 34.285156 336.546875 L 34.285156 335.109375 L 35.054688 335.109375 L 35.054688 334.488281 L 36.902344 334.488281 L 36.902344 335.109375 L 37.671875 335.109375 L 37.671875 336.546875 L 40.0625 336.546875 L 40.0625 291.101562 L 35.738281 291.101562 L 35.738281 287.496094 L 40.0625 287.496094 L 40.0625 283.613281 L 45.148438 283.613281 L 45.148438 186.605469 L 42.941406 186.605469 L 42.941406 183.332031 L 40.273438 183.332031 L 40.273438 179.726562 L 42.941406 179.726562 L 42.941406 176.03125 L 40.273438 176.03125 L 40.273438 172.425781 L 42.941406 172.425781 L 42.941406 163.617188 L 45.351562 163.617188 L 45.351562 137.792969 L 43.230469 137.792969 L 43.03125 137.03125 C 42.496094 134.988281 30.210938 82.296875 45.878906 45.839844 C 59.898438 13.222656 88.433594 9.027344 88.722656 8.988281 L 89.171875 8.929688 L 97.222656 13.011719 L 88.242188 52.964844 L 88.175781 53.121094 L 247.601562 134.042969 L 248.402344 132.175781 L 252.300781 134.15625 L 251.5 136.019531 L 260.292969 140.488281 L 261.097656 138.621094 L 265 140.601562 L 264.195312 142.464844 L 267.367188 144.074219 L 266.359375 146.417969 L 266.175781 146.839844 L 258.632812 164.394531 L 258.480469 164.742188 L 256.75 168.773438 L 253.578125 167.164062 L 252.230469 170.300781 L 250.867188 173.476562 L 250.867188 173.480469 L 246.210938 176.609375 L 245.949219 176.476562 L 269.605469 256.699219 C 270.601562 257.15625 271.570312 257.652344 272.5 258.191406 C 273.546875 258.800781 274.542969 259.464844 275.496094 260.171875 C 280.472656 256.886719 286.933594 256.753906 292.128906 260.441406 C 293.007812 261.0625 293.804688 261.765625 294.527344 262.535156 C 294.542969 262.546875 294.554688 262.558594 294.566406 262.574219 C 294.582031 262.585938 294.59375 262.601562 294.605469 262.613281 C 299.773438 268.121094 303.683594 272.289062 306.785156 275.597656 C 308.585938 274.433594 309.886719 275.398438 309.753906 278.007812 L 309.714844 278.722656 C 316.953125 286.433594 319.054688 288.671875 325.46875 295.511719 C 327.785156 297.972656 328.261719 301.949219 326.417969 305.007812 C 324.582031 308.066406 321.042969 309.191406 318.035156 307.882812 C 313.984375 306.117188 311.257812 304.933594 308.453125 303.710938 L 308.339844 305.90625 C 308.300781 306.695312 308.125 307.554688 307.859375 308.421875 L 338.484375 308.421875 L 338.484375 315.375 L 314.992188 315.375 L 314.992188 330.644531 L 349.976562 330.644531 L 349.976562 366.070312 L 100.472656 366.070312 L 100.472656 358.78125 L 113.386719 358.78125 L 113.386719 330.644531 L 125.796875 330.644531 L 149.152344 137.816406 L 155.578125 137.816406 C 153.234375 134.792969 152.570312 130.453125 154.203125 126.640625 L 149.839844 124.425781 L 153.339844 116.28125 L 77.558594 77.816406 L 51.785156 137.792969 L 49.824219 137.792969 L 49.824219 163.617188 L 52.234375 163.617188 L 52.234375 172.425781 L 54.902344 172.425781 L 54.902344 176.03125 L 52.234375 176.03125 L 52.234375 179.726562 L 54.902344 179.726562 L 54.902344 183.332031 L 52.234375 183.332031 L 52.234375 186.605469 L 50.019531 186.605469 L 50.019531 283.613281 L 55.109375 283.613281 L 55.109375 287.496094 L 59.433594 287.496094 L 59.433594 291.101562 L 55.109375 291.101562 L 55.109375 336.546875 L 57.496094 336.546875 L 57.496094 335.109375 L 58.265625 335.109375 L 58.265625 334.488281 L 60.113281 334.488281 L 60.113281 335.109375 L 60.886719 335.109375 L 60.886719 336.546875 L 62.960938 336.546875 L 62.960938 346.449219 L 61.046875 346.449219 L 61.046875 366.070312 L 34.132812 366.070312 L 34.132812 360.082031 C 29.085938 359.898438 25.027344 355.386719 25.027344 349.859375 " fill-opacity="1" fill-rule="nonzero"></path></g></svg>