<svg xmlns="http://www.w3.org/2000/svg" xmlns:xlink="http://www.w3.org/1999/xlink" width="40" zoomAndPan="magnify" viewBox="0 0 30 30.000001" height="40" preserveAspectRatio="xMidYMid meet" version="1.0"><defs><clipPath id="233db8bdf6"><path d="M 6.980469 6.496094 L 23.019531 6.496094 L 23.019531 22.535156 L 6.980469 22.535156 Z M 6.980469 6.496094 " clip-rule="nonzero"/></clipPath><clipPath id="d97cfb858e"><path d="M 15 6.496094 C 10.570312 6.496094 6.980469 10.085938 6.980469 14.515625 C 6.980469 18.945312 10.570312 22.535156 15 22.535156 C 19.429688 22.535156 23.019531 18.945312 23.019531 14.515625 C 23.019531 10.085938 19.429688 6.496094 15 6.496094 Z M 15 6.496094 " clip-rule="nonzero"/></clipPath><clipPath id="69313a6abe"><path d="M 9.503906 9.019531 L 20.390625 9.019531 L 20.390625 19.90625 L 9.503906 19.90625 Z M 9.503906 9.019531 " clip-rule="nonzero"/></clipPath></defs><g clip-path="url(#233db8bdf6)"><g clip-path="url(#d97cfb858e)"><path fill="#0071b8" d="M 6.980469 6.496094 L 23.019531 6.496094 L 23.019531 22.535156 L 6.980469 22.535156 Z M 6.980469 6.496094 " fill-opacity="1" fill-rule="nonzero"/></g></g><g clip-path="url(#69313a6abe)"><path fill="#ffffff" d="M 20.359375 19.734375 L 19.839844 19.734375 C 19.839844 19.730469 19.839844 19.726562 19.839844 19.726562 L 19.839844 12.496094 C 19.839844 12.417969 19.777344 12.359375 19.703125 12.359375 L 17.097656 12.359375 L 17.097656 10.402344 C 17.097656 10.34375 17.058594 10.292969 17.003906 10.273438 L 13.535156 9.027344 C 13.492188 9.011719 13.445312 9.019531 13.410156 9.042969 C 13.371094 9.070312 13.351562 9.113281 13.351562 9.15625 L 13.351562 11.46875 L 11.25 11.46875 C 11.171875 11.46875 11.113281 11.53125 11.113281 11.605469 L 11.113281 13.992188 L 10.453125 13.992188 C 10.375 13.992188 10.316406 14.050781 10.316406 14.128906 L 10.316406 19.734375 L 9.644531 19.734375 C 9.566406 19.734375 9.507812 19.792969 9.507812 19.871094 C 9.507812 19.945312 9.566406 20.007812 9.644531 20.007812 L 20.359375 20.007812 C 20.433594 20.007812 20.496094 19.945312 20.496094 19.871094 C 20.496094 19.792969 20.433594 19.734375 20.359375 19.734375 Z M 13.625 9.351562 L 16.820312 10.496094 L 16.820312 12.359375 L 16.304688 12.359375 C 16.230469 12.359375 16.167969 12.417969 16.167969 12.496094 L 16.167969 13.863281 L 15.21875 13.609375 L 15.21875 11.605469 C 15.21875 11.53125 15.15625 11.46875 15.082031 11.46875 L 13.625 11.46875 Z M 11.386719 11.742188 L 14.945312 11.742188 L 14.945312 12.488281 L 11.386719 12.488281 Z M 13.132812 19.734375 L 10.589844 19.734375 L 10.589844 14.265625 L 13.132812 14.265625 Z M 13.847656 13.292969 C 13.816406 13.320312 13.792969 13.359375 13.792969 13.402344 L 13.800781 19.734375 L 13.40625 19.734375 L 13.40625 14.128906 C 13.40625 14.050781 13.347656 13.992188 13.269531 13.992188 L 11.386719 13.992188 L 11.386719 12.761719 L 14.945312 12.761719 L 14.945312 13.535156 L 13.96875 13.269531 C 13.925781 13.261719 13.882812 13.269531 13.847656 13.292969 Z M 14.078125 19.734375 L 14.070312 13.582031 L 16.566406 14.257812 L 16.574219 19.734375 Z M 16.847656 19.734375 L 16.84375 14.152344 C 16.839844 14.089844 16.800781 14.035156 16.742188 14.019531 L 16.441406 13.9375 L 16.441406 12.632812 L 19.566406 12.632812 L 19.566406 19.726562 C 19.566406 19.726562 19.566406 19.730469 19.566406 19.734375 Z M 16.847656 19.734375 " fill-opacity="1" fill-rule="nonzero"/></g><path fill="#ffffff" d="M 11.25 17.398438 C 11.324219 17.398438 11.386719 17.335938 11.386719 17.261719 L 11.386719 16.710938 C 11.386719 16.632812 11.324219 16.574219 11.25 16.574219 C 11.171875 16.574219 11.113281 16.632812 11.113281 16.710938 L 11.113281 17.261719 C 11.113281 17.335938 11.171875 17.398438 11.25 17.398438 Z M 11.25 17.398438 " fill-opacity="1" fill-rule="nonzero"/><path fill="#ffffff" d="M 11.863281 17.398438 C 11.9375 17.398438 12 17.335938 12 17.261719 L 12 16.710938 C 12 16.632812 11.9375 16.574219 11.863281 16.574219 C 11.785156 16.574219 11.722656 16.632812 11.722656 16.710938 L 11.722656 17.261719 C 11.722656 17.335938 11.785156 17.398438 11.863281 17.398438 Z M 11.863281 17.398438 " fill-opacity="1" fill-rule="nonzero"/><path fill="#ffffff" d="M 12.472656 17.398438 C 12.550781 17.398438 12.609375 17.335938 12.609375 17.261719 L 12.609375 16.710938 C 12.609375 16.632812 12.550781 16.574219 12.472656 16.574219 C 12.398438 16.574219 12.335938 16.632812 12.335938 16.710938 L 12.335938 17.261719 C 12.335938 17.335938 12.398438 17.398438 12.472656 17.398438 Z M 12.472656 17.398438 " fill-opacity="1" fill-rule="nonzero"/><path fill="#ffffff" d="M 14.707031 15.019531 C 14.628906 15.019531 14.570312 15.078125 14.570312 15.15625 L 14.570312 15.707031 C 14.570312 15.78125 14.628906 15.84375 14.707031 15.84375 C 14.78125 15.84375 14.84375 15.78125 14.84375 15.707031 L 14.84375 15.15625 C 14.84375 15.078125 14.78125 15.019531 14.707031 15.019531 Z M 14.707031 15.019531 " fill-opacity="1" fill-rule="nonzero"/><path fill="#ffffff" d="M 15.320312 15.019531 C 15.242188 15.019531 15.179688 15.078125 15.179688 15.15625 L 15.179688 15.707031 C 15.179688 15.78125 15.242188 15.84375 15.320312 15.84375 C 15.394531 15.84375 15.457031 15.78125 15.457031 15.707031 L 15.457031 15.15625 C 15.457031 15.078125 15.394531 15.019531 15.320312 15.019531 Z M 15.320312 15.019531 " fill-opacity="1" fill-rule="nonzero"/><path fill="#ffffff" d="M 15.929688 15.019531 C 15.855469 15.019531 15.792969 15.078125 15.792969 15.15625 L 15.792969 15.707031 C 15.792969 15.78125 15.855469 15.84375 15.929688 15.84375 C 16.007812 15.84375 16.066406 15.78125 16.066406 15.707031 L 16.066406 15.15625 C 16.066406 15.078125 16.007812 15.019531 15.929688 15.019531 Z M 15.929688 15.019531 " fill-opacity="1" fill-rule="nonzero"/><path fill="#ffffff" d="M 14.707031 16.574219 C 14.628906 16.574219 14.570312 16.632812 14.570312 16.710938 L 14.570312 17.261719 C 14.570312 17.335938 14.628906 17.398438 14.707031 17.398438 C 14.78125 17.398438 14.84375 17.335938 14.84375 17.261719 L 14.84375 16.710938 C 14.84375 16.632812 14.78125 16.574219 14.707031 16.574219 Z M 14.707031 16.574219 " fill-opacity="1" fill-rule="nonzero"/><path fill="#ffffff" d="M 15.320312 16.574219 C 15.242188 16.574219 15.179688 16.632812 15.179688 16.710938 L 15.179688 17.261719 C 15.179688 17.335938 15.242188 17.398438 15.320312 17.398438 C 15.394531 17.398438 15.457031 17.335938 15.457031 17.261719 L 15.457031 16.710938 C 15.457031 16.632812 15.394531 16.574219 15.320312 16.574219 Z M 15.320312 16.574219 " fill-opacity="1" fill-rule="nonzero"/><path fill="#ffffff" d="M 15.929688 16.574219 C 15.855469 16.574219 15.792969 16.632812 15.792969 16.710938 L 15.792969 17.261719 C 15.792969 17.335938 15.855469 17.398438 15.929688 17.398438 C 16.007812 17.398438 16.066406 17.335938 16.066406 17.261719 L 16.066406 16.710938 C 16.066406 16.632812 16.007812 16.574219 15.929688 16.574219 Z M 15.929688 16.574219 " fill-opacity="1" fill-rule="nonzero"/><path fill="#ffffff" d="M 17.632812 15.019531 C 17.558594 15.019531 17.496094 15.078125 17.496094 15.15625 L 17.496094 15.707031 C 17.496094 15.78125 17.558594 15.84375 17.632812 15.84375 C 17.710938 15.84375 17.769531 15.78125 17.769531 15.707031 L 17.769531 15.15625 C 17.769531 15.078125 17.710938 15.019531 17.632812 15.019531 Z M 17.632812 15.019531 " fill-opacity="1" fill-rule="nonzero"/><path fill="#ffffff" d="M 18.246094 15.019531 C 18.167969 15.019531 18.109375 15.078125 18.109375 15.15625 L 18.109375 15.707031 C 18.109375 15.78125 18.167969 15.84375 18.246094 15.84375 C 18.320312 15.84375 18.382812 15.78125 18.382812 15.707031 L 18.382812 15.15625 C 18.382812 15.078125 18.320312 15.019531 18.246094 15.019531 Z M 18.246094 15.019531 " fill-opacity="1" fill-rule="nonzero"/><path fill="#ffffff" d="M 18.855469 15.019531 C 18.78125 15.019531 18.71875 15.078125 18.71875 15.15625 L 18.71875 15.707031 C 18.71875 15.78125 18.78125 15.84375 18.855469 15.84375 C 18.933594 15.84375 18.996094 15.78125 18.996094 15.707031 L 18.996094 15.15625 C 18.996094 15.078125 18.933594 15.019531 18.855469 15.019531 Z M 18.855469 15.019531 " fill-opacity="1" fill-rule="nonzero"/><path fill="#ffffff" d="M 11.25 15.84375 C 11.324219 15.84375 11.386719 15.78125 11.386719 15.707031 L 11.386719 15.15625 C 11.386719 15.078125 11.324219 15.019531 11.25 15.019531 C 11.171875 15.019531 11.113281 15.078125 11.113281 15.15625 L 11.113281 15.707031 C 11.113281 15.78125 11.171875 15.84375 11.25 15.84375 Z M 11.25 15.84375 " fill-opacity="1" fill-rule="nonzero"/><path fill="#ffffff" d="M 11.863281 15.84375 C 11.9375 15.84375 12 15.78125 12 15.707031 L 12 15.15625 C 12 15.078125 11.9375 15.019531 11.863281 15.019531 C 11.785156 15.019531 11.722656 15.078125 11.722656 15.15625 L 11.722656 15.707031 C 11.722656 15.78125 11.785156 15.84375 11.863281 15.84375 Z M 11.863281 15.84375 " fill-opacity="1" fill-rule="nonzero"/><path fill="#ffffff" d="M 12.472656 15.84375 C 12.550781 15.84375 12.609375 15.78125 12.609375 15.707031 L 12.609375 15.15625 C 12.609375 15.078125 12.550781 15.019531 12.472656 15.019531 C 12.398438 15.019531 12.335938 15.078125 12.335938 15.15625 L 12.335938 15.707031 C 12.335938 15.78125 12.398438 15.84375 12.472656 15.84375 Z M 12.472656 15.84375 " fill-opacity="1" fill-rule="nonzero"/><path fill="#ffffff" d="M 17.632812 16.574219 C 17.558594 16.574219 17.496094 16.632812 17.496094 16.710938 L 17.496094 17.261719 C 17.496094 17.335938 17.558594 17.398438 17.632812 17.398438 C 17.710938 17.398438 17.769531 17.335938 17.769531 17.261719 L 17.769531 16.710938 C 17.769531 16.632812 17.710938 16.574219 17.632812 16.574219 Z M 17.632812 16.574219 " fill-opacity="1" fill-rule="nonzero"/><path fill="#ffffff" d="M 18.246094 16.574219 C 18.167969 16.574219 18.109375 16.632812 18.109375 16.710938 L 18.109375 17.261719 C 18.109375 17.335938 18.167969 17.398438 18.246094 17.398438 C 18.320312 17.398438 18.382812 17.335938 18.382812 17.261719 L 18.382812 16.710938 C 18.382812 16.632812 18.320312 16.574219 18.246094 16.574219 Z M 18.246094 16.574219 " fill-opacity="1" fill-rule="nonzero"/><path fill="#ffffff" d="M 18.855469 16.574219 C 18.78125 16.574219 18.71875 16.632812 18.71875 16.710938 L 18.71875 17.261719 C 18.71875 17.335938 18.78125 17.398438 18.855469 17.398438 C 18.933594 17.398438 18.996094 17.335938 18.996094 17.261719 L 18.996094 16.710938 C 18.996094 16.632812 18.933594 16.574219 18.855469 16.574219 Z M 18.855469 16.574219 " fill-opacity="1" fill-rule="nonzero"/><path fill="#ffffff" d="M 11.25 18.890625 C 11.324219 18.890625 11.386719 18.828125 11.386719 18.75 L 11.386719 18.203125 C 11.386719 18.125 11.324219 18.0625 11.25 18.0625 C 11.171875 18.0625 11.113281 18.125 11.113281 18.203125 L 11.113281 18.75 C 11.113281 18.828125 11.171875 18.890625 11.25 18.890625 Z M 11.25 18.890625 " fill-opacity="1" fill-rule="nonzero"/><path fill="#ffffff" d="M 11.863281 18.890625 C 11.9375 18.890625 12 18.828125 12 18.75 L 12 18.203125 C 12 18.125 11.9375 18.0625 11.863281 18.0625 C 11.785156 18.0625 11.722656 18.125 11.722656 18.203125 L 11.722656 18.75 C 11.722656 18.828125 11.785156 18.890625 11.863281 18.890625 Z M 11.863281 18.890625 " fill-opacity="1" fill-rule="nonzero"/><path fill="#ffffff" d="M 12.472656 18.890625 C 12.550781 18.890625 12.609375 18.828125 12.609375 18.75 L 12.609375 18.203125 C 12.609375 18.125 12.550781 18.0625 12.472656 18.0625 C 12.398438 18.0625 12.335938 18.125 12.335938 18.203125 L 12.335938 18.75 C 12.335938 18.828125 12.398438 18.890625 12.472656 18.890625 Z M 12.472656 18.890625 " fill-opacity="1" fill-rule="nonzero"/><path fill="#ffffff" d="M 14.707031 18.0625 C 14.628906 18.0625 14.570312 18.125 14.570312 18.203125 L 14.570312 18.75 C 14.570312 18.828125 14.628906 18.890625 14.707031 18.890625 C 14.78125 18.890625 14.84375 18.828125 14.84375 18.75 L 14.84375 18.203125 C 14.84375 18.125 14.78125 18.0625 14.707031 18.0625 Z M 14.707031 18.0625 " fill-opacity="1" fill-rule="nonzero"/><path fill="#ffffff" d="M 15.320312 18.0625 C 15.242188 18.0625 15.179688 18.125 15.179688 18.203125 L 15.179688 18.75 C 15.179688 18.828125 15.242188 18.890625 15.320312 18.890625 C 15.394531 18.890625 15.457031 18.828125 15.457031 18.75 L 15.457031 18.203125 C 15.457031 18.125 15.394531 18.0625 15.320312 18.0625 Z M 15.320312 18.0625 " fill-opacity="1" fill-rule="nonzero"/><path fill="#ffffff" d="M 15.929688 18.0625 C 15.855469 18.0625 15.792969 18.125 15.792969 18.203125 L 15.792969 18.75 C 15.792969 18.828125 15.855469 18.890625 15.929688 18.890625 C 16.007812 18.890625 16.066406 18.828125 16.066406 18.75 L 16.066406 18.203125 C 16.066406 18.125 16.007812 18.0625 15.929688 18.0625 Z M 15.929688 18.0625 " fill-opacity="1" fill-rule="nonzero"/><path fill="#ffffff" d="M 17.632812 18.0625 C 17.558594 18.0625 17.496094 18.125 17.496094 18.203125 L 17.496094 18.75 C 17.496094 18.828125 17.558594 18.890625 17.632812 18.890625 C 17.710938 18.890625 17.769531 18.828125 17.769531 18.75 L 17.769531 18.203125 C 17.769531 18.125 17.710938 18.0625 17.632812 18.0625 Z M 17.632812 18.0625 " fill-opacity="1" fill-rule="nonzero"/><path fill="#ffffff" d="M 18.246094 18.0625 C 18.167969 18.0625 18.109375 18.125 18.109375 18.203125 L 18.109375 18.75 C 18.109375 18.828125 18.167969 18.890625 18.246094 18.890625 C 18.320312 18.890625 18.382812 18.828125 18.382812 18.75 L 18.382812 18.203125 C 18.382812 18.125 18.320312 18.0625 18.246094 18.0625 Z M 18.246094 18.0625 " fill-opacity="1" fill-rule="nonzero"/><path fill="#ffffff" d="M 18.855469 18.0625 C 18.78125 18.0625 18.71875 18.125 18.71875 18.203125 L 18.71875 18.75 C 18.71875 18.828125 18.78125 18.890625 18.855469 18.890625 C 18.933594 18.890625 18.996094 18.828125 18.996094 18.75 L 18.996094 18.203125 C 18.996094 18.125 18.933594 18.0625 18.855469 18.0625 Z M 18.855469 18.0625 " fill-opacity="1" fill-rule="nonzero"/><path fill="#ffffff" d="M 17.632812 13.417969 C 17.558594 13.417969 17.496094 13.476562 17.496094 13.554688 L 17.496094 14.105469 C 17.496094 14.179688 17.558594 14.242188 17.632812 14.242188 C 17.710938 14.242188 17.769531 14.179688 17.769531 14.105469 L 17.769531 13.554688 C 17.769531 13.476562 17.710938 13.417969 17.632812 13.417969 Z M 17.632812 13.417969 " fill-opacity="1" fill-rule="nonzero"/><path fill="#ffffff" d="M 18.246094 13.417969 C 18.167969 13.417969 18.109375 13.476562 18.109375 13.554688 L 18.109375 14.105469 C 18.109375 14.179688 18.167969 14.242188 18.246094 14.242188 C 18.320312 14.242188 18.382812 14.179688 18.382812 14.105469 L 18.382812 13.554688 C 18.382812 13.476562 18.320312 13.417969 18.246094 13.417969 Z M 18.246094 13.417969 " fill-opacity="1" fill-rule="nonzero"/><path fill="#ffffff" d="M 18.855469 13.417969 C 18.78125 13.417969 18.71875 13.476562 18.71875 13.554688 L 18.71875 14.105469 C 18.71875 14.179688 18.78125 14.242188 18.855469 14.242188 C 18.933594 14.242188 18.996094 14.179688 18.996094 14.105469 L 18.996094 13.554688 C 18.996094 13.476562 18.933594 13.417969 18.855469 13.417969 Z M 18.855469 13.417969 " fill-opacity="1" fill-rule="nonzero"/></svg>