<svg xmlns="http://www.w3.org/2000/svg" xmlns:xlink="http://www.w3.org/1999/xlink" width="40" zoomAndPan="magnify" viewBox="0 0 30 30.000001" height="40" preserveAspectRatio="xMidYMid meet" version="1.0"><defs><clipPath id="d4d1d834ad"><path d="M 0.484375 0 L 29.515625 0 L 29.515625 29.03125 L 0.484375 29.03125 Z M 0.484375 0 " clip-rule="nonzero"/></clipPath><clipPath id="9d119d5783"><path d="M 15 0 C 6.984375 0 0.484375 6.5 0.484375 14.515625 C 0.484375 22.53125 6.984375 29.03125 15 29.03125 C 23.015625 29.03125 29.515625 22.53125 29.515625 14.515625 C 29.515625 6.5 23.015625 0 15 0 Z M 15 0 " clip-rule="nonzero"/></clipPath><clipPath id="63ecce47c4"><path d="M 5 4.734375 L 25 4.734375 L 25 24.332031 L 5 24.332031 Z M 5 4.734375 " clip-rule="nonzero"/></clipPath></defs><g clip-path="url(#d4d1d834ad)"><g clip-path="url(#9d119d5783)"><path fill="#0071b8" d="M 0.484375 0 L 29.515625 0 L 29.515625 29.03125 L 0.484375 29.03125 Z M 0.484375 0 " fill-opacity="1" fill-rule="nonzero"/></g></g><g clip-path="url(#63ecce47c4)"><path fill="#ffffff" d="M 23.207031 5.257812 C 23.710938 5.230469 24.140625 5.621094 24.167969 6.128906 C 24.171875 6.257812 24.152344 6.390625 24.101562 6.511719 C 23.324219 8.464844 22.046875 10.179688 20.398438 11.488281 C 20.304688 11.5625 20.261719 11.691406 20.296875 11.8125 L 23.148438 21.820312 C 23.175781 21.925781 23.148438 22.042969 23.070312 22.121094 L 21.753906 23.4375 C 21.515625 23.675781 21.128906 23.671875 20.890625 23.4375 C 20.839844 23.386719 20.796875 23.328125 20.765625 23.261719 L 16.980469 15.179688 C 16.910156 15.027344 16.726562 14.960938 16.574219 15.03125 C 16.550781 15.042969 16.523438 15.058594 16.503906 15.078125 C 14.519531 16.785156 12.464844 18.402344 10.332031 19.917969 C 10.234375 19.988281 10.1875 20.109375 10.210938 20.230469 L 10.746094 22.824219 C 10.769531 22.953125 10.714844 23.082031 10.601562 23.148438 L 9.878906 23.589844 C 9.734375 23.675781 9.546875 23.628906 9.457031 23.488281 C 9.453125 23.480469 9.449219 23.472656 9.445312 23.464844 L 8.335938 21.226562 C 8.304688 21.167969 8.253906 21.117188 8.195312 21.085938 L 5.960938 19.976562 C 5.808594 19.902344 5.746094 19.71875 5.820312 19.566406 C 5.824219 19.558594 5.828125 19.550781 5.832031 19.542969 L 6.273438 18.820312 C 6.339844 18.707031 6.46875 18.652344 6.597656 18.675781 L 9.191406 19.210938 C 9.3125 19.234375 9.433594 19.1875 9.503906 19.089844 C 11.019531 16.957031 12.636719 14.898438 14.34375 12.917969 C 14.453125 12.792969 14.441406 12.597656 14.3125 12.488281 C 14.289062 12.46875 14.265625 12.453125 14.242188 12.441406 L 6.160156 8.65625 C 5.851562 8.511719 5.71875 8.148438 5.863281 7.839844 C 5.894531 7.777344 5.9375 7.71875 5.984375 7.667969 L 7.300781 6.351562 C 7.378906 6.273438 7.496094 6.246094 7.601562 6.273438 L 17.613281 9.125 C 17.730469 9.160156 17.855469 9.121094 17.933594 9.023438 C 19.238281 7.375 20.957031 6.101562 22.90625 5.320312 C 23 5.285156 23.101562 5.261719 23.203125 5.257812 Z M 23.175781 4.738281 C 23.015625 4.746094 22.859375 4.777344 22.714844 4.835938 C 20.722656 5.632812 18.96875 6.921875 17.617188 8.585938 L 7.742188 5.773438 C 7.453125 5.691406 7.144531 5.773438 6.929688 5.984375 L 5.617188 7.300781 C 5.175781 7.742188 5.175781 8.460938 5.617188 8.902344 C 5.707031 8.992188 5.816406 9.070312 5.9375 9.125 L 13.761719 12.792969 C 12.140625 14.683594 10.605469 16.648438 9.15625 18.671875 L 6.699219 18.167969 C 6.355469 18.097656 6.007812 18.25 5.824219 18.546875 L 5.386719 19.273438 C 5.148438 19.664062 5.273438 20.175781 5.664062 20.410156 C 5.683594 20.421875 5.703125 20.433594 5.722656 20.441406 L 7.894531 21.523438 L 8.976562 23.695312 C 9.179688 24.105469 9.675781 24.273438 10.085938 24.070312 C 10.105469 24.058594 10.125 24.046875 10.144531 24.035156 L 10.871094 23.59375 C 11.171875 23.414062 11.324219 23.0625 11.253906 22.71875 L 10.746094 20.261719 C 12.773438 18.8125 14.734375 17.277344 16.625 15.65625 L 20.292969 23.484375 C 20.558594 24.050781 21.234375 24.292969 21.800781 24.03125 C 21.917969 23.972656 22.027344 23.898438 22.121094 23.804688 L 23.4375 22.488281 C 23.648438 22.277344 23.726562 21.96875 23.648438 21.675781 L 20.832031 11.804688 C 22.496094 10.453125 23.789062 8.699219 24.582031 6.707031 C 24.878906 5.96875 24.515625 5.132812 23.777344 4.835938 C 23.589844 4.761719 23.382812 4.726562 23.175781 4.738281 " fill-opacity="1" fill-rule="nonzero"/></g></svg>