<svg xmlns="http://www.w3.org/2000/svg" xmlns:xlink="http://www.w3.org/1999/xlink" width="40" zoomAndPan="magnify" viewBox="0 0 30 30.000001" height="40" preserveAspectRatio="xMidYMid meet" version="1.0"><defs><clipPath id="4758e694ba"><path d="M 7.066406 6.582031 L 22.933594 6.582031 L 22.933594 22.453125 L 7.066406 22.453125 Z M 7.066406 6.582031 " clip-rule="nonzero"/></clipPath><clipPath id="a14a8cc15f"><path d="M 15 6.582031 C 10.617188 6.582031 7.066406 10.132812 7.066406 14.515625 C 7.066406 18.898438 10.617188 22.453125 15 22.453125 C 19.382812 22.453125 22.933594 18.898438 22.933594 14.515625 C 22.933594 10.132812 19.382812 6.582031 15 6.582031 Z M 15 6.582031 " clip-rule="nonzero"/></clipPath><clipPath id="d93b53f93e"><path d="M 9.53125 9.167969 L 20.417969 9.167969 L 20.417969 20 L 9.53125 20 Z M 9.53125 9.167969 " clip-rule="nonzero"/></clipPath></defs><g clip-path="url(#4758e694ba)"><g clip-path="url(#a14a8cc15f)"><path fill="#0071b8" d="M 7.066406 6.582031 L 22.933594 6.582031 L 22.933594 22.453125 L 7.066406 22.453125 Z M 7.066406 6.582031 " fill-opacity="1" fill-rule="nonzero"/></g></g><g clip-path="url(#d93b53f93e)"><path fill="#ffffff" d="M 19.480469 9.453125 C 19.757812 9.441406 19.992188 9.652344 20.007812 9.929688 C 20.011719 10.003906 20 10.074219 19.972656 10.140625 C 19.546875 11.207031 18.847656 12.144531 17.949219 12.859375 C 17.894531 12.898438 17.875 12.96875 17.890625 13.035156 L 19.449219 18.503906 C 19.464844 18.5625 19.449219 18.625 19.40625 18.667969 L 18.6875 19.386719 C 18.558594 19.519531 18.347656 19.515625 18.214844 19.386719 C 18.1875 19.359375 18.167969 19.328125 18.148438 19.292969 L 16.078125 14.875 C 16.042969 14.792969 15.941406 14.757812 15.859375 14.796875 C 15.84375 14.800781 15.832031 14.808594 15.820312 14.820312 C 14.738281 15.753906 13.613281 16.636719 12.449219 17.464844 C 12.394531 17.503906 12.367188 17.570312 12.382812 17.636719 L 12.671875 19.054688 C 12.6875 19.121094 12.65625 19.195312 12.59375 19.230469 L 12.199219 19.472656 C 12.121094 19.519531 12.019531 19.492188 11.96875 19.414062 C 11.96875 19.410156 11.964844 19.40625 11.964844 19.402344 L 11.355469 18.179688 C 11.339844 18.148438 11.3125 18.121094 11.28125 18.105469 L 10.058594 17.496094 C 9.976562 17.457031 9.941406 17.355469 9.984375 17.273438 C 9.984375 17.269531 9.988281 17.265625 9.988281 17.261719 L 10.230469 16.863281 C 10.265625 16.804688 10.335938 16.773438 10.40625 16.789062 L 11.824219 17.078125 C 11.890625 17.089844 11.957031 17.066406 11.996094 17.011719 C 12.824219 15.847656 13.707031 14.722656 14.640625 13.640625 C 14.699219 13.570312 14.691406 13.464844 14.621094 13.40625 C 14.609375 13.394531 14.597656 13.386719 14.585938 13.378906 L 10.167969 11.3125 C 10 11.234375 9.929688 11.035156 10.007812 10.867188 C 10.023438 10.832031 10.046875 10.800781 10.074219 10.773438 L 10.792969 10.054688 C 10.835938 10.011719 10.898438 9.992188 10.957031 10.011719 L 16.425781 11.570312 C 16.488281 11.585938 16.558594 11.566406 16.601562 11.511719 C 17.316406 10.613281 18.253906 9.914062 19.320312 9.488281 C 19.371094 9.46875 19.425781 9.457031 19.480469 9.453125 Z M 19.464844 9.171875 C 19.378906 9.175781 19.292969 9.191406 19.214844 9.226562 C 18.125 9.660156 17.167969 10.363281 16.425781 11.273438 L 11.03125 9.738281 C 10.875 9.691406 10.703125 9.734375 10.589844 9.851562 L 9.871094 10.570312 C 9.628906 10.8125 9.628906 11.203125 9.871094 11.445312 C 9.921875 11.496094 9.980469 11.539062 10.046875 11.570312 L 14.320312 13.574219 C 13.4375 14.605469 12.597656 15.679688 11.804688 16.785156 L 10.464844 16.507812 C 10.277344 16.472656 10.085938 16.554688 9.984375 16.714844 L 9.746094 17.113281 C 9.613281 17.328125 9.683594 17.605469 9.898438 17.734375 C 9.90625 17.742188 9.917969 17.746094 9.929688 17.753906 L 11.117188 18.34375 L 11.707031 19.53125 C 11.820312 19.753906 12.089844 19.84375 12.3125 19.734375 C 12.324219 19.726562 12.335938 19.722656 12.347656 19.714844 L 12.742188 19.472656 C 12.90625 19.375 12.988281 19.183594 12.949219 18.996094 L 12.675781 17.652344 C 13.78125 16.863281 14.855469 16.023438 15.886719 15.136719 L 17.890625 19.414062 C 18.035156 19.722656 18.402344 19.855469 18.714844 19.710938 C 18.777344 19.679688 18.839844 19.640625 18.890625 19.589844 L 19.609375 18.871094 C 19.722656 18.753906 19.765625 18.585938 19.722656 18.425781 L 18.183594 13.03125 C 19.09375 12.292969 19.800781 11.335938 20.234375 10.246094 C 20.394531 9.84375 20.199219 9.386719 19.796875 9.226562 C 19.691406 9.183594 19.578125 9.164062 19.464844 9.171875 " fill-opacity="1" fill-rule="nonzero"/></g></svg>