<svg xmlns="http://www.w3.org/2000/svg" xmlns:xlink="http://www.w3.org/1999/xlink" width="40" zoomAndPan="magnify" viewBox="0 0 30 30.000001" height="40" preserveAspectRatio="xMidYMid meet" version="1.0"><defs><clipPath id="29813b0d66"><path d="M 0.484375 0 L 29.515625 0 L 29.515625 29.03125 L 0.484375 29.03125 Z M 0.484375 0 " clip-rule="nonzero"/></clipPath><clipPath id="4d23d134f5"><path d="M 15 0 C 6.984375 0 0.484375 6.5 0.484375 14.515625 C 0.484375 22.53125 6.984375 29.03125 15 29.03125 C 23.015625 29.03125 29.515625 22.53125 29.515625 14.515625 C 29.515625 6.5 23.015625 0 15 0 Z M 15 0 " clip-rule="nonzero"/></clipPath><clipPath id="f3c07e7053"><path d="M 3.863281 5.871094 L 26.363281 5.871094 L 26.363281 23.289062 L 3.863281 23.289062 Z M 3.863281 5.871094 " clip-rule="nonzero"/></clipPath></defs><g clip-path="url(#29813b0d66)"><g clip-path="url(#4d23d134f5)"><path fill="#0071b8" d="M 0.484375 0 L 29.515625 0 L 29.515625 29.03125 L 0.484375 29.03125 Z M 0.484375 0 " fill-opacity="1" fill-rule="nonzero"/></g></g><g clip-path="url(#f3c07e7053)"><path fill="#ffffff" d="M 6.804688 23.152344 C 6.554688 23.152344 6.359375 22.953125 6.359375 22.710938 C 6.359375 21.433594 6.429688 20.453125 6.6875 19.65625 L 4.308594 19.65625 C 4.066406 19.65625 3.863281 19.453125 3.863281 19.210938 C 3.863281 18.03125 3.988281 17.3125 4.558594 16.742188 C 5.046875 16.253906 5.828125 15.941406 7.140625 15.578125 C 6.695312 15.25 6.363281 14.664062 6.207031 14.007812 C 6.097656 13.554688 6.066406 13.0625 6.125 12.59375 C 6.191406 12.109375 6.363281 11.640625 6.65625 11.269531 C 7.046875 10.777344 7.636719 10.457031 8.464844 10.457031 C 9.292969 10.457031 9.882812 10.777344 10.269531 11.269531 C 10.5625 11.640625 10.734375 12.109375 10.800781 12.59375 C 10.867188 13.0625 10.832031 13.554688 10.71875 14.007812 C 10.5625 14.664062 10.234375 15.25 9.792969 15.578125 C 10.148438 15.671875 10.472656 15.773438 10.753906 15.871094 C 11.082031 15.980469 11.359375 16.09375 11.601562 16.214844 C 12.007812 16.085938 12.445312 15.964844 12.914062 15.835938 L 12.914062 15.371094 C 11.988281 14.855469 11.285156 13.683594 10.960938 12.339844 C 10.753906 11.5 10.695312 10.585938 10.8125 9.710938 C 10.933594 8.824219 11.238281 7.980469 11.769531 7.308594 C 12.460938 6.441406 13.511719 5.871094 14.996094 5.871094 C 16.480469 5.871094 17.527344 6.441406 18.222656 7.308594 C 18.75 7.980469 19.058594 8.824219 19.179688 9.710938 C 19.296875 10.585938 19.234375 11.5 19.027344 12.339844 C 18.707031 13.683594 18.003906 14.855469 17.074219 15.371094 L 17.074219 15.835938 C 17.542969 15.964844 17.984375 16.085938 18.386719 16.214844 C 18.628906 16.09375 18.90625 15.980469 19.234375 15.871094 C 19.519531 15.773438 19.839844 15.679688 20.199219 15.578125 C 19.753906 15.25 19.425781 14.664062 19.269531 14.007812 C 19.160156 13.554688 19.125 13.0625 19.191406 12.59375 C 19.253906 12.109375 19.425781 11.640625 19.71875 11.269531 C 20.109375 10.777344 20.699219 10.457031 21.527344 10.457031 C 22.355469 10.457031 22.945312 10.777344 23.335938 11.269531 C 23.625 11.640625 23.796875 12.109375 23.863281 12.59375 C 23.925781 13.0625 23.894531 13.554688 23.785156 14.007812 C 23.625 14.664062 23.292969 15.25 22.847656 15.578125 C 24.160156 15.941406 24.945312 16.253906 25.433594 16.742188 C 26.003906 17.3125 26.125 18.03125 26.125 19.210938 C 26.125 19.453125 25.921875 19.65625 25.679688 19.65625 L 23.304688 19.65625 C 23.5625 20.453125 23.632812 21.433594 23.632812 22.710938 C 23.632812 22.953125 23.433594 23.152344 23.1875 23.152344 Z M 22.738281 22.261719 C 22.71875 21.035156 22.613281 20.148438 22.269531 19.472656 C 22.242188 19.4375 22.222656 19.398438 22.207031 19.359375 C 22.09375 19.144531 21.945312 18.949219 21.765625 18.773438 C 20.921875 17.929688 19.339844 17.363281 16.535156 16.613281 C 16.332031 16.570312 16.179688 16.390625 16.179688 16.175781 L 16.179688 15.085938 C 16.179688 14.910156 16.292969 14.742188 16.464844 14.671875 C 17.257812 14.367188 17.871094 13.347656 18.164062 12.132812 C 18.347656 11.390625 18.402344 10.589844 18.296875 9.832031 C 18.199219 9.097656 17.953125 8.398438 17.523438 7.863281 C 16.996094 7.199219 16.175781 6.765625 14.996094 6.765625 C 13.8125 6.765625 12.996094 7.199219 12.464844 7.863281 C 12.039062 8.398438 11.789062 9.097656 11.695312 9.832031 C 11.589844 10.589844 11.644531 11.390625 11.824219 12.132812 C 12.113281 13.335938 12.722656 14.34375 13.5 14.664062 C 13.679688 14.722656 13.808594 14.890625 13.808594 15.085938 L 13.808594 16.175781 C 13.808594 16.375 13.679688 16.550781 13.476562 16.605469 C 10.65625 17.363281 9.070312 17.925781 8.226562 18.773438 C 8.042969 18.949219 7.898438 19.144531 7.78125 19.359375 C 7.765625 19.398438 7.746094 19.4375 7.722656 19.46875 C 7.378906 20.148438 7.273438 21.035156 7.253906 22.261719 Z M 7.097656 18.761719 C 7.238281 18.546875 7.398438 18.339844 7.59375 18.144531 C 8.191406 17.550781 9.039062 17.089844 10.277344 16.648438 C 9.957031 16.546875 9.59375 16.441406 9.175781 16.328125 C 8.980469 16.273438 8.847656 16.097656 8.847656 15.898438 L 8.847656 15.351562 C 8.847656 15.152344 8.972656 14.988281 9.148438 14.925781 C 9.472656 14.785156 9.730469 14.335938 9.855469 13.800781 C 9.941406 13.445312 9.96875 13.066406 9.921875 12.714844 C 9.878906 12.375 9.765625 12.0625 9.574219 11.820312 C 9.347656 11.535156 8.988281 11.347656 8.464844 11.347656 C 7.945312 11.347656 7.582031 11.535156 7.351562 11.820312 C 7.160156 12.0625 7.050781 12.375 7.003906 12.714844 C 6.960938 13.066406 6.984375 13.445312 7.070312 13.800781 C 7.203125 14.351562 7.46875 14.804688 7.796875 14.9375 C 7.972656 15 8.078125 15.167969 8.078125 15.351562 L 8.078125 15.898438 C 8.078125 16.113281 7.929688 16.292969 7.726562 16.335938 C 6.347656 16.703125 5.582031 16.976562 5.1875 17.367188 C 4.890625 17.667969 4.789062 18.089844 4.765625 18.761719 Z M 19.714844 16.648438 C 20.953125 17.089844 21.800781 17.550781 22.394531 18.144531 C 22.59375 18.339844 22.753906 18.546875 22.894531 18.761719 L 25.226562 18.761719 C 25.203125 18.089844 25.101562 17.667969 24.804688 17.367188 C 24.410156 16.976562 23.640625 16.703125 22.265625 16.335938 C 22.0625 16.292969 21.910156 16.113281 21.910156 15.898438 L 21.910156 15.351562 C 21.910156 15.167969 22.015625 15 22.191406 14.9375 C 22.519531 14.804688 22.789062 14.351562 22.921875 13.800781 C 23.007812 13.453125 23.03125 13.066406 22.984375 12.714844 C 22.941406 12.375 22.828125 12.0625 22.636719 11.820312 C 22.410156 11.535156 22.046875 11.347656 21.527344 11.347656 C 21.003906 11.347656 20.644531 11.535156 20.417969 11.820312 C 20.226562 12.0625 20.113281 12.375 20.066406 12.714844 C 20.023438 13.066406 20.046875 13.445312 20.132812 13.800781 C 20.261719 14.335938 20.515625 14.785156 20.839844 14.925781 C 21.015625 14.988281 21.144531 15.152344 21.144531 15.351562 L 21.144531 15.898438 C 21.144531 16.097656 21.011719 16.273438 20.816406 16.328125 C 20.394531 16.441406 20.03125 16.546875 19.714844 16.648438 Z M 19.714844 16.648438 " fill-opacity="1" fill-rule="nonzero"/></g></svg>