<svg xmlns="http://www.w3.org/2000/svg" xmlns:xlink="http://www.w3.org/1999/xlink" width="40" zoomAndPan="magnify" viewBox="0 0 30 30.000001" height="40" preserveAspectRatio="xMidYMid meet" version="1.0"><defs><clipPath id="c1db422c8f"><path d="M 7.050781 6.566406 L 22.949219 6.566406 L 22.949219 22.464844 L 7.050781 22.464844 Z M 7.050781 6.566406 " clip-rule="nonzero"/></clipPath><clipPath id="c863f6591b"><path d="M 15 6.566406 C 10.609375 6.566406 7.050781 10.125 7.050781 14.515625 C 7.050781 18.90625 10.609375 22.464844 15 22.464844 C 19.390625 22.464844 22.949219 18.90625 22.949219 14.515625 C 22.949219 10.125 19.390625 6.566406 15 6.566406 Z M 15 6.566406 " clip-rule="nonzero"/></clipPath><clipPath id="54af03cf1b"><path d="M 8.902344 9.78125 L 21.238281 9.78125 L 21.238281 19.214844 L 8.902344 19.214844 Z M 8.902344 9.78125 " clip-rule="nonzero"/></clipPath></defs><g clip-path="url(#c1db422c8f)"><g clip-path="url(#c863f6591b)"><path fill="#0071b8" d="M 7.050781 6.566406 L 22.949219 6.566406 L 22.949219 22.464844 L 7.050781 22.464844 Z M 7.050781 6.566406 " fill-opacity="1" fill-rule="nonzero"/></g></g><g clip-path="url(#54af03cf1b)"><path fill="#ffffff" d="M 10.511719 19.25 C 10.375 19.25 10.265625 19.136719 10.265625 19.003906 C 10.265625 18.304688 10.304688 17.769531 10.445312 17.332031 L 9.144531 17.332031 C 9.011719 17.332031 8.902344 17.222656 8.902344 17.089844 C 8.902344 16.441406 8.96875 16.050781 9.28125 15.738281 C 9.546875 15.46875 9.976562 15.296875 10.695312 15.097656 C 10.453125 14.917969 10.269531 14.597656 10.183594 14.238281 C 10.121094 13.992188 10.105469 13.722656 10.140625 13.464844 C 10.175781 13.199219 10.269531 12.941406 10.429688 12.742188 C 10.644531 12.46875 10.964844 12.296875 11.417969 12.296875 C 11.871094 12.296875 12.195312 12.46875 12.410156 12.742188 C 12.570312 12.941406 12.664062 13.199219 12.699219 13.464844 C 12.734375 13.722656 12.714844 13.992188 12.65625 14.238281 C 12.570312 14.597656 12.390625 14.917969 12.148438 15.097656 C 12.34375 15.152344 12.519531 15.207031 12.675781 15.257812 C 12.855469 15.320312 13.007812 15.382812 13.140625 15.445312 C 13.359375 15.378906 13.601562 15.3125 13.859375 15.238281 L 13.859375 14.984375 C 13.347656 14.703125 12.964844 14.0625 12.789062 13.328125 C 12.675781 12.863281 12.640625 12.363281 12.703125 11.886719 C 12.769531 11.398438 12.941406 10.9375 13.230469 10.570312 C 13.609375 10.09375 14.183594 9.78125 14.996094 9.78125 C 15.808594 9.78125 16.382812 10.09375 16.761719 10.570312 C 17.054688 10.9375 17.222656 11.398438 17.289062 11.886719 C 17.351562 12.363281 17.320312 12.863281 17.207031 13.328125 C 17.027344 14.0625 16.644531 14.703125 16.136719 14.984375 L 16.136719 15.238281 C 16.394531 15.3125 16.632812 15.378906 16.855469 15.445312 C 16.988281 15.382812 17.140625 15.320312 17.320312 15.257812 C 17.472656 15.207031 17.652344 15.152344 17.847656 15.097656 C 17.605469 14.917969 17.425781 14.597656 17.339844 14.238281 C 17.277344 13.992188 17.257812 13.722656 17.292969 13.464844 C 17.328125 13.199219 17.425781 12.941406 17.585938 12.742188 C 17.796875 12.46875 18.121094 12.296875 18.574219 12.296875 C 19.027344 12.296875 19.351562 12.46875 19.5625 12.742188 C 19.722656 12.941406 19.816406 13.199219 19.855469 13.464844 C 19.886719 13.722656 19.871094 13.992188 19.808594 14.238281 C 19.722656 14.597656 19.542969 14.917969 19.296875 15.097656 C 20.015625 15.296875 20.445312 15.46875 20.714844 15.738281 C 21.027344 16.050781 21.09375 16.441406 21.09375 17.089844 C 21.09375 17.222656 20.980469 17.332031 20.847656 17.332031 L 19.546875 17.332031 C 19.6875 17.769531 19.726562 18.304688 19.726562 19.003906 C 19.726562 19.136719 19.617188 19.25 19.484375 19.25 Z M 19.238281 18.757812 C 19.226562 18.085938 19.167969 17.601562 18.980469 17.234375 C 18.964844 17.214844 18.957031 17.191406 18.945312 17.167969 C 18.882812 17.054688 18.804688 16.945312 18.703125 16.847656 C 18.242188 16.386719 17.375 16.078125 15.839844 15.664062 C 15.730469 15.644531 15.644531 15.542969 15.644531 15.429688 L 15.644531 14.832031 C 15.644531 14.734375 15.707031 14.644531 15.800781 14.605469 C 16.234375 14.433594 16.574219 13.878906 16.734375 13.214844 C 16.832031 12.808594 16.863281 12.367188 16.804688 11.953125 C 16.753906 11.550781 16.617188 11.167969 16.382812 10.875 C 16.089844 10.511719 15.644531 10.273438 14.996094 10.273438 C 14.351562 10.273438 13.902344 10.511719 13.613281 10.875 C 13.375 11.167969 13.242188 11.550781 13.1875 11.953125 C 13.128906 12.367188 13.160156 12.808594 13.261719 13.214844 C 13.417969 13.871094 13.753906 14.425781 14.179688 14.597656 C 14.273438 14.632812 14.347656 14.722656 14.347656 14.832031 L 14.347656 15.429688 C 14.347656 15.535156 14.273438 15.632812 14.164062 15.664062 C 12.621094 16.078125 11.75 16.382812 11.289062 16.847656 C 11.191406 16.945312 11.109375 17.054688 11.046875 17.167969 C 11.039062 17.191406 11.027344 17.214844 11.011719 17.230469 C 10.824219 17.601562 10.765625 18.085938 10.757812 18.757812 Z M 10.671875 16.84375 C 10.746094 16.722656 10.835938 16.609375 10.945312 16.507812 C 11.269531 16.179688 11.734375 15.929688 12.410156 15.683594 C 12.238281 15.628906 12.039062 15.570312 11.808594 15.511719 C 11.703125 15.480469 11.628906 15.382812 11.628906 15.277344 L 11.628906 14.972656 C 11.628906 14.867188 11.699219 14.777344 11.796875 14.742188 C 11.972656 14.664062 12.113281 14.417969 12.183594 14.125 C 12.230469 13.933594 12.242188 13.726562 12.21875 13.53125 C 12.195312 13.347656 12.132812 13.175781 12.027344 13.042969 C 11.902344 12.882812 11.707031 12.78125 11.417969 12.78125 C 11.136719 12.78125 10.9375 12.882812 10.8125 13.042969 C 10.707031 13.175781 10.644531 13.347656 10.621094 13.53125 C 10.59375 13.726562 10.609375 13.933594 10.65625 14.125 C 10.726562 14.425781 10.875 14.675781 11.054688 14.746094 C 11.152344 14.785156 11.210938 14.875 11.210938 14.972656 L 11.210938 15.277344 C 11.210938 15.390625 11.125 15.492188 11.015625 15.511719 C 10.261719 15.714844 9.839844 15.863281 9.625 16.082031 C 9.460938 16.242188 9.40625 16.476562 9.394531 16.84375 Z M 17.582031 15.683594 C 18.257812 15.929688 18.722656 16.179688 19.050781 16.507812 C 19.15625 16.609375 19.246094 16.722656 19.324219 16.84375 L 20.601562 16.84375 C 20.585938 16.476562 20.53125 16.242188 20.367188 16.082031 C 20.152344 15.863281 19.730469 15.714844 18.976562 15.511719 C 18.867188 15.492188 18.785156 15.390625 18.785156 15.277344 L 18.785156 14.972656 C 18.785156 14.875 18.84375 14.785156 18.9375 14.746094 C 19.117188 14.675781 19.265625 14.425781 19.335938 14.125 C 19.382812 13.933594 19.398438 13.726562 19.371094 13.53125 C 19.347656 13.347656 19.289062 13.175781 19.183594 13.042969 C 19.058594 12.882812 18.859375 12.78125 18.574219 12.78125 C 18.285156 12.78125 18.089844 12.882812 17.964844 13.042969 C 17.859375 13.175781 17.800781 13.347656 17.773438 13.53125 C 17.75 13.726562 17.765625 13.933594 17.8125 14.125 C 17.878906 14.417969 18.019531 14.664062 18.199219 14.742188 C 18.292969 14.777344 18.363281 14.867188 18.363281 14.972656 L 18.363281 15.277344 C 18.363281 15.382812 18.292969 15.480469 18.183594 15.511719 C 17.953125 15.570312 17.753906 15.628906 17.582031 15.683594 Z M 17.582031 15.683594 " fill-opacity="1" fill-rule="nonzero"/></g></svg>