<svg xmlns="http://www.w3.org/2000/svg" xmlns:xlink="http://www.w3.org/1999/xlink" width="40" zoomAndPan="magnify" viewBox="0 0 30 30.000001" height="40" preserveAspectRatio="xMidYMid meet" version="1.0"><defs><clipPath id="6803197ab6"><path d="M 7.054688 6.570312 L 22.945312 6.570312 L 22.945312 22.460938 L 7.054688 22.460938 Z M 7.054688 6.570312 " clip-rule="nonzero"/></clipPath><clipPath id="3650291d4e"><path d="M 15 6.570312 C 10.613281 6.570312 7.054688 10.128906 7.054688 14.515625 C 7.054688 18.902344 10.613281 22.460938 15 22.460938 C 19.386719 22.460938 22.945312 18.902344 22.945312 14.515625 C 22.945312 10.128906 19.386719 6.570312 15 6.570312 Z M 15 6.570312 " clip-rule="nonzero"/></clipPath><clipPath id="6b96b5c0a8"><path d="M 8.96875 10 L 15 10 L 15 19.308594 L 8.96875 19.308594 Z M 8.96875 10 " clip-rule="nonzero"/></clipPath><clipPath id="6c1bb5585c"><path d="M 19 11 L 21.308594 11 L 21.308594 15 L 19 15 Z M 19 11 " clip-rule="nonzero"/></clipPath><clipPath id="2bca4d7f55"><path d="M 12 14 L 21 14 L 21 19.308594 L 12 19.308594 Z M 12 14 " clip-rule="nonzero"/></clipPath><clipPath id="de4a59f7a8"><path d="M 14 9.871094 L 20 9.871094 L 20 14 L 14 14 Z M 14 9.871094 " clip-rule="nonzero"/></clipPath></defs><g clip-path="url(#6803197ab6)"><g clip-path="url(#3650291d4e)"><path fill="#0071b8" d="M 7.054688 6.570312 L 22.945312 6.570312 L 22.945312 22.460938 L 7.054688 22.460938 Z M 7.054688 6.570312 " fill-opacity="1" fill-rule="nonzero"/></g></g><g clip-path="url(#6b96b5c0a8)"><path fill="#ffffff" d="M 11.738281 10.046875 C 10.210938 10.046875 8.96875 11.289062 8.96875 12.816406 C 8.96875 14.347656 11.738281 19.03125 11.738281 19.03125 C 11.738281 19.03125 14.507812 14.347656 14.507812 12.816406 C 14.507812 11.285156 13.269531 10.046875 11.738281 10.046875 Z M 11.738281 14.167969 C 10.996094 14.167969 10.386719 13.5625 10.386719 12.816406 C 10.386719 12.074219 10.996094 11.464844 11.738281 11.464844 C 12.484375 11.464844 13.089844 12.074219 13.089844 12.816406 C 13.089844 13.5625 12.484375 14.167969 11.738281 14.167969 Z M 11.738281 14.167969 " fill-opacity="1" fill-rule="nonzero"/></g><g clip-path="url(#6c1bb5585c)"><path fill="#ffffff" d="M 20.128906 11.691406 C 19.632812 11.691406 19.230469 12.09375 19.230469 12.585938 C 19.230469 13.082031 20.128906 14.601562 20.128906 14.601562 C 20.128906 14.601562 21.023438 13.082031 21.023438 12.589844 C 21.023438 12.09375 20.621094 11.691406 20.128906 11.691406 Z M 20.128906 13.027344 C 19.886719 13.027344 19.691406 12.828125 19.691406 12.589844 C 19.691406 12.347656 19.886719 12.152344 20.128906 12.152344 C 20.367188 12.152344 20.566406 12.347656 20.566406 12.589844 C 20.566406 12.828125 20.367188 13.027344 20.128906 13.027344 Z M 20.128906 13.027344 " fill-opacity="1" fill-rule="nonzero"/></g><g clip-path="url(#2bca4d7f55)"><path fill="#ffffff" d="M 13.328125 19.105469 C 13.324219 19.105469 13.320312 19.105469 13.320312 19.105469 C 13.0625 19.09375 12.914062 19.082031 12.914062 19.082031 C 12.800781 19.074219 12.71875 18.980469 12.726562 18.867188 C 12.734375 18.757812 12.828125 18.667969 12.941406 18.679688 C 12.941406 18.679688 13.089844 18.691406 13.339844 18.703125 C 13.449219 18.707031 13.535156 18.800781 13.53125 18.914062 C 13.523438 19.019531 13.4375 19.105469 13.328125 19.105469 Z M 15.128906 18.953125 C 15.132812 18.839844 15.042969 18.75 14.929688 18.75 C 14.644531 18.746094 14.375 18.738281 14.132812 18.734375 C 14.132812 18.734375 14.128906 18.734375 14.128906 18.734375 C 14.019531 18.734375 13.929688 18.820312 13.925781 18.929688 C 13.921875 19.039062 14.011719 19.132812 14.121094 19.136719 C 14.367188 19.144531 14.636719 19.148438 14.925781 19.152344 C 14.929688 19.152344 14.929688 19.152344 14.929688 19.152344 C 15.039062 19.152344 15.128906 19.0625 15.128906 18.953125 Z M 15.730469 19.148438 C 15.996094 19.144531 16.269531 19.140625 16.539062 19.128906 C 16.648438 19.121094 16.734375 19.027344 16.730469 18.917969 C 16.726562 18.804688 16.628906 18.71875 16.519531 18.722656 C 16.253906 18.734375 15.988281 18.742188 15.726562 18.746094 C 15.613281 18.746094 15.527344 18.839844 15.527344 18.949219 C 15.527344 19.0625 15.617188 19.148438 15.730469 19.148438 Z M 17.347656 19.078125 C 17.636719 19.054688 17.90625 19.023438 18.152344 18.988281 C 18.265625 18.972656 18.339844 18.871094 18.324219 18.761719 C 18.308594 18.652344 18.210938 18.574219 18.097656 18.589844 C 17.859375 18.625 17.59375 18.652344 17.3125 18.675781 C 17.203125 18.683594 17.121094 18.78125 17.128906 18.894531 C 17.136719 19 17.226562 19.078125 17.328125 19.078125 C 17.335938 19.078125 17.339844 19.078125 17.347656 19.078125 Z M 18.960938 18.835938 C 19.285156 18.753906 19.554688 18.65625 19.761719 18.542969 C 19.859375 18.488281 19.894531 18.367188 19.839844 18.269531 C 19.785156 18.171875 19.664062 18.136719 19.566406 18.191406 C 19.390625 18.285156 19.15625 18.371094 18.863281 18.445312 C 18.753906 18.472656 18.6875 18.582031 18.714844 18.6875 C 18.738281 18.78125 18.820312 18.84375 18.910156 18.84375 C 18.929688 18.84375 18.945312 18.839844 18.960938 18.835938 Z M 20.113281 17.960938 C 20.226562 17.957031 20.3125 17.863281 20.308594 17.75 C 20.304688 17.65625 20.285156 17.558594 20.246094 17.460938 C 20.164062 17.261719 20 17.105469 19.734375 16.980469 C 19.632812 16.933594 19.511719 16.976562 19.464844 17.078125 C 19.417969 17.175781 19.460938 17.296875 19.5625 17.34375 C 19.726562 17.421875 19.832031 17.511719 19.871094 17.609375 C 19.890625 17.664062 19.902344 17.71875 19.90625 17.765625 C 19.910156 17.875 20 17.957031 20.105469 17.957031 C 20.109375 17.960938 20.113281 17.960938 20.113281 17.960938 Z M 19.078125 16.972656 C 19.097656 16.867188 19.027344 16.757812 18.917969 16.738281 C 18.648438 16.6875 18.359375 16.644531 18.113281 16.613281 C 18.007812 16.597656 17.902344 16.675781 17.886719 16.785156 C 17.875 16.898438 17.953125 16.996094 18.0625 17.011719 C 18.304688 17.042969 18.582031 17.082031 18.84375 17.132812 C 18.855469 17.136719 18.867188 17.136719 18.882812 17.136719 C 18.976562 17.136719 19.058594 17.070312 19.078125 16.972656 Z M 17.492188 16.738281 C 17.507812 16.625 17.429688 16.523438 17.320312 16.507812 C 16.996094 16.464844 16.75 16.421875 16.550781 16.371094 C 16.441406 16.347656 16.332031 16.414062 16.308594 16.523438 C 16.28125 16.632812 16.347656 16.742188 16.457031 16.765625 C 16.675781 16.816406 16.921875 16.859375 17.265625 16.910156 C 17.273438 16.910156 17.28125 16.910156 17.292969 16.910156 C 17.390625 16.910156 17.476562 16.835938 17.492188 16.738281 Z M 15.925781 16.398438 C 15.992188 16.308594 15.96875 16.179688 15.878906 16.117188 C 15.726562 16.007812 15.707031 15.90625 15.707031 15.832031 L 15.710938 15.804688 C 15.714844 15.753906 15.726562 15.710938 15.742188 15.664062 C 15.789062 15.5625 15.742188 15.445312 15.640625 15.398438 C 15.539062 15.355469 15.417969 15.398438 15.375 15.503906 C 15.335938 15.585938 15.3125 15.679688 15.308594 15.769531 C 15.304688 15.792969 15.304688 15.8125 15.304688 15.832031 C 15.304688 16.078125 15.421875 16.28125 15.644531 16.445312 C 15.679688 16.46875 15.722656 16.480469 15.761719 16.480469 C 15.824219 16.480469 15.886719 16.453125 15.925781 16.398438 Z M 16.234375 15.257812 C 16.425781 15.167969 16.667969 15.09375 16.957031 15.035156 C 17.066406 15.011719 17.136719 14.902344 17.113281 14.796875 C 17.089844 14.6875 16.980469 14.617188 16.871094 14.640625 C 16.558594 14.707031 16.285156 14.789062 16.066406 14.890625 C 15.964844 14.933594 15.921875 15.054688 15.96875 15.15625 C 16 15.230469 16.074219 15.273438 16.152344 15.273438 C 16.179688 15.273438 16.207031 15.269531 16.234375 15.257812 Z M 17.726562 14.917969 C 17.972656 14.890625 18.238281 14.871094 18.515625 14.859375 C 18.625 14.855469 18.710938 14.761719 18.707031 14.648438 C 18.703125 14.539062 18.601562 14.453125 18.496094 14.457031 C 18.210938 14.46875 17.9375 14.488281 17.683594 14.515625 C 17.574219 14.527344 17.496094 14.625 17.503906 14.738281 C 17.515625 14.839844 17.605469 14.917969 17.707031 14.917969 C 17.714844 14.917969 17.722656 14.917969 17.726562 14.917969 Z M 19.921875 14.664062 C 19.929688 14.554688 19.84375 14.460938 19.730469 14.453125 C 19.730469 14.453125 19.574219 14.445312 19.320312 14.445312 C 19.210938 14.441406 19.121094 14.53125 19.117188 14.644531 C 19.117188 14.753906 19.207031 14.847656 19.316406 14.847656 C 19.558594 14.851562 19.710938 14.855469 19.710938 14.859375 C 19.714844 14.859375 19.71875 14.859375 19.722656 14.859375 C 19.828125 14.859375 19.917969 14.773438 19.921875 14.664062 Z M 19.921875 14.664062 " fill-opacity="1" fill-rule="nonzero"/></g><g clip-path="url(#de4a59f7a8)"><path fill="#ffffff" d="M 17.316406 11.828125 L 17.894531 13.507812 L 18.195312 13.320312 L 18.113281 11.328125 L 18.992188 10.777344 C 19.085938 10.714844 19.324219 10.355469 19.371094 10.230469 C 19.378906 10.210938 19.375 10.191406 19.367188 10.179688 C 19.359375 10.164062 19.339844 10.152344 19.320312 10.148438 C 19.1875 10.136719 18.757812 10.195312 18.664062 10.257812 L 17.785156 10.808594 L 16.027344 9.871094 L 15.726562 10.0625 L 16.992188 11.308594 L 16.292969 11.746094 C 16.246094 11.777344 15.980469 11.996094 15.710938 12.226562 L 15.050781 11.902344 L 14.878906 12.007812 L 15.414062 12.488281 C 15.289062 12.597656 15.183594 12.695312 15.121094 12.757812 C 15.09375 12.785156 15.101562 12.824219 15.125 12.84375 C 15.132812 12.875 15.164062 12.894531 15.199219 12.882812 C 15.28125 12.855469 15.417969 12.800781 15.570312 12.738281 L 15.769531 13.429688 L 15.941406 13.320312 L 15.933594 12.582031 C 16.261719 12.4375 16.570312 12.296875 16.621094 12.269531 Z M 17.316406 11.828125 " fill-opacity="1" fill-rule="nonzero"/></g></svg>