<svg xmlns="http://www.w3.org/2000/svg" xmlns:xlink="http://www.w3.org/1999/xlink" width="40" zoomAndPan="magnify" viewBox="0 0 30 30.000001" height="40" preserveAspectRatio="xMidYMid meet" version="1.0"><defs><clipPath id="5ee1efb249"><path d="M 0.484375 0 L 29.515625 0 L 29.515625 29.03125 L 0.484375 29.03125 Z M 0.484375 0 " clip-rule="nonzero"/></clipPath><clipPath id="0d467d7e6a"><path d="M 15 0 C 6.984375 0 0.484375 6.5 0.484375 14.515625 C 0.484375 22.53125 6.984375 29.03125 15 29.03125 C 23.015625 29.03125 29.515625 22.53125 29.515625 14.515625 C 29.515625 6.5 23.015625 0 15 0 Z M 15 0 " clip-rule="nonzero"/></clipPath><clipPath id="dddc8e57aa"><path d="M 3.980469 6.03125 L 15 6.03125 L 15 22.726562 L 3.980469 22.726562 Z M 3.980469 6.03125 " clip-rule="nonzero"/></clipPath><clipPath id="4ed0cc9d55"><path d="M 22 9 L 25.757812 9 L 25.757812 15 L 22 15 Z M 22 9 " clip-rule="nonzero"/></clipPath><clipPath id="6c4ab3922a"><path d="M 10 14 L 25 14 L 25 22.726562 L 10 22.726562 Z M 10 14 " clip-rule="nonzero"/></clipPath><clipPath id="6e72f3868f"><path d="M 14 6.03125 L 24 6.03125 L 24 13 L 14 13 Z M 14 6.03125 " clip-rule="nonzero"/></clipPath></defs><g clip-path="url(#5ee1efb249)"><g clip-path="url(#0d467d7e6a)"><path fill="#0071b8" d="M 0.484375 0 L 29.515625 0 L 29.515625 29.03125 L 0.484375 29.03125 Z M 0.484375 0 " fill-opacity="1" fill-rule="nonzero"/></g></g><g clip-path="url(#dddc8e57aa)"><path fill="#ffffff" d="M 9.042969 6.355469 C 6.25 6.355469 3.980469 8.621094 3.980469 11.417969 C 3.980469 14.214844 9.042969 22.777344 9.042969 22.777344 C 9.042969 22.777344 14.105469 14.214844 14.105469 11.417969 C 14.105469 8.621094 11.839844 6.355469 9.042969 6.355469 Z M 9.042969 13.886719 C 7.683594 13.886719 6.574219 12.78125 6.574219 11.417969 C 6.574219 10.058594 7.683594 8.949219 9.042969 8.949219 C 10.40625 8.949219 11.511719 10.058594 11.511719 11.417969 C 11.511719 12.78125 10.40625 13.886719 9.042969 13.886719 Z M 9.042969 13.886719 " fill-opacity="1" fill-rule="nonzero"/></g><g clip-path="url(#4ed0cc9d55)"><path fill="#ffffff" d="M 24.375 9.359375 C 23.472656 9.359375 22.734375 10.09375 22.734375 11 C 22.734375 11.90625 24.375 14.679688 24.375 14.679688 C 24.375 14.679688 26.015625 11.90625 26.015625 11 C 26.015625 10.09375 25.28125 9.359375 24.375 9.359375 Z M 24.375 11.800781 C 23.933594 11.800781 23.578125 11.441406 23.578125 11 C 23.578125 10.558594 23.9375 10.199219 24.375 10.199219 C 24.816406 10.199219 25.175781 10.558594 25.175781 11 C 25.175781 11.441406 24.816406 11.800781 24.375 11.800781 Z M 24.375 11.800781 " fill-opacity="1" fill-rule="nonzero"/></g><g clip-path="url(#6c4ab3922a)"><path fill="#ffffff" d="M 11.949219 22.914062 C 11.945312 22.914062 11.9375 22.914062 11.933594 22.914062 C 11.464844 22.890625 11.191406 22.871094 11.191406 22.871094 C 10.988281 22.855469 10.835938 22.679688 10.847656 22.476562 C 10.863281 22.273438 11.039062 22.113281 11.242188 22.132812 C 11.242188 22.132812 11.511719 22.152344 11.96875 22.175781 C 12.171875 22.183594 12.328125 22.359375 12.320312 22.5625 C 12.308594 22.757812 12.144531 22.914062 11.949219 22.914062 Z M 15.242188 22.632812 C 15.242188 22.429688 15.082031 22.261719 14.878906 22.261719 C 14.355469 22.257812 13.863281 22.246094 13.421875 22.234375 C 13.417969 22.234375 13.414062 22.234375 13.410156 22.234375 C 13.214844 22.234375 13.050781 22.390625 13.042969 22.589844 C 13.039062 22.792969 13.195312 22.964844 13.402344 22.96875 C 13.847656 22.984375 14.34375 22.992188 14.871094 23 C 14.871094 23 14.875 23 14.875 23 C 15.078125 22.996094 15.242188 22.835938 15.242188 22.632812 Z M 16.34375 22.992188 C 16.824219 22.988281 17.320312 22.972656 17.816406 22.953125 C 18.019531 22.945312 18.179688 22.773438 18.167969 22.566406 C 18.160156 22.363281 17.984375 22.203125 17.785156 22.214844 C 17.296875 22.234375 16.808594 22.25 16.332031 22.257812 C 16.128906 22.257812 15.964844 22.425781 15.96875 22.628906 C 15.972656 22.832031 16.136719 22.992188 16.335938 22.992188 C 16.339844 22.992188 16.339844 22.992188 16.34375 22.992188 Z M 19.292969 22.863281 C 19.820312 22.816406 20.320312 22.765625 20.769531 22.699219 C 20.972656 22.671875 21.109375 22.484375 21.082031 22.285156 C 21.054688 22.082031 20.871094 21.941406 20.667969 21.96875 C 20.230469 22.03125 19.746094 22.085938 19.230469 22.128906 C 19.03125 22.144531 18.878906 22.324219 18.894531 22.527344 C 18.910156 22.71875 19.074219 22.863281 19.261719 22.863281 C 19.273438 22.863281 19.28125 22.863281 19.292969 22.863281 Z M 22.246094 22.421875 C 22.839844 22.273438 23.332031 22.09375 23.707031 21.886719 C 23.882812 21.789062 23.949219 21.5625 23.851562 21.382812 C 23.75 21.207031 23.527344 21.140625 23.347656 21.238281 C 23.03125 21.417969 22.597656 21.574219 22.066406 21.703125 C 21.867188 21.753906 21.746094 21.953125 21.796875 22.152344 C 21.839844 22.320312 21.988281 22.433594 22.152344 22.433594 C 22.183594 22.429688 22.214844 22.429688 22.246094 22.421875 Z M 24.351562 20.816406 C 24.554688 20.8125 24.714844 20.640625 24.707031 20.4375 C 24.703125 20.265625 24.664062 20.085938 24.589844 19.90625 C 24.445312 19.542969 24.140625 19.257812 23.65625 19.027344 C 23.472656 18.941406 23.25 19.019531 23.164062 19.203125 C 23.078125 19.386719 23.15625 19.609375 23.339844 19.695312 C 23.644531 19.835938 23.835938 20 23.90625 20.179688 C 23.945312 20.28125 23.96875 20.375 23.972656 20.460938 C 23.980469 20.660156 24.140625 20.816406 24.339844 20.816406 C 24.34375 20.816406 24.347656 20.816406 24.351562 20.816406 Z M 22.460938 19.019531 C 22.496094 18.820312 22.367188 18.625 22.167969 18.585938 C 21.675781 18.488281 21.148438 18.417969 20.699219 18.355469 C 20.5 18.332031 20.3125 18.472656 20.285156 18.675781 C 20.257812 18.875 20.398438 19.0625 20.601562 19.085938 C 21.042969 19.144531 21.554688 19.214844 22.027344 19.308594 C 22.050781 19.3125 22.074219 19.316406 22.097656 19.316406 C 22.269531 19.316406 22.425781 19.195312 22.460938 19.019531 Z M 19.5625 18.582031 C 19.589844 18.382812 19.449219 18.195312 19.246094 18.167969 C 18.652344 18.082031 18.207031 18.003906 17.835938 17.917969 C 17.636719 17.875 17.441406 17.996094 17.394531 18.195312 C 17.347656 18.390625 17.46875 18.589844 17.667969 18.636719 C 18.0625 18.730469 18.519531 18.808594 19.144531 18.898438 C 19.160156 18.898438 19.175781 18.902344 19.195312 18.902344 C 19.375 18.902344 19.535156 18.769531 19.5625 18.582031 Z M 16.699219 17.960938 C 16.816406 17.796875 16.777344 17.566406 16.613281 17.449219 C 16.335938 17.25 16.300781 17.066406 16.300781 16.929688 L 16.300781 16.878906 C 16.308594 16.789062 16.328125 16.707031 16.363281 16.625 C 16.445312 16.4375 16.363281 16.21875 16.175781 16.136719 C 15.992188 16.054688 15.773438 16.140625 15.691406 16.328125 C 15.621094 16.484375 15.578125 16.648438 15.566406 16.816406 C 15.5625 16.855469 15.5625 16.894531 15.5625 16.929688 C 15.5625 17.375 15.773438 17.753906 16.183594 18.046875 C 16.25 18.09375 16.324219 18.117188 16.398438 18.117188 C 16.511719 18.117188 16.625 18.0625 16.699219 17.960938 Z M 17.261719 15.878906 C 17.613281 15.71875 18.058594 15.582031 18.582031 15.472656 C 18.78125 15.429688 18.90625 15.234375 18.867188 15.035156 C 18.824219 14.835938 18.625 14.707031 18.429688 14.75 C 17.851562 14.871094 17.355469 15.027344 16.957031 15.207031 C 16.769531 15.289062 16.6875 15.507812 16.773438 15.695312 C 16.835938 15.832031 16.96875 15.910156 17.109375 15.910156 C 17.160156 15.910156 17.210938 15.902344 17.261719 15.878906 Z M 19.992188 15.253906 C 20.4375 15.207031 20.921875 15.171875 21.429688 15.152344 C 21.632812 15.144531 21.789062 14.972656 21.78125 14.769531 C 21.773438 14.566406 21.585938 14.40625 21.398438 14.414062 C 20.875 14.4375 20.375 14.472656 19.914062 14.523438 C 19.710938 14.542969 19.5625 14.726562 19.585938 14.925781 C 19.605469 15.117188 19.765625 15.257812 19.949219 15.257812 C 19.964844 15.257812 19.976562 15.257812 19.992188 15.253906 Z M 24.003906 14.796875 C 24.015625 14.59375 23.859375 14.421875 23.652344 14.410156 C 23.652344 14.410156 23.367188 14.398438 22.90625 14.394531 C 22.699219 14.390625 22.535156 14.554688 22.53125 14.757812 C 22.53125 14.960938 22.691406 15.128906 22.898438 15.128906 C 23.339844 15.132812 23.613281 15.148438 23.617188 15.148438 C 23.625 15.148438 23.628906 15.148438 23.636719 15.148438 C 23.832031 15.148438 23.992188 14.996094 24.003906 14.796875 Z M 24.003906 14.796875 " fill-opacity="1" fill-rule="nonzero"/></g><g clip-path="url(#6e72f3868f)"><path fill="#ffffff" d="M 19.242188 9.613281 L 20.292969 12.683594 L 20.84375 12.339844 L 20.695312 8.699219 L 22.300781 7.6875 C 22.476562 7.578125 22.910156 6.917969 22.996094 6.695312 C 23.011719 6.660156 23.003906 6.621094 22.988281 6.59375 C 22.96875 6.566406 22.9375 6.546875 22.902344 6.542969 C 22.660156 6.523438 21.875 6.628906 21.703125 6.738281 L 20.09375 7.75 L 16.882812 6.035156 L 16.332031 6.378906 L 18.644531 8.660156 L 17.367188 9.460938 C 17.28125 9.515625 16.796875 9.914062 16.300781 10.34375 L 15.097656 9.746094 L 14.78125 9.941406 L 15.761719 10.816406 C 15.535156 11.019531 15.339844 11.199219 15.226562 11.3125 C 15.175781 11.363281 15.191406 11.429688 15.230469 11.46875 C 15.25 11.523438 15.300781 11.5625 15.367188 11.542969 C 15.523438 11.488281 15.769531 11.390625 16.050781 11.273438 L 16.410156 12.535156 L 16.726562 12.335938 L 16.710938 10.992188 C 17.308594 10.726562 17.878906 10.46875 17.964844 10.414062 Z M 19.242188 9.613281 " fill-opacity="1" fill-rule="nonzero"/></g></svg>