<svg xmlns="http://www.w3.org/2000/svg" xmlns:xlink="http://www.w3.org/1999/xlink" width="40" zoomAndPan="magnify" viewBox="0 0 30 30.000001" height="40" preserveAspectRatio="xMidYMid meet" version="1.0"><defs><clipPath id="f78317fe76"><path d="M 7.046875 6.5625 L 22.953125 6.5625 L 22.953125 22.46875 L 7.046875 22.46875 Z M 7.046875 6.5625 " clip-rule="nonzero"/></clipPath><clipPath id="86313d57b8"><path d="M 15 6.5625 C 10.609375 6.5625 7.046875 10.125 7.046875 14.515625 C 7.046875 18.910156 10.609375 22.46875 15 22.46875 C 19.390625 22.46875 22.953125 18.910156 22.953125 14.515625 C 22.953125 10.125 19.390625 6.5625 15 6.5625 Z M 15 6.5625 " clip-rule="nonzero"/></clipPath><clipPath id="3d8a20d3a7"><path d="M 9.421875 8.9375 L 20.308594 8.9375 L 20.308594 19.824219 L 9.421875 19.824219 Z M 9.421875 8.9375 " clip-rule="nonzero"/></clipPath></defs><g clip-path="url(#f78317fe76)"><g clip-path="url(#86313d57b8)"><path fill="#0071b8" d="M 7.046875 6.5625 L 22.953125 6.5625 L 22.953125 22.46875 L 7.046875 22.46875 Z M 7.046875 6.5625 " fill-opacity="1" fill-rule="nonzero"/></g></g><g clip-path="url(#3d8a20d3a7)"><path fill="#ffffff" d="M 12.589844 9.992188 L 11.34375 9.992188 C 11.238281 9.992188 11.148438 10.078125 11.148438 10.1875 L 11.148438 10.859375 C 11.148438 10.878906 11.152344 10.898438 11.160156 10.914062 L 11.472656 12.011719 L 10.957031 12.011719 C 10.851562 12.011719 10.765625 12.097656 10.765625 12.203125 C 10.765625 12.308594 10.851562 12.394531 10.957031 12.394531 L 11.148438 12.394531 L 11.148438 15.472656 L 9.613281 15.472656 C 9.507812 15.472656 9.421875 15.558594 9.421875 15.664062 L 9.421875 16.433594 C 9.421875 16.539062 9.507812 16.625 9.613281 16.625 L 9.804688 16.625 L 9.804688 19.699219 L 9.613281 19.699219 C 9.507812 19.699219 9.421875 19.785156 9.421875 19.890625 C 9.421875 19.996094 9.507812 20.082031 9.613281 20.082031 L 20.375 20.082031 C 20.480469 20.082031 20.566406 19.996094 20.566406 19.890625 C 20.566406 19.785156 20.480469 19.699219 20.375 19.699219 L 20.183594 19.699219 L 20.183594 16.625 L 20.375 16.625 C 20.480469 16.625 20.566406 16.539062 20.566406 16.433594 L 20.566406 15.664062 C 20.566406 15.558594 20.480469 15.472656 20.375 15.472656 L 19.03125 15.472656 L 19.03125 14.894531 C 19.03125 14.789062 18.945312 14.703125 18.835938 14.703125 L 16.722656 14.703125 C 16.617188 14.703125 16.53125 14.789062 16.53125 14.894531 L 16.53125 15.472656 L 14.417969 15.472656 L 14.417969 12.394531 L 14.609375 12.394531 C 14.714844 12.394531 14.800781 12.308594 14.800781 12.203125 C 14.800781 12.097656 14.714844 12.011719 14.609375 12.011719 L 14.09375 12.011719 L 14.410156 10.914062 C 14.414062 10.898438 14.417969 10.878906 14.417969 10.859375 L 14.417969 10.1875 C 14.417969 10.078125 14.332031 9.992188 14.226562 9.992188 L 12.976562 9.992188 L 12.976562 9.128906 C 12.976562 9.023438 12.890625 8.9375 12.785156 8.9375 C 12.679688 8.9375 12.589844 9.023438 12.589844 9.128906 Z M 19.796875 19.699219 L 19.796875 16.625 L 10.1875 16.625 L 10.1875 18.738281 L 14.992188 18.738281 C 15.101562 18.738281 15.1875 18.824219 15.1875 18.929688 C 15.1875 19.035156 15.101562 19.121094 14.992188 19.121094 L 10.1875 19.121094 L 10.1875 19.699219 L 16.148438 19.699219 L 16.148438 18.929688 C 16.148438 18.824219 16.234375 18.738281 16.339844 18.738281 L 19.222656 18.738281 C 19.328125 18.738281 19.414062 18.824219 19.414062 18.929688 L 19.414062 19.699219 Z M 16.914062 17.007812 C 16.808594 17.007812 16.722656 17.09375 16.722656 17.199219 L 16.722656 17.96875 C 16.722656 18.074219 16.808594 18.160156 16.914062 18.160156 L 17.683594 18.160156 C 17.789062 18.160156 17.875 18.074219 17.875 17.96875 L 17.875 17.199219 C 17.875 17.09375 17.789062 17.007812 17.683594 17.007812 Z M 13.839844 17.007812 C 13.734375 17.007812 13.648438 17.09375 13.648438 17.199219 L 13.648438 17.96875 C 13.648438 18.074219 13.734375 18.160156 13.839844 18.160156 L 14.609375 18.160156 C 14.714844 18.160156 14.800781 18.074219 14.800781 17.96875 L 14.800781 17.199219 C 14.800781 17.09375 14.714844 17.007812 14.609375 17.007812 Z M 15.378906 17.007812 C 15.273438 17.007812 15.1875 17.09375 15.1875 17.199219 L 15.1875 17.96875 C 15.1875 18.074219 15.273438 18.160156 15.378906 18.160156 L 16.148438 18.160156 C 16.253906 18.160156 16.339844 18.074219 16.339844 17.96875 L 16.339844 17.199219 C 16.339844 17.09375 16.253906 17.007812 16.148438 17.007812 Z M 12.304688 17.007812 C 12.195312 17.007812 12.109375 17.09375 12.109375 17.199219 L 12.109375 17.96875 C 12.109375 18.074219 12.195312 18.160156 12.304688 18.160156 L 13.070312 18.160156 C 13.179688 18.160156 13.265625 18.074219 13.265625 17.96875 L 13.265625 17.199219 C 13.265625 17.09375 13.179688 17.007812 13.070312 17.007812 Z M 10.765625 17.007812 C 10.660156 17.007812 10.574219 17.09375 10.574219 17.199219 L 10.574219 17.96875 C 10.574219 18.074219 10.660156 18.160156 10.765625 18.160156 L 11.535156 18.160156 C 11.640625 18.160156 11.726562 18.074219 11.726562 17.96875 L 11.726562 17.199219 C 11.726562 17.09375 11.640625 17.007812 11.535156 17.007812 Z M 18.453125 17.007812 C 18.347656 17.007812 18.261719 17.09375 18.261719 17.199219 L 18.261719 17.96875 C 18.261719 18.074219 18.347656 18.160156 18.453125 18.160156 L 19.222656 18.160156 C 19.328125 18.160156 19.414062 18.074219 19.414062 17.96875 L 19.414062 17.199219 C 19.414062 17.09375 19.328125 17.007812 19.222656 17.007812 Z M 12.304688 15.085938 L 12.304688 15.472656 L 13.265625 15.472656 L 13.265625 15.085938 Z M 16.914062 15.472656 L 16.914062 15.085938 L 18.644531 15.085938 L 18.644531 15.472656 Z M 13.648438 15.085938 L 13.648438 15.472656 L 14.03125 15.472656 L 14.03125 15.085938 Z M 11.535156 15.085938 L 11.535156 15.472656 L 11.917969 15.472656 L 11.917969 15.085938 Z M 13.648438 14.125 L 13.648438 14.703125 L 14.03125 14.703125 L 14.03125 14.125 Z M 11.535156 14.125 L 11.535156 14.703125 L 11.917969 14.703125 L 11.917969 14.125 Z M 12.304688 14.125 L 12.304688 14.703125 L 13.265625 14.703125 L 13.265625 14.125 Z M 13.648438 13.164062 L 13.648438 13.742188 L 14.03125 13.742188 L 14.03125 13.164062 Z M 11.535156 13.164062 L 11.535156 13.742188 L 11.917969 13.742188 L 11.917969 13.164062 Z M 12.304688 13.164062 L 12.304688 13.742188 L 13.265625 13.742188 L 13.265625 13.164062 Z M 14.03125 12.394531 L 13.648438 12.394531 L 13.648438 12.78125 L 14.03125 12.78125 Z M 11.535156 12.78125 L 11.917969 12.78125 L 11.917969 12.394531 L 11.535156 12.394531 Z M 12.304688 12.78125 L 13.265625 12.78125 L 13.265625 12.394531 L 12.304688 12.394531 Z M 14.03125 10.378906 L 14.03125 10.667969 C 14.03125 10.667969 11.535156 10.667969 11.535156 10.667969 C 11.535156 10.667969 11.535156 10.378906 11.535156 10.378906 Z M 14.03125 10.378906 " fill-opacity="1" fill-rule="evenodd"/></g></svg>