<svg xmlns="http://www.w3.org/2000/svg" xmlns:xlink="http://www.w3.org/1999/xlink" width="40" zoomAndPan="magnify" viewBox="0 0 30 30.000001" height="40" preserveAspectRatio="xMidYMid meet" version="1.0"><defs><clipPath id="2e8e33a2b2"><path d="M 0.484375 0 L 29.515625 0 L 29.515625 29.03125 L 0.484375 29.03125 Z M 0.484375 0 " clip-rule="nonzero"/></clipPath><clipPath id="da09caf6a6"><path d="M 15 0 C 6.984375 0 0.484375 6.5 0.484375 14.515625 C 0.484375 22.53125 6.984375 29.03125 15 29.03125 C 23.015625 29.03125 29.515625 22.53125 29.515625 14.515625 C 29.515625 6.5 23.015625 0 15 0 Z M 15 0 " clip-rule="nonzero"/></clipPath><clipPath id="03c20c6db7"><path d="M 4.816406 4.332031 L 25.140625 4.332031 L 25.140625 24.65625 L 4.816406 24.65625 Z M 4.816406 4.332031 " clip-rule="nonzero"/></clipPath></defs><g clip-path="url(#2e8e33a2b2)"><g clip-path="url(#da09caf6a6)"><path fill="#0071b8" d="M 0.484375 0 L 29.515625 0 L 29.515625 29.03125 L 0.484375 29.03125 Z M 0.484375 0 " fill-opacity="1" fill-rule="nonzero"/></g></g><g clip-path="url(#03c20c6db7)"><path fill="#ffffff" d="M 10.605469 6.261719 L 8.324219 6.261719 C 8.132812 6.261719 7.976562 6.417969 7.976562 6.613281 L 7.976562 7.839844 C 7.976562 7.878906 7.980469 7.914062 7.992188 7.945312 L 8.5625 9.949219 L 7.625 9.949219 C 7.429688 9.949219 7.273438 10.105469 7.273438 10.296875 C 7.273438 10.492188 7.429688 10.648438 7.625 10.648438 L 7.976562 10.648438 L 7.976562 16.265625 L 5.167969 16.265625 C 4.972656 16.265625 4.816406 16.421875 4.816406 16.613281 L 4.816406 18.019531 C 4.816406 18.210938 4.972656 18.371094 5.167969 18.371094 L 5.519531 18.371094 L 5.519531 23.984375 L 5.167969 23.984375 C 4.972656 23.984375 4.816406 24.140625 4.816406 24.335938 C 4.816406 24.527344 4.972656 24.6875 5.167969 24.6875 L 24.820312 24.6875 C 25.011719 24.6875 25.171875 24.527344 25.171875 24.335938 C 25.171875 24.140625 25.011719 23.984375 24.820312 23.984375 L 24.46875 23.984375 L 24.46875 18.371094 L 24.820312 18.371094 C 25.015625 18.367188 25.171875 18.210938 25.171875 18.019531 L 25.171875 16.613281 C 25.171875 16.421875 25.011719 16.265625 24.820312 16.265625 L 22.363281 16.265625 L 22.363281 15.210938 C 22.363281 15.015625 22.207031 14.859375 22.011719 14.859375 L 18.152344 14.859375 C 17.957031 14.859375 17.800781 15.015625 17.800781 15.210938 L 17.800781 16.265625 L 13.941406 16.265625 L 13.941406 10.648438 L 14.292969 10.648438 C 14.484375 10.648438 14.640625 10.492188 14.640625 10.296875 C 14.640625 10.105469 14.484375 9.949219 14.292969 9.949219 L 13.351562 9.949219 L 13.925781 7.945312 C 13.933594 7.914062 13.941406 7.878906 13.941406 7.839844 L 13.941406 6.613281 C 13.941406 6.417969 13.785156 6.261719 13.589844 6.261719 L 11.308594 6.261719 L 11.308594 4.683594 C 11.308594 4.488281 11.152344 4.332031 10.957031 4.332031 C 10.765625 4.332031 10.605469 4.488281 10.605469 4.683594 Z M 23.765625 23.984375 L 23.765625 18.371094 L 6.21875 18.371094 L 6.21875 22.230469 L 14.992188 22.230469 C 15.1875 22.230469 15.34375 22.386719 15.34375 22.582031 C 15.34375 22.773438 15.1875 22.929688 14.992188 22.929688 L 6.21875 22.929688 L 6.21875 23.984375 L 17.097656 23.984375 L 17.097656 22.582031 C 17.097656 22.386719 17.257812 22.230469 17.449219 22.230469 L 22.714844 22.230469 C 22.90625 22.230469 23.066406 22.386719 23.066406 22.582031 L 23.066406 23.984375 Z M 18.503906 19.070312 C 18.308594 19.070312 18.152344 19.226562 18.152344 19.421875 L 18.152344 20.824219 C 18.152344 21.019531 18.308594 21.175781 18.503906 21.175781 L 19.90625 21.175781 C 20.101562 21.175781 20.257812 21.019531 20.257812 20.824219 L 20.257812 19.421875 C 20.257812 19.226562 20.101562 19.070312 19.90625 19.070312 Z M 12.886719 19.070312 C 12.695312 19.070312 12.535156 19.226562 12.535156 19.421875 L 12.535156 20.824219 C 12.535156 21.019531 12.695312 21.175781 12.886719 21.175781 L 14.292969 21.175781 C 14.484375 21.175781 14.640625 21.019531 14.640625 20.824219 L 14.640625 19.421875 C 14.640625 19.226562 14.484375 19.070312 14.292969 19.070312 Z M 15.695312 19.070312 C 15.5 19.070312 15.34375 19.226562 15.34375 19.421875 L 15.34375 20.824219 C 15.34375 21.019531 15.5 21.175781 15.695312 21.175781 L 17.097656 21.175781 C 17.292969 21.175781 17.449219 21.019531 17.449219 20.824219 L 17.449219 19.421875 C 17.449219 19.226562 17.292969 19.070312 17.097656 19.070312 Z M 10.082031 19.070312 C 9.886719 19.070312 9.730469 19.226562 9.730469 19.421875 L 9.730469 20.824219 C 9.730469 21.019531 9.886719 21.175781 10.082031 21.175781 L 11.484375 21.175781 C 11.679688 21.175781 11.835938 21.019531 11.835938 20.824219 L 11.835938 19.421875 C 11.835938 19.226562 11.679688 19.070312 11.484375 19.070312 Z M 7.273438 19.070312 C 7.078125 19.070312 6.921875 19.226562 6.921875 19.421875 L 6.921875 20.824219 C 6.921875 21.019531 7.078125 21.175781 7.273438 21.175781 L 8.675781 21.175781 C 8.871094 21.175781 9.027344 21.019531 9.027344 20.824219 L 9.027344 19.421875 C 9.027344 19.226562 8.871094 19.070312 8.675781 19.070312 Z M 21.308594 19.070312 C 21.117188 19.070312 20.960938 19.226562 20.960938 19.421875 L 20.960938 20.824219 C 20.960938 21.019531 21.117188 21.175781 21.308594 21.175781 L 22.714844 21.175781 C 22.90625 21.175781 23.066406 21.019531 23.066406 20.824219 L 23.066406 19.421875 C 23.066406 19.226562 22.90625 19.070312 22.714844 19.070312 Z M 10.082031 15.5625 L 10.082031 16.265625 L 11.835938 16.265625 L 11.835938 15.5625 Z M 18.503906 16.265625 L 18.503906 15.5625 L 21.660156 15.5625 L 21.660156 16.265625 Z M 12.535156 15.5625 L 12.535156 16.265625 L 13.238281 16.265625 L 13.238281 15.5625 Z M 8.675781 15.5625 L 8.675781 16.265625 L 9.378906 16.265625 L 9.378906 15.5625 Z M 12.535156 13.808594 L 12.535156 14.859375 L 13.238281 14.859375 L 13.238281 13.808594 Z M 8.675781 13.808594 L 8.675781 14.859375 L 9.378906 14.859375 L 9.378906 13.808594 Z M 10.082031 13.808594 L 10.082031 14.859375 L 11.835938 14.859375 L 11.835938 13.808594 Z M 12.535156 12.054688 L 12.535156 13.105469 L 13.238281 13.105469 L 13.238281 12.054688 Z M 8.675781 12.054688 L 8.675781 13.105469 L 9.378906 13.105469 L 9.378906 12.054688 Z M 10.082031 12.054688 L 10.082031 13.105469 L 11.835938 13.105469 L 11.835938 12.054688 Z M 13.238281 10.648438 L 12.535156 10.648438 L 12.535156 11.351562 L 13.238281 11.351562 Z M 8.675781 11.351562 L 9.378906 11.351562 L 9.378906 10.648438 L 8.675781 10.648438 Z M 10.082031 11.351562 L 11.835938 11.351562 L 11.835938 10.648438 L 10.082031 10.648438 Z M 13.238281 6.964844 L 13.238281 7.492188 C 13.238281 7.492188 8.675781 7.492188 8.675781 7.492188 C 8.675781 7.492188 8.675781 6.964844 8.675781 6.964844 Z M 13.238281 6.964844 " fill-opacity="1" fill-rule="evenodd"/></g></svg> 