<svg xmlns="http://www.w3.org/2000/svg" xmlns:xlink="http://www.w3.org/1999/xlink" width="40" zoomAndPan="magnify" viewBox="0 0 30 30.000001" height="40" preserveAspectRatio="xMidYMid meet" version="1.0"><defs><clipPath id="4feaf2a01b"><path d="M 7.007812 6.523438 L 22.992188 6.523438 L 22.992188 22.507812 L 7.007812 22.507812 Z M 7.007812 6.523438 " clip-rule="nonzero"/></clipPath><clipPath id="ce8ae4754f"><path d="M 15 6.523438 C 10.585938 6.523438 7.007812 10.101562 7.007812 14.515625 C 7.007812 18.929688 10.585938 22.507812 15 22.507812 C 19.414062 22.507812 22.992188 18.929688 22.992188 14.515625 C 22.992188 10.101562 19.414062 6.523438 15 6.523438 Z M 15 6.523438 " clip-rule="nonzero"/></clipPath><clipPath id="93574c879e"><path d="M 9.523438 9.039062 L 20.410156 9.039062 L 20.410156 19.925781 L 9.523438 19.925781 Z M 9.523438 9.039062 " clip-rule="nonzero"/></clipPath></defs><g clip-path="url(#4feaf2a01b)"><g clip-path="url(#ce8ae4754f)"><path fill="#0071b8" d="M 7.007812 6.523438 L 22.992188 6.523438 L 22.992188 22.507812 L 7.007812 22.507812 Z M 7.007812 6.523438 " fill-opacity="1" fill-rule="nonzero"/></g></g><g clip-path="url(#93574c879e)"><path fill="#ffffff" d="M 20.34375 19.71875 L 19.824219 19.71875 C 19.824219 19.714844 19.828125 19.714844 19.828125 19.710938 L 19.828125 12.503906 C 19.828125 12.429688 19.765625 12.367188 19.691406 12.367188 L 17.09375 12.367188 L 17.09375 10.417969 C 17.09375 10.359375 17.054688 10.308594 17 10.289062 L 13.542969 9.046875 C 13.5 9.03125 13.453125 9.039062 13.417969 9.0625 C 13.378906 9.089844 13.359375 9.128906 13.359375 9.175781 L 13.359375 11.480469 L 11.261719 11.480469 C 11.1875 11.480469 11.125 11.542969 11.125 11.617188 L 11.125 13.996094 L 10.46875 13.996094 C 10.394531 13.996094 10.332031 14.054688 10.332031 14.132812 L 10.332031 19.71875 L 9.664062 19.71875 C 9.585938 19.71875 9.527344 19.78125 9.527344 19.855469 C 9.527344 19.933594 9.585938 19.992188 9.664062 19.992188 L 20.34375 19.992188 C 20.417969 19.992188 20.480469 19.933594 20.480469 19.855469 C 20.480469 19.78125 20.417969 19.71875 20.34375 19.71875 Z M 13.632812 9.371094 L 16.816406 10.511719 L 16.816406 12.367188 L 16.304688 12.367188 C 16.226562 12.367188 16.167969 12.429688 16.167969 12.503906 L 16.167969 13.867188 L 15.222656 13.613281 L 15.222656 11.617188 C 15.222656 11.542969 15.160156 11.480469 15.085938 11.480469 L 13.632812 11.480469 Z M 11.402344 11.753906 L 14.945312 11.753906 L 14.945312 12.496094 L 11.402344 12.496094 Z M 13.140625 19.71875 L 10.605469 19.71875 L 10.605469 14.269531 L 13.140625 14.269531 Z M 13.855469 13.300781 C 13.820312 13.328125 13.800781 13.367188 13.800781 13.410156 L 13.808594 19.71875 L 13.414062 19.71875 L 13.414062 14.132812 C 13.414062 14.054688 13.351562 13.996094 13.277344 13.996094 L 11.402344 13.996094 L 11.402344 12.769531 L 14.945312 12.769531 L 14.945312 13.539062 L 13.972656 13.277344 C 13.933594 13.265625 13.886719 13.273438 13.855469 13.300781 Z M 14.082031 19.71875 L 14.074219 13.589844 L 16.566406 14.261719 L 16.574219 19.71875 Z M 16.847656 19.71875 L 16.839844 14.15625 C 16.839844 14.09375 16.796875 14.039062 16.738281 14.023438 L 16.441406 13.941406 L 16.441406 12.640625 L 19.554688 12.640625 L 19.554688 19.710938 C 19.554688 19.714844 19.554688 19.714844 19.554688 19.71875 Z M 16.847656 19.71875 " fill-opacity="1" fill-rule="nonzero"/></g><path fill="#ffffff" d="M 11.261719 17.390625 C 11.339844 17.390625 11.402344 17.332031 11.402344 17.253906 L 11.402344 16.707031 C 11.402344 16.628906 11.339844 16.570312 11.261719 16.570312 C 11.1875 16.570312 11.125 16.628906 11.125 16.707031 L 11.125 17.253906 C 11.125 17.332031 11.1875 17.390625 11.261719 17.390625 Z M 11.261719 17.390625 " fill-opacity="1" fill-rule="nonzero"/><path fill="#ffffff" d="M 11.875 17.390625 C 11.949219 17.390625 12.011719 17.332031 12.011719 17.253906 L 12.011719 16.707031 C 12.011719 16.628906 11.949219 16.570312 11.875 16.570312 C 11.796875 16.570312 11.738281 16.628906 11.738281 16.707031 L 11.738281 17.253906 C 11.738281 17.332031 11.796875 17.390625 11.875 17.390625 Z M 11.875 17.390625 " fill-opacity="1" fill-rule="nonzero"/><path fill="#ffffff" d="M 12.484375 17.390625 C 12.558594 17.390625 12.621094 17.332031 12.621094 17.253906 L 12.621094 16.707031 C 12.621094 16.628906 12.558594 16.570312 12.484375 16.570312 C 12.40625 16.570312 12.347656 16.628906 12.347656 16.707031 L 12.347656 17.253906 C 12.347656 17.332031 12.40625 17.390625 12.484375 17.390625 Z M 12.484375 17.390625 " fill-opacity="1" fill-rule="nonzero"/><path fill="#ffffff" d="M 14.710938 15.019531 C 14.632812 15.019531 14.574219 15.082031 14.574219 15.15625 L 14.574219 15.703125 C 14.574219 15.78125 14.632812 15.839844 14.710938 15.839844 C 14.785156 15.839844 14.847656 15.78125 14.847656 15.703125 L 14.847656 15.15625 C 14.847656 15.082031 14.785156 15.019531 14.710938 15.019531 Z M 14.710938 15.019531 " fill-opacity="1" fill-rule="nonzero"/><path fill="#ffffff" d="M 15.320312 15.019531 C 15.246094 15.019531 15.183594 15.082031 15.183594 15.15625 L 15.183594 15.703125 C 15.183594 15.78125 15.246094 15.839844 15.320312 15.839844 C 15.394531 15.839844 15.457031 15.78125 15.457031 15.703125 L 15.457031 15.15625 C 15.457031 15.082031 15.394531 15.019531 15.320312 15.019531 Z M 15.320312 15.019531 " fill-opacity="1" fill-rule="nonzero"/><path fill="#ffffff" d="M 15.929688 15.019531 C 15.855469 15.019531 15.792969 15.082031 15.792969 15.15625 L 15.792969 15.703125 C 15.792969 15.78125 15.855469 15.839844 15.929688 15.839844 C 16.007812 15.839844 16.066406 15.78125 16.066406 15.703125 L 16.066406 15.15625 C 16.066406 15.082031 16.003906 15.019531 15.929688 15.019531 Z M 15.929688 15.019531 " fill-opacity="1" fill-rule="nonzero"/><path fill="#ffffff" d="M 14.710938 16.570312 C 14.632812 16.570312 14.574219 16.628906 14.574219 16.707031 L 14.574219 17.253906 C 14.574219 17.332031 14.632812 17.390625 14.710938 17.390625 C 14.785156 17.390625 14.847656 17.332031 14.847656 17.253906 L 14.847656 16.707031 C 14.847656 16.628906 14.785156 16.570312 14.710938 16.570312 Z M 14.710938 16.570312 " fill-opacity="1" fill-rule="nonzero"/><path fill="#ffffff" d="M 15.320312 16.570312 C 15.246094 16.570312 15.183594 16.628906 15.183594 16.707031 L 15.183594 17.253906 C 15.183594 17.332031 15.246094 17.390625 15.320312 17.390625 C 15.394531 17.390625 15.457031 17.332031 15.457031 17.253906 L 15.457031 16.707031 C 15.457031 16.628906 15.394531 16.570312 15.320312 16.570312 Z M 15.320312 16.570312 " fill-opacity="1" fill-rule="nonzero"/><path fill="#ffffff" d="M 15.929688 16.570312 C 15.855469 16.570312 15.792969 16.628906 15.792969 16.707031 L 15.792969 17.253906 C 15.792969 17.332031 15.855469 17.390625 15.929688 17.390625 C 16.007812 17.390625 16.066406 17.332031 16.066406 17.253906 L 16.066406 16.707031 C 16.066406 16.628906 16.003906 16.570312 15.929688 16.570312 Z M 15.929688 16.570312 " fill-opacity="1" fill-rule="nonzero"/><path fill="#ffffff" d="M 17.628906 15.019531 C 17.550781 15.019531 17.492188 15.082031 17.492188 15.15625 L 17.492188 15.703125 C 17.492188 15.78125 17.550781 15.839844 17.628906 15.839844 C 17.703125 15.839844 17.765625 15.78125 17.765625 15.703125 L 17.765625 15.15625 C 17.765625 15.082031 17.703125 15.019531 17.628906 15.019531 Z M 17.628906 15.019531 " fill-opacity="1" fill-rule="nonzero"/><path fill="#ffffff" d="M 18.238281 15.019531 C 18.160156 15.019531 18.101562 15.082031 18.101562 15.15625 L 18.101562 15.703125 C 18.101562 15.78125 18.160156 15.839844 18.238281 15.839844 C 18.3125 15.839844 18.375 15.78125 18.375 15.703125 L 18.375 15.15625 C 18.375 15.082031 18.3125 15.019531 18.238281 15.019531 Z M 18.238281 15.019531 " fill-opacity="1" fill-rule="nonzero"/><path fill="#ffffff" d="M 18.847656 15.019531 C 18.773438 15.019531 18.710938 15.082031 18.710938 15.15625 L 18.710938 15.703125 C 18.710938 15.78125 18.773438 15.839844 18.847656 15.839844 C 18.921875 15.839844 18.984375 15.78125 18.984375 15.703125 L 18.984375 15.15625 C 18.984375 15.082031 18.921875 15.019531 18.847656 15.019531 Z M 18.847656 15.019531 " fill-opacity="1" fill-rule="nonzero"/><path fill="#ffffff" d="M 11.261719 15.839844 C 11.339844 15.839844 11.402344 15.78125 11.402344 15.703125 L 11.402344 15.15625 C 11.402344 15.082031 11.339844 15.019531 11.261719 15.019531 C 11.1875 15.019531 11.125 15.082031 11.125 15.15625 L 11.125 15.703125 C 11.125 15.78125 11.1875 15.839844 11.261719 15.839844 Z M 11.261719 15.839844 " fill-opacity="1" fill-rule="nonzero"/><path fill="#ffffff" d="M 11.875 15.839844 C 11.949219 15.839844 12.011719 15.78125 12.011719 15.703125 L 12.011719 15.15625 C 12.011719 15.082031 11.949219 15.019531 11.875 15.019531 C 11.796875 15.019531 11.738281 15.082031 11.738281 15.15625 L 11.738281 15.703125 C 11.738281 15.78125 11.796875 15.839844 11.875 15.839844 Z M 11.875 15.839844 " fill-opacity="1" fill-rule="nonzero"/><path fill="#ffffff" d="M 12.484375 15.839844 C 12.558594 15.839844 12.621094 15.78125 12.621094 15.703125 L 12.621094 15.15625 C 12.621094 15.082031 12.558594 15.019531 12.484375 15.019531 C 12.40625 15.019531 12.347656 15.082031 12.347656 15.15625 L 12.347656 15.703125 C 12.347656 15.78125 12.40625 15.839844 12.484375 15.839844 Z M 12.484375 15.839844 " fill-opacity="1" fill-rule="nonzero"/><path fill="#ffffff" d="M 17.628906 16.570312 C 17.550781 16.570312 17.492188 16.628906 17.492188 16.707031 L 17.492188 17.253906 C 17.492188 17.332031 17.550781 17.390625 17.628906 17.390625 C 17.703125 17.390625 17.765625 17.332031 17.765625 17.253906 L 17.765625 16.707031 C 17.765625 16.628906 17.703125 16.570312 17.628906 16.570312 Z M 17.628906 16.570312 " fill-opacity="1" fill-rule="nonzero"/><path fill="#ffffff" d="M 18.238281 16.570312 C 18.160156 16.570312 18.101562 16.628906 18.101562 16.707031 L 18.101562 17.253906 C 18.101562 17.332031 18.160156 17.390625 18.238281 17.390625 C 18.3125 17.390625 18.375 17.332031 18.375 17.253906 L 18.375 16.707031 C 18.375 16.628906 18.3125 16.570312 18.238281 16.570312 Z M 18.238281 16.570312 " fill-opacity="1" fill-rule="nonzero"/><path fill="#ffffff" d="M 18.847656 16.570312 C 18.773438 16.570312 18.710938 16.628906 18.710938 16.707031 L 18.710938 17.253906 C 18.710938 17.332031 18.773438 17.390625 18.847656 17.390625 C 18.921875 17.390625 18.984375 17.332031 18.984375 17.253906 L 18.984375 16.707031 C 18.984375 16.628906 18.921875 16.570312 18.847656 16.570312 Z M 18.847656 16.570312 " fill-opacity="1" fill-rule="nonzero"/><path fill="#ffffff" d="M 11.261719 18.878906 C 11.339844 18.878906 11.402344 18.816406 11.402344 18.742188 L 11.402344 18.191406 C 11.402344 18.117188 11.339844 18.054688 11.261719 18.054688 C 11.1875 18.054688 11.125 18.117188 11.125 18.191406 L 11.125 18.742188 C 11.125 18.816406 11.1875 18.878906 11.261719 18.878906 Z M 11.261719 18.878906 " fill-opacity="1" fill-rule="nonzero"/><path fill="#ffffff" d="M 11.875 18.878906 C 11.949219 18.878906 12.011719 18.816406 12.011719 18.742188 L 12.011719 18.191406 C 12.011719 18.117188 11.949219 18.054688 11.875 18.054688 C 11.796875 18.054688 11.738281 18.117188 11.738281 18.191406 L 11.738281 18.742188 C 11.738281 18.816406 11.796875 18.878906 11.875 18.878906 Z M 11.875 18.878906 " fill-opacity="1" fill-rule="nonzero"/><path fill="#ffffff" d="M 12.484375 18.878906 C 12.558594 18.878906 12.621094 18.816406 12.621094 18.742188 L 12.621094 18.191406 C 12.621094 18.117188 12.558594 18.054688 12.484375 18.054688 C 12.40625 18.054688 12.347656 18.117188 12.347656 18.191406 L 12.347656 18.742188 C 12.347656 18.816406 12.40625 18.878906 12.484375 18.878906 Z M 12.484375 18.878906 " fill-opacity="1" fill-rule="nonzero"/><path fill="#ffffff" d="M 14.710938 18.054688 C 14.632812 18.054688 14.574219 18.117188 14.574219 18.191406 L 14.574219 18.742188 C 14.574219 18.816406 14.632812 18.878906 14.710938 18.878906 C 14.785156 18.878906 14.847656 18.816406 14.847656 18.742188 L 14.847656 18.191406 C 14.847656 18.117188 14.785156 18.054688 14.710938 18.054688 Z M 14.710938 18.054688 " fill-opacity="1" fill-rule="nonzero"/><path fill="#ffffff" d="M 15.320312 18.054688 C 15.246094 18.054688 15.183594 18.117188 15.183594 18.191406 L 15.183594 18.742188 C 15.183594 18.816406 15.246094 18.878906 15.320312 18.878906 C 15.394531 18.878906 15.457031 18.816406 15.457031 18.742188 L 15.457031 18.191406 C 15.457031 18.117188 15.394531 18.054688 15.320312 18.054688 Z M 15.320312 18.054688 " fill-opacity="1" fill-rule="nonzero"/><path fill="#ffffff" d="M 15.929688 18.054688 C 15.855469 18.054688 15.792969 18.117188 15.792969 18.191406 L 15.792969 18.742188 C 15.792969 18.816406 15.855469 18.878906 15.929688 18.878906 C 16.007812 18.878906 16.066406 18.816406 16.066406 18.742188 L 16.066406 18.191406 C 16.066406 18.117188 16.003906 18.054688 15.929688 18.054688 Z M 15.929688 18.054688 " fill-opacity="1" fill-rule="nonzero"/><path fill="#ffffff" d="M 17.628906 18.054688 C 17.550781 18.054688 17.492188 18.117188 17.492188 18.191406 L 17.492188 18.742188 C 17.492188 18.816406 17.550781 18.878906 17.628906 18.878906 C 17.703125 18.878906 17.765625 18.816406 17.765625 18.742188 L 17.765625 18.191406 C 17.765625 18.117188 17.703125 18.054688 17.628906 18.054688 Z M 17.628906 18.054688 " fill-opacity="1" fill-rule="nonzero"/><path fill="#ffffff" d="M 18.238281 18.054688 C 18.160156 18.054688 18.101562 18.117188 18.101562 18.191406 L 18.101562 18.742188 C 18.101562 18.816406 18.160156 18.878906 18.238281 18.878906 C 18.3125 18.878906 18.375 18.816406 18.375 18.742188 L 18.375 18.191406 C 18.375 18.117188 18.3125 18.054688 18.238281 18.054688 Z M 18.238281 18.054688 " fill-opacity="1" fill-rule="nonzero"/><path fill="#ffffff" d="M 18.847656 18.054688 C 18.773438 18.054688 18.710938 18.117188 18.710938 18.191406 L 18.710938 18.742188 C 18.710938 18.816406 18.773438 18.878906 18.847656 18.878906 C 18.921875 18.878906 18.984375 18.816406 18.984375 18.742188 L 18.984375 18.191406 C 18.984375 18.117188 18.921875 18.054688 18.847656 18.054688 Z M 18.847656 18.054688 " fill-opacity="1" fill-rule="nonzero"/><path fill="#ffffff" d="M 17.628906 13.421875 C 17.550781 13.421875 17.492188 13.484375 17.492188 13.558594 L 17.492188 14.109375 C 17.492188 14.183594 17.550781 14.246094 17.628906 14.246094 C 17.703125 14.246094 17.765625 14.183594 17.765625 14.109375 L 17.765625 13.558594 C 17.765625 13.484375 17.703125 13.421875 17.628906 13.421875 Z M 17.628906 13.421875 " fill-opacity="1" fill-rule="nonzero"/><path fill="#ffffff" d="M 18.238281 13.421875 C 18.160156 13.421875 18.101562 13.484375 18.101562 13.558594 L 18.101562 14.109375 C 18.101562 14.183594 18.160156 14.246094 18.238281 14.246094 C 18.3125 14.246094 18.375 14.183594 18.375 14.109375 L 18.375 13.558594 C 18.375 13.484375 18.3125 13.421875 18.238281 13.421875 Z M 18.238281 13.421875 " fill-opacity="1" fill-rule="nonzero"/><path fill="#ffffff" d="M 18.847656 13.421875 C 18.773438 13.421875 18.710938 13.484375 18.710938 13.558594 L 18.710938 14.109375 C 18.710938 14.183594 18.773438 14.246094 18.847656 14.246094 C 18.921875 14.246094 18.984375 14.183594 18.984375 14.109375 L 18.984375 13.558594 C 18.984375 13.484375 18.921875 13.421875 18.847656 13.421875 Z M 18.847656 13.421875 " fill-opacity="1" fill-rule="nonzero"/></svg>