<svg xmlns="http://www.w3.org/2000/svg" xmlns:xlink="http://www.w3.org/1999/xlink" width="40" zoomAndPan="magnify" viewBox="0 0 30 30.000001" height="40" preserveAspectRatio="xMidYMid meet" version="1.0"><defs><clipPath id="6af51ecbc4"><path d="M 0.484375 0 L 29.515625 0 L 29.515625 29.03125 L 0.484375 29.03125 Z M 0.484375 0 " clip-rule="nonzero"/></clipPath><clipPath id="0545cf491c"><path d="M 15 0 C 6.984375 0 0.484375 6.5 0.484375 14.515625 C 0.484375 22.53125 6.984375 29.03125 15 29.03125 C 23.015625 29.03125 29.515625 22.53125 29.515625 14.515625 C 29.515625 6.5 23.015625 0 15 0 Z M 15 0 " clip-rule="nonzero"/></clipPath><clipPath id="5afc1ce3a3"><path d="M 5.050781 4.566406 L 24.644531 4.566406 L 24.644531 24.164062 L 5.050781 24.164062 Z M 5.050781 4.566406 " clip-rule="nonzero"/></clipPath></defs><g clip-path="url(#6af51ecbc4)"><g clip-path="url(#0545cf491c)"><path fill="#0071b8" d="M 0.484375 0 L 29.515625 0 L 29.515625 29.03125 L 0.484375 29.03125 Z M 0.484375 0 " fill-opacity="1" fill-rule="nonzero"/></g></g><g clip-path="url(#5afc1ce3a3)"><path fill="#ffffff" d="M 24.699219 23.960938 L 23.757812 23.960938 C 23.757812 23.953125 23.761719 23.949219 23.761719 23.945312 L 23.761719 10.859375 C 23.761719 10.722656 23.648438 10.609375 23.511719 10.609375 L 18.792969 10.609375 L 18.792969 7.066406 C 18.792969 6.960938 18.726562 6.867188 18.628906 6.832031 L 12.347656 4.578125 C 12.273438 4.554688 12.1875 4.566406 12.121094 4.609375 C 12.054688 4.65625 12.015625 4.734375 12.015625 4.8125 L 12.015625 9 L 8.210938 9 C 8.074219 9 7.960938 9.113281 7.960938 9.25 L 7.960938 13.566406 L 6.769531 13.566406 C 6.632812 13.566406 6.519531 13.675781 6.519531 13.8125 L 6.519531 23.960938 L 5.304688 23.960938 C 5.167969 23.960938 5.054688 24.070312 5.054688 24.207031 C 5.054688 24.347656 5.167969 24.457031 5.304688 24.457031 L 24.699219 24.457031 C 24.835938 24.457031 24.945312 24.347656 24.945312 24.207031 C 24.945312 24.070312 24.835938 23.960938 24.699219 23.960938 Z M 12.511719 5.167969 L 18.296875 7.242188 L 18.296875 10.609375 L 17.363281 10.609375 C 17.226562 10.609375 17.113281 10.722656 17.113281 10.859375 L 17.113281 13.335938 L 15.398438 12.875 L 15.398438 9.25 C 15.398438 9.113281 15.285156 9 15.148438 9 L 12.511719 9 Z M 8.460938 9.496094 L 14.898438 9.496094 L 14.898438 10.84375 L 8.460938 10.84375 Z M 11.621094 23.960938 L 7.019531 23.960938 L 7.019531 14.0625 L 11.621094 14.0625 Z M 12.914062 12.304688 C 12.855469 12.351562 12.820312 12.425781 12.820312 12.503906 L 12.832031 23.960938 L 12.117188 23.960938 L 12.117188 13.8125 C 12.117188 13.675781 12.003906 13.566406 11.867188 13.566406 L 8.460938 13.566406 L 8.460938 11.339844 L 14.898438 11.339844 L 14.898438 12.738281 L 13.132812 12.261719 C 13.058594 12.242188 12.976562 12.257812 12.914062 12.304688 Z M 13.328125 23.960938 L 13.316406 12.828125 L 17.835938 14.046875 L 17.851562 23.960938 Z M 18.347656 23.960938 L 18.335938 13.855469 C 18.332031 13.742188 18.257812 13.644531 18.148438 13.617188 L 17.613281 13.46875 L 17.613281 11.105469 L 23.261719 11.105469 L 23.261719 23.945312 C 23.261719 23.949219 23.265625 23.953125 23.265625 23.960938 Z M 18.347656 23.960938 " fill-opacity="1" fill-rule="nonzero"/></g><path fill="#ffffff" d="M 8.210938 19.734375 C 8.347656 19.734375 8.460938 19.621094 8.460938 19.484375 L 8.460938 18.488281 C 8.460938 18.351562 8.347656 18.238281 8.210938 18.238281 C 8.074219 18.238281 7.960938 18.351562 7.960938 18.488281 L 7.960938 19.484375 C 7.960938 19.621094 8.074219 19.734375 8.210938 19.734375 Z M 8.210938 19.734375 " fill-opacity="1" fill-rule="nonzero"/><path fill="#ffffff" d="M 9.320312 19.734375 C 9.457031 19.734375 9.566406 19.621094 9.566406 19.484375 L 9.566406 18.488281 C 9.566406 18.351562 9.457031 18.238281 9.320312 18.238281 C 9.179688 18.238281 9.070312 18.351562 9.070312 18.488281 L 9.070312 19.484375 C 9.070312 19.621094 9.179688 19.734375 9.320312 19.734375 Z M 9.320312 19.734375 " fill-opacity="1" fill-rule="nonzero"/><path fill="#ffffff" d="M 10.425781 19.734375 C 10.5625 19.734375 10.675781 19.621094 10.675781 19.484375 L 10.675781 18.488281 C 10.675781 18.351562 10.5625 18.238281 10.425781 18.238281 C 10.289062 18.238281 10.179688 18.351562 10.179688 18.488281 L 10.179688 19.484375 C 10.179688 19.621094 10.289062 19.734375 10.425781 19.734375 Z M 10.425781 19.734375 " fill-opacity="1" fill-rule="nonzero"/><path fill="#ffffff" d="M 14.46875 15.425781 C 14.332031 15.425781 14.21875 15.535156 14.21875 15.675781 L 14.21875 16.671875 C 14.21875 16.808594 14.332031 16.917969 14.46875 16.917969 C 14.605469 16.917969 14.71875 16.808594 14.71875 16.671875 L 14.71875 15.675781 C 14.71875 15.535156 14.605469 15.425781 14.46875 15.425781 Z M 14.46875 15.425781 " fill-opacity="1" fill-rule="nonzero"/><path fill="#ffffff" d="M 15.578125 15.425781 C 15.4375 15.425781 15.328125 15.535156 15.328125 15.675781 L 15.328125 16.671875 C 15.328125 16.808594 15.4375 16.917969 15.578125 16.917969 C 15.714844 16.917969 15.824219 16.808594 15.824219 16.671875 L 15.824219 15.675781 C 15.824219 15.535156 15.714844 15.425781 15.578125 15.425781 Z M 15.578125 15.425781 " fill-opacity="1" fill-rule="nonzero"/><path fill="#ffffff" d="M 16.683594 15.425781 C 16.546875 15.425781 16.4375 15.535156 16.4375 15.675781 L 16.4375 16.671875 C 16.4375 16.808594 16.546875 16.917969 16.683594 16.917969 C 16.820312 16.917969 16.933594 16.808594 16.933594 16.671875 L 16.933594 15.675781 C 16.933594 15.535156 16.820312 15.425781 16.683594 15.425781 Z M 16.683594 15.425781 " fill-opacity="1" fill-rule="nonzero"/><path fill="#ffffff" d="M 14.46875 18.238281 C 14.332031 18.238281 14.21875 18.351562 14.21875 18.488281 L 14.21875 19.484375 C 14.21875 19.621094 14.332031 19.734375 14.46875 19.734375 C 14.605469 19.734375 14.71875 19.621094 14.71875 19.484375 L 14.71875 18.488281 C 14.71875 18.351562 14.605469 18.238281 14.46875 18.238281 Z M 14.46875 18.238281 " fill-opacity="1" fill-rule="nonzero"/><path fill="#ffffff" d="M 15.578125 18.238281 C 15.4375 18.238281 15.328125 18.351562 15.328125 18.488281 L 15.328125 19.484375 C 15.328125 19.621094 15.4375 19.734375 15.578125 19.734375 C 15.714844 19.734375 15.824219 19.621094 15.824219 19.484375 L 15.824219 18.488281 C 15.824219 18.351562 15.714844 18.238281 15.578125 18.238281 Z M 15.578125 18.238281 " fill-opacity="1" fill-rule="nonzero"/><path fill="#ffffff" d="M 16.683594 18.238281 C 16.546875 18.238281 16.4375 18.351562 16.4375 18.488281 L 16.4375 19.484375 C 16.4375 19.621094 16.546875 19.734375 16.683594 19.734375 C 16.820312 19.734375 16.933594 19.621094 16.933594 19.484375 L 16.933594 18.488281 C 16.933594 18.351562 16.820312 18.238281 16.683594 18.238281 Z M 16.683594 18.238281 " fill-opacity="1" fill-rule="nonzero"/><path fill="#ffffff" d="M 19.765625 15.425781 C 19.628906 15.425781 19.519531 15.535156 19.519531 15.675781 L 19.519531 16.671875 C 19.519531 16.808594 19.628906 16.917969 19.765625 16.917969 C 19.902344 16.917969 20.015625 16.808594 20.015625 16.671875 L 20.015625 15.675781 C 20.015625 15.535156 19.902344 15.425781 19.765625 15.425781 Z M 19.765625 15.425781 " fill-opacity="1" fill-rule="nonzero"/><path fill="#ffffff" d="M 20.875 15.425781 C 20.738281 15.425781 20.625 15.535156 20.625 15.675781 L 20.625 16.671875 C 20.625 16.808594 20.738281 16.917969 20.875 16.917969 C 21.011719 16.917969 21.121094 16.808594 21.121094 16.671875 L 21.121094 15.675781 C 21.121094 15.535156 21.011719 15.425781 20.875 15.425781 Z M 20.875 15.425781 " fill-opacity="1" fill-rule="nonzero"/><path fill="#ffffff" d="M 21.980469 15.425781 C 21.84375 15.425781 21.734375 15.535156 21.734375 15.675781 L 21.734375 16.671875 C 21.734375 16.808594 21.84375 16.917969 21.980469 16.917969 C 22.117188 16.917969 22.230469 16.808594 22.230469 16.671875 L 22.230469 15.675781 C 22.230469 15.535156 22.117188 15.425781 21.980469 15.425781 Z M 21.980469 15.425781 " fill-opacity="1" fill-rule="nonzero"/><path fill="#ffffff" d="M 8.210938 16.917969 C 8.347656 16.917969 8.460938 16.808594 8.460938 16.671875 L 8.460938 15.675781 C 8.460938 15.535156 8.347656 15.425781 8.210938 15.425781 C 8.074219 15.425781 7.960938 15.535156 7.960938 15.675781 L 7.960938 16.671875 C 7.960938 16.808594 8.074219 16.917969 8.210938 16.917969 Z M 8.210938 16.917969 " fill-opacity="1" fill-rule="nonzero"/><path fill="#ffffff" d="M 9.320312 16.917969 C 9.457031 16.917969 9.566406 16.808594 9.566406 16.671875 L 9.566406 15.675781 C 9.566406 15.535156 9.457031 15.425781 9.320312 15.425781 C 9.179688 15.425781 9.070312 15.535156 9.070312 15.675781 L 9.070312 16.671875 C 9.070312 16.808594 9.179688 16.917969 9.320312 16.917969 Z M 9.320312 16.917969 " fill-opacity="1" fill-rule="nonzero"/><path fill="#ffffff" d="M 10.425781 16.917969 C 10.5625 16.917969 10.675781 16.808594 10.675781 16.671875 L 10.675781 15.675781 C 10.675781 15.535156 10.5625 15.425781 10.425781 15.425781 C 10.289062 15.425781 10.179688 15.535156 10.179688 15.675781 L 10.179688 16.671875 C 10.179688 16.808594 10.289062 16.917969 10.425781 16.917969 Z M 10.425781 16.917969 " fill-opacity="1" fill-rule="nonzero"/><path fill="#ffffff" d="M 19.765625 18.238281 C 19.628906 18.238281 19.519531 18.351562 19.519531 18.488281 L 19.519531 19.484375 C 19.519531 19.621094 19.628906 19.734375 19.765625 19.734375 C 19.902344 19.734375 20.015625 19.621094 20.015625 19.484375 L 20.015625 18.488281 C 20.015625 18.351562 19.902344 18.238281 19.765625 18.238281 Z M 19.765625 18.238281 " fill-opacity="1" fill-rule="nonzero"/><path fill="#ffffff" d="M 20.875 18.238281 C 20.738281 18.238281 20.625 18.351562 20.625 18.488281 L 20.625 19.484375 C 20.625 19.621094 20.738281 19.734375 20.875 19.734375 C 21.011719 19.734375 21.121094 19.621094 21.121094 19.484375 L 21.121094 18.488281 C 21.121094 18.351562 21.011719 18.238281 20.875 18.238281 Z M 20.875 18.238281 " fill-opacity="1" fill-rule="nonzero"/><path fill="#ffffff" d="M 21.980469 18.238281 C 21.84375 18.238281 21.734375 18.351562 21.734375 18.488281 L 21.734375 19.484375 C 21.734375 19.621094 21.84375 19.734375 21.980469 19.734375 C 22.117188 19.734375 22.230469 19.621094 22.230469 19.484375 L 22.230469 18.488281 C 22.230469 18.351562 22.117188 18.238281 21.980469 18.238281 Z M 21.980469 18.238281 " fill-opacity="1" fill-rule="nonzero"/><path fill="#ffffff" d="M 8.210938 22.429688 C 8.347656 22.429688 8.460938 22.320312 8.460938 22.183594 L 8.460938 21.1875 C 8.460938 21.050781 8.347656 20.9375 8.210938 20.9375 C 8.074219 20.9375 7.960938 21.050781 7.960938 21.1875 L 7.960938 22.183594 C 7.960938 22.320312 8.074219 22.429688 8.210938 22.429688 Z M 8.210938 22.429688 " fill-opacity="1" fill-rule="nonzero"/><path fill="#ffffff" d="M 9.320312 22.429688 C 9.457031 22.429688 9.566406 22.320312 9.566406 22.183594 L 9.566406 21.1875 C 9.566406 21.050781 9.457031 20.9375 9.320312 20.9375 C 9.179688 20.9375 9.070312 21.050781 9.070312 21.1875 L 9.070312 22.183594 C 9.070312 22.320312 9.179688 22.429688 9.320312 22.429688 Z M 9.320312 22.429688 " fill-opacity="1" fill-rule="nonzero"/><path fill="#ffffff" d="M 10.425781 22.429688 C 10.5625 22.429688 10.675781 22.320312 10.675781 22.183594 L 10.675781 21.1875 C 10.675781 21.050781 10.5625 20.9375 10.425781 20.9375 C 10.289062 20.9375 10.179688 21.050781 10.179688 21.1875 L 10.179688 22.183594 C 10.179688 22.320312 10.289062 22.429688 10.425781 22.429688 Z M 10.425781 22.429688 " fill-opacity="1" fill-rule="nonzero"/><path fill="#ffffff" d="M 14.46875 20.9375 C 14.332031 20.9375 14.21875 21.050781 14.21875 21.1875 L 14.21875 22.183594 C 14.21875 22.320312 14.332031 22.429688 14.46875 22.429688 C 14.605469 22.429688 14.71875 22.320312 14.71875 22.183594 L 14.71875 21.1875 C 14.71875 21.050781 14.605469 20.9375 14.46875 20.9375 Z M 14.46875 20.9375 " fill-opacity="1" fill-rule="nonzero"/><path fill="#ffffff" d="M 15.578125 20.9375 C 15.4375 20.9375 15.328125 21.050781 15.328125 21.1875 L 15.328125 22.183594 C 15.328125 22.320312 15.4375 22.429688 15.578125 22.429688 C 15.714844 22.429688 15.824219 22.320312 15.824219 22.183594 L 15.824219 21.1875 C 15.824219 21.050781 15.714844 20.9375 15.578125 20.9375 Z M 15.578125 20.9375 " fill-opacity="1" fill-rule="nonzero"/><path fill="#ffffff" d="M 16.683594 20.9375 C 16.546875 20.9375 16.4375 21.050781 16.4375 21.1875 L 16.4375 22.183594 C 16.4375 22.320312 16.546875 22.429688 16.683594 22.429688 C 16.820312 22.429688 16.933594 22.320312 16.933594 22.183594 L 16.933594 21.1875 C 16.933594 21.050781 16.820312 20.9375 16.683594 20.9375 Z M 16.683594 20.9375 " fill-opacity="1" fill-rule="nonzero"/><path fill="#ffffff" d="M 19.765625 20.9375 C 19.628906 20.9375 19.519531 21.050781 19.519531 21.1875 L 19.519531 22.183594 C 19.519531 22.320312 19.628906 22.429688 19.765625 22.429688 C 19.902344 22.429688 20.015625 22.320312 20.015625 22.183594 L 20.015625 21.1875 C 20.015625 21.050781 19.902344 20.9375 19.765625 20.9375 Z M 19.765625 20.9375 " fill-opacity="1" fill-rule="nonzero"/><path fill="#ffffff" d="M 20.875 20.9375 C 20.738281 20.9375 20.625 21.050781 20.625 21.1875 L 20.625 22.183594 C 20.625 22.320312 20.738281 22.429688 20.875 22.429688 C 21.011719 22.429688 21.121094 22.320312 21.121094 22.183594 L 21.121094 21.1875 C 21.121094 21.050781 21.011719 20.9375 20.875 20.9375 Z M 20.875 20.9375 " fill-opacity="1" fill-rule="nonzero"/><path fill="#ffffff" d="M 21.980469 20.9375 C 21.84375 20.9375 21.734375 21.050781 21.734375 21.1875 L 21.734375 22.183594 C 21.734375 22.320312 21.84375 22.429688 21.980469 22.429688 C 22.117188 22.429688 22.230469 22.320312 22.230469 22.183594 L 22.230469 21.1875 C 22.230469 21.050781 22.117188 20.9375 21.980469 20.9375 Z M 21.980469 20.9375 " fill-opacity="1" fill-rule="nonzero"/><path fill="#ffffff" d="M 19.765625 12.527344 C 19.628906 12.527344 19.519531 12.636719 19.519531 12.773438 L 19.519531 13.769531 C 19.519531 13.90625 19.628906 14.019531 19.765625 14.019531 C 19.902344 14.019531 20.015625 13.90625 20.015625 13.769531 L 20.015625 12.773438 C 20.015625 12.636719 19.902344 12.527344 19.765625 12.527344 Z M 19.765625 12.527344 " fill-opacity="1" fill-rule="nonzero"/><path fill="#ffffff" d="M 20.875 12.527344 C 20.738281 12.527344 20.625 12.636719 20.625 12.773438 L 20.625 13.769531 C 20.625 13.90625 20.738281 14.019531 20.875 14.019531 C 21.011719 14.019531 21.121094 13.90625 21.121094 13.769531 L 21.121094 12.773438 C 21.121094 12.636719 21.011719 12.527344 20.875 12.527344 Z M 20.875 12.527344 " fill-opacity="1" fill-rule="nonzero"/><path fill="#ffffff" d="M 21.980469 12.527344 C 21.84375 12.527344 21.734375 12.636719 21.734375 12.773438 L 21.734375 13.769531 C 21.734375 13.90625 21.84375 14.019531 21.980469 14.019531 C 22.117188 14.019531 22.230469 13.90625 22.230469 13.769531 L 22.230469 12.773438 C 22.230469 12.636719 22.117188 12.527344 21.980469 12.527344 Z M 21.980469 12.527344 " fill-opacity="1" fill-rule="nonzero"/></svg>