<svg xmlns="http://www.w3.org/2000/svg" xmlns:xlink="http://www.w3.org/1999/xlink" width="83" zoomAndPan="magnify" viewBox="0 0 62.25 62.249997" height="83" preserveAspectRatio="xMidYMid meet" version="1.0"><defs><clipPath id="39ed44e1c0"><path d="M 4 12.363281 L 61 12.363281 L 61 37 L 4 37 Z M 4 12.363281 " clip-rule="nonzero"/></clipPath><clipPath id="f6c4c88631"><path d="M 8 44 L 57 44 L 57 49.417969 L 8 49.417969 Z M 8 44 " clip-rule="nonzero"/></clipPath></defs><path fill="#000000" d="M 15.785156 29.644531 C 16.859375 29.144531 19.238281 28.003906 21.691406 26.828125 C 16.976562 25.660156 9.226562 21.941406 15.054688 28.863281 C 15.207031 29.019531 15.453125 29.300781 15.785156 29.644531 Z M 15.785156 29.644531 " fill-opacity="1" fill-rule="nonzero"/><g clip-path="url(#39ed44e1c0)"><path fill="#000000" d="M 60.148438 15.777344 C 59.253906 13.714844 54.082031 12.363281 52.019531 13.261719 L 42.75 17.695312 C 42.75 17.695312 22.136719 15.027344 18.5625 15.289062 C 16.84375 15.53125 15.230469 16.234375 15.855469 16.664062 C 19.476562 19.140625 29.453125 24.058594 29.453125 24.058594 C 29.453125 24.058594 15.65625 30.707031 15.527344 30.710938 C 11.792969 30.808594 0.0078125 24.328125 6.828125 32.433594 C 7.734375 33.363281 11.898438 38.597656 17.25 36.273438 C 23.042969 34.203125 58.402344 19.371094 58.402344 19.371094 C 61.503906 18.023438 60.148438 15.777344 60.148438 15.777344 Z M 60.148438 15.777344 " fill-opacity="1" fill-rule="nonzero"/></g><g clip-path="url(#f6c4c88631)"><path fill="#000000" d="M 8.589844 44.980469 L 56.597656 44.980469 L 56.597656 49.140625 L 8.589844 49.140625 Z M 8.589844 44.980469 " fill-opacity="1" fill-rule="nonzero"/></g></svg>