<?xml version="1.0" standalone="no"?>
<!DOCTYPE svg PUBLIC "-//W3C//DTD SVG 20010904//EN"
 "http://www.w3.org/TR/2001/REC-SVG-20010904/DTD/svg10.dtd">
<svg version="1.0" xmlns="http://www.w3.org/2000/svg"
 width="94.000000pt" height="91.000000pt" viewBox="0 0 94.000000 91.000000"
 preserveAspectRatio="xMidYMid meet">

<g transform="translate(0.000000,91.000000) scale(0.100000,-0.100000)"
fill="#000000" stroke="none">
<path d="M140 640 c-13 -13 -20 -33 -20 -59 0 -32 6 -43 35 -65 49 -38 49 -84
0 -122 -29 -22 -35 -33 -35 -65 0 -57 26 -79 95 -79 31 0 69 7 85 15 27 14 33
14 60 0 23 -12 69 -15 230 -15 187 0 201 1 220 20 25 25 29 100 5 100 -26 0
-65 47 -65 78 0 29 29 63 63 75 25 9 24 90 -3 117 -19 19 -33 20 -220 20 -161
0 -207 -3 -230 -15 -27 -14 -33 -14 -60 0 -44 23 -135 20 -160 -5z m150 -15
l30 -16 0 -154 0 -154 -30 -16 c-44 -23 -127 -20 -140 4 -18 34 -11 62 25 95
29 28 35 40 35 74 0 35 -5 45 -35 69 -36 29 -44 58 -25 94 13 24 96 27 140 4z
m510 -4 c17 -33 12 -79 -10 -86 -29 -9 -60 -54 -60 -87 0 -40 15 -65 50 -83
32 -16 38 -41 20 -76 -10 -18 -23 -19 -206 -19 -155 0 -201 3 -224 15 l-30 16
0 154 0 154 28 15 c21 12 69 15 224 16 185 0 198 -1 208 -19z"/>
<path d="M517 573 c-4 -3 -7 -19 -7 -34 0 -20 -11 -36 -40 -59 -22 -17 -40
-38 -40 -46 0 -21 27 -28 57 -15 l26 12 -5 -51 -5 -50 38 0 37 0 -1 48 c-2 37
1 46 13 43 68 -18 80 20 20 62 -33 24 -40 34 -40 63 0 29 -3 34 -23 34 -13 0
-27 -3 -30 -7z m33 -42 c0 -23 9 -36 40 -58 41 -29 54 -51 23 -38 -10 4 -29
10 -42 13 -22 5 -23 3 -20 -47 3 -36 0 -51 -8 -51 -9 0 -13 17 -13 51 0 55 -3
57 -65 34 -11 -4 -1 10 23 32 30 27 42 46 42 66 0 15 5 27 10 27 6 0 10 -13
10 -29z"/>
</g>
</svg>
