<?xml version="1.0" standalone="no"?>
<!DOCTYPE svg PUBLIC "-//W3C//DTD SVG 20010904//EN"
 "http://www.w3.org/TR/2001/REC-SVG-20010904/DTD/svg10.dtd">
<svg version="1.0" xmlns="http://www.w3.org/2000/svg"
 width="94.000000pt" height="91.000000pt" viewBox="0 0 94.000000 91.000000"
 preserveAspectRatio="xMidYMid meet">

<g transform="translate(0.000000,91.000000) scale(0.100000,-0.100000)"
fill="#000000" stroke="none">
<path d="M270 635 c0 -110 4 -175 10 -175 6 0 10 65 10 175 0 110 -4 175 -10
175 -6 0 -10 -65 -10 -175z"/>
<path d="M464 797 c-7 -20 -2 -47 11 -50 14 -3 19 43 6 56 -7 7 -12 6 -17 -6z"/>
<path d="M660 795 c0 -8 5 -15 10 -15 6 0 10 7 10 15 0 8 -4 15 -10 15 -5 0
-10 -7 -10 -15z"/>
<path d="M660 600 c0 -80 4 -130 10 -130 6 0 10 50 10 130 0 80 -4 130 -10
130 -6 0 -10 -50 -10 -130z"/>
<path d="M462 665 c4 -33 22 -33 26 0 2 18 -1 25 -13 25 -12 0 -15 -7 -13 -25z"/>
<path d="M421 554 c-12 -15 -21 -41 -21 -60 0 -31 -5 -36 -75 -74 -76 -42 -92
-63 -81 -106 5 -20 12 -24 39 -23 52 2 90 13 95 28 3 9 -2 11 -14 8 -11 -3
-36 -9 -56 -13 -37 -6 -38 -5 -38 22 0 25 8 33 63 62 34 18 65 32 68 32 4 0
10 -44 13 -97 4 -54 9 -106 12 -115 3 -10 -3 -19 -15 -23 -29 -9 -45 3 -30 21
18 21 1 31 -19 11 -13 -14 -14 -21 -6 -35 10 -14 23 -16 75 -14 66 4 86 13 98
44 6 17 8 17 30 2 l24 -17 -24 -19 -24 -19 24 3 c13 2 29 11 35 21 9 16 5 23
-24 48 -43 37 -56 37 -64 -1 -6 -34 -31 -49 -49 -31 -6 6 -17 79 -24 163 -12
138 -11 153 4 170 21 23 55 23 77 -1 14 -16 15 -30 7 -117 -5 -54 -7 -101 -5
-103 5 -6 128 -30 156 -31 30 0 44 26 34 65 -7 27 -114 91 -128 77 -5 -5 16
-22 46 -38 48 -25 56 -33 56 -58 0 -27 -2 -28 -32 -22 -18 4 -50 9 -72 13
l-39 6 7 97 c6 89 5 99 -14 123 -29 37 -80 37 -109 1z"/>
<path d="M454 505 c-18 -13 -16 -14 19 -15 41 0 46 5 18 19 -13 7 -24 6 -37
-4z"/>
<path d="M465 260 c-4 -6 -3 -16 3 -22 6 -6 12 -6 17 2 4 6 3 16 -3 22 -6 6
-12 6 -17 -2z"/>
<path d="M270 165 c0 -37 4 -65 10 -65 6 0 10 28 10 65 0 37 -4 65 -10 65 -6
0 -10 -28 -10 -65z"/>
<path d="M660 165 c0 -37 4 -65 10 -65 6 0 10 28 10 65 0 37 -4 65 -10 65 -6
0 -10 -28 -10 -65z"/>
</g>
</svg>
