<?xml version="1.0" standalone="no"?>
<!DOCTYPE svg PUBLIC "-//W3C//DTD SVG 20010904//EN"
 "http://www.w3.org/TR/2001/REC-SVG-20010904/DTD/svg10.dtd">
<svg version="1.0" xmlns="http://www.w3.org/2000/svg"
 width="94.000000pt" height="91.000000pt" viewBox="0 0 94.000000 91.000000"
 preserveAspectRatio="xMidYMid meet">

<g transform="translate(0.000000,91.000000) scale(0.100000,-0.100000)"
fill="#000000" stroke="none">
<path d="M603 790 c-50 -30 -63 -66 -63 -170 0 -61 5 -100 15 -120 51 -99 200
-97 246 3 24 54 26 170 3 227 -30 74 -129 104 -201 60z m142 -22 c38 -29 55
-76 55 -148 0 -109 -45 -170 -125 -170 -85 0 -117 52 -113 181 l3 84 68 5 c79
6 87 25 9 25 -58 0 -65 7 -24 29 40 22 95 20 127 -6z"/>
<path d="M628 658 c-19 -16 -30 -46 -19 -53 5 -2 16 6 25 20 20 30 31 31 53 5
10 -11 23 -20 30 -20 19 0 26 -19 13 -35 -7 -8 -25 -15 -41 -15 -16 0 -29 -4
-29 -10 0 -16 67 -12 84 6 26 26 18 51 -26 83 -46 34 -66 38 -90 19z"/>
<path d="M149 709 c-11 -11 -18 -28 -15 -37 3 -9 28 -98 57 -197 28 -99 58
-190 65 -203 14 -21 20 -22 163 -22 127 0 152 -3 169 -18 31 -27 35 -55 11
-85 -20 -27 -21 -27 -158 -27 -153 0 -164 4 -177 68 -4 18 -11 32 -16 32 -11
0 -6 -53 7 -82 6 -16 0 -18 -53 -18 -34 0 -64 -4 -67 -10 -4 -7 95 -10 290
-10 195 0 294 3 290 10 -3 6 -27 10 -52 10 -39 0 -44 2 -38 18 15 34 15 57 2
82 -11 21 -11 29 2 51 18 32 8 75 -20 84 -30 10 -35 -2 -9 -23 17 -13 21 -24
16 -40 -7 -21 -11 -22 -171 -22 -146 0 -165 2 -173 18 -15 28 -112 368 -112
391 0 25 47 41 60 21 20 -32 62 -204 51 -208 -16 -5 -14 -22 4 -22 9 0 20 -20
29 -51 23 -75 28 -79 112 -79 67 0 74 -2 74 -20 0 -11 5 -20 10 -20 16 0 13
165 -3 178 -7 6 -53 12 -102 14 l-89 3 -31 105 c-17 58 -34 111 -38 118 -13
19 -65 14 -88 -9z m339 -296 l3 -53 -70 0 c-38 0 -73 4 -76 10 -3 5 -12 30
-20 55 l-13 46 86 -3 87 -3 3 -52z"/>
</g>
</svg>
