<?xml version="1.0" standalone="no"?>
<!DOCTYPE svg PUBLIC "-//W3C//DTD SVG 20010904//EN"
 "http://www.w3.org/TR/2001/REC-SVG-20010904/DTD/svg10.dtd">
<svg version="1.0" xmlns="http://www.w3.org/2000/svg"
 width="94.000000pt" height="91.000000pt" viewBox="0 0 94.000000 91.000000"
 preserveAspectRatio="xMidYMid meet">

<g transform="translate(0.000000,91.000000) scale(0.100000,-0.100000)"
fill="#000000" stroke="none">
<path d="M445 623 c-56 -12 -90 -28 -121 -56 -66 -57 -95 -148 -74 -227 17
-64 26 -73 56 -53 29 18 33 38 5 23 -28 -14 -28 -14 -41 26 -13 38 -8 49 25
57 15 3 12 5 -9 6 -27 1 -28 2 -21 38 9 50 13 55 35 43 30 -16 37 -11 12 10
l-23 19 31 33 30 33 20 -25 21 -25 -6 32 c-6 29 -4 32 30 43 39 13 50 8 58
-25 4 -18 5 -18 6 2 1 30 16 36 56 23 31 -10 34 -14 24 -32 -13 -24 -1 -40 12
-15 14 24 31 21 59 -8 23 -24 23 -25 4 -46 -18 -20 -18 -20 8 -14 30 8 34 3
43 -47 7 -34 5 -37 -22 -41 l-28 -4 28 -2 c30 -1 33 -12 16 -60 -12 -35 -13
-35 -40 -21 -28 15 -23 -5 6 -24 13 -9 26 -16 29 -16 8 0 36 94 36 123 0 82
-65 181 -137 210 -46 17 -101 26 -128 20z"/>
<path d="M552 448 c-18 -11 -48 -24 -65 -27 -23 -5 -33 -13 -35 -29 -3 -18 1
-22 22 -22 16 0 26 6 26 15 0 8 22 27 50 43 27 15 50 30 50 35 0 12 -13 8 -48
-15z m-68 -59 c-3 -5 -10 -7 -15 -3 -5 3 -7 10 -3 15 3 5 10 7 15 3 5 -3 7
-10 3 -15z"/>
<path d="M410 300 c0 -6 28 -10 65 -10 37 0 65 4 65 10 0 6 -28 10 -65 10 -37
0 -65 -4 -65 -10z"/>
</g>
</svg>
