<svg xmlns="http://www.w3.org/2000/svg" xmlns:xlink="http://www.w3.org/1999/xlink" width="60" viewBox="0 0 30 30.000001" height="60" preserveAspectRatio="xMidYMid meet"><defs><clipPath id="5f2a547281"><path d="M 5.128906 13 L 9 13 L 9 20 L 5.128906 20 Z M 5.128906 13 " clip-rule="nonzero"></path></clipPath><clipPath id="79f3b8a0c5"><path d="M 21 13 L 24.726562 13 L 24.726562 20 L 21 20 Z M 21 13 " clip-rule="nonzero"></path></clipPath><clipPath id="7bdbcb6d33"><path d="M 22 9 L 24.726562 9 L 24.726562 13 L 22 13 Z M 22 9 " clip-rule="nonzero"></path></clipPath><clipPath id="e1120cb7ab"><path d="M 5.128906 9 L 8 9 L 8 12 L 5.128906 12 Z M 5.128906 9 " clip-rule="nonzero"></path></clipPath><clipPath id="409a5e653a"><path d="M 22 23 L 24.726562 23 L 24.726562 26 L 22 26 Z M 22 23 " clip-rule="nonzero"></path></clipPath><clipPath id="650fa73ba6"><path d="M 5.128906 23 L 8 23 L 8 26 L 5.128906 26 Z M 5.128906 23 " clip-rule="nonzero"></path></clipPath></defs><path fill="#0071b8" d="M 15.328125 19.167969 L 16.039062 27.886719 C 16.09375 28.539062 16.664062 29.023438 17.316406 28.96875 C 17.96875 28.917969 18.453125 28.347656 18.398438 27.695312 L 17.582031 17.679688 L 17.582031 14.699219 L 20.054688 19.429688 C 20.191406 19.691406 20.457031 19.84375 20.734375 19.84375 C 20.851562 19.84375 20.972656 19.816406 21.085938 19.753906 C 21.460938 19.558594 21.605469 19.097656 21.410156 18.722656 L 17.671875 11.558594 C 17.53125 11.289062 17.253906 11.140625 16.96875 11.148438 C 16.929688 11.140625 16.886719 11.136719 16.84375 11.136719 L 13.144531 11.136719 C 13.101562 11.136719 13.058594 11.140625 13.019531 11.148438 C 12.734375 11.140625 12.457031 11.289062 12.316406 11.558594 L 8.578125 18.722656 C 8.382812 19.097656 8.527344 19.558594 8.902344 19.753906 C 9.015625 19.816406 9.136719 19.84375 9.253906 19.84375 C 9.53125 19.84375 9.796875 19.691406 9.933594 19.429688 L 12.40625 14.699219 L 12.40625 17.679688 L 11.585938 27.695312 C 11.535156 28.347656 12.019531 28.917969 12.671875 28.96875 C 13.324219 29.023438 13.894531 28.539062 13.949219 27.886719 L 14.660156 19.167969 Z M 15.328125 19.167969 " fill-opacity="1" fill-rule="nonzero"></path><path fill="#0071b8" d="M 17.148438 8.4375 C 17.148438 8.722656 17.09375 9 16.984375 9.261719 C 16.875 9.527344 16.71875 9.757812 16.515625 9.960938 C 16.316406 10.164062 16.082031 10.320312 15.816406 10.429688 C 15.554688 10.539062 15.28125 10.59375 14.992188 10.59375 C 14.707031 10.59375 14.433594 10.539062 14.167969 10.429688 C 13.90625 10.320312 13.671875 10.164062 13.46875 9.960938 C 13.269531 9.757812 13.113281 9.527344 13.003906 9.261719 C 12.894531 9 12.839844 8.722656 12.839844 8.4375 C 12.839844 8.152344 12.894531 7.878906 13.003906 7.613281 C 13.113281 7.351562 13.269531 7.117188 13.46875 6.914062 C 13.671875 6.714844 13.90625 6.558594 14.167969 6.449219 C 14.433594 6.339844 14.707031 6.285156 14.992188 6.285156 C 15.28125 6.285156 15.554688 6.339844 15.816406 6.449219 C 16.082031 6.558594 16.316406 6.714844 16.515625 6.914062 C 16.71875 7.117188 16.875 7.351562 16.984375 7.613281 C 17.09375 7.878906 17.148438 8.152344 17.148438 8.4375 Z M 17.148438 8.4375 " fill-opacity="1" fill-rule="nonzero"></path><path fill="#0071b8" d="M 9.199219 11.953125 L 9.894531 11.953125 L 9.894531 8.023438 L 11 8.023438 L 9.546875 5.597656 L 8.09375 8.023438 L 9.199219 8.023438 Z M 9.199219 11.953125 " fill-opacity="1" fill-rule="nonzero"></path><path fill="#0071b8" d="M 9.199219 13.164062 L 9.894531 13.164062 L 9.894531 13.796875 L 9.199219 13.796875 Z M 9.199219 13.164062 " fill-opacity="1" fill-rule="nonzero"></path><path fill="#0071b8" d="M 9.199219 12.242188 L 9.894531 12.242188 L 9.894531 12.6875 L 9.199219 12.6875 Z M 9.199219 12.242188 " fill-opacity="1" fill-rule="nonzero"></path><path fill="#0071b8" d="M 6.234375 20.128906 L 6.929688 20.128906 L 6.929688 20.574219 L 6.234375 20.574219 Z M 6.234375 20.128906 " fill-opacity="1" fill-rule="nonzero"></path><path fill="#0071b8" d="M 6.234375 21.046875 L 6.929688 21.046875 L 6.929688 21.679688 L 6.234375 21.679688 Z M 6.234375 21.046875 " fill-opacity="1" fill-rule="nonzero"></path><g clip-path="url(#5f2a547281)"><path fill="#0071b8" d="M 8.035156 15.910156 L 6.582031 13.480469 L 5.128906 15.910156 L 6.234375 15.910156 L 6.234375 19.839844 L 6.929688 19.839844 L 6.929688 15.910156 Z M 8.035156 15.910156 " fill-opacity="1" fill-rule="nonzero"></path></g><path fill="#0071b8" d="M 20.09375 13.164062 L 20.789062 13.164062 L 20.789062 13.796875 L 20.09375 13.796875 Z M 20.09375 13.164062 " fill-opacity="1" fill-rule="nonzero"></path><path fill="#0071b8" d="M 20.09375 12.242188 L 20.789062 12.242188 L 20.789062 12.6875 L 20.09375 12.6875 Z M 20.09375 12.242188 " fill-opacity="1" fill-rule="nonzero"></path><path fill="#0071b8" d="M 18.988281 8.023438 L 20.09375 8.023438 L 20.09375 11.953125 L 20.789062 11.953125 L 20.789062 8.023438 L 21.894531 8.023438 L 20.441406 5.597656 Z M 18.988281 8.023438 " fill-opacity="1" fill-rule="nonzero"></path><path fill="#0071b8" d="M 23.058594 20.128906 L 23.753906 20.128906 L 23.753906 20.574219 L 23.058594 20.574219 Z M 23.058594 20.128906 " fill-opacity="1" fill-rule="nonzero"></path><path fill="#0071b8" d="M 23.058594 21.046875 L 23.753906 21.046875 L 23.753906 21.679688 L 23.058594 21.679688 Z M 23.058594 21.046875 " fill-opacity="1" fill-rule="nonzero"></path><g clip-path="url(#79f3b8a0c5)"><path fill="#0071b8" d="M 24.859375 15.910156 L 23.40625 13.480469 L 21.953125 15.910156 L 23.058594 15.910156 L 23.058594 19.839844 L 23.753906 19.839844 L 23.753906 15.910156 Z M 24.859375 15.910156 " fill-opacity="1" fill-rule="nonzero"></path></g><path fill="#0071b8" d="M 16.046875 2.160156 L 16.082031 2.160156 C 16.144531 1.394531 16.371094 1.167969 17.136719 1.101562 L 17.136719 1.070312 C 16.371094 1.003906 16.144531 0.777344 16.082031 0.0117188 L 16.046875 0.0117188 C 15.980469 0.777344 15.753906 1.003906 14.988281 1.070312 L 14.988281 1.101562 C 15.753906 1.167969 15.980469 1.394531 16.046875 2.160156 Z M 16.046875 2.160156 " fill-opacity="1" fill-rule="nonzero"></path><path fill="#0071b8" d="M 17.515625 6.015625 L 17.546875 6.015625 C 17.601562 5.355469 17.796875 5.160156 18.457031 5.105469 L 18.457031 5.078125 C 17.796875 5.023438 17.601562 4.824219 17.546875 4.167969 L 17.515625 4.167969 C 17.460938 4.824219 17.265625 5.023438 16.609375 5.078125 L 16.609375 5.105469 C 17.265625 5.160156 17.460938 5.355469 17.515625 6.015625 Z M 17.515625 6.015625 " fill-opacity="1" fill-rule="nonzero"></path><g clip-path="url(#7bdbcb6d33)"><path fill="#0071b8" d="M 22.355469 10.984375 L 22.355469 11.027344 C 23.234375 11.097656 23.496094 11.363281 23.570312 12.242188 L 23.609375 12.242188 C 23.683594 11.363281 23.945312 11.097656 24.824219 11.027344 L 24.824219 10.984375 C 23.945312 10.914062 23.683594 10.652344 23.609375 9.773438 L 23.570312 9.773438 C 23.496094 10.652344 23.234375 10.914062 22.355469 10.984375 Z M 22.355469 10.984375 " fill-opacity="1" fill-rule="nonzero"></path></g><g clip-path="url(#e1120cb7ab)"><path fill="#0071b8" d="M 6.277344 11.667969 C 6.339844 10.902344 6.570312 10.675781 7.335938 10.609375 L 7.335938 10.574219 C 6.570312 10.511719 6.339844 10.285156 6.277344 9.519531 L 6.242188 9.519531 C 6.179688 10.285156 5.949219 10.511719 5.1875 10.574219 L 5.1875 10.609375 C 5.949219 10.675781 6.179688 10.902344 6.242188 11.667969 Z M 6.277344 11.667969 " fill-opacity="1" fill-rule="nonzero"></path></g><path fill="#0071b8" d="M 11.707031 4.640625 L 11.675781 4.640625 C 11.621094 5.300781 11.425781 5.496094 10.769531 5.550781 L 10.769531 5.582031 C 11.425781 5.636719 11.621094 5.832031 11.675781 6.488281 L 11.707031 6.488281 C 11.761719 5.832031 11.957031 5.636719 12.617188 5.582031 L 12.617188 5.550781 C 11.957031 5.496094 11.761719 5.300781 11.707031 4.640625 Z M 11.707031 4.640625 " fill-opacity="1" fill-rule="nonzero"></path><path fill="#0071b8" d="M 14.4375 2.46875 L 14.398438 2.46875 C 14.324219 3.347656 14.0625 3.609375 13.183594 3.679688 L 13.183594 3.722656 C 14.0625 3.792969 14.324219 4.058594 14.398438 4.9375 L 14.4375 4.9375 C 14.511719 4.058594 14.773438 3.792969 15.652344 3.722656 L 15.652344 3.679688 C 14.773438 3.609375 14.511719 3.347656 14.4375 2.46875 Z M 14.4375 2.46875 " fill-opacity="1" fill-rule="nonzero"></path><path fill="#0071b8" d="M 9.621094 23.113281 L 9.65625 23.113281 C 9.71875 22.347656 9.949219 22.121094 10.714844 22.054688 L 10.714844 22.019531 C 9.949219 21.957031 9.71875 21.730469 9.65625 20.964844 L 9.621094 20.964844 C 9.558594 21.730469 9.328125 21.957031 8.566406 22.019531 L 8.566406 22.054688 C 9.328125 22.121094 9.558594 22.347656 9.621094 23.113281 Z M 9.621094 23.113281 " fill-opacity="1" fill-rule="nonzero"></path><path fill="#0071b8" d="M 8.605469 4.503906 C 7.839844 4.4375 7.613281 4.210938 7.546875 3.445312 L 7.515625 3.445312 C 7.449219 4.210938 7.222656 4.4375 6.457031 4.503906 L 6.457031 4.539062 C 7.222656 4.601562 7.449219 4.828125 7.515625 5.59375 L 7.546875 5.59375 C 7.613281 4.828125 7.839844 4.601562 8.605469 4.539062 Z M 8.605469 4.503906 " fill-opacity="1" fill-rule="nonzero"></path><path fill="#0071b8" d="M 22.472656 3.824219 L 22.4375 3.824219 C 22.375 4.589844 22.148438 4.820312 21.382812 4.882812 L 21.382812 4.917969 C 22.148438 4.980469 22.375 5.210938 22.4375 5.972656 L 22.472656 5.972656 C 22.539062 5.210938 22.765625 4.980469 23.53125 4.917969 L 23.53125 4.882812 C 22.765625 4.820312 22.539062 4.589844 22.472656 3.824219 Z M 22.472656 3.824219 " fill-opacity="1" fill-rule="nonzero"></path><g clip-path="url(#409a5e653a)"><path fill="#0071b8" d="M 23.550781 23.703125 L 23.515625 23.703125 C 23.449219 24.46875 23.222656 24.699219 22.457031 24.761719 L 22.457031 24.796875 C 23.222656 24.859375 23.449219 25.089844 23.515625 25.855469 L 23.550781 25.855469 C 23.613281 25.089844 23.839844 24.859375 24.605469 24.796875 L 24.605469 24.761719 C 23.839844 24.699219 23.613281 24.46875 23.550781 23.703125 Z M 23.550781 23.703125 " fill-opacity="1" fill-rule="nonzero"></path></g><path fill="#0071b8" d="M 21 25.511719 L 21 25.480469 C 20.238281 25.414062 20.007812 25.1875 19.945312 24.421875 L 19.910156 24.421875 C 19.847656 25.1875 19.617188 25.414062 18.851562 25.480469 L 18.851562 25.511719 C 19.617188 25.578125 19.847656 25.804688 19.910156 26.570312 L 19.945312 26.570312 C 20.007812 25.804688 20.238281 25.578125 21 25.511719 Z M 21 25.511719 " fill-opacity="1" fill-rule="nonzero"></path><g clip-path="url(#650fa73ba6)"><path fill="#0071b8" d="M 6.25 25.644531 L 6.285156 25.644531 C 6.347656 24.878906 6.574219 24.648438 7.339844 24.585938 L 7.339844 24.550781 C 6.574219 24.488281 6.347656 24.257812 6.285156 23.492188 L 6.25 23.492188 C 6.183594 24.257812 5.957031 24.488281 5.191406 24.550781 L 5.191406 24.585938 C 5.957031 24.648438 6.183594 24.878906 6.25 25.644531 Z M 6.25 25.644531 " fill-opacity="1" fill-rule="nonzero"></path></g><path fill="#0071b8" d="M 9.367188 27.246094 L 9.402344 27.246094 C 9.46875 26.480469 9.695312 26.25 10.460938 26.1875 L 10.460938 26.152344 C 9.695312 26.089844 9.46875 25.859375 9.402344 25.097656 L 9.367188 25.097656 C 9.304688 25.859375 9.078125 26.089844 8.3125 26.152344 L 8.3125 26.1875 C 9.078125 26.25 9.304688 26.480469 9.367188 27.246094 Z M 9.367188 27.246094 " fill-opacity="1" fill-rule="nonzero"></path><path fill="#0071b8" d="M 22.011719 22.519531 L 22.011719 22.484375 C 21.25 22.421875 21.019531 22.191406 20.957031 21.425781 L 20.921875 21.425781 C 20.859375 22.191406 20.628906 22.421875 19.863281 22.484375 L 19.863281 22.519531 C 20.628906 22.582031 20.859375 22.8125 20.921875 23.578125 L 20.957031 23.578125 C 21.019531 22.8125 21.25 22.582031 22.011719 22.519531 Z M 22.011719 22.519531 " fill-opacity="1" fill-rule="nonzero"></path></svg>