<svg xmlns="http://www.w3.org/2000/svg" xmlns:xlink="http://www.w3.org/1999/xlink" width="40" viewBox="0 0 62.25 62.249997" height="83" preserveAspectRatio="xMidYMid meet"><defs><clipPath id="ad7bf9c722"><path d="M 1.269531 25 L 12 25 L 12 36 L 1.269531 36 Z M 1.269531 25 " clip-rule="nonzero"></path></clipPath><clipPath id="23d08ba6a8"><path d="M 11 11.550781 L 60.554688 11.550781 L 60.554688 22 L 11 22 Z M 11 11.550781 " clip-rule="nonzero"></path></clipPath></defs><g clip-path="url(#ad7bf9c722)"><path fill="#ffffff" d="M 6.199219 25.308594 C 3.5 25.308594 1.269531 27.542969 1.269531 30.238281 C 1.269531 32.9375 3.5 35.167969 6.199219 35.167969 C 8.894531 35.167969 11.128906 32.9375 11.128906 30.238281 C 11.128906 27.542969 8.894531 25.308594 6.199219 25.308594 Z M 7.78125 30.890625 C 8.058594 31.167969 8.058594 31.632812 7.78125 31.914062 C 7.5 32.191406 7.035156 32.191406 6.757812 31.914062 L 6.105469 31.261719 L 5.453125 31.914062 C 5.175781 32.191406 4.710938 32.191406 4.433594 31.914062 C 4.152344 31.632812 4.152344 31.167969 4.433594 30.890625 L 5.082031 30.238281 L 4.433594 29.589844 C 4.152344 29.308594 4.152344 28.84375 4.433594 28.566406 C 4.710938 28.285156 5.175781 28.285156 5.453125 28.566406 L 6.105469 29.214844 L 6.757812 28.566406 C 7.035156 28.285156 7.5 28.285156 7.78125 28.566406 C 8.058594 28.84375 8.058594 29.308594 7.78125 29.589844 L 7.128906 30.238281 Z M 7.78125 30.890625 " fill-opacity="1" fill-rule="nonzero"></path></g><path fill="#ffffff" d="M 35.027344 30.703125 L 35.027344 28.660156 L 32.984375 28.660156 L 32.984375 30.703125 C 32.984375 31.078125 32.703125 31.449219 32.238281 31.449219 L 30.191406 31.449219 L 30.191406 33.496094 L 32.238281 33.496094 C 32.609375 33.496094 32.984375 33.773438 32.984375 34.238281 L 32.984375 36.285156 L 35.027344 36.285156 L 35.027344 34.238281 C 35.027344 33.867188 35.308594 33.496094 35.773438 33.496094 L 37.910156 33.496094 L 37.910156 31.449219 L 35.773438 31.449219 C 35.402344 31.355469 35.027344 31.078125 35.027344 30.703125 Z M 35.027344 30.703125 " fill-opacity="1" fill-rule="nonzero"></path><path fill="#ffffff" d="M 58 44.5625 C 57.628906 44.5625 57.253906 44.839844 57.253906 45.304688 C 57.253906 47.070312 55.859375 48.46875 54.09375 48.46875 L 50.929688 48.46875 L 50.929688 44.375 L 53.441406 44.375 C 56.511719 44.375 58.742188 41.492188 58.09375 38.609375 C 56.324219 30.332031 49.351562 24.84375 42.097656 23.824219 C 41.257812 23.730469 40.328125 23.636719 39.398438 23.636719 C 36.886719 23.824219 34.5625 23.636719 32.609375 23.636719 C 29.914062 23.636719 26.9375 23.914062 25.171875 27.078125 L 12.242188 27.636719 C 12.617188 28.472656 12.894531 29.402344 12.894531 30.425781 C 12.894531 31.449219 12.707031 32.378906 12.242188 33.214844 L 24.707031 33.496094 C 26.007812 39.074219 30.5625 43.257812 36.144531 44.097656 L 36.144531 48.375 L 33.632812 48.375 C 33.261719 48.375 32.890625 48.652344 32.890625 49.117188 C 32.890625 49.488281 33.167969 49.863281 33.632812 49.863281 L 54.1875 49.863281 C 56.695312 49.863281 58.742188 47.816406 58.742188 45.304688 C 58.648438 44.933594 58.371094 44.5625 58 44.5625 Z M 42.746094 25.21875 C 47.675781 25.777344 53.628906 30.332031 56.046875 36.191406 L 42.746094 36.191406 Z M 36.421875 36.933594 C 36.421875 37.308594 36.144531 37.679688 35.679688 37.679688 L 32.238281 37.679688 C 31.867188 37.679688 31.496094 37.398438 31.496094 36.933594 L 31.496094 34.890625 L 29.449219 34.890625 C 29.078125 34.890625 28.703125 34.609375 28.703125 34.144531 L 28.703125 30.703125 C 28.703125 30.332031 28.984375 29.960938 29.449219 29.960938 L 31.496094 29.960938 L 31.496094 27.914062 C 31.496094 27.542969 31.773438 27.171875 32.238281 27.171875 L 35.679688 27.171875 C 36.050781 27.171875 36.421875 27.449219 36.421875 27.914062 L 36.421875 29.960938 L 38.5625 29.960938 C 38.933594 29.960938 39.304688 30.238281 39.304688 30.703125 L 39.304688 34.144531 C 39.304688 34.515625 39.027344 34.890625 38.5625 34.890625 L 36.421875 34.890625 Z M 49.628906 48.375 L 37.539062 48.375 L 37.539062 44.28125 C 39.027344 44.375 35.492188 44.28125 49.628906 44.28125 Z M 49.628906 48.375 " fill-opacity="1" fill-rule="nonzero"></path><g clip-path="url(#23d08ba6a8)"><path fill="#ffffff" d="M 55.300781 11.640625 C 53.164062 11.640625 38.75 12.476562 36.050781 13.777344 C 33.449219 12.570312 19.496094 11.640625 16.800781 11.640625 C 14.011719 11.640625 11.871094 12.941406 11.871094 14.707031 C 11.871094 16.476562 14.011719 17.683594 16.800781 17.683594 C 19.3125 17.683594 31.867188 16.847656 35.402344 15.824219 L 35.402344 20.101562 L 32.609375 20.101562 C 32.238281 20.101562 31.867188 20.382812 31.867188 20.847656 L 31.867188 21.683594 C 31.960938 21.683594 39.957031 21.683594 40.144531 21.683594 L 40.144531 20.847656 C 40.144531 19.730469 38.375 20.289062 36.703125 20.101562 L 36.703125 15.824219 C 40.328125 16.847656 53.070312 17.683594 55.300781 17.683594 C 58.09375 17.683594 60.230469 16.382812 60.230469 14.617188 C 60.230469 12.847656 58.09375 11.640625 55.300781 11.640625 Z M 55.300781 11.640625 " fill-opacity="1" fill-rule="nonzero"></path></g></svg>