<svg xmlns="http://www.w3.org/2000/svg" xmlns:xlink="http://www.w3.org/1999/xlink" width="40" viewBox="0 0 375 374.999991" height="40" preserveAspectRatio="xMidYMid meet"><defs><clipPath id="a0a6b1d513"><path d="M 13.785156 266 L 28 266 L 28 281 L 13.785156 281 Z M 13.785156 266 " clip-rule="nonzero"></path></clipPath></defs><path fill="#ffffff" d="M 345.734375 107.042969 C 340.457031 120.070312 330.449219 130.363281 317.578125 136.007812 L 237.996094 170.921875 L 246.265625 146.277344 C 247.433594 142.765625 245.5625 138.996094 242.078125 137.828125 C 238.621094 136.683594 234.824219 138.527344 233.65625 142.039062 L 220.890625 180.046875 C 220.527344 180.722656 220.316406 181.398438 220.1875 182.179688 L 199.648438 243.382812 L 183.710938 250.347656 L 174.324219 254.484375 L 185.660156 206.332031 C 185.6875 206.230469 185.6875 206.125 185.738281 206.046875 L 194.917969 167.050781 C 195.75 163.460938 193.539062 159.875 189.953125 159.042969 C 186.363281 158.210938 182.800781 160.394531 181.945312 163.980469 L 173.675781 199.15625 L 118.351562 223.441406 L 94.484375 233.890625 C 90.558594 235.609375 85.957031 234.855469 82.785156 231.992188 L 30.476562 184.804688 C 30.085938 184.441406 30.007812 184.027344 30.007812 183.714844 C 30.035156 183.429688 30.136719 183.011719 30.34375 182.855469 L 44.695312 173.132812 C 46.335938 171.988281 48.492188 171.832031 50.285156 172.769531 L 85.152344 190.371094 C 90.480469 193.046875 96.851562 193.101562 102.207031 190.472656 L 290.515625 99.191406 C 305.019531 92.171875 321.113281 89.675781 337.027344 91.9375 C 340.429688 92.433594 343.371094 94.410156 345.058594 97.371094 C 346.773438 100.335938 347.007812 103.871094 345.734375 107.042969 Z M 145.625 120.953125 L 153.761719 115.414062 L 206.953125 124.90625 L 180.359375 137.800781 Z M 356.601562 90.71875 C 352.832031 84.191406 346.386719 79.824219 338.898438 78.757812 C 320.335938 76.105469 301.617188 79.015625 284.714844 87.207031 L 227.335938 115.027344 L 153.421875 101.816406 C 151.707031 101.507812 149.9375 101.894531 148.484375 102.882812 L 128.644531 116.457031 C 126.695312 117.808594 125.578125 120.070312 125.761719 122.433594 C 125.941406 124.800781 127.371094 126.90625 129.503906 127.945312 L 165.097656 145.183594 L 96.382812 178.515625 C 94.742188 179.292969 92.792969 179.292969 91.15625 178.460938 L 56.292969 160.863281 C 50.183594 157.792969 42.851562 158.261719 37.207031 162.109375 L 22.648438 172.015625 C 19.113281 174.640625 16.929688 178.671875 16.722656 183.089844 C 16.515625 187.484375 18.28125 191.722656 21.558594 194.6875 L 73.894531 241.875 C 74.179688 242.132812 74.492188 242.316406 74.777344 242.550781 L 43.214844 256.378906 C 39.859375 257.863281 38.328125 261.789062 39.78125 265.167969 C 40.902344 267.664062 43.34375 269.144531 45.890625 269.144531 C 46.800781 269.144531 47.6875 268.964844 48.570312 268.574219 L 99.8125 246.109375 C 99.839844 246.085938 99.867188 246.085938 99.890625 246.085938 L 123.1875 235.867188 L 131.0625 232.382812 C 131.089844 232.382812 131.089844 232.382812 131.089844 232.382812 L 169.855469 215.378906 L 159.066406 261.164062 L 125.734375 275.800781 C 122.355469 277.285156 120.820312 281.210938 122.300781 284.5625 C 123.394531 287.058594 125.839844 288.539062 128.414062 288.539062 C 129.296875 288.539062 130.207031 288.386719 131.0625 287.996094 L 167.4375 272.03125 C 167.460938 272.03125 167.460938 272.03125 167.460938 272.03125 L 207.707031 254.378906 C 208.566406 254.015625 209.292969 253.46875 209.890625 252.792969 C 210.046875 252.636719 210.101562 252.429688 210.257812 252.246094 C 210.644531 251.699219 211.035156 251.15625 211.242188 250.558594 C 211.269531 250.503906 211.320312 250.453125 211.320312 250.402344 L 232.277344 187.976562 L 322.933594 148.199219 C 339 141.15625 351.480469 128.3125 358.058594 112.0625 C 360.917969 105.042969 360.371094 97.269531 356.601562 90.71875 " fill-opacity="1" fill-rule="nonzero"></path><g clip-path="url(#a0a6b1d513)"><path fill="#ffffff" d="M 17.917969 267.507812 C 17.113281 267.847656 16.382812 268.289062 15.785156 268.964844 C 14.511719 270.160156 13.785156 271.902344 13.785156 273.617188 C 13.785156 275.410156 14.511719 277.074219 15.785156 278.347656 C 17.058594 279.625 18.722656 280.273438 20.441406 280.273438 C 22.234375 280.273438 23.898438 279.625 25.171875 278.347656 C 26.445312 277.074219 27.09375 275.410156 27.09375 273.617188 C 27.09375 271.902344 26.445312 270.160156 25.171875 268.964844 C 23.300781 267.09375 20.386719 266.441406 17.917969 267.507812 " fill-opacity="1" fill-rule="nonzero"></path></g><path fill="#ffffff" d="M 105.117188 286.410156 C 103.503906 285.679688 101.660156 285.679688 100.046875 286.410156 C 99.191406 286.746094 98.460938 287.214844 97.863281 287.8125 C 96.667969 289.0625 95.914062 290.804688 95.914062 292.542969 C 95.914062 293.402344 96.042969 294.261719 96.382812 295.066406 C 96.71875 295.871094 97.238281 296.574219 97.863281 297.25 C 99.113281 298.523438 100.777344 299.199219 102.570312 299.199219 C 103.453125 299.199219 104.3125 298.992188 105.117188 298.65625 C 105.898438 298.316406 106.652344 297.847656 107.300781 297.25 C 107.898438 296.574219 108.367188 295.871094 108.707031 295.066406 C 109.042969 294.261719 109.226562 293.402344 109.226562 292.542969 C 109.226562 290.804688 108.496094 289.0625 107.300781 287.8125 C 106.652344 287.214844 105.976562 286.746094 105.117188 286.410156 " fill-opacity="1" fill-rule="nonzero"></path><path fill="#ffffff" d="M 105.714844 141.179688 C 106.964844 142.453125 108.628906 143.105469 110.371094 143.105469 C 111.304688 143.105469 112.164062 142.972656 112.96875 142.636719 C 113.75 142.296875 114.503906 141.777344 115.101562 141.179688 C 116.347656 139.90625 117.023438 138.242188 117.023438 136.449219 C 117.023438 135.589844 116.894531 134.734375 116.558594 133.925781 C 116.21875 133.121094 115.699219 132.394531 115.101562 131.792969 C 114.503906 131.144531 113.75 130.652344 112.96875 130.339844 C 111.695312 129.871094 110.371094 129.664062 109.09375 129.921875 C 108.628906 130.054688 108.238281 130.183594 107.847656 130.339844 C 107.429688 130.46875 107.042969 130.730469 106.703125 130.9375 C 106.3125 131.195312 105.976562 131.457031 105.714844 131.792969 C 105.039062 132.394531 104.570312 133.121094 104.234375 133.925781 C 103.894531 134.734375 103.714844 135.589844 103.714844 136.449219 C 103.714844 137.382812 103.894531 138.242188 104.234375 139.046875 C 104.570312 139.855469 105.039062 140.582031 105.714844 141.179688 " fill-opacity="1" fill-rule="nonzero"></path></svg>