<svg xmlns="http://www.w3.org/2000/svg" xmlns:xlink="http://www.w3.org/1999/xlink" width="40" viewBox="0 0 375 374.999991" height="40" preserveAspectRatio="xMidYMid meet"><defs><clipPath id="c0b22496e0"><path d="M 19.476562 75 L 113 75 L 113 91 L 19.476562 91 Z M 19.476562 75 " clip-rule="nonzero"></path></clipPath><clipPath id="4fa8fa4cb8"><path d="M 28 330 L 96 330 L 96 347.378906 L 28 347.378906 Z M 28 330 " clip-rule="nonzero"></path></clipPath><clipPath id="76d2a707a5"><path d="M 60 27.878906 L 73 27.878906 L 73 41 L 60 41 Z M 60 27.878906 " clip-rule="nonzero"></path></clipPath><clipPath id="08debf09c0"><path d="M 107 269 L 152 269 L 152 347.378906 L 107 347.378906 Z M 107 269 " clip-rule="nonzero"></path></clipPath><clipPath id="b3470deb95"><path d="M 162 254 L 202 254 L 202 347.378906 L 162 347.378906 Z M 162 254 " clip-rule="nonzero"></path></clipPath><clipPath id="647db3ac5a"><path d="M 213 252 L 253 252 L 253 347.378906 L 213 347.378906 Z M 213 252 " clip-rule="nonzero"></path></clipPath><clipPath id="2b90d00ad2"><path d="M 264 255 L 304 255 L 304 347.378906 L 264 347.378906 Z M 264 255 " clip-rule="nonzero"></path></clipPath><clipPath id="70b5c2099a"><path d="M 314 270 L 355.476562 270 L 355.476562 347.378906 L 314 347.378906 Z M 314 270 " clip-rule="nonzero"></path></clipPath></defs><path fill="#ffffff" d="M 276.203125 117.566406 C 277.054688 116.949219 277.164062 116.097656 277.152344 115.644531 C 277.144531 115.191406 277 114.347656 276.121094 113.761719 C 268.664062 108.785156 258.859375 108.511719 251.144531 113.074219 L 226.597656 127.578125 C 225.148438 128.433594 223.402344 128.617188 221.808594 128.085938 L 188.964844 117.074219 L 177.824219 124.863281 L 201.445312 133.894531 C 203.417969 134.648438 204.824219 136.414062 205.113281 138.507812 C 205.40625 140.597656 204.535156 142.683594 202.84375 143.945312 L 176.871094 163.355469 C 175.382812 164.464844 173.457031 164.796875 171.683594 164.246094 L 151.28125 157.894531 L 145.359375 162.707031 L 180.054688 187.660156 Z M 276.203125 117.566406 " fill-opacity="1" fill-rule="nonzero"></path><g clip-path="url(#c0b22496e0)"><path fill="#ffffff" d="M 19.515625 75.796875 L 112.917969 75.796875 L 112.917969 90.851562 L 19.515625 90.851562 Z M 19.515625 75.796875 " fill-opacity="1" fill-rule="nonzero"></path></g><path fill="#ffffff" d="M 28.375 309.933594 L 28.375 319.28125 L 95.601562 319.28125 L 95.601562 299.265625 L 32.910156 299.265625 C 31.300781 300.660156 28.375 304.007812 28.375 309.933594 Z M 28.375 309.933594 " fill-opacity="1" fill-rule="nonzero"></path><g clip-path="url(#4fa8fa4cb8)"><path fill="#ffffff" d="M 28.375 330.863281 L 95.601562 330.863281 L 95.601562 347.085938 L 28.375 347.085938 Z M 28.375 330.863281 " fill-opacity="1" fill-rule="nonzero"></path></g><path fill="#ffffff" d="M 75.769531 48.957031 C 73.007812 50.730469 69.730469 51.761719 66.21875 51.761719 C 62.703125 51.761719 59.425781 50.730469 56.667969 48.957031 L 45.519531 64.210938 L 86.914062 64.210938 Z M 75.769531 48.957031 " fill-opacity="1" fill-rule="nonzero"></path><path fill="#ffffff" d="M 231.753906 241.109375 C 245.464844 241.109375 258.226562 242.417969 269.9375 244.550781 L 269.9375 227.363281 L 132.726562 227.363281 L 132.726562 265.359375 C 132.925781 265.253906 133.113281 265.152344 133.3125 265.050781 C 154.316406 254.128906 188.445312 241.109375 231.753906 241.109375 Z M 231.753906 241.109375 " fill-opacity="1" fill-rule="nonzero"></path><g clip-path="url(#76d2a707a5)"><path fill="#ffffff" d="M 66.21875 40.175781 C 69.609375 40.175781 72.367188 37.417969 72.367188 34.027344 C 72.367188 30.636719 69.609375 27.878906 66.21875 27.878906 C 62.828125 27.878906 60.070312 30.636719 60.070312 34.027344 C 60.070312 37.417969 62.828125 40.175781 66.21875 40.175781 Z M 66.21875 40.175781 " fill-opacity="1" fill-rule="nonzero"></path></g><g clip-path="url(#08debf09c0)"><path fill="#ffffff" d="M 107.1875 296.074219 L 107.1875 347.085938 L 151.1875 347.085938 L 151.1875 269.375 C 146.742188 271.296875 142.6875 273.242188 139.050781 275.125 C 122.28125 283.792969 111.285156 292.566406 107.1875 296.074219 Z M 107.1875 296.074219 " fill-opacity="1" fill-rule="nonzero"></path></g><g clip-path="url(#b3470deb95)"><path fill="#ffffff" d="M 162.773438 347.085938 L 201.859375 347.085938 L 201.859375 254.914062 C 187.148438 257.105469 174.039062 260.714844 162.773438 264.78125 Z M 162.773438 347.085938 " fill-opacity="1" fill-rule="nonzero"></path></g><g clip-path="url(#647db3ac5a)"><path fill="#ffffff" d="M 213.445312 253.523438 L 213.445312 347.085938 L 252.53125 347.085938 L 252.53125 253.769531 C 245.890625 253.085938 238.964844 252.695312 231.753906 252.695312 C 225.4375 252.695312 219.332031 252.988281 213.445312 253.523438 Z M 213.445312 253.523438 " fill-opacity="1" fill-rule="nonzero"></path></g><path fill="#ffffff" d="M 35.800781 112.738281 L 96.636719 112.738281 L 98.671875 102.4375 L 33.761719 102.4375 Z M 35.800781 112.738281 " fill-opacity="1" fill-rule="nonzero"></path><g clip-path="url(#2b90d00ad2)"><path fill="#ffffff" d="M 264.117188 347.085938 L 303.199219 347.085938 L 303.199219 265.785156 C 292.058594 261.546875 278.949219 257.707031 264.117188 255.300781 Z M 264.117188 347.085938 " fill-opacity="1" fill-rule="nonzero"></path></g><path fill="#ffffff" d="M 94.34375 124.320312 L 38.089844 124.320312 L 40.351562 135.742188 L 92.085938 135.742188 Z M 94.34375 124.320312 " fill-opacity="1" fill-rule="nonzero"></path><g clip-path="url(#70b5c2099a)"><path fill="#ffffff" d="M 324.007812 275.109375 C 321.1875 273.636719 318.105469 272.125 314.785156 270.613281 L 314.785156 347.085938 L 355.484375 347.085938 L 355.484375 296.046875 C 351.460938 292.550781 340.625 283.777344 324.007812 275.109375 Z M 324.007812 275.109375 " fill-opacity="1" fill-rule="nonzero"></path></g><path fill="#ffffff" d="M 60.425781 287.683594 L 60.425781 282.042969 C 60.425781 278.84375 63.019531 276.25 66.21875 276.25 C 69.417969 276.25 72.011719 278.84375 72.011719 282.042969 L 72.011719 287.683594 L 95.425781 287.683594 L 91.222656 147.324219 L 41.214844 147.324219 L 37.011719 287.683594 Z M 60.425781 165.742188 C 60.425781 162.542969 63.019531 159.949219 66.21875 159.949219 C 69.417969 159.949219 72.011719 162.542969 72.011719 165.742188 L 72.011719 177.171875 C 72.011719 180.371094 69.417969 182.964844 66.21875 182.964844 C 63.019531 182.964844 60.425781 180.371094 60.425781 177.171875 Z M 60.425781 204.507812 C 60.425781 201.308594 63.019531 198.714844 66.21875 198.714844 C 69.417969 198.714844 72.011719 201.308594 72.011719 204.507812 L 72.011719 215.941406 C 72.011719 219.140625 69.417969 221.734375 66.21875 221.734375 C 63.019531 221.734375 60.425781 219.140625 60.425781 215.941406 Z M 60.425781 243.273438 C 60.425781 240.078125 63.019531 237.484375 66.21875 237.484375 C 69.417969 237.484375 72.011719 240.078125 72.011719 243.273438 L 72.011719 254.707031 C 72.011719 257.90625 69.417969 260.5 66.21875 260.5 C 63.019531 260.5 60.425781 257.90625 60.425781 254.707031 Z M 60.425781 243.273438 " fill-opacity="1" fill-rule="nonzero"></path></svg>