<svg xmlns="http://www.w3.org/2000/svg" version="1.1" xmlns:xlink="http://www.w3.org/1999/xlink" width="40" height="40" x="0" y="0" viewBox="0 0 1.707 1.707" style="enable-background:new 0 0 512 512" xml:space="preserve" fill-rule="evenodd" className=""><g><path d="M.605 1.017A.02.02 0 0 1 .586.991L.64.836a.02.02 0 1 1 .038.013l-.053.155a.02.02 0 0 1-.019.013zM1.104 1.02a.02.02 0 0 1-.019-.014L1.031.854A.02.02 0 1 1 1.07.841l.054.152a.02.02 0 0 1-.02.027zM1.678 1.706H.028a.02.02 0 0 1-.02-.026l.123-.43c.03-.125.267-.177.405-.197a.02.02 0 0 1 .02.01l.151.244.13-.14a.02.02 0 0 1 .03 0l.13.14.151-.244a.02.02 0 0 1 .02-.01c.138.02.375.072.406.198l.12.426a.02.02 0 0 1-.017.029zm-1.623-.04h1.596l-.115-.405c-.018-.073-.152-.135-.36-.166l-.157.256a.02.02 0 0 1-.032.003L.853 1.21l-.134.144a.02.02 0 0 1-.032-.003L.53 1.095c-.208.031-.342.093-.36.165l-.115.406z" fill="#4f9cc8" opacity="1" data-original="#000000" className=""></path><path d="M.698 1.706A.02.02 0 0 1 .684 1.7l-.42-.416a.02.02 0 0 1 0-.028l.048-.046-.038-.066a.02.02 0 0 1 .01-.028.892.892 0 0 1 .14-.042.02.02 0 0 1 .023.01l.268.59a.02.02 0 0 1-.017.031zm-.39-.436.327.325-.218-.479a.876.876 0 0 0-.096.029l.033.059a.02.02 0 0 1-.003.024l-.044.042zM1.008 1.706a.02.02 0 0 1-.018-.028l.27-.593a.02.02 0 0 1 .022-.011.89.89 0 0 1 .14.042.02.02 0 0 1 .01.028l-.038.066.048.046a.02.02 0 0 1 0 .028l-.42.416a.02.02 0 0 1-.014.006zm.28-.59-.217.48.328-.326-.043-.042a.02.02 0 0 1-.004-.024l.034-.06a.878.878 0 0 0-.097-.028zM.705 1.36H.703a.02.02 0 0 1-.015-.01l-.17-.274a.02.02 0 0 1 .004-.024l.07-.07A.02.02 0 0 1 .616.982l.248.183a.02.02 0 0 1 .003.03l-.149.16a.02.02 0 0 1-.014.006zM.56 1.07l.147.238.115-.124-.216-.16-.046.046z" fill="#4f9cc8" opacity="1" data-original="#000000" className=""></path><path d="M1.002 1.36a.02.02 0 0 1-.015-.006l-.148-.16a.02.02 0 0 1 .002-.03L1.09.981a.02.02 0 0 1 .026.002l.07.069a.02.02 0 0 1 .002.024l-.168.275a.02.02 0 0 1-.017.01zm-.119-.177.115.124.147-.238-.046-.046-.216.16z" fill="#4f9cc8" opacity="1" data-original="#000000" className=""></path><path d="M.913 1.357h-.12a.02.02 0 0 1-.019-.014l-.022-.069a.02.02 0 0 1 .005-.02l.082-.087a.02.02 0 0 1 .029 0l.082.088a.02.02 0 0 1 .004.02l-.022.068a.02.02 0 0 1-.02.014zm-.105-.04h.09l.014-.044-.059-.063-.059.063.014.044z" fill="#4f9cc8" opacity="1" data-original="#000000" className=""></path><path d="M.936 1.706H.77a.02.02 0 0 1-.02-.022l.038-.349a.02.02 0 0 1 .02-.018h.088a.02.02 0 0 1 .02.018l.038.345a.02.02 0 0 1-.02.025zm-.143-.04h.12L.88 1.357H.827l-.034.309zM.856.953C.693.953.558.808.541.615A.02.02 0 1 1 .58.612c.015.172.133.301.275.301.143 0 .265-.135.277-.308 0-.011.01-.02.021-.019.011.001.02.01.019.022-.014.194-.153.345-.317.345z" fill="#4f9cc8" opacity="1" data-original="#000000" className=""></path><path d="M.56.634a.02.02 0 0 1-.017-.01C.425.411.458.268.506.186.573.072.714 0 .872 0c.143 0 .266.06.328.16.05.08.085.224-.03.454a.02.02 0 0 1-.037-.004L1.09.431a1.302 1.302 0 0 1-.015-.066.293.293 0 0 1-.063.046.536.536 0 0 1-.362.038.5.5 0 0 0-.069.17.02.02 0 0 1-.02.015zM.873.04C.73.04.6.106.54.207.485.302.49.423.555.56A.381.381 0 0 1 .627.413.02.02 0 0 1 .645.407.505.505 0 0 0 .992.376a.25.25 0 0 0 .065-.05c.009-.01.016-.016.027-.016.02 0 .023.017.029.044l.014.067.031.125C1.22.4 1.223.274 1.166.182 1.111.094 1.001.041.872.041z" fill="#4f9cc8" opacity="1" data-original="#000000" className=""></path></g></svg>