<svg xmlns="http://www.w3.org/2000/svg" xmlns:xlink="http://www.w3.org/1999/xlink" width="60" viewBox="0 0 375 374.999991" height="60" preserveAspectRatio="xMidYMid meet"><defs><clipPath id="bed115916f"><path d="M 18 191.253906 L 357 191.253906 L 357 283 L 18 283 Z M 18 191.253906 " clip-rule="nonzero"></path></clipPath><clipPath id="ac911effc7"><path d="M 126 265 L 167 265 L 167 287.875 L 126 287.875 Z M 126 265 " clip-rule="nonzero"></path></clipPath><clipPath id="68d9561d36"><path d="M 167 264 L 174 264 L 174 287.875 L 167 287.875 Z M 167 264 " clip-rule="nonzero"></path></clipPath><clipPath id="1f18608b74"><path d="M 174 263 L 197 263 L 197 287.875 L 174 287.875 Z M 174 263 " clip-rule="nonzero"></path></clipPath><clipPath id="adb34c4dc4"><path d="M 133.382812 87.125 L 238 87.125 L 238 212 L 133.382812 212 Z M 133.382812 87.125 " clip-rule="nonzero"></path></clipPath></defs><g clip-path="url(#bed115916f)"><path fill="#1A4159" d="M 62.417969 235.871094 L 62.574219 238.242188 L 45.121094 239.394531 L 48.816406 246.277344 L 42.179688 246.863281 L 43.03125 259.734375 L 120.734375 282.503906 C 120.734375 282.503906 121.890625 282.425781 123.996094 282.28125 C 123.46875 281.417969 123.171875 280.484375 123.105469 279.480469 C 122.925781 276.753906 124.492188 274.320312 127.914062 272.097656 L 96.570312 261.78125 L 86.707031 249.800781 L 90.191406 248.808594 L 92.871094 250.890625 L 99.625 259.09375 L 132.226562 269.820312 C 135.039062 268.585938 138.515625 267.410156 142.6875 266.285156 C 153.984375 263.230469 169.269531 260.855469 185.738281 259.585938 L 185.867188 259.578125 C 189.535156 259.335938 193.085938 260.839844 195.132812 263.503906 C 197.003906 265.9375 199.300781 269.8125 199.605469 274.433594 C 199.75 276.667969 199.410156 278.789062 198.847656 280.6875 L 239.359375 277.742188 L 257.289062 274.984375 L 277.429688 271.882812 C 291.230469 270.792969 357.011719 261.089844 356.617188 255.097656 C 356.214844 249 313.324219 241.898438 313.324219 241.898438 C 313.324219 241.898438 303.902344 233.164062 298.46875 229.675781 C 293.03125 226.191406 164.617188 236.0625 164.617188 236.0625 L 104.332031 241.378906 L 49.738281 191.253906 L 21.035156 194.511719 L 41.066406 231.835938 L 18.003906 233.355469 L 19.644531 235.628906 L 21.75 238.550781 Z M 296.746094 235.507812 C 296.746094 235.507812 303.480469 239.65625 305.058594 242.953125 L 273.289062 245.21875 L 271.15625 236.96875 Z M 243.707031 238.554688 L 244.226562 246.457031 L 236.777344 246.949219 L 236.253906 239.046875 Z M 230.949219 239.398438 L 231.46875 247.300781 L 224.015625 247.792969 L 223.496094 239.890625 Z M 218.1875 240.238281 L 218.710938 248.140625 L 211.257812 248.632812 L 210.738281 240.730469 Z M 189.851562 242.109375 L 190.371094 250.011719 L 182.917969 250.503906 L 182.398438 242.601562 Z M 177.089844 242.949219 L 177.613281 250.855469 L 170.160156 251.347656 L 169.640625 243.441406 Z M 164.332031 243.792969 L 164.855469 251.695312 L 157.402344 252.1875 L 156.882812 244.285156 Z M 164.332031 243.792969 " fill-opacity="1" fill-rule="nonzero"></path></g><g clip-path="url(#ac911effc7)"><path fill="#1A4159" d="M 164.714844 265.527344 C 142.046875 268.882812 126.355469 274.234375 126.683594 279.246094 C 127.015625 284.253906 143.273438 287.496094 166.1875 287.847656 Z M 164.714844 265.527344 " fill-opacity="1" fill-rule="nonzero"></path></g><g clip-path="url(#68d9561d36)"><path fill="#1A4159" d="M 172.089844 264.539062 C 170.574219 264.722656 169.082031 264.914062 167.617188 265.113281 L 169.121094 287.875 C 170.597656 287.882812 172.101562 287.875 173.628906 287.855469 Z M 172.089844 264.539062 " fill-opacity="1" fill-rule="nonzero"></path></g><g clip-path="url(#1f18608b74)"><path fill="#1A4159" d="M 196.027344 274.667969 C 195.785156 270.996094 193.921875 267.816406 192.289062 265.6875 C 190.929688 263.921875 188.511719 262.96875 186.011719 263.160156 C 182.238281 263.453125 178.558594 263.800781 174.996094 264.199219 L 176.554688 287.808594 C 180.136719 287.734375 183.828125 287.597656 187.609375 287.390625 C 190.113281 287.253906 192.386719 285.992188 193.5 284.0625 C 194.839844 281.738281 196.269531 278.339844 196.027344 274.667969 Z M 196.027344 274.667969 " fill-opacity="1" fill-rule="nonzero"></path></g><g clip-path="url(#adb34c4dc4)"><path fill="#1A4159" d="M 185.515625 87.714844 C 183.816406 87.714844 182.117188 87.796875 180.421875 87.964844 C 178.730469 88.132812 177.046875 88.382812 175.378906 88.714844 C 173.707031 89.046875 172.058594 89.457031 170.429688 89.953125 C 168.800781 90.445312 167.199219 91.019531 165.628906 91.671875 C 164.054688 92.320312 162.519531 93.046875 161.015625 93.851562 C 159.515625 94.652344 158.058594 95.527344 156.640625 96.472656 C 155.226562 97.414062 153.859375 98.429688 152.542969 99.507812 C 151.226562 100.585938 149.96875 101.726562 148.761719 102.929688 C 147.558594 104.132812 146.417969 105.394531 145.335938 106.707031 C 144.257812 108.023438 143.242188 109.390625 142.296875 110.804688 C 141.351562 112.21875 140.476562 113.675781 139.671875 115.175781 C 138.867188 116.675781 138.140625 118.214844 137.488281 119.785156 C 136.835938 121.359375 136.261719 122.957031 135.765625 124.585938 C 135.269531 126.214844 134.855469 127.863281 134.523438 129.53125 C 134.1875 131.203125 133.9375 132.882812 133.769531 134.578125 C 133.601562 136.269531 133.515625 137.96875 133.515625 139.671875 C 133.542969 143.242188 133.929688 146.773438 134.675781 150.265625 C 135.425781 153.757812 136.515625 157.136719 137.953125 160.40625 C 139.386719 163.675781 141.136719 166.769531 143.199219 169.679688 C 145.265625 172.59375 147.601562 175.269531 150.210938 177.707031 L 183.769531 211.097656 C 184.230469 211.648438 184.816406 211.925781 185.535156 211.933594 C 186.257812 211.941406 186.847656 211.660156 187.304688 211.097656 L 220.347656 178.121094 C 221.316406 177.25 222.25 176.34375 223.152344 175.398438 C 224.054688 174.457031 224.917969 173.484375 225.746094 172.476562 C 226.570312 171.46875 227.359375 170.429688 228.109375 169.363281 C 228.859375 168.296875 229.566406 167.203125 230.230469 166.082031 C 230.898438 164.964844 231.523438 163.820312 232.101562 162.652344 C 232.683594 161.484375 233.21875 160.296875 233.707031 159.089844 C 234.199219 157.882812 234.644531 156.660156 235.042969 155.417969 C 235.441406 154.175781 235.792969 152.921875 236.097656 151.65625 C 236.398438 150.386719 236.65625 149.109375 236.863281 147.824219 C 237.070312 146.535156 237.230469 145.242188 237.339844 143.945312 C 237.449219 142.644531 237.511719 141.34375 237.523438 140.042969 C 237.535156 138.738281 237.496094 137.4375 237.410156 136.136719 C 237.324219 134.835938 237.1875 133.539062 237.003906 132.25 C 236.820312 130.957031 236.589844 129.675781 236.308594 128.402344 C 236.027344 127.132812 235.699219 125.871094 235.324219 124.621094 C 234.949219 123.375 234.527344 122.140625 234.058594 120.925781 C 233.589844 119.710938 233.074219 118.511719 232.515625 117.335938 C 231.957031 116.15625 231.355469 115.003906 230.707031 113.871094 C 230.0625 112.738281 229.375 111.632812 228.644531 110.550781 C 227.917969 109.472656 227.148438 108.421875 226.339844 107.398438 C 225.53125 106.375 224.683594 105.386719 223.800781 104.425781 C 222.917969 103.46875 222 102.542969 221.046875 101.65625 C 220.09375 100.765625 219.109375 99.914062 218.089844 99.097656 C 217.074219 98.285156 216.027344 97.507812 214.953125 96.773438 C 213.875 96.035156 212.773438 95.34375 211.644531 94.6875 C 210.515625 94.035156 209.367188 93.425781 208.191406 92.859375 C 207.019531 92.292969 205.824219 91.773438 204.609375 91.296875 C 203.398438 90.820312 202.167969 90.390625 200.921875 90.007812 C 199.675781 89.625 198.417969 89.289062 197.148438 89 C 195.875 88.710938 194.59375 88.472656 193.304688 88.28125 C 192.015625 88.085938 190.722656 87.945312 189.421875 87.851562 C 188.121094 87.757812 186.820312 87.710938 185.515625 87.714844 Z M 180.054688 156.109375 C 179.84375 156.382812 179.582031 156.59375 179.269531 156.742188 C 178.957031 156.886719 178.628906 156.953125 178.285156 156.941406 C 177.570312 156.929688 176.980469 156.652344 176.515625 156.109375 L 162.90625 142.484375 L 166.4375 138.816406 L 178.285156 150.671875 L 204.589844 124.441406 L 208.132812 128.042969 Z M 180.054688 156.109375 " fill-opacity="1" fill-rule="nonzero"></path></g></svg>