<svg xmlns="http://www.w3.org/2000/svg" xmlns:xlink="http://www.w3.org/1999/xlink" width="40" viewBox="0 0 62.25 62.249997" height="40" preserveAspectRatio="xMidYMid meet"><defs><clipPath id="5f66b7554d"><path d="M 1.40625 1.40625 L 59.953125 1.40625 L 59.953125 59.953125 L 1.40625 59.953125 Z M 1.40625 1.40625 " clip-rule="nonzero"></path></clipPath></defs><g clip-path="url(#5f66b7554d)"><path fill="#ffffff" d="M 40.53125 20.96875 C 39.855469 20.96875 39.1875 21.003906 38.53125 21.070312 L 30.75 18.148438 C 30.738281 6.886719 28.820312 1.40625 24.882812 1.40625 C 20.945312 1.40625 19.023438 6.886719 19.015625 18.148438 L 2.585938 24.320312 C 1.882812 24.5625 1.40625 25.234375 1.40625 25.988281 L 1.40625 26.835938 C 1.40625 27.917969 2.285156 28.792969 3.363281 28.792969 L 19.425781 28.792969 C 19.746094 32.886719 20.261719 36.78125 20.972656 40.433594 L 17.289062 41.769531 C 16.566406 42.023438 16.078125 42.714844 16.078125 43.484375 L 16.078125 44.578125 C 16.078125 45.582031 16.898438 46.398438 17.90625 46.398438 L 21.871094 46.398438 C 24.371094 54.324219 31.789062 60.089844 40.53125 60.089844 C 51.316406 60.089844 60.089844 51.316406 60.089844 40.53125 C 60.089844 29.742188 51.316406 20.96875 40.53125 20.96875 Z M 34.910156 21.800781 C 33.394531 22.257812 31.964844 22.898438 30.628906 23.6875 C 30.675781 22.558594 30.707031 21.40625 30.722656 20.230469 L 34.90625 21.800781 Z M 3.363281 26.835938 L 3.363281 26.117188 L 19.035156 20.230469 C 19.066406 22.480469 19.144531 24.6875 19.277344 26.835938 Z M 24.882812 3.363281 C 27.332031 3.363281 28.792969 8.925781 28.792969 18.242188 C 28.792969 20.597656 28.730469 22.878906 28.617188 25.050781 C 25.558594 27.410156 23.21875 30.640625 21.976562 34.378906 C 21.3125 29.355469 20.96875 23.953125 20.96875 18.242188 C 20.96875 8.925781 22.429688 3.363281 24.882812 3.363281 Z M 18.035156 44.441406 L 18.035156 43.578125 L 21.066406 42.480469 C 21.132812 43.144531 21.230469 43.800781 21.363281 44.441406 Z M 40.53125 58.136719 C 30.824219 58.136719 22.925781 50.238281 22.925781 40.53125 C 22.925781 30.824219 30.824219 22.925781 40.53125 22.925781 C 50.238281 22.925781 58.136719 30.824219 58.136719 40.53125 C 58.136719 50.238281 50.238281 58.136719 40.53125 58.136719 Z M 40.53125 58.136719 " fill-opacity="1" fill-rule="nonzero"></path></g><path fill="#ffffff" d="M 40.53125 24.882812 C 31.902344 24.882812 24.882812 31.902344 24.882812 40.53125 C 24.882812 49.160156 31.902344 56.179688 40.53125 56.179688 C 49.160156 56.179688 56.179688 49.160156 56.179688 40.53125 C 56.179688 31.902344 49.160156 24.882812 40.53125 24.882812 Z M 40.53125 54.222656 C 32.980469 54.222656 26.835938 48.082031 26.835938 40.53125 C 26.835938 32.980469 32.980469 26.835938 40.53125 26.835938 C 48.082031 26.835938 54.222656 32.980469 54.222656 40.53125 C 54.222656 48.082031 48.082031 54.222656 40.53125 54.222656 Z M 40.53125 54.222656 " fill-opacity="1" fill-rule="nonzero"></path><path fill="#ffffff" d="M 44.441406 36.617188 C 44.441406 37.160156 44.878906 37.597656 45.421875 37.597656 C 45.960938 37.597656 46.398438 37.160156 46.398438 36.617188 C 46.398438 34.199219 44.28125 32.191406 41.507812 31.800781 L 41.507812 30.75 C 41.507812 30.207031 41.070312 29.773438 40.53125 29.773438 C 39.988281 29.773438 39.550781 30.207031 39.550781 30.75 L 39.550781 31.800781 C 36.78125 32.191406 34.660156 34.199219 34.660156 36.617188 C 34.660156 39.035156 36.78125 41.042969 39.550781 41.433594 L 39.550781 47.273438 C 37.867188 46.945312 36.617188 45.804688 36.617188 44.445312 C 36.617188 43.902344 36.179688 43.464844 35.640625 43.464844 C 35.097656 43.464844 34.660156 43.902344 34.660156 44.445312 C 34.660156 46.863281 36.78125 48.871094 39.550781 49.261719 L 39.550781 50.3125 C 39.550781 50.851562 39.988281 51.289062 40.53125 51.289062 C 41.070312 51.289062 41.507812 50.851562 41.507812 50.3125 L 41.507812 49.261719 C 44.28125 48.871094 46.398438 46.863281 46.398438 44.445312 C 46.398438 42.023438 44.28125 40.015625 41.507812 39.625 L 41.507812 33.789062 C 43.191406 34.117188 44.441406 35.253906 44.441406 36.621094 Z M 36.617188 36.617188 C 36.617188 35.253906 37.867188 34.117188 39.550781 33.789062 L 39.550781 39.449219 C 37.867188 39.121094 36.617188 37.980469 36.617188 36.617188 Z M 44.441406 44.441406 C 44.441406 45.804688 43.191406 46.945312 41.507812 47.273438 L 41.507812 41.613281 C 43.191406 41.941406 44.441406 43.078125 44.441406 44.441406 Z M 44.441406 44.441406 " fill-opacity="1" fill-rule="nonzero"></path></svg>