<svg xmlns="http://www.w3.org/2000/svg" xmlns:xlink="http://www.w3.org/1999/xlink" width="60" viewBox="0 0 30 30.000001" height="60" preserveAspectRatio="xMidYMid meet"><defs><clipPath id="c09668b4e4"><path d="M 11 1.453125 L 14 1.453125 L 14 6 L 11 6 Z M 11 1.453125 " clip-rule="nonzero"></path></clipPath><clipPath id="ee69f5b47a"><path d="M 1.320312 8 L 5 8 L 5 11 L 1.320312 11 Z M 1.320312 8 " clip-rule="nonzero"></path></clipPath><clipPath id="b1e6ef6b36"><path d="M 16 1.453125 L 19 1.453125 L 19 6 L 16 6 Z M 16 1.453125 " clip-rule="nonzero"></path></clipPath><clipPath id="e8610dd5f3"><path d="M 25 8 L 28.902344 8 L 28.902344 11 L 25 11 Z M 25 8 " clip-rule="nonzero"></path></clipPath><clipPath id="32ac600282"><path d="M 4 8 L 26 8 L 26 27.582031 L 4 27.582031 Z M 4 8 " clip-rule="nonzero"></path></clipPath></defs><g clip-path="url(#c09668b4e4)"><path fill="#0071b8" d="M 12.546875 5.066406 L 12.421875 5.066406 C 12.148438 5.097656 11.871094 4.882812 11.839844 4.605469 L 11.535156 2.125 C 11.503906 1.847656 11.71875 1.570312 11.992188 1.539062 L 12.117188 1.539062 C 12.390625 1.511719 12.667969 1.726562 12.699219 2 L 13.003906 4.484375 C 13.035156 4.761719 12.820312 5.035156 12.546875 5.066406 Z M 12.546875 5.066406 " fill-opacity="1" fill-rule="nonzero"></path></g><path fill="#0071b8" d="M 7.242188 6.234375 L 7.148438 6.292969 C 6.902344 6.417969 6.566406 6.324219 6.441406 6.078125 L 5.277344 3.871094 C 5.15625 3.625 5.246094 3.289062 5.492188 3.167969 L 5.585938 3.105469 C 5.828125 2.980469 6.167969 3.074219 6.289062 3.320312 L 7.453125 5.527344 C 7.578125 5.773438 7.484375 6.078125 7.242188 6.234375 Z M 7.242188 6.234375 " fill-opacity="1" fill-rule="nonzero"></path><g clip-path="url(#ee69f5b47a)"><path fill="#0071b8" d="M 4.511719 10.617188 L 4.449219 10.742188 C 4.296875 10.984375 3.960938 11.046875 3.714844 10.894531 L 1.628906 9.515625 C 1.382812 9.359375 1.320312 9.023438 1.476562 8.777344 L 1.535156 8.6875 C 1.691406 8.441406 2.027344 8.378906 2.273438 8.53125 L 4.359375 9.914062 C 4.601562 10.066406 4.695312 10.402344 4.511719 10.617188 Z M 4.511719 10.617188 " fill-opacity="1" fill-rule="nonzero"></path></g><g clip-path="url(#b1e6ef6b36)"><path fill="#0071b8" d="M 17.453125 5.066406 L 17.574219 5.097656 C 17.851562 5.128906 18.125 4.945312 18.1875 4.667969 L 18.554688 2.214844 C 18.585938 1.9375 18.402344 1.664062 18.125 1.601562 L 17.972656 1.539062 C 17.699219 1.511719 17.421875 1.695312 17.359375 1.96875 L 16.992188 4.421875 C 16.960938 4.730469 17.144531 5.007812 17.453125 5.066406 Z M 17.453125 5.066406 " fill-opacity="1" fill-rule="nonzero"></path></g><path fill="#0071b8" d="M 22.789062 6.234375 L 22.878906 6.292969 C 23.125 6.417969 23.460938 6.324219 23.585938 6.078125 L 24.75 3.871094 C 24.875 3.625 24.78125 3.289062 24.535156 3.167969 L 24.445312 3.105469 C 24.199219 2.980469 23.859375 3.074219 23.738281 3.320312 L 22.574219 5.527344 C 22.417969 5.773438 22.511719 6.078125 22.789062 6.234375 Z M 22.789062 6.234375 " fill-opacity="1" fill-rule="nonzero"></path><g clip-path="url(#e8610dd5f3)"><path fill="#0071b8" d="M 25.488281 10.617188 L 25.546875 10.710938 C 25.699219 10.957031 26.039062 11.015625 26.285156 10.863281 L 28.367188 9.484375 C 28.613281 9.328125 28.675781 8.992188 28.523438 8.746094 L 28.460938 8.65625 C 28.308594 8.410156 27.96875 8.347656 27.726562 8.5 L 25.640625 9.914062 C 25.394531 10.066406 25.332031 10.402344 25.488281 10.617188 Z M 25.488281 10.617188 " fill-opacity="1" fill-rule="nonzero"></path></g><g clip-path="url(#32ac600282)"><path fill="#0071b8" d="M 25.792969 15.21875 L 21.746094 9.144531 C 21.652344 8.992188 21.46875 8.902344 21.316406 8.902344 L 9.140625 8.902344 C 8.988281 8.902344 8.804688 8.992188 8.710938 9.113281 L 4.910156 14.851562 C 4.789062 14.910156 4.695312 15.035156 4.695312 15.15625 L 4.664062 15.21875 C 4.542969 15.402344 4.542969 15.648438 4.695312 15.832031 L 14.84375 27.332031 C 14.9375 27.453125 15.089844 27.515625 15.214844 27.515625 C 15.335938 27.515625 15.488281 27.453125 15.582031 27.332031 L 25.730469 15.832031 C 25.914062 15.675781 25.914062 15.433594 25.792969 15.21875 Z M 21.347656 10.371094 L 24.320312 14.851562 L 19.78125 14.851562 Z M 20.792969 9.914062 L 19.199219 14.480469 L 15.949219 9.914062 Z M 18.617188 14.820312 L 11.71875 14.820312 L 15.152344 9.972656 Z M 14.386719 9.914062 L 11.226562 14.390625 L 9.695312 9.914062 Z M 9.109375 10.371094 L 10.644531 14.851562 L 6.136719 14.851562 Z M 5.738281 15.492188 L 10.890625 15.492188 L 14.203125 25.09375 Z M 15.214844 25.980469 L 11.59375 15.492188 L 18.832031 15.492188 Z M 16.257812 25.09375 L 19.566406 15.492188 L 24.71875 15.492188 Z M 16.257812 25.09375 " fill-opacity="1" fill-rule="nonzero"></path></g></svg>