<svg xmlns="http://www.w3.org/2000/svg" xmlns:xlink="http://www.w3.org/1999/xlink" width="40" viewBox="0 0 62.25 62.249997" height="83" preserveAspectRatio="xMidYMid meet"><defs><clipPath id="10df4b8483"><path d="M 27 6.816406 L 52 6.816406 L 52 31 L 27 31 Z M 27 6.816406 " clip-rule="nonzero"></path></clipPath><clipPath id="b8b49b9f6c"><path d="M 1 31 L 60.289062 31 L 60.289062 54.984375 L 1 54.984375 Z M 1 31 " clip-rule="nonzero"></path></clipPath></defs><g clip-path="url(#10df4b8483)"><path fill="#ffffff" d="M 39.265625 30.355469 C 45.753906 30.355469 51.035156 25.074219 51.035156 18.585938 C 51.035156 12.097656 45.753906 6.816406 39.265625 6.816406 C 32.777344 6.816406 27.496094 12.097656 27.496094 18.585938 C 27.496094 25.074219 32.777344 30.355469 39.265625 30.355469 Z M 29.453125 18.585938 C 29.453125 13.175781 33.855469 8.773438 39.265625 8.773438 C 44.675781 8.773438 49.078125 13.175781 49.078125 18.585938 C 49.078125 23.996094 44.675781 28.398438 39.265625 28.398438 C 33.855469 28.398438 29.453125 23.996094 29.453125 18.585938 Z M 29.453125 18.585938 " fill-opacity="1" fill-rule="nonzero"></path></g><path fill="#ffffff" d="M 36.390625 23.976562 C 36.898438 24.472656 37.578125 24.820312 38.320312 24.976562 L 38.3125 26.015625 C 38.308594 26.539062 38.734375 26.96875 39.257812 26.972656 L 39.265625 26.972656 C 39.785156 26.972656 40.214844 26.550781 40.21875 26.027344 L 40.226562 24.972656 C 40.96875 24.816406 41.640625 24.464844 42.148438 23.96875 C 42.734375 23.394531 43.058594 22.65625 43.058594 21.890625 L 43.058594 21.472656 C 43.058594 20.457031 42.484375 19.496094 41.53125 18.90625 L 38.132812 16.804688 C 37.738281 16.558594 37.507812 16.210938 37.507812 15.855469 L 37.507812 15.199219 C 37.507812 14.878906 37.683594 14.570312 38.007812 14.332031 C 38.355469 14.074219 38.828125 13.929688 39.332031 13.929688 C 39.835938 13.929688 40.304688 14.074219 40.65625 14.332031 C 40.976562 14.570312 41.152344 14.878906 41.152344 15.199219 L 41.152344 15.941406 C 41.152344 16.464844 41.582031 16.890625 42.105469 16.890625 C 42.628906 16.890625 43.058594 16.464844 43.058594 15.941406 L 43.058594 15.199219 C 43.058594 13.75 41.90625 12.492188 40.28125 12.128906 L 40.28125 11.148438 C 40.28125 10.625 39.855469 10.195312 39.332031 10.195312 C 38.804688 10.195312 38.378906 10.625 38.378906 11.148438 L 38.378906 12.128906 C 36.753906 12.492188 35.605469 13.75 35.605469 15.199219 L 35.605469 15.855469 C 35.605469 16.871094 36.175781 17.828125 37.132812 18.421875 L 40.527344 20.523438 C 40.925781 20.769531 41.152344 21.117188 41.152344 21.472656 L 41.152344 21.890625 C 41.152344 22.210938 40.976562 22.519531 40.65625 22.757812 C 40.304688 23.015625 39.835938 23.160156 39.332031 23.160156 L 39.203125 23.160156 C 38.699219 23.160156 38.226562 23.015625 37.878906 22.757812 C 37.554688 22.519531 37.378906 22.210938 37.378906 21.890625 L 37.378906 21.484375 C 37.378906 20.957031 36.953125 20.53125 36.425781 20.53125 C 35.902344 20.53125 35.472656 20.957031 35.472656 21.484375 L 35.472656 21.890625 C 35.472656 22.660156 35.800781 23.398438 36.390625 23.976562 Z M 36.390625 23.976562 " fill-opacity="1" fill-rule="nonzero"></path><g clip-path="url(#b8b49b9f6c)"><path fill="#ffffff" d="M 59.121094 33.183594 C 57.792969 31.707031 55.671875 31.5625 54.179688 32.835938 L 45.4375 39.910156 C 45.441406 39.824219 45.445312 39.734375 45.441406 39.648438 C 45.40625 37.539062 43.75 35.824219 41.75 35.824219 L 32.042969 35.824219 C 31.484375 35.824219 30.957031 35.5 30.632812 34.960938 C 30.5625 34.84375 30.464844 34.746094 30.359375 34.664062 C 26.386719 31.527344 21.042969 31.117188 16.472656 33.148438 L 14.78125 33.898438 L 11.386719 33.898438 L 11.386719 32.351562 C 11.386719 31.792969 10.933594 31.34375 10.378906 31.34375 L 2.011719 31.34375 C 1.453125 31.34375 1.003906 31.792969 1.003906 32.351562 L 1.003906 50.984375 C 1.003906 51.542969 1.453125 51.992188 2.011719 51.992188 L 10.378906 51.992188 C 10.933594 51.992188 11.386719 51.542969 11.386719 50.984375 L 11.386719 49.386719 L 14.839844 49.386719 L 26.789062 53.183594 C 29.5 54.183594 31.773438 54.683594 34.042969 54.683594 C 35.867188 54.683594 37.6875 54.363281 39.734375 53.71875 C 39.921875 53.660156 40.113281 53.597656 40.304688 53.535156 C 40.71875 53.375 41.121094 53.183594 41.511719 52.96875 C 41.828125 52.789062 42.132812 52.582031 42.417969 52.351562 L 59.117188 38.726562 C 59.171875 38.679688 59.21875 38.628906 59.265625 38.574219 C 60.507812 37.023438 60.441406 34.652344 59.121094 33.183594 Z M 9.371094 49.980469 L 3.019531 49.980469 L 3.019531 33.359375 L 9.371094 33.359375 Z M 57.75 37.238281 L 42.175781 49.945312 C 40.8125 51.054688 39.21875 51.84375 37.511719 52.246094 C 34.125 53.035156 31.332031 52.714844 27.46875 51.285156 C 27.453125 51.277344 27.4375 51.273438 27.421875 51.269531 L 15.300781 47.417969 C 15.199219 47.386719 15.097656 47.371094 14.996094 47.371094 L 11.386719 47.371094 L 11.386719 35.914062 L 14.996094 35.914062 C 15.136719 35.914062 15.277344 35.886719 15.402344 35.828125 L 17.289062 34.992188 C 21.144531 33.277344 25.515625 33.726562 29.027344 36.1875 C 29.730469 37.226562 30.84375 37.839844 32.042969 37.839844 L 41.75 37.839844 C 42.660156 37.839844 43.410156 38.667969 43.425781 39.683594 C 43.4375 40.242188 43.234375 40.777344 42.871094 41.144531 C 42.695312 41.324219 42.488281 41.457031 42.265625 41.527344 C 41.976562 41.574219 41.6875 41.597656 41.394531 41.597656 L 30.597656 41.597656 C 30.042969 41.597656 29.582031 42.039062 29.574219 42.59375 C 29.566406 43.15625 30.019531 43.613281 30.582031 43.613281 L 41.835938 43.613281 C 42.140625 43.613281 42.4375 43.574219 42.726562 43.496094 C 43.980469 43.269531 45.167969 42.71875 46.210938 41.878906 L 55.460938 34.394531 C 55.46875 34.386719 55.476562 34.382812 55.484375 34.375 C 56.136719 33.8125 57.035156 33.878906 57.621094 34.53125 C 58.269531 35.253906 58.320312 36.449219 57.75 37.238281 Z M 57.75 37.238281 " fill-opacity="1" fill-rule="nonzero"></path></g></svg>