<svg xmlns="http://www.w3.org/2000/svg" xmlns:xlink="http://www.w3.org/1999/xlink" width="40" viewBox="0 0 62.25 62.249997" height="40" preserveAspectRatio="xMidYMid meet"><defs><clipPath id="cca33b68d5"><path d="M 0.816406 0.519531 L 60.84375 0.519531 L 60.84375 60.546875 L 0.816406 60.546875 Z M 0.816406 0.519531 " clip-rule="nonzero"></path></clipPath></defs><path fill="#ffffff" d="M 52.808594 53.851562 C 52.511719 54.132812 52.207031 54.410156 51.898438 54.679688 L 52.722656 55.625 C 53.042969 55.34375 53.359375 55.058594 53.667969 54.765625 Z M 52.808594 53.851562 " fill-opacity="1" fill-rule="nonzero"></path><path fill="#ffffff" d="M 57.550781 48.222656 C 57.324219 48.566406 57.09375 48.902344 56.851562 49.234375 L 57.871094 49.96875 C 58.117188 49.621094 58.363281 49.273438 58.597656 48.917969 Z M 57.550781 48.222656 " fill-opacity="1" fill-rule="nonzero"></path><path fill="#ffffff" d="M 49.699219 57.972656 L 48.988281 56.941406 C 48.648438 57.171875 48.308594 57.398438 47.960938 57.617188 L 48.632812 58.675781 C 48.992188 58.449219 49.347656 58.214844 49.699219 57.972656 Z M 49.699219 57.972656 " fill-opacity="1" fill-rule="nonzero"></path><path fill="#ffffff" d="M 57.105469 50.988281 L 56.117188 50.21875 C 55.863281 50.542969 55.605469 50.859375 55.34375 51.171875 L 56.300781 51.980469 C 56.574219 51.65625 56.84375 51.324219 57.105469 50.988281 Z M 57.105469 50.988281 " fill-opacity="1" fill-rule="nonzero"></path><path fill="#ffffff" d="M 54.53125 52.097656 C 54.253906 52.402344 53.972656 52.699219 53.6875 52.992188 L 54.582031 53.871094 C 54.878906 53.566406 55.171875 53.257812 55.457031 52.941406 Z M 54.53125 52.097656 " fill-opacity="1" fill-rule="nonzero"></path><path fill="#ffffff" d="M 51.746094 56.445312 L 50.957031 55.46875 C 50.636719 55.726562 50.316406 55.980469 49.988281 56.222656 L 50.734375 57.230469 C 51.078125 56.972656 51.414062 56.710938 51.746094 56.445312 Z M 51.746094 56.445312 " fill-opacity="1" fill-rule="nonzero"></path><path fill="#ffffff" d="M 11.511719 3.644531 C 11.167969 3.894531 10.824219 4.148438 10.492188 4.410156 L 11.261719 5.398438 C 11.585938 5.144531 11.914062 4.898438 12.246094 4.660156 Z M 11.511719 3.644531 " fill-opacity="1" fill-rule="nonzero"></path><path fill="#ffffff" d="M 13.308594 2.433594 C 13.058594 2.589844 12.808594 2.753906 12.5625 2.917969 L 13.253906 3.960938 C 13.492188 3.800781 13.734375 3.648438 13.976562 3.496094 Z M 13.308594 2.433594 " fill-opacity="1" fill-rule="nonzero"></path><path fill="#ffffff" d="M 8.492188 7.828125 L 7.613281 6.9375 C 7.308594 7.234375 7.011719 7.539062 6.71875 7.847656 L 7.632812 8.707031 C 7.910156 8.410156 8.199219 8.117188 8.492188 7.828125 Z M 8.492188 7.828125 " fill-opacity="1" fill-rule="nonzero"></path><path fill="#ffffff" d="M 3.511719 11.820312 L 4.546875 12.53125 C 4.777344 12.195312 5.015625 11.863281 5.261719 11.535156 L 4.257812 10.785156 C 4.003906 11.125 3.753906 11.472656 3.511719 11.820312 Z M 3.511719 11.820312 " fill-opacity="1" fill-rule="nonzero"></path><path fill="#ffffff" d="M 9.5 5.214844 C 9.171875 5.488281 8.851562 5.769531 8.539062 6.058594 L 9.382812 6.984375 C 9.6875 6.707031 9.992188 6.4375 10.308594 6.171875 Z M 9.5 5.214844 " fill-opacity="1" fill-rule="nonzero"></path><path fill="#ffffff" d="M 5.039062 9.773438 L 6.015625 10.5625 C 6.273438 10.242188 6.535156 9.929688 6.804688 9.621094 L 5.859375 8.796875 C 5.582031 9.117188 5.308594 9.441406 5.039062 9.773438 Z M 5.039062 9.773438 " fill-opacity="1" fill-rule="nonzero"></path><g clip-path="url(#cca33b68d5)"><path fill="#ffffff" d="M 30.898438 0.519531 C 14.308594 0.519531 0.816406 14.015625 0.816406 30.601562 C 0.816406 47.1875 14.308594 60.683594 30.898438 60.683594 C 47.484375 60.683594 60.980469 47.1875 60.980469 30.601562 C 60.980469 14.015625 47.484375 0.519531 30.898438 0.519531 Z M 30.898438 59.429688 C 15 59.429688 2.070312 46.5 2.070312 30.601562 C 2.070312 14.707031 15 1.773438 30.898438 1.773438 C 46.792969 1.773438 59.726562 14.707031 59.726562 30.601562 C 59.726562 46.5 46.792969 59.429688 30.898438 59.429688 Z M 30.898438 59.429688 " fill-opacity="1" fill-rule="nonzero"></path></g><path fill="#ffffff" d="M 30.898438 3.652344 C 16.039062 3.652344 3.949219 15.742188 3.949219 30.601562 C 3.949219 45.460938 16.039062 57.550781 30.898438 57.550781 C 45.757812 57.550781 57.847656 45.460938 57.847656 30.601562 C 57.847656 15.742188 45.757812 3.652344 30.898438 3.652344 Z M 56.578125 31.226562 C 56.476562 35.398438 55.386719 39.328125 53.515625 42.78125 C 53.339844 42.683594 53.164062 42.59375 52.988281 42.488281 L 52.335938 43.558594 C 52.519531 43.667969 52.710938 43.765625 52.894531 43.867188 C 51.925781 45.472656 50.777344 46.957031 49.492188 48.308594 L 47.238281 46.054688 L 46.351562 46.941406 L 48.605469 49.195312 C 47.957031 49.8125 47.28125 50.394531 46.574219 50.941406 L 46.429688 50.996094 C 46.4375 51.011719 46.441406 51.023438 46.445312 51.039062 C 42.28125 54.21875 37.121094 56.144531 31.523438 56.28125 L 31.523438 53.082031 L 30.269531 53.082031 L 30.269531 56.28125 C 23.660156 56.121094 17.664062 53.457031 13.191406 49.195312 L 15.445312 46.941406 L 14.558594 46.054688 L 12.304688 48.308594 C 8.042969 43.835938 5.378906 37.839844 5.21875 31.226562 L 8.417969 31.226562 L 8.417969 29.976562 L 5.21875 29.976562 C 5.378906 23.363281 8.042969 17.367188 12.304688 12.894531 L 14.558594 15.148438 L 15.445312 14.261719 L 13.191406 12.007812 C 17.660156 7.746094 23.660156 5.082031 30.269531 4.921875 L 30.269531 8.121094 L 31.523438 8.121094 L 31.523438 4.921875 C 38.136719 5.082031 44.132812 7.746094 48.605469 12.007812 L 46.351562 14.261719 L 47.238281 15.148438 L 49.492188 12.894531 C 53.753906 17.367188 56.417969 23.363281 56.578125 29.976562 L 53.378906 29.976562 L 53.378906 31.226562 Z M 56.578125 31.226562 " fill-opacity="1" fill-rule="nonzero"></path><path fill="#ffffff" d="M 28.609375 30.601562 C 28.609375 31.863281 29.636719 32.890625 30.898438 32.890625 C 32.160156 32.890625 33.1875 31.863281 33.1875 30.601562 C 33.1875 29.558594 32.480469 28.683594 31.523438 28.410156 L 31.523438 13.691406 L 32.269531 14.4375 L 33.15625 13.550781 L 30.894531 11.292969 L 28.636719 13.550781 L 29.523438 14.4375 L 30.269531 13.6875 L 30.269531 28.410156 C 29.3125 28.6875 28.609375 29.558594 28.609375 30.601562 Z M 31.933594 30.601562 C 31.933594 31.171875 31.46875 31.636719 30.898438 31.636719 C 30.328125 31.636719 29.863281 31.171875 29.863281 30.601562 C 29.863281 30.03125 30.328125 29.566406 30.898438 29.566406 C 31.46875 29.566406 31.933594 30.03125 31.933594 30.601562 Z M 31.933594 30.601562 " fill-opacity="1" fill-rule="nonzero"></path><path fill="#ffffff" d="M 21.691406 17.730469 L 20.917969 16.746094 C 16.6875 20.058594 14.199219 25.027344 14.101562 30.382812 L 15.355469 30.40625 C 15.445312 25.429688 17.757812 20.8125 21.691406 17.730469 Z M 21.691406 17.730469 " fill-opacity="1" fill-rule="nonzero"></path><path fill="#ffffff" d="M 26.863281 15 L 26.484375 13.804688 C 25.140625 14.230469 23.84375 14.820312 22.632812 15.558594 L 23.285156 16.628906 C 24.410156 15.945312 25.613281 15.398438 26.863281 15 Z M 26.863281 15 " fill-opacity="1" fill-rule="nonzero"></path><path fill="#ffffff" d="M 23.632812 20.585938 L 22.84375 19.613281 C 19.578125 22.261719 17.648438 26.1875 17.550781 30.378906 L 18.800781 30.410156 C 18.890625 26.585938 20.652344 23.003906 23.632812 20.585938 Z M 23.632812 20.585938 " fill-opacity="1" fill-rule="nonzero"></path><path fill="#ffffff" d="M 25.167969 19.511719 C 25.949219 19.046875 26.78125 18.660156 27.640625 18.367188 L 27.238281 17.183594 C 26.292969 17.503906 25.382812 17.925781 24.523438 18.4375 Z M 25.167969 19.511719 " fill-opacity="1" fill-rule="nonzero"></path><path fill="#ffffff" d="M 22.535156 28.335938 L 21.320312 28.023438 C 21.125 28.789062 21.011719 29.578125 20.988281 30.375 L 22.242188 30.414062 C 22.265625 29.710938 22.363281 29.011719 22.535156 28.335938 Z M 22.535156 28.335938 " fill-opacity="1" fill-rule="nonzero"></path><path fill="#ffffff" d="M 21.753906 26.691406 L 22.917969 27.160156 C 23.898438 24.710938 25.863281 22.753906 28.308594 21.785156 L 27.847656 20.621094 C 25.082031 21.714844 22.863281 23.929688 21.753906 26.691406 Z M 21.753906 26.691406 " fill-opacity="1" fill-rule="nonzero"></path><path fill="#ffffff" d="M 38.890625 41.785156 C 39.234375 42 39.570312 42.222656 39.898438 42.457031 L 40.628906 41.4375 C 40.28125 41.1875 39.917969 40.945312 39.554688 40.71875 Z M 38.890625 41.785156 " fill-opacity="1" fill-rule="nonzero"></path><path fill="#ffffff" d="M 41.65625 42.226562 L 40.863281 43.195312 C 41.175781 43.453125 41.476562 43.71875 41.773438 43.996094 L 42.628906 43.082031 C 42.316406 42.785156 41.988281 42.5 41.65625 42.226562 Z M 41.65625 42.226562 " fill-opacity="1" fill-rule="nonzero"></path><path fill="#ffffff" d="M 43.542969 43.996094 L 42.628906 44.851562 C 42.90625 45.148438 43.171875 45.453125 43.425781 45.765625 L 44.398438 44.96875 C 44.125 44.640625 43.839844 44.3125 43.542969 43.996094 Z M 43.542969 43.996094 " fill-opacity="1" fill-rule="nonzero"></path><path fill="#ffffff" d="M 45.972656 49.875 L 47.113281 49.359375 C 46.941406 48.972656 46.75 48.582031 46.546875 48.199219 L 45.4375 48.785156 C 45.628906 49.144531 45.808594 49.511719 45.972656 49.875 Z M 45.972656 49.875 " fill-opacity="1" fill-rule="nonzero"></path><path fill="#ffffff" d="M 45.183594 45.996094 L 44.164062 46.726562 C 44.398438 47.054688 44.625 47.390625 44.835938 47.734375 L 45.902344 47.074219 C 45.675781 46.707031 45.433594 46.34375 45.183594 45.996094 Z M 45.183594 45.996094 " fill-opacity="1" fill-rule="nonzero"></path><path fill="#ffffff" d="M 32.125 39.261719 C 32.523438 39.324219 32.921875 39.402344 33.3125 39.492188 L 33.59375 38.269531 C 33.175781 38.175781 32.75 38.089844 32.320312 38.023438 Z M 32.125 39.261719 " fill-opacity="1" fill-rule="nonzero"></path><path fill="#ffffff" d="M 36.753906 40.644531 C 37.125 40.8125 37.488281 40.992188 37.84375 41.179688 L 38.433594 40.074219 C 38.054688 39.871094 37.664062 39.679688 37.269531 39.503906 Z M 36.753906 40.644531 " fill-opacity="1" fill-rule="nonzero"></path><path fill="#ffffff" d="M 34.484375 39.800781 C 34.871094 39.914062 35.257812 40.042969 35.632812 40.183594 L 36.070312 39.011719 C 35.667969 38.859375 35.253906 38.722656 34.84375 38.597656 Z M 34.484375 39.800781 " fill-opacity="1" fill-rule="nonzero"></path><path fill="#ffffff" d="M 31.320312 34.421875 L 29.640625 34.207031 L 27.917969 37.859375 L 23.773438 38.085938 L 24.285156 32.09375 L 22.125 31.816406 L 19.042969 38.351562 C 18.191406 38.375 16.257812 38.441406 14.195312 39.960938 C 13.726562 40.308594 13.484375 40.878906 13.558594 41.457031 C 13.820312 43.4375 17.707031 43.574219 19.671875 43.097656 L 24.332031 48.609375 L 26.34375 47.78125 L 24.300781 42.125 L 28.367188 41.277344 L 30.972656 44.355469 L 32.539062 43.71875 L 30.910156 39.203125 Z M 28.84375 39.894531 L 22.632812 41.195312 L 24.757812 47.078125 L 24.699219 47.101562 L 20.183594 41.761719 C 19.070312 41.871094 17.425781 42.574219 15.007812 41.5625 C 14.851562 41.5 14.8125 41.367188 14.800781 41.292969 C 14.792969 41.234375 14.792969 41.082031 14.972656 40.945312 C 17.105469 39.371094 19.015625 39.675781 19.566406 39.574219 L 19.882812 39.511719 L 22.871094 33.175781 L 22.933594 33.183594 L 22.398438 39.417969 L 28.730469 39.066406 L 29.871094 36.65625 L 29.636719 39.371094 L 30.5625 41.929688 Z M 28.84375 39.894531 " fill-opacity="1" fill-rule="nonzero"></path><path fill="#ffffff" d="M 35.945312 27.988281 L 41.601562 25.945312 L 42.449219 30.011719 L 39.371094 32.617188 L 40.007812 34.183594 L 44.523438 32.554688 L 49.304688 32.960938 L 49.519531 31.285156 L 45.867188 29.558594 L 45.640625 25.417969 L 51.632812 25.929688 L 51.910156 23.769531 L 45.375 20.6875 C 45.351562 19.835938 45.285156 17.902344 43.765625 15.839844 C 43.417969 15.371094 42.847656 15.132812 42.269531 15.203125 C 41.699219 15.277344 41.226562 15.640625 41.007812 16.167969 C 40.015625 18.53125 40.429688 20.488281 40.628906 21.316406 L 35.117188 25.972656 Z M 41.964844 21.828125 C 41.851562 20.664062 41.144531 19.082031 42.164062 16.652344 C 42.230469 16.496094 42.359375 16.457031 42.480469 16.441406 C 42.542969 16.441406 42.664062 16.460938 42.78125 16.617188 C 44.355469 18.75 44.050781 20.660156 44.152344 21.210938 L 44.214844 21.523438 L 50.550781 24.515625 L 50.542969 24.578125 L 44.308594 24.042969 L 44.660156 30.375 L 47.070312 31.511719 L 44.355469 31.28125 L 41.796875 32.203125 L 43.832031 30.484375 L 42.53125 24.277344 L 36.648438 26.402344 L 36.625 26.34375 Z M 41.964844 21.828125 " fill-opacity="1" fill-rule="nonzero"></path><path fill="#ffffff" d="M 47.742188 37.519531 L 46.726562 38.253906 C 46.96875 38.589844 47.230469 38.929688 47.511719 39.277344 L 48.484375 38.484375 C 48.21875 38.160156 47.972656 37.835938 47.742188 37.519531 Z M 47.742188 37.519531 " fill-opacity="1" fill-rule="nonzero"></path><path fill="#ffffff" d="M 44.515625 33.214844 C 44.054688 33.542969 44.210938 33.867188 44.734375 34.9375 L 45.863281 34.386719 C 45.589844 33.835938 45.464844 33.507812 45.464844 33.503906 L 44.878906 33.722656 Z M 44.515625 33.214844 " fill-opacity="1" fill-rule="nonzero"></path><path fill="#ffffff" d="M 46.429688 35.464844 L 45.335938 36.082031 C 45.53125 36.425781 45.753906 36.796875 46.003906 37.1875 L 47.058594 36.511719 C 46.820312 36.140625 46.613281 35.789062 46.429688 35.464844 Z M 46.429688 35.464844 " fill-opacity="1" fill-rule="nonzero"></path><path fill="#ffffff" d="M 50.226562 42.042969 C 50.5625 42.324219 50.910156 42.589844 51.253906 42.839844 L 51.984375 41.820312 C 51.664062 41.589844 51.34375 41.339844 51.03125 41.082031 Z M 50.226562 42.042969 " fill-opacity="1" fill-rule="nonzero"></path><path fill="#ffffff" d="M 48.355469 40.253906 C 48.640625 40.566406 48.941406 40.875 49.261719 41.179688 L 50.128906 40.273438 C 49.832031 39.988281 49.546875 39.699219 49.28125 39.40625 Z M 48.355469 40.253906 " fill-opacity="1" fill-rule="nonzero"></path></svg>