<svg xmlns="http://www.w3.org/2000/svg" xmlns:xlink="http://www.w3.org/1999/xlink" width="40" viewBox="0 0 375 374.999991" height="500" preserveAspectRatio="xMidYMid meet"><defs><clipPath id="cd4375ff8f"><path d="M 9.414062 9.414062 L 365.664062 9.414062 L 365.664062 365.664062 L 9.414062 365.664062 Z M 9.414062 9.414062 " clip-rule="nonzero"></path></clipPath></defs><g clip-path="url(#cd4375ff8f)"><path fill="#ffffff" d="M 187.496094 365.578125 C 139.925781 365.578125 95.207031 347.054688 61.570312 313.417969 C 27.9375 279.78125 9.414062 235.0625 9.414062 187.496094 C 9.414062 139.925781 27.9375 95.207031 61.570312 61.570312 C 95.207031 27.9375 139.925781 9.414062 187.496094 9.414062 C 235.0625 9.414062 279.78125 27.9375 313.417969 61.570312 C 347.054688 95.207031 365.578125 139.925781 365.578125 187.496094 C 365.578125 235.0625 347.054688 279.78125 313.417969 313.417969 C 279.78125 347.054688 235.0625 365.578125 187.496094 365.578125 Z M 187.496094 20.941406 C 143.007812 20.941406 101.183594 38.265625 69.722656 69.722656 C 38.265625 101.183594 20.941406 143.007812 20.941406 187.496094 C 20.941406 231.984375 38.265625 273.808594 69.722656 305.265625 C 101.183594 336.722656 143.007812 354.046875 187.496094 354.046875 C 231.984375 354.046875 273.808594 336.722656 305.265625 305.265625 C 336.722656 273.808594 354.046875 231.984375 354.046875 187.496094 C 354.046875 143.007812 336.722656 101.183594 305.265625 69.722656 C 273.808594 38.265625 231.984375 20.941406 187.496094 20.941406 Z M 187.496094 164.417969 C 168.976562 164.417969 153.90625 145.03125 153.90625 121.199219 C 153.90625 97.367188 168.976562 77.980469 187.496094 77.980469 C 206.015625 77.980469 221.082031 97.367188 221.082031 121.199219 C 221.082031 145.03125 206.015625 164.417969 187.496094 164.417969 Z M 108.78125 173.953125 C 101.914062 173.953125 95.460938 170.625 90.527344 164.515625 C 85.792969 158.648438 83 150.796875 82.664062 142.410156 C 82.324219 134.023438 84.480469 125.976562 88.730469 119.746094 C 93.339844 112.988281 99.835938 109.109375 107.019531 108.820312 C 114.207031 108.535156 120.992188 111.878906 126.128906 118.242188 C 130.867188 124.109375 133.660156 131.960938 133.996094 140.347656 C 134.332031 148.734375 132.179688 156.785156 127.929688 163.011719 C 123.320312 169.769531 116.824219 173.648438 109.636719 173.9375 C 109.351562 173.949219 109.066406 173.953125 108.78125 173.953125 Z M 266.210938 173.953125 C 265.925781 173.953125 265.640625 173.949219 265.351562 173.9375 C 258.167969 173.648438 251.671875 169.769531 247.0625 163.011719 C 242.8125 156.785156 240.65625 148.734375 240.992188 140.347656 C 241.332031 131.960938 244.125 124.109375 248.859375 118.242188 C 253.996094 111.878906 260.761719 108.542969 267.96875 108.820312 C 275.152344 109.109375 281.652344 112.992188 286.261719 119.746094 C 290.511719 125.976562 292.664062 134.023438 292.328125 142.410156 C 291.992188 150.796875 289.195312 158.648438 284.460938 164.515625 C 279.527344 170.625 273.074219 173.953125 266.210938 173.953125 Z M 246.753906 140.578125 L 246.761719 140.578125 Z M 236.636719 267.238281 L 140.253906 267.238281 C 122.710938 267.238281 108.441406 252.964844 108.441406 235.425781 C 108.441406 219.429688 119.144531 202.984375 138.582031 189.117188 C 152.039062 179.519531 169.519531 174.195312 187.808594 174.121094 C 206.414062 174.023438 224.335938 179.496094 238.207031 189.46875 C 244.816406 194.222656 266.402344 211.578125 266.546875 235.386719 C 266.574219 239.6875 266.632812 249.753906 258.980469 257.992188 C 251.285156 266.28125 240.808594 267.21875 236.660156 267.238281 C 236.652344 267.238281 236.644531 267.238281 236.636719 267.238281 Z M 102.351562 254.511719 L 81.039062 254.511719 C 78.0625 254.511719 70.460938 253.835938 64.144531 247.609375 C 59.632812 243.160156 57.148438 237.246094 57.148438 230.953125 C 57.148438 222.984375 60.640625 215.015625 67.527344 207.261719 C 71.535156 202.753906 75.847656 198.980469 80.351562 196.039062 C 90.007812 189.734375 101.1875 185.992188 113.578125 184.914062 L 124.785156 183.941406 L 116.402344 191.339844 C 111.113281 196.015625 104.015625 204.105469 100.273438 216.113281 C 95.734375 230.671875 98.601562 243.378906 100.714844 249.65625 Z M 293.953125 254.511719 L 272.640625 254.511719 L 274.273438 249.65625 C 276.386719 243.378906 279.257812 230.671875 274.71875 216.113281 C 270.972656 204.105469 263.878906 196.015625 258.585938 191.339844 L 250.203125 183.941406 L 261.410156 184.914062 C 273.800781 185.992188 284.980469 189.734375 294.636719 196.039062 C 299.140625 198.980469 303.457031 202.753906 307.460938 207.261719 C 314.351562 215.015625 317.84375 222.984375 317.84375 230.953125 C 317.84375 237.246094 315.359375 243.160156 310.84375 247.609375 C 304.53125 253.835938 296.925781 254.511719 293.953125 254.511719 Z M 293.953125 254.511719 " fill-opacity="1" fill-rule="nonzero"></path></g></svg>