<svg xmlns="http://www.w3.org/2000/svg" xmlns:xlink="http://www.w3.org/1999/xlink" width="40" viewBox="0 0 375 374.999991" height="500" preserveAspectRatio="xMidYMid meet"><defs><clipPath id="bc4978f0f6"><path d="M 238 151 L 361.667969 151 L 361.667969 238 L 238 238 Z M 238 151 " clip-rule="nonzero"></path></clipPath><clipPath id="1b1af29fe2"><path d="M 58 122 L 361.667969 122 L 361.667969 267 L 58 267 Z M 58 122 " clip-rule="nonzero"></path></clipPath><clipPath id="4618c4ab1c"><path d="M 217 93 L 361.667969 93 L 361.667969 109 L 217 109 Z M 217 93 " clip-rule="nonzero"></path></clipPath><clipPath id="d94dc15aa1"><path d="M 173 266 L 361.667969 266 L 361.667969 296 L 173 296 Z M 173 266 " clip-rule="nonzero"></path></clipPath></defs><path fill="#ffffff" d="M 72.816406 165.855469 C 72.816406 166.800781 72.769531 167.742188 72.675781 168.683594 C 72.582031 169.625 72.445312 170.558594 72.261719 171.484375 C 72.078125 172.410156 71.847656 173.328125 71.574219 174.230469 C 71.296875 175.136719 70.980469 176.023438 70.617188 176.898438 C 70.257812 177.769531 69.855469 178.625 69.410156 179.457031 C 68.964844 180.289062 68.476562 181.097656 67.953125 181.886719 C 67.429688 182.671875 66.867188 183.429688 66.265625 184.160156 C 65.667969 184.890625 65.03125 185.589844 64.363281 186.257812 C 63.695312 186.925781 62.996094 187.558594 62.265625 188.160156 C 61.535156 188.757812 60.777344 189.320312 59.992188 189.84375 C 59.207031 190.371094 58.398438 190.855469 57.5625 191.300781 C 56.730469 191.746094 55.878906 192.148438 55.003906 192.511719 C 54.132812 192.871094 53.242188 193.191406 52.339844 193.464844 C 51.433594 193.738281 50.519531 193.96875 49.59375 194.152344 C 48.664062 194.335938 47.730469 194.476562 46.792969 194.570312 C 45.851562 194.660156 44.910156 194.707031 43.964844 194.707031 C 43.019531 194.707031 42.074219 194.660156 41.136719 194.570312 C 40.195312 194.476562 39.261719 194.335938 38.335938 194.152344 C 37.410156 193.96875 36.492188 193.738281 35.589844 193.464844 C 34.683594 193.191406 33.796875 192.871094 32.921875 192.511719 C 32.050781 192.148438 31.195312 191.746094 30.363281 191.300781 C 29.53125 190.855469 28.71875 190.371094 27.933594 189.84375 C 27.148438 189.320312 26.390625 188.757812 25.660156 188.160156 C 24.929688 187.558594 24.230469 186.925781 23.5625 186.257812 C 22.894531 185.589844 22.261719 184.890625 21.660156 184.160156 C 21.0625 183.429688 20.5 182.671875 19.972656 181.886719 C 19.449219 181.097656 18.964844 180.289062 18.519531 179.457031 C 18.074219 178.625 17.671875 177.769531 17.308594 176.898438 C 16.945312 176.023438 16.628906 175.136719 16.355469 174.230469 C 16.082031 173.328125 15.851562 172.410156 15.667969 171.484375 C 15.480469 170.558594 15.34375 169.625 15.25 168.683594 C 15.160156 167.742188 15.113281 166.800781 15.113281 165.855469 C 15.113281 164.910156 15.160156 163.96875 15.25 163.027344 C 15.34375 162.085938 15.480469 161.152344 15.667969 160.226562 C 15.851562 159.300781 16.082031 158.386719 16.355469 157.480469 C 16.628906 156.578125 16.945312 155.6875 17.308594 154.816406 C 17.671875 153.941406 18.074219 153.089844 18.519531 152.253906 C 18.964844 151.421875 19.449219 150.613281 19.972656 149.828125 C 20.5 149.042969 21.0625 148.285156 21.660156 147.554688 C 22.261719 146.824219 22.894531 146.125 23.5625 145.453125 C 24.230469 144.785156 24.929688 144.152344 25.660156 143.554688 C 26.390625 142.953125 27.148438 142.390625 27.933594 141.867188 C 28.71875 141.34375 29.53125 140.855469 30.363281 140.410156 C 31.195312 139.964844 32.050781 139.5625 32.921875 139.199219 C 33.796875 138.839844 34.683594 138.519531 35.589844 138.246094 C 36.492188 137.972656 37.410156 137.742188 38.335938 137.558594 C 39.261719 137.375 40.195312 137.234375 41.136719 137.144531 C 42.074219 137.050781 43.019531 137.003906 43.964844 137.003906 C 44.910156 137.003906 45.851562 137.050781 46.792969 137.144531 C 47.730469 137.234375 48.664062 137.375 49.59375 137.558594 C 50.519531 137.742188 51.433594 137.972656 52.339844 138.246094 C 53.242188 138.519531 54.132812 138.839844 55.003906 139.199219 C 55.878906 139.5625 56.730469 139.964844 57.5625 140.410156 C 58.398438 140.855469 59.207031 141.34375 59.992188 141.867188 C 60.777344 142.390625 61.535156 142.953125 62.265625 143.554688 C 62.996094 144.152344 63.695312 144.785156 64.363281 145.453125 C 65.03125 146.125 65.667969 146.824219 66.265625 147.554688 C 66.867188 148.285156 67.429688 149.042969 67.953125 149.828125 C 68.476562 150.613281 68.964844 151.421875 69.410156 152.253906 C 69.855469 153.089844 70.257812 153.941406 70.617188 154.816406 C 70.980469 155.6875 71.296875 156.578125 71.574219 157.480469 C 71.847656 158.386719 72.078125 159.300781 72.261719 160.226562 C 72.445312 161.152344 72.582031 162.085938 72.675781 163.027344 C 72.769531 163.96875 72.816406 164.910156 72.816406 165.855469 Z M 72.816406 165.855469 " fill-opacity="1" fill-rule="nonzero"></path><g clip-path="url(#bc4978f0f6)"><path fill="#ffffff" d="M 354.117188 237.984375 C 350.136719 237.984375 346.902344 234.753906 346.902344 230.773438 C 346.902344 219.980469 305.097656 165.855469 245.925781 165.855469 C 241.941406 165.855469 238.710938 162.625 238.710938 158.644531 C 238.710938 154.660156 241.941406 151.429688 245.925781 151.429688 C 310.148438 151.429688 361.328125 208.410156 361.328125 230.773438 C 361.328125 234.753906 358.097656 237.984375 354.117188 237.984375 Z M 354.117188 237.984375 " fill-opacity="1" fill-rule="nonzero"></path></g><g clip-path="url(#1b1af29fe2)"><path fill="#ffffff" d="M 354.117188 223.558594 L 289.027344 223.558594 C 279.390625 223.558594 271.066406 217.355469 268.285156 208.136719 L 252.359375 155.410156 L 237.933594 126.558594 C 236.71875 124.121094 234.226562 122.578125 231.5 122.578125 L 209.859375 122.578125 C 207.941406 122.578125 206.109375 123.34375 204.753906 124.683594 L 178.023438 151.429688 L 65.601562 151.429688 C 61.621094 151.429688 58.390625 154.660156 58.390625 158.644531 L 58.390625 173.070312 C 58.390625 176.589844 60.941406 179.605469 64.417969 180.179688 C 90.847656 184.59375 135.839844 195.429688 146.171875 206.0625 L 146.632812 206.953125 C 160.265625 233.644531 177.242188 266.835938 209.859375 266.835938 L 310.839844 266.835938 C 339.617188 266.835938 361.328125 251.328125 361.328125 230.773438 C 361.328125 226.789062 358.097656 223.558594 354.117188 223.558594 Z M 354.117188 223.558594 " fill-opacity="1" fill-rule="nonzero"></path></g><path fill="#ffffff" d="M 36.691406 144.507812 L 43.15625 144.765625 L 44.945312 148.328125 C 46.214844 150.851562 48.765625 152.308594 51.394531 152.308594 C 52.476562 152.308594 53.570312 152.066406 54.625 151.546875 C 58.1875 149.757812 59.628906 145.429688 57.855469 141.867188 L 43.429688 113.015625 C 41.726562 109.609375 37.628906 108.125 34.109375 109.652344 L 19.46875 115.957031 C 16.035156 117.445312 14.289062 121.308594 15.472656 124.859375 L 22.6875 146.496094 C 23.96875 150.277344 28.066406 152.308594 31.816406 151.054688 C 34.746094 150.089844 36.578125 147.421875 36.691406 144.507812 Z M 36.691406 144.507812 " fill-opacity="1" fill-rule="nonzero"></path><path fill="#ffffff" d="M 54.40625 181.046875 C 50.859375 179.300781 46.515625 180.714844 44.726562 184.277344 L 43.820312 186.066406 C 43.15625 182.761719 40.242188 180.28125 36.75 180.28125 C 32.769531 180.28125 29.539062 183.511719 29.539062 187.496094 L 29.539062 201.921875 C 29.539062 205.902344 32.769531 209.132812 36.75 209.132812 L 43.964844 209.132812 C 46.691406 209.132812 49.1875 207.589844 50.410156 205.152344 L 57.625 190.726562 C 59.398438 187.164062 57.972656 182.820312 54.40625 181.046875 Z M 54.40625 181.046875 " fill-opacity="1" fill-rule="nonzero"></path><path fill="#ffffff" d="M 224.285156 100.941406 C 220.304688 100.941406 217.074219 97.707031 217.074219 93.726562 L 217.074219 86.515625 C 217.074219 82.53125 220.304688 79.300781 224.285156 79.300781 C 228.265625 79.300781 231.5 82.53125 231.5 86.515625 L 231.5 93.726562 C 231.5 97.707031 228.265625 100.941406 224.285156 100.941406 Z M 224.285156 100.941406 " fill-opacity="1" fill-rule="nonzero"></path><g clip-path="url(#4618c4ab1c)"><path fill="#ffffff" d="M 354.117188 108.152344 L 224.285156 108.152344 C 220.304688 108.152344 217.074219 104.921875 217.074219 100.941406 C 217.074219 96.957031 220.304688 93.726562 224.285156 93.726562 L 354.117188 93.726562 C 358.097656 93.726562 361.328125 96.957031 361.328125 100.941406 C 361.328125 104.921875 358.097656 108.152344 354.117188 108.152344 Z M 354.117188 108.152344 " fill-opacity="1" fill-rule="nonzero"></path></g><path fill="#ffffff" d="M 224.285156 108.152344 L 94.453125 108.152344 C 90.472656 108.152344 87.242188 104.921875 87.242188 100.941406 C 87.242188 96.957031 90.472656 93.726562 94.453125 93.726562 L 224.285156 93.726562 C 228.265625 93.726562 231.5 96.957031 231.5 100.941406 C 231.5 104.921875 228.265625 108.152344 224.285156 108.152344 Z M 224.285156 108.152344 " fill-opacity="1" fill-rule="nonzero"></path><path fill="#ffffff" d="M 253.136719 295.6875 C 249.15625 295.6875 245.925781 292.457031 245.925781 288.476562 L 245.925781 259.625 C 245.925781 255.640625 249.15625 252.410156 253.136719 252.410156 C 257.117188 252.410156 260.351562 255.640625 260.351562 259.625 L 260.351562 288.476562 C 260.351562 292.457031 257.117188 295.6875 253.136719 295.6875 Z M 253.136719 295.6875 " fill-opacity="1" fill-rule="nonzero"></path><path fill="#ffffff" d="M 310.839844 295.6875 C 306.859375 295.6875 303.625 292.457031 303.625 288.476562 L 303.625 259.625 C 303.625 255.640625 306.859375 252.410156 310.839844 252.410156 C 314.820312 252.410156 318.050781 255.640625 318.050781 259.625 L 318.050781 288.476562 C 318.050781 292.457031 314.820312 295.6875 310.839844 295.6875 Z M 310.839844 295.6875 " fill-opacity="1" fill-rule="nonzero"></path><g clip-path="url(#d94dc15aa1)"><path fill="#ffffff" d="M 181.007812 295.6875 C 177.027344 295.6875 173.796875 292.457031 173.796875 288.476562 C 173.796875 284.492188 177.027344 281.261719 181.007812 281.261719 L 325.265625 281.261719 C 330.457031 280.441406 344.394531 276.632812 347.8125 270.527344 C 349.761719 267.050781 354.160156 265.8125 357.636719 267.757812 C 361.113281 269.707031 362.355469 274.09375 360.40625 277.570312 C 352.574219 291.5625 328.929688 295.242188 326.261719 295.617188 Z M 181.007812 295.6875 " fill-opacity="1" fill-rule="nonzero"></path></g></svg>