<svg xmlns="http://www.w3.org/2000/svg" xmlns:xlink="http://www.w3.org/1999/xlink" width="40" viewBox="0 0 375 374.999991" height="40" preserveAspectRatio="xMidYMid meet"><defs><clipPath id="af0e7f89a3"><path d="M 33 21.5625 L 344 21.5625 L 344 353.0625 L 33 353.0625 Z M 33 21.5625 " clip-rule="nonzero"></path></clipPath></defs><path fill="#ffffff" d="M 138.011719 164.324219 L 164.207031 139.433594 L 182.519531 178.605469 C 183.347656 180.265625 184.886719 181.507812 186.726562 181.863281 C 188.5625 182.21875 190.519531 181.566406 191.820312 180.265625 L 204.265625 167.820312 C 205.75 166.339844 206.339844 164.085938 205.6875 162.011719 L 191.109375 113.714844 L 211.613281 94.15625 C 215.761719 90.1875 218.074219 84.914062 218.132812 79.164062 C 218.191406 73.476562 216.058594 68.140625 211.96875 64.054688 C 207.941406 60.023438 202.546875 58.007812 196.859375 57.949219 C 191.171875 58.007812 185.835938 60.261719 181.925781 64.46875 L 162.367188 84.972656 L 114.011719 70.335938 C 111.996094 69.742188 109.746094 70.277344 108.203125 71.757812 L 95.757812 84.203125 C 94.394531 85.566406 93.863281 87.460938 94.21875 89.296875 C 94.515625 91.136719 95.699219 92.792969 97.476562 93.566406 L 136.589844 111.878906 L 111.699219 138.011719 L 95.878906 133.269531 C 93.863281 132.617188 91.671875 133.210938 90.128906 134.691406 L 78.988281 145.832031 C 77.625 147.195312 77.03125 149.09375 77.386719 150.929688 C 77.683594 152.765625 78.871094 154.367188 80.648438 155.136719 L 107.96875 167.9375 L 120.765625 195.316406 C 121.597656 196.976562 123.136719 198.222656 124.976562 198.578125 C 125.332031 198.636719 125.6875 198.636719 126.042969 198.636719 C 127.523438 198.636719 129.0625 198.042969 130.128906 196.976562 L 141.332031 185.835938 C 142.8125 184.355469 143.347656 182.042969 142.753906 180.027344 Z M 138.011719 164.324219 " fill-opacity="1" fill-rule="nonzero"></path><g clip-path="url(#af0e7f89a3)"><path fill="#ffffff" d="M 311.53125 82.128906 C 311.292969 81.773438 311.054688 81.359375 310.757812 81 C 310.582031 80.765625 310.34375 80.527344 310.105469 80.410156 C 281.78125 44.617188 237.867188 21.5625 188.679688 21.5625 C 103.226562 21.5625 33.710938 91.078125 33.710938 176.53125 C 33.710938 202.308594 40.054688 226.546875 51.253906 247.941406 C 39.285156 275.972656 31.875 307.792969 45.683594 329.308594 C 55.996094 345.367188 76.378906 353.425781 106.605469 353.425781 C 122.070312 353.425781 140.085938 351.292969 160.652344 347.085938 C 163.792969 346.433594 165.804688 343.351562 165.152344 340.210938 C 164.503906 337.070312 161.480469 335.054688 158.28125 335.707031 C 102.753906 347.085938 68.144531 342.878906 55.402344 323.085938 C 45.625 307.914062 49.714844 284.207031 58.601562 260.742188 C 86.277344 303.289062 134.21875 331.5 188.679688 331.5 C 267.378906 331.5 332.449219 272.59375 342.34375 196.621094 C 342.640625 194.546875 342.878906 192.414062 343.058594 190.339844 C 343.472656 185.835938 343.707031 181.152344 343.707031 176.53125 C 343.648438 141.035156 331.621094 108.320312 311.53125 82.128906 Z M 188.679688 319.882812 C 135.464844 319.882812 88.886719 290.726562 64.230469 247.527344 C 74.128906 225.71875 86.871094 205.570312 94.8125 194.605469 C 96.707031 192 96.113281 188.382812 93.507812 186.488281 C 90.898438 184.589844 87.285156 185.183594 85.386719 187.730469 C 84.085938 189.507812 69.980469 209.125 57.476562 234.371094 L 57.476562 234.3125 C 49.652344 216.589844 45.269531 197.035156 45.269531 176.53125 C 45.269531 97.417969 109.566406 33.117188 188.621094 33.117188 C 232.476562 33.117188 271.824219 52.910156 298.078125 84.023438 C 289.722656 90.898438 275.734375 102.75 276.03125 115.433594 C 276.210938 120.765625 270.640625 127.9375 263.882812 130.960938 C 262.222656 131.730469 258.074219 133.269531 255.765625 131.195312 C 251.972656 127.816406 246.636719 127.34375 241.007812 129.832031 C 231.824219 133.921875 222.105469 145.894531 222.105469 157.269531 C 222.046875 164.976562 226.371094 171.199219 234.253906 174.753906 C 249.839844 181.746094 263.46875 175.878906 273.425781 171.554688 C 279.46875 168.886719 284.742188 166.632812 288.121094 167.878906 C 291.796875 169.242188 296.890625 174.753906 301.8125 180.085938 C 309.8125 188.621094 319.292969 198.753906 330.078125 199.9375 C 318.9375 267.910156 259.734375 319.882812 188.679688 319.882812 Z M 188.679688 319.882812 " fill-opacity="1" fill-rule="nonzero"></path></g><path fill="#ffffff" d="M 204.265625 200.652344 C 196.621094 200 189.332031 199.40625 185.125 197.863281 C 172.5625 193.066406 166.871094 182.101562 166.8125 181.925781 C 165.925781 180.207031 164.207031 178.960938 162.308594 178.722656 C 160.355469 178.488281 158.398438 179.316406 157.152344 180.796875 C 137.714844 204.382812 150.871094 219.140625 160.472656 229.925781 C 165.09375 235.082031 169.539062 240 170.664062 245.394531 C 172.085938 252.386719 171.792969 261.15625 171.375 269.691406 C 170.726562 285.097656 170.015625 301.097656 181.214844 307.734375 C 183.40625 309.039062 185.660156 309.632812 188.027344 309.632812 C 190.101562 309.632812 192.175781 309.15625 194.132812 308.152344 C 206.875 301.632812 214.578125 273.542969 215.40625 263.527344 C 215.703125 261.273438 223.703125 256 227.972656 253.214844 C 239.527344 245.6875 255.230469 235.316406 249.363281 219.792969 C 243.320312 203.730469 221.691406 201.953125 204.265625 200.652344 Z M 204.265625 200.652344 " fill-opacity="1" fill-rule="nonzero"></path></svg>