<svg xmlns="http://www.w3.org/2000/svg" xmlns:xlink="http://www.w3.org/1999/xlink" width="40" viewBox="0 0 375 374.999991" height="500" preserveAspectRatio="xMidYMid meet"><defs><clipPath id="d02c8a7216"><path d="M 45 17.140625 L 329.824219 17.140625 L 329.824219 357.640625 L 45 357.640625 Z M 45 17.140625 " clip-rule="nonzero"></path></clipPath></defs><g clip-path="url(#d02c8a7216)"><path fill="#ffffff" d="M 187.285156 17.140625 C 108.917969 17.140625 45.324219 80.660156 45.324219 159.101562 C 45.324219 198.277344 61.210938 233.773438 86.917969 259.472656 L 187.285156 357.851562 L 287.683594 259.449219 C 313.386719 233.777344 329.277344 198.28125 329.246094 159.078125 C 329.246094 80.734375 265.695312 17.140625 187.285156 17.140625 Z M 272.464844 180.394531 L 201.480469 168.574219 L 201.480469 204.0625 L 229.875 222.984375 L 229.875 237.183594 L 187.285156 222.984375 L 144.695312 237.183594 L 144.695312 222.984375 L 173.089844 204.0625 L 173.089844 168.574219 L 102.109375 180.394531 L 102.109375 159.101562 L 173.089844 117.691406 L 173.089844 73.921875 C 173.089844 66.078125 179.4375 59.730469 187.285156 59.730469 C 195.136719 59.730469 201.480469 66.078125 201.480469 73.921875 L 201.480469 117.691406 L 272.464844 159.101562 Z M 272.464844 180.394531 " fill-opacity="1" fill-rule="nonzero"></path></g></svg>