<svg xmlns="http://www.w3.org/2000/svg" xmlns:xlink="http://www.w3.org/1999/xlink" width="60%" viewBox="0 0 375 374.999991" height="60%" preserveAspectRatio="xMidYMid meet"><defs><clipPath id="286c4f6e09"><path d="M 62.261719 17.683594 L 312.761719 17.683594 L 312.761719 357.433594 L 62.261719 357.433594 Z M 62.261719 17.683594 " clip-rule="nonzero"></path></clipPath></defs><g clip-path="url(#286c4f6e09)"><path fill="#ffffff" d="M 187.5 17.683594 C 118.417969 17.683594 62.414062 73.691406 62.414062 142.769531 C 62.414062 211.851562 187.5 357.257812 187.5 357.257812 C 187.5 357.257812 312.585938 211.851562 312.585938 142.769531 C 312.585938 73.691406 256.578125 17.683594 187.5 17.683594 Z M 187.5 201.015625 C 155.332031 201.015625 129.253906 174.9375 129.253906 142.769531 C 129.253906 110.601562 155.332031 84.527344 187.5 84.527344 C 219.667969 84.527344 245.746094 110.601562 245.746094 142.769531 C 245.746094 174.9375 219.667969 201.015625 187.5 201.015625 Z M 187.5 201.015625 " fill-opacity="1" fill-rule="nonzero"></path></g></svg>