<svg xmlns="http://www.w3.org/2000/svg" xmlns:xlink="http://www.w3.org/1999/xlink" width="60" viewBox="0 0 30 30.000001" height="60" preserveAspectRatio="xMidYMid meet"><defs><clipPath id="a0eb664ea4"><path d="M 1.898438 0 L 28.027344 0 L 28.027344 29 L 1.898438 29 Z M 1.898438 0 " clip-rule="nonzero"></path></clipPath></defs><g clip-path="url(#a0eb664ea4)"><path fill="#0071b8" d="M 25.289062 12.078125 C 24.339844 15.609375 23.074219 18.527344 21.53125 20.75 C 18.445312 25.199219 15.976562 26.839844 14.996094 27.363281 C 14.019531 26.839844 11.550781 25.199219 8.464844 20.75 C 6.921875 18.527344 5.65625 15.609375 4.703125 12.078125 C 4 9.460938 3.660156 7.191406 3.523438 6.097656 C 8.28125 1.878906 14.519531 1.585938 14.996094 1.566406 C 15.222656 1.578125 16.867188 1.652344 19.023438 2.230469 C 21.054688 2.773438 23.972656 3.882812 26.472656 6.097656 C 26.335938 7.191406 25.996094 9.460938 25.289062 12.078125 Z M 27.753906 5.152344 C 22.3125 0.132812 14.996094 0.00390625 14.996094 0.00390625 C 14.996094 0.00390625 7.683594 0.132812 2.242188 5.152344 C 2.011719 5.359375 1.898438 5.667969 1.933594 5.976562 C 2.171875 8.015625 3.3125 16.066406 7.183594 21.640625 C 10.722656 26.746094 13.570312 28.429688 14.589844 28.90625 C 14.847656 29.027344 15.148438 29.027344 15.40625 28.90625 C 16.425781 28.429688 19.269531 26.746094 22.8125 21.640625 C 26.683594 16.066406 27.824219 8.015625 28.0625 5.976562 C 28.097656 5.667969 27.984375 5.359375 27.753906 5.152344 " fill-opacity="1" fill-rule="nonzero"></path></g><path fill="#0071b8" d="M 15.757812 16.042969 C 15.792969 16.195312 15.675781 16.34375 15.519531 16.34375 L 14.476562 16.34375 C 14.320312 16.34375 14.203125 16.195312 14.238281 16.042969 L 14.632812 14.285156 C 14.359375 14.148438 14.167969 13.867188 14.167969 13.539062 C 14.167969 13.0625 14.574219 12.679688 15.058594 12.714844 C 15.464844 12.742188 15.792969 13.070312 15.824219 13.480469 C 15.851562 13.832031 15.65625 14.140625 15.363281 14.285156 Z M 18.375 9.976562 L 11.621094 9.976562 C 11.144531 9.976562 10.761719 10.359375 10.761719 10.835938 L 10.761719 16.910156 C 10.761719 17.386719 11.144531 17.769531 11.621094 17.769531 L 18.375 17.769531 C 18.847656 17.769531 19.234375 17.386719 19.234375 16.910156 L 19.234375 10.835938 C 19.234375 10.359375 18.847656 9.976562 18.375 9.976562 " fill-opacity="1" fill-rule="nonzero"></path><path fill="#0071b8" d="M 12.929688 8.757812 C 12.929688 7.617188 13.859375 6.691406 14.996094 6.691406 C 16.136719 6.691406 17.0625 7.617188 17.0625 8.757812 L 17.0625 9.613281 L 18.019531 9.613281 L 18.019531 8.757812 C 18.019531 7.09375 16.664062 5.738281 14.996094 5.738281 C 13.332031 5.738281 11.976562 7.09375 11.976562 8.757812 L 11.976562 9.613281 L 12.929688 9.613281 L 12.929688 8.757812 " fill-opacity="1" fill-rule="nonzero"></path><path fill="#0071b8" d="M 12.21875 18.484375 L 17.777344 18.484375 C 17.992188 18.484375 18.171875 18.335938 18.21875 18.132812 L 11.777344 18.132812 C 11.820312 18.335938 12.003906 18.484375 12.21875 18.484375 " fill-opacity="1" fill-rule="nonzero"></path></svg>