<svg xmlns="http://www.w3.org/2000/svg" xmlns:xlink="http://www.w3.org/1999/xlink" width="60" viewBox="0 0 30 30.000001" height="60" preserveAspectRatio="xMidYMid meet"><defs><clipPath id="914aa29be4"><path d="M 0.484375 11 L 5 11 L 5 13 L 0.484375 13 Z M 0.484375 11 " clip-rule="nonzero"></path></clipPath><clipPath id="c8731144d3"><path d="M 0.484375 16 L 5 16 L 5 18 L 0.484375 18 Z M 0.484375 16 " clip-rule="nonzero"></path></clipPath><clipPath id="8c3aa426ef"><path d="M 25 16 L 29.515625 16 L 29.515625 18 L 25 18 Z M 25 16 " clip-rule="nonzero"></path></clipPath><clipPath id="47ad4d4b7a"><path d="M 25 11 L 29.515625 11 L 29.515625 14 L 25 14 Z M 25 11 " clip-rule="nonzero"></path></clipPath></defs><path fill="#0071b8" d="M 15 3.664062 C 15.25 3.664062 15.453125 3.460938 15.453125 3.210938 L 15.453125 0.496094 C 15.453125 0.25 15.25 0.046875 15 0.046875 C 14.75 0.046875 14.546875 0.25 14.546875 0.496094 L 14.546875 3.210938 C 14.546875 3.460938 14.75 3.664062 15 3.664062 Z M 15 3.664062 " fill-opacity="1" fill-rule="nonzero"></path><path fill="#0071b8" d="M 12.558594 3.460938 C 12.601562 3.6875 12.785156 3.820312 13.011719 3.820312 C 13.03125 3.820312 13.054688 3.820312 13.101562 3.820312 C 13.347656 3.777344 13.507812 3.550781 13.460938 3.300781 L 13.304688 2.417969 C 13.257812 2.171875 13.03125 2.011719 12.785156 2.058594 C 12.535156 2.101562 12.378906 2.328125 12.421875 2.578125 Z M 12.558594 3.460938 " fill-opacity="1" fill-rule="nonzero"></path><path fill="#0071b8" d="M 8.871094 4.953125 C 8.964844 5.085938 9.097656 5.179688 9.257812 5.179688 C 9.324219 5.179688 9.414062 5.15625 9.484375 5.109375 C 9.710938 4.972656 9.777344 4.703125 9.640625 4.5 L 9.1875 3.707031 C 9.054688 3.480469 8.78125 3.414062 8.578125 3.550781 C 8.351562 3.6875 8.285156 3.957031 8.421875 4.160156 Z M 8.871094 4.953125 " fill-opacity="1" fill-rule="nonzero"></path><path fill="#0071b8" d="M 5.910156 7.597656 C 6 7.664062 6.089844 7.710938 6.203125 7.710938 C 6.339844 7.710938 6.453125 7.664062 6.542969 7.550781 C 6.703125 7.347656 6.679688 7.078125 6.476562 6.917969 L 5.773438 6.332031 C 5.59375 6.171875 5.300781 6.195312 5.140625 6.398438 C 4.984375 6.601562 5.007812 6.875 5.210938 7.03125 Z M 5.910156 7.597656 " fill-opacity="1" fill-rule="nonzero"></path><path fill="#0071b8" d="M 4.371094 10.21875 L 3.515625 9.902344 C 3.289062 9.8125 3.015625 9.949219 2.925781 10.175781 C 2.835938 10.402344 2.972656 10.671875 3.195312 10.761719 L 4.054688 11.078125 C 4.101562 11.101562 4.167969 11.101562 4.214844 11.101562 C 4.394531 11.101562 4.578125 10.988281 4.644531 10.808594 C 4.710938 10.558594 4.597656 10.308594 4.371094 10.21875 Z M 4.371094 10.21875 " fill-opacity="1" fill-rule="nonzero"></path><path fill="#0071b8" d="M 2.609375 14.0625 C 2.359375 14.0625 2.15625 14.265625 2.15625 14.515625 C 2.15625 14.765625 2.359375 14.96875 2.609375 14.96875 L 3.535156 14.96875 C 3.785156 14.96875 3.988281 14.765625 3.988281 14.515625 C 3.988281 14.265625 3.785156 14.0625 3.535156 14.0625 Z M 2.609375 14.0625 " fill-opacity="1" fill-rule="nonzero"></path><path fill="#0071b8" d="M 4.054688 17.953125 L 3.195312 18.269531 C 2.972656 18.359375 2.835938 18.609375 2.925781 18.855469 C 2.992188 19.039062 3.175781 19.152344 3.355469 19.152344 C 3.402344 19.152344 3.46875 19.152344 3.515625 19.128906 L 4.371094 18.8125 C 4.597656 18.722656 4.734375 18.472656 4.644531 18.222656 C 4.554688 18 4.304688 17.863281 4.054688 17.953125 Z M 4.054688 17.953125 " fill-opacity="1" fill-rule="nonzero"></path><path fill="#0071b8" d="M 5.796875 22.722656 L 6.5 22.136719 C 6.703125 21.976562 6.722656 21.683594 6.566406 21.503906 C 6.40625 21.300781 6.113281 21.277344 5.933594 21.433594 L 5.230469 22.023438 C 5.027344 22.179688 5.007812 22.476562 5.164062 22.65625 C 5.253906 22.769531 5.390625 22.8125 5.503906 22.8125 C 5.59375 22.8125 5.707031 22.792969 5.796875 22.722656 Z M 5.796875 22.722656 " fill-opacity="1" fill-rule="nonzero"></path><path fill="#0071b8" d="M 9.484375 23.921875 C 9.257812 23.785156 8.984375 23.878906 8.871094 24.082031 L 8.421875 24.871094 C 8.285156 25.097656 8.375 25.371094 8.578125 25.480469 C 8.644531 25.527344 8.738281 25.550781 8.804688 25.550781 C 8.964844 25.550781 9.121094 25.460938 9.1875 25.324219 L 9.640625 24.53125 C 9.777344 24.328125 9.710938 24.035156 9.484375 23.921875 Z M 9.484375 23.921875 " fill-opacity="1" fill-rule="nonzero"></path><path fill="#0071b8" d="M 13.078125 25.210938 C 12.828125 25.164062 12.601562 25.324219 12.558594 25.574219 L 12.398438 26.453125 C 12.355469 26.703125 12.511719 26.929688 12.761719 26.976562 C 12.785156 26.976562 12.808594 26.976562 12.851562 26.976562 C 13.078125 26.976562 13.257812 26.816406 13.304688 26.613281 L 13.460938 25.730469 C 13.484375 25.480469 13.328125 25.257812 13.078125 25.210938 Z M 13.078125 25.210938 " fill-opacity="1" fill-rule="nonzero"></path><path fill="#0071b8" d="M 17.441406 25.574219 C 17.398438 25.324219 17.171875 25.164062 16.921875 25.210938 C 16.671875 25.257812 16.515625 25.480469 16.558594 25.730469 L 16.71875 26.613281 C 16.761719 26.839844 16.945312 26.976562 17.171875 26.976562 C 17.191406 26.976562 17.214844 26.976562 17.261719 26.976562 C 17.511719 26.929688 17.667969 26.703125 17.621094 26.453125 Z M 17.441406 25.574219 " fill-opacity="1" fill-rule="nonzero"></path><path fill="#0071b8" d="M 21.128906 24.082031 C 20.992188 23.855469 20.71875 23.785156 20.515625 23.921875 C 20.289062 24.058594 20.222656 24.328125 20.359375 24.53125 L 20.8125 25.324219 C 20.902344 25.460938 21.035156 25.550781 21.195312 25.550781 C 21.261719 25.550781 21.355469 25.527344 21.421875 25.480469 C 21.648438 25.347656 21.714844 25.074219 21.578125 24.871094 Z M 21.128906 24.082031 " fill-opacity="1" fill-rule="nonzero"></path><path fill="#0071b8" d="M 24.089844 21.433594 C 23.910156 21.277344 23.613281 21.300781 23.457031 21.503906 C 23.296875 21.707031 23.320312 21.976562 23.523438 22.136719 L 24.226562 22.722656 C 24.316406 22.792969 24.40625 22.835938 24.519531 22.835938 C 24.65625 22.835938 24.769531 22.792969 24.859375 22.679688 C 25.015625 22.476562 24.992188 22.203125 24.789062 22.046875 Z M 24.089844 21.433594 " fill-opacity="1" fill-rule="nonzero"></path><path fill="#0071b8" d="M 25.355469 18.222656 C 25.265625 18.449219 25.402344 18.722656 25.628906 18.8125 L 26.484375 19.128906 C 26.53125 19.152344 26.597656 19.152344 26.644531 19.152344 C 26.824219 19.152344 27.007812 19.039062 27.074219 18.855469 C 27.164062 18.632812 27.027344 18.359375 26.804688 18.269531 L 25.945312 17.953125 C 25.695312 17.863281 25.445312 18 25.355469 18.222656 Z M 25.355469 18.222656 " fill-opacity="1" fill-rule="nonzero"></path><path fill="#0071b8" d="M 26.484375 14.0625 C 26.238281 14.0625 26.035156 14.265625 26.035156 14.515625 C 26.035156 14.765625 26.238281 14.96875 26.484375 14.96875 L 27.414062 14.96875 C 27.660156 14.96875 27.867188 14.765625 27.867188 14.515625 C 27.867188 14.265625 27.660156 14.0625 27.414062 14.0625 Z M 26.484375 14.0625 " fill-opacity="1" fill-rule="nonzero"></path><path fill="#0071b8" d="M 26.804688 10.761719 C 27.027344 10.671875 27.164062 10.421875 27.074219 10.175781 C 26.984375 9.949219 26.734375 9.8125 26.484375 9.902344 L 25.628906 10.21875 C 25.402344 10.308594 25.265625 10.558594 25.355469 10.808594 C 25.421875 10.988281 25.605469 11.101562 25.785156 11.101562 C 25.832031 11.101562 25.898438 11.101562 25.945312 11.078125 Z M 26.804688 10.761719 " fill-opacity="1" fill-rule="nonzero"></path><path fill="#0071b8" d="M 24.203125 6.308594 L 23.5 6.894531 C 23.296875 7.054688 23.277344 7.347656 23.433594 7.53125 C 23.523438 7.640625 23.660156 7.6875 23.773438 7.6875 C 23.863281 7.6875 23.976562 7.664062 24.066406 7.574219 L 24.769531 6.988281 C 24.972656 6.828125 24.992188 6.535156 24.835938 6.355469 C 24.675781 6.195312 24.40625 6.148438 24.203125 6.308594 Z M 24.203125 6.308594 " fill-opacity="1" fill-rule="nonzero"></path><path fill="#0071b8" d="M 20.515625 5.109375 C 20.585938 5.15625 20.675781 5.179688 20.742188 5.179688 C 20.902344 5.179688 21.058594 5.085938 21.128906 4.953125 L 21.578125 4.160156 C 21.714844 3.933594 21.625 3.664062 21.421875 3.550781 C 21.195312 3.414062 20.925781 3.503906 20.8125 3.707031 L 20.359375 4.5 C 20.222656 4.703125 20.289062 4.996094 20.515625 5.109375 Z M 20.515625 5.109375 " fill-opacity="1" fill-rule="nonzero"></path><path fill="#0071b8" d="M 16.921875 3.820312 C 16.945312 3.820312 16.96875 3.820312 17.011719 3.820312 C 17.238281 3.820312 17.417969 3.664062 17.464844 3.460938 L 17.621094 2.578125 C 17.667969 2.328125 17.511719 2.101562 17.261719 2.058594 C 17.011719 2.011719 16.785156 2.171875 16.742188 2.417969 L 16.582031 3.300781 C 16.515625 3.550781 16.671875 3.777344 16.921875 3.820312 Z M 16.921875 3.820312 " fill-opacity="1" fill-rule="nonzero"></path><path fill="#0071b8" d="M 10.660156 4.046875 C 10.726562 4.226562 10.90625 4.339844 11.089844 4.339844 C 11.132812 4.339844 11.203125 4.339844 11.246094 4.320312 C 11.472656 4.226562 11.609375 3.980469 11.519531 3.730469 L 10.546875 1.175781 C 10.457031 0.949219 10.207031 0.8125 9.957031 0.90625 C 9.730469 0.996094 9.597656 1.242188 9.6875 1.492188 Z M 10.660156 4.046875 " fill-opacity="1" fill-rule="nonzero"></path><path fill="#0071b8" d="M 7.265625 6.148438 C 7.359375 6.261719 7.492188 6.308594 7.605469 6.308594 C 7.71875 6.308594 7.808594 6.261719 7.898438 6.195312 C 8.082031 6.035156 8.105469 5.742188 7.945312 5.5625 L 6.183594 3.480469 C 6.023438 3.300781 5.730469 3.277344 5.546875 3.4375 C 5.367188 3.59375 5.34375 3.890625 5.503906 4.070312 Z M 7.265625 6.148438 " fill-opacity="1" fill-rule="nonzero"></path><path fill="#0071b8" d="M 2.449219 7.890625 L 4.847656 9.246094 C 4.914062 9.292969 5.007812 9.316406 5.074219 9.316406 C 5.230469 9.316406 5.390625 9.226562 5.457031 9.089844 C 5.570312 8.863281 5.503906 8.59375 5.277344 8.480469 L 2.878906 7.121094 C 2.65625 7.007812 2.382812 7.078125 2.269531 7.304688 C 2.15625 7.507812 2.226562 7.777344 2.449219 7.890625 Z M 2.449219 7.890625 " fill-opacity="1" fill-rule="nonzero"></path><g clip-path="url(#914aa29be4)"><path fill="#0071b8" d="M 0.914062 12.527344 L 3.625 13 C 3.648438 13 3.671875 13 3.695312 13 C 3.921875 13 4.101562 12.84375 4.148438 12.617188 C 4.191406 12.367188 4.035156 12.140625 3.785156 12.097656 L 1.070312 11.621094 C 0.824219 11.578125 0.597656 11.734375 0.550781 11.984375 C 0.484375 12.253906 0.664062 12.480469 0.914062 12.527344 Z M 0.914062 12.527344 " fill-opacity="1" fill-rule="nonzero"></path></g><g clip-path="url(#c8731144d3)"><path fill="#0071b8" d="M 4.148438 16.394531 C 4.101562 16.144531 3.875 15.984375 3.625 16.03125 L 0.914062 16.507812 C 0.664062 16.550781 0.484375 16.777344 0.527344 17.027344 C 0.574219 17.253906 0.753906 17.410156 0.980469 17.410156 C 1.003906 17.410156 1.027344 17.410156 1.050781 17.410156 L 3.761719 16.933594 C 4.011719 16.890625 4.191406 16.640625 4.148438 16.394531 Z M 4.148438 16.394531 " fill-opacity="1" fill-rule="nonzero"></path></g><path fill="#0071b8" d="M 5.457031 19.941406 C 5.34375 19.714844 5.050781 19.648438 4.847656 19.761719 L 2.449219 21.117188 C 2.226562 21.230469 2.15625 21.527344 2.269531 21.730469 C 2.359375 21.863281 2.496094 21.957031 2.65625 21.957031 C 2.722656 21.957031 2.8125 21.933594 2.878906 21.886719 L 5.277344 20.53125 C 5.503906 20.441406 5.570312 20.167969 5.457031 19.941406 Z M 5.457031 19.941406 " fill-opacity="1" fill-rule="nonzero"></path><path fill="#0071b8" d="M 7.265625 22.882812 L 5.503906 24.960938 C 5.34375 25.144531 5.367188 25.4375 5.546875 25.59375 C 5.640625 25.664062 5.730469 25.707031 5.84375 25.707031 C 5.976562 25.707031 6.089844 25.664062 6.183594 25.550781 L 7.945312 23.46875 C 8.105469 23.289062 8.082031 22.996094 7.898438 22.835938 C 7.71875 22.679688 7.449219 22.703125 7.265625 22.882812 Z M 7.265625 22.882812 " fill-opacity="1" fill-rule="nonzero"></path><path fill="#0071b8" d="M 11.222656 24.714844 C 10.996094 24.625 10.726562 24.734375 10.636719 24.984375 L 9.6875 27.539062 C 9.597656 27.765625 9.710938 28.039062 9.957031 28.128906 C 10.003906 28.152344 10.070312 28.152344 10.117188 28.152344 C 10.296875 28.152344 10.476562 28.039062 10.546875 27.855469 L 11.496094 25.300781 C 11.585938 25.054688 11.472656 24.804688 11.222656 24.714844 Z M 11.222656 24.714844 " fill-opacity="1" fill-rule="nonzero"></path><path fill="#0071b8" d="M 15 25.371094 C 14.75 25.371094 14.546875 25.574219 14.546875 25.820312 L 14.546875 28.535156 C 14.546875 28.785156 14.75 28.988281 15 28.988281 C 15.25 28.988281 15.453125 28.785156 15.453125 28.535156 L 15.453125 25.820312 C 15.453125 25.574219 15.25 25.371094 15 25.371094 Z M 15 25.371094 " fill-opacity="1" fill-rule="nonzero"></path><path fill="#0071b8" d="M 19.339844 24.984375 C 19.25 24.757812 19.003906 24.625 18.753906 24.714844 C 18.527344 24.804688 18.390625 25.054688 18.480469 25.300781 L 19.433594 27.855469 C 19.5 28.039062 19.679688 28.152344 19.859375 28.152344 C 19.90625 28.152344 19.972656 28.152344 20.019531 28.128906 C 20.246094 28.039062 20.382812 27.789062 20.289062 27.539062 Z M 19.339844 24.984375 " fill-opacity="1" fill-rule="nonzero"></path><path fill="#0071b8" d="M 22.734375 22.882812 C 22.574219 22.703125 22.28125 22.679688 22.101562 22.835938 C 21.917969 22.996094 21.894531 23.289062 22.054688 23.46875 L 23.816406 25.550781 C 23.910156 25.664062 24.042969 25.707031 24.15625 25.707031 C 24.269531 25.707031 24.359375 25.664062 24.453125 25.59375 C 24.632812 25.4375 24.65625 25.144531 24.496094 24.960938 Z M 22.734375 22.882812 " fill-opacity="1" fill-rule="nonzero"></path><path fill="#0071b8" d="M 27.550781 21.140625 L 25.152344 19.785156 C 24.925781 19.671875 24.65625 19.738281 24.542969 19.964844 C 24.429688 20.191406 24.496094 20.460938 24.722656 20.574219 L 27.121094 21.933594 C 27.1875 21.976562 27.277344 22 27.34375 22 C 27.503906 22 27.660156 21.910156 27.730469 21.773438 C 27.84375 21.527344 27.773438 21.253906 27.550781 21.140625 Z M 27.550781 21.140625 " fill-opacity="1" fill-rule="nonzero"></path><g clip-path="url(#8c3aa426ef)"><path fill="#0071b8" d="M 29.085938 16.507812 L 26.375 16.03125 C 26.125 15.984375 25.898438 16.144531 25.851562 16.394531 C 25.808594 16.640625 25.964844 16.867188 26.214844 16.914062 L 28.929688 17.386719 C 28.949219 17.386719 28.972656 17.386719 28.996094 17.386719 C 29.222656 17.386719 29.402344 17.230469 29.449219 17.003906 C 29.515625 16.777344 29.335938 16.550781 29.085938 16.507812 Z M 29.085938 16.507812 " fill-opacity="1" fill-rule="nonzero"></path></g><g clip-path="url(#47ad4d4b7a)"><path fill="#0071b8" d="M 25.851562 12.640625 C 25.898438 12.867188 26.078125 13.023438 26.304688 13.023438 C 26.328125 13.023438 26.351562 13.023438 26.375 13.023438 L 29.085938 12.550781 C 29.335938 12.503906 29.492188 12.277344 29.449219 12.027344 C 29.402344 11.78125 29.175781 11.621094 28.929688 11.667969 L 26.214844 12.140625 C 25.988281 12.140625 25.808594 12.390625 25.851562 12.640625 Z M 25.851562 12.640625 " fill-opacity="1" fill-rule="nonzero"></path></g><path fill="#0071b8" d="M 24.542969 9.089844 C 24.632812 9.226562 24.769531 9.316406 24.925781 9.316406 C 24.992188 9.316406 25.085938 9.292969 25.152344 9.246094 L 27.550781 7.890625 C 27.773438 7.777344 27.84375 7.484375 27.730469 7.28125 C 27.617188 7.054688 27.324219 6.988281 27.121094 7.101562 L 24.722656 8.457031 C 24.496094 8.59375 24.429688 8.863281 24.542969 9.089844 Z M 24.542969 9.089844 " fill-opacity="1" fill-rule="nonzero"></path><path fill="#0071b8" d="M 22.371094 6.308594 C 22.507812 6.308594 22.621094 6.261719 22.710938 6.148438 L 24.472656 4.070312 C 24.632812 3.890625 24.609375 3.59375 24.429688 3.4375 C 24.246094 3.277344 23.953125 3.300781 23.796875 3.480469 L 22.03125 5.5625 C 21.875 5.742188 21.894531 6.035156 22.078125 6.195312 C 22.167969 6.261719 22.28125 6.308594 22.371094 6.308594 Z M 22.371094 6.308594 " fill-opacity="1" fill-rule="nonzero"></path><path fill="#0071b8" d="M 18.777344 4.320312 C 18.820312 4.339844 18.890625 4.339844 18.933594 4.339844 C 19.113281 4.339844 19.296875 4.226562 19.363281 4.046875 L 20.3125 1.492188 C 20.402344 1.265625 20.289062 0.996094 20.042969 0.90625 C 19.792969 0.835938 19.523438 0.949219 19.453125 1.175781 L 18.503906 3.730469 C 18.414062 3.980469 18.527344 4.226562 18.777344 4.320312 Z M 18.777344 4.320312 " fill-opacity="1" fill-rule="nonzero"></path><path fill="#0071b8" d="M 20.539062 16.933594 C 20.765625 16.550781 20.96875 16.210938 21.148438 15.871094 C 21.738281 14.695312 22.03125 13.613281 22.03125 12.570312 C 22.007812 8.660156 18.910156 5.472656 15.136719 5.472656 L 14.886719 5.472656 C 11.089844 5.472656 7.992188 8.660156 7.992188 12.570312 C 7.992188 13.632812 8.285156 14.695312 8.871094 15.871094 C 9.054688 16.210938 9.234375 16.574219 9.484375 16.933594 C 9.640625 17.183594 9.820312 17.457031 10.027344 17.75 C 10.792969 18.878906 11.835938 20.441406 12.332031 22.292969 C 12.535156 23.019531 13.191406 23.558594 13.890625 23.558594 L 16.175781 23.558594 C 16.875 23.558594 17.53125 23.019531 17.734375 22.292969 C 18.234375 20.460938 19.273438 18.902344 20.042969 17.75 C 20.199219 17.457031 20.382812 17.183594 20.539062 16.933594 Z M 17.667969 12.527344 C 17.601562 12.683594 17.441406 12.773438 17.261719 12.773438 L 16.695312 12.773438 L 16.695312 17.207031 C 16.695312 17.457031 16.492188 17.660156 16.242188 17.660156 C 15.996094 17.660156 15.792969 17.457031 15.792969 17.207031 L 15.792969 12.324219 C 15.792969 12.074219 15.996094 11.871094 16.242188 11.871094 L 16.3125 11.871094 L 15 10.289062 L 13.6875 11.894531 L 13.734375 11.894531 C 13.984375 11.894531 14.1875 12.097656 14.1875 12.34375 L 14.1875 15.011719 C 14.1875 15.261719 13.984375 15.464844 13.734375 15.464844 C 13.484375 15.464844 13.28125 15.261719 13.28125 15.011719 L 13.28125 12.796875 L 12.738281 12.796875 C 12.558594 12.796875 12.398438 12.707031 12.332031 12.550781 C 12.265625 12.390625 12.285156 12.164062 12.398438 12.027344 L 14.660156 9.269531 C 14.839844 9.066406 15.179688 9.066406 15.363281 9.269531 L 17.621094 12.027344 C 17.714844 12.164062 17.734375 12.367188 17.667969 12.527344 Z M 17.667969 12.527344 " fill-opacity="1" fill-rule="nonzero"></path></svg>