<svg xmlns="http://www.w3.org/2000/svg" xmlns:xlink="http://www.w3.org/1999/xlink" width="40" viewBox="0 0 375 374.999991" height="500" preserveAspectRatio="xMidYMid meet"><defs><clipPath id="be358f4dec"><path d="M 37.5 12 L 337.5 12 L 337.5 364 L 37.5 364 Z M 37.5 12 " clip-rule="nonzero"></path></clipPath></defs><g clip-path="url(#be358f4dec)"><path fill="#ffffff" d="M 184.707031 362.757812 C 186.570312 363.214844 188.429688 363.214844 190.292969 362.757812 C 192.898438 362.109375 195.488281 361.40625 198.066406 360.652344 C 200.640625 359.894531 203.203125 359.085938 205.746094 358.226562 C 208.289062 357.363281 210.8125 356.449219 213.316406 355.480469 C 215.820312 354.515625 218.304688 353.496094 220.769531 352.425781 C 223.230469 351.359375 225.667969 350.238281 228.085938 349.066406 C 230.503906 347.894531 232.894531 346.675781 235.257812 345.40625 C 237.625 344.132812 239.960938 342.816406 242.273438 341.449219 C 244.582031 340.082031 246.863281 338.667969 249.117188 337.203125 C 251.367188 335.742188 253.589844 334.234375 255.777344 332.679688 C 257.96875 331.125 260.125 329.527344 262.246094 327.882812 C 264.371094 326.238281 266.457031 324.550781 268.511719 322.820312 C 270.566406 321.089844 272.582031 319.320312 274.558594 317.503906 C 276.539062 315.691406 278.480469 313.835938 280.382812 311.941406 C 282.285156 310.046875 284.148438 308.113281 285.96875 306.140625 C 287.792969 304.171875 289.574219 302.160156 291.3125 300.117188 C 293.050781 298.070312 294.746094 295.988281 296.398438 293.871094 C 298.050781 291.757812 299.660156 289.605469 301.222656 287.421875 C 302.785156 285.242188 304.304688 283.027344 305.773438 280.78125 C 307.246094 278.535156 308.667969 276.257812 310.046875 273.953125 C 311.421875 271.648438 312.75 269.316406 314.03125 266.957031 C 315.3125 264.59375 316.542969 262.210938 317.722656 259.796875 C 318.902344 257.386719 320.035156 254.953125 321.113281 252.492188 C 322.195312 250.035156 323.222656 247.554688 324.199219 245.054688 C 325.175781 242.554688 326.101562 240.035156 326.972656 237.496094 C 327.84375 234.957031 328.664062 232.398438 329.429688 229.824219 C 330.199219 227.253906 330.910156 224.664062 331.570312 222.0625 C 332.226562 219.457031 332.832031 216.84375 333.382812 214.214844 C 333.933594 211.585938 334.429688 208.949219 334.867188 206.300781 C 335.308594 203.652344 335.695312 200.996094 336.023438 198.332031 C 336.355469 195.664062 336.628906 192.996094 336.851562 190.320312 C 337.070312 187.644531 337.234375 184.964844 337.34375 182.28125 C 337.449219 179.597656 337.503906 176.914062 337.5 174.230469 L 337.5 81.921875 C 337.5 81.164062 337.425781 80.414062 337.277344 79.671875 C 337.128906 78.929688 336.910156 78.207031 336.621094 77.507812 C 336.332031 76.804688 335.976562 76.140625 335.554688 75.511719 C 335.132812 74.882812 334.65625 74.296875 334.121094 73.761719 C 333.585938 73.226562 333 72.75 332.371094 72.328125 C 331.742188 71.90625 331.078125 71.550781 330.378906 71.261719 C 329.675781 70.972656 328.957031 70.753906 328.210938 70.605469 C 327.46875 70.457031 326.71875 70.382812 325.960938 70.382812 C 319.957031 70.136719 313.972656 69.625 308.011719 68.847656 C 302.050781 68.074219 296.136719 67.035156 290.269531 65.734375 C 284.402344 64.433594 278.601562 62.878906 272.871094 61.066406 C 267.140625 59.253906 261.5 57.191406 255.953125 54.878906 C 250.40625 52.566406 244.972656 50.011719 239.648438 47.21875 C 234.328125 44.425781 229.140625 41.402344 224.085938 38.148438 C 219.03125 34.894531 214.128906 31.425781 209.382812 27.738281 C 204.636719 24.054688 200.058594 20.164062 195.65625 16.070312 C 195.121094 15.535156 194.539062 15.058594 193.910156 14.636719 C 193.28125 14.214844 192.613281 13.863281 191.914062 13.570312 C 191.214844 13.28125 190.492188 13.0625 189.75 12.914062 C 189.007812 12.765625 188.257812 12.695312 187.5 12.695312 C 186.742188 12.695312 185.992188 12.765625 185.25 12.914062 C 184.507812 13.0625 183.785156 13.28125 183.085938 13.570312 C 182.386719 13.863281 181.71875 14.214844 181.089844 14.636719 C 180.460938 15.058594 179.878906 15.535156 179.34375 16.070312 C 125.882812 69.53125 49.777344 70.382812 49.039062 70.382812 C 48.28125 70.382812 47.53125 70.457031 46.789062 70.605469 C 46.042969 70.753906 45.324219 70.972656 44.621094 71.261719 C 43.921875 71.550781 43.257812 71.90625 42.628906 72.328125 C 42 72.75 41.414062 73.226562 40.878906 73.761719 C 40.34375 74.296875 39.867188 74.882812 39.445312 75.511719 C 39.023438 76.140625 38.667969 76.804688 38.378906 77.507812 C 38.089844 78.207031 37.871094 78.929688 37.722656 79.671875 C 37.574219 80.414062 37.5 81.164062 37.5 81.921875 L 37.5 174.230469 C 37.496094 176.914062 37.550781 179.597656 37.65625 182.28125 C 37.765625 184.964844 37.929688 187.644531 38.148438 190.320312 C 38.371094 192.996094 38.644531 195.664062 38.976562 198.332031 C 39.304688 200.996094 39.691406 203.652344 40.132812 206.300781 C 40.570312 208.949219 41.066406 211.585938 41.617188 214.214844 C 42.167969 216.84375 42.773438 219.457031 43.429688 222.0625 C 44.089844 224.664062 44.800781 227.253906 45.570312 229.824219 C 46.335938 232.398438 47.15625 234.957031 48.027344 237.496094 C 48.898438 240.035156 49.824219 242.554688 50.800781 245.054688 C 51.777344 247.554688 52.804688 250.035156 53.886719 252.492188 C 54.964844 254.953125 56.097656 257.386719 57.277344 259.796875 C 58.457031 262.210938 59.6875 264.59375 60.96875 266.957031 C 62.25 269.316406 63.578125 271.648438 64.953125 273.953125 C 66.332031 276.257812 67.753906 278.535156 69.226562 280.78125 C 70.695312 283.027344 72.214844 285.242188 73.777344 287.421875 C 75.339844 289.605469 76.949219 291.757812 78.601562 293.871094 C 80.253906 295.988281 81.949219 298.070312 83.6875 300.117188 C 85.425781 302.160156 87.207031 304.171875 89.03125 306.140625 C 90.851562 308.113281 92.714844 310.046875 94.617188 311.941406 C 96.519531 313.835938 98.460938 315.691406 100.4375 317.503906 C 102.417969 319.320312 104.433594 321.089844 106.488281 322.820312 C 108.542969 324.550781 110.628906 326.238281 112.753906 327.882812 C 114.875 329.527344 117.03125 331.125 119.222656 332.679688 C 121.410156 334.234375 123.632812 335.742188 125.882812 337.203125 C 128.136719 338.667969 130.417969 340.082031 132.726562 341.449219 C 135.039062 342.816406 137.375 344.132812 139.742188 345.40625 C 142.105469 346.675781 144.496094 347.894531 146.914062 349.066406 C 149.332031 350.238281 151.769531 351.359375 154.230469 352.425781 C 156.695312 353.496094 159.179688 354.515625 161.683594 355.480469 C 164.1875 356.449219 166.710938 357.363281 169.253906 358.226562 C 171.796875 359.085938 174.359375 359.894531 176.933594 360.652344 C 179.511719 361.40625 182.101562 362.109375 184.707031 362.757812 Z M 60.578125 92.835938 C 66.378906 92.347656 72.152344 91.628906 77.898438 90.691406 C 83.644531 89.753906 89.347656 88.59375 95.003906 87.214844 C 100.660156 85.835938 106.253906 84.238281 111.789062 82.425781 C 117.320312 80.613281 122.773438 78.589844 128.152344 76.355469 C 133.527344 74.121094 138.808594 71.683594 143.996094 69.039062 C 149.1875 66.394531 154.261719 63.554688 159.230469 60.519531 C 164.199219 57.484375 169.042969 54.257812 173.761719 50.847656 C 178.480469 47.4375 183.058594 43.847656 187.5 40.082031 C 191.941406 43.847656 196.519531 47.4375 201.238281 50.847656 C 205.957031 54.257812 210.800781 57.484375 215.769531 60.519531 C 220.738281 63.554688 225.8125 66.394531 231.003906 69.039062 C 236.191406 71.683594 241.472656 74.121094 246.847656 76.355469 C 252.226562 78.589844 257.679688 80.613281 263.210938 82.425781 C 268.746094 84.238281 274.339844 85.835938 279.996094 87.214844 C 285.652344 88.59375 291.355469 89.753906 297.101562 90.691406 C 302.847656 91.628906 308.621094 92.347656 314.421875 92.835938 L 314.421875 174.230469 C 314.425781 176.566406 314.378906 178.902344 314.289062 181.234375 C 314.195312 183.570312 314.054688 185.898438 313.863281 188.226562 C 313.675781 190.554688 313.4375 192.878906 313.15625 195.199219 C 312.871094 197.515625 312.539062 199.828125 312.160156 202.132812 C 311.78125 204.4375 311.355469 206.734375 310.882812 209.023438 C 310.410156 211.308594 309.890625 213.585938 309.328125 215.855469 C 308.761719 218.121094 308.148438 220.375 307.488281 222.613281 C 306.832031 224.855469 306.128906 227.082031 305.378906 229.296875 C 304.628906 231.507812 303.832031 233.703125 302.992188 235.882812 C 302.152344 238.0625 301.269531 240.226562 300.34375 242.367188 C 299.414062 244.511719 298.441406 246.636719 297.425781 248.738281 C 296.410156 250.84375 295.355469 252.925781 294.253906 254.984375 C 293.152344 257.046875 292.011719 259.082031 290.828125 261.097656 C 289.640625 263.109375 288.417969 265.097656 287.152344 267.0625 C 285.886719 269.027344 284.582031 270.960938 283.238281 272.871094 C 281.890625 274.78125 280.507812 276.664062 279.085938 278.515625 C 277.664062 280.371094 276.203125 282.195312 274.707031 283.988281 C 273.210938 285.78125 271.679688 287.542969 270.109375 289.273438 C 268.539062 291.003906 266.9375 292.703125 265.296875 294.367188 C 263.660156 296.03125 261.988281 297.664062 260.28125 299.257812 C 258.578125 300.855469 256.839844 302.414062 255.070312 303.941406 C 253.300781 305.464844 251.503906 306.953125 249.671875 308.40625 C 247.839844 309.855469 245.980469 311.269531 244.09375 312.644531 C 242.207031 314.019531 240.289062 315.355469 238.347656 316.652344 C 236.40625 317.949219 234.4375 319.207031 232.441406 320.421875 C 230.445312 321.640625 228.429688 322.8125 226.386719 323.949219 C 224.34375 325.082031 222.277344 326.171875 220.191406 327.222656 C 218.105469 328.269531 215.996094 329.273438 213.867188 330.238281 C 211.738281 331.199219 209.59375 332.117188 207.425781 332.992188 C 205.261719 333.867188 203.078125 334.695312 200.875 335.480469 C 198.675781 336.265625 196.460938 337.007812 194.230469 337.699219 C 192 338.394531 189.757812 339.042969 187.5 339.644531 C 185.242188 339.042969 183 338.394531 180.769531 337.699219 C 178.539062 337.007812 176.324219 336.265625 174.125 335.480469 C 171.921875 334.695312 169.738281 333.867188 167.574219 332.992188 C 165.40625 332.117188 163.261719 331.199219 161.132812 330.238281 C 159.003906 329.273438 156.894531 328.269531 154.808594 327.222656 C 152.722656 326.171875 150.65625 325.082031 148.613281 323.949219 C 146.570312 322.8125 144.554688 321.640625 142.558594 320.421875 C 140.5625 319.207031 138.59375 317.949219 136.652344 316.652344 C 134.710938 315.355469 132.792969 314.019531 130.90625 312.644531 C 129.019531 311.269531 127.160156 309.855469 125.328125 308.40625 C 123.496094 306.953125 121.699219 305.464844 119.929688 303.941406 C 118.160156 302.414062 116.421875 300.855469 114.71875 299.257812 C 113.011719 297.664062 111.339844 296.03125 109.703125 294.367188 C 108.0625 292.703125 106.460938 291.003906 104.890625 289.273438 C 103.320312 287.542969 101.789062 285.78125 100.292969 283.988281 C 98.796875 282.195312 97.335938 280.371094 95.914062 278.515625 C 94.492188 276.664062 93.109375 274.78125 91.761719 272.871094 C 90.417969 270.960938 89.113281 269.027344 87.847656 267.0625 C 86.582031 265.097656 85.359375 263.109375 84.171875 261.097656 C 82.988281 259.082031 81.847656 257.046875 80.746094 254.984375 C 79.644531 252.925781 78.589844 250.84375 77.574219 248.738281 C 76.558594 246.636719 75.585938 244.511719 74.65625 242.367188 C 73.730469 240.226562 72.847656 238.0625 72.007812 235.882812 C 71.167969 233.703125 70.371094 231.507812 69.621094 229.296875 C 68.871094 227.082031 68.167969 224.855469 67.511719 222.613281 C 66.851562 220.375 66.238281 218.121094 65.671875 215.855469 C 65.109375 213.585938 64.589844 211.308594 64.117188 209.023438 C 63.644531 206.734375 63.21875 204.4375 62.839844 202.132812 C 62.460938 199.828125 62.128906 197.515625 61.84375 195.199219 C 61.5625 192.878906 61.324219 190.554688 61.136719 188.226562 C 60.945312 185.898438 60.804688 183.570312 60.710938 181.234375 C 60.621094 178.902344 60.574219 176.566406 60.578125 174.230469 Z M 60.578125 92.835938 " fill-opacity="1" fill-rule="nonzero"></path></g><path fill="#ffffff" d="M 167.804688 228.542969 C 168.34375 229.066406 168.929688 229.539062 169.5625 229.953125 C 170.195312 230.363281 170.859375 230.714844 171.558594 230.996094 C 172.257812 231.28125 172.976562 231.496094 173.71875 231.640625 C 174.460938 231.785156 175.207031 231.859375 175.960938 231.859375 C 176.714844 231.859375 177.464844 231.785156 178.203125 231.640625 C 178.945312 231.496094 179.664062 231.28125 180.363281 230.996094 C 181.0625 230.714844 181.730469 230.363281 182.359375 229.953125 C 182.992188 229.539062 183.578125 229.066406 184.121094 228.542969 L 253.351562 159.308594 C 253.871094 158.773438 254.335938 158.1875 254.742188 157.558594 C 255.148438 156.929688 255.488281 156.265625 255.765625 155.570312 C 256.042969 154.875 256.253906 154.160156 256.390625 153.421875 C 256.527344 152.6875 256.59375 151.945312 256.589844 151.195312 C 256.582031 150.445312 256.503906 149.703125 256.351562 148.96875 C 256.203125 148.234375 255.980469 147.523438 255.691406 146.832031 C 255.402344 146.140625 255.046875 145.484375 254.628906 144.863281 C 254.210938 144.242188 253.738281 143.664062 253.210938 143.136719 C 252.679688 142.605469 252.105469 142.132812 251.480469 141.714844 C 250.859375 141.296875 250.203125 140.945312 249.511719 140.652344 C 248.820312 140.363281 248.109375 140.144531 247.375 139.992188 C 246.640625 139.84375 245.898438 139.761719 245.152344 139.757812 C 244.402344 139.75 243.660156 139.816406 242.921875 139.953125 C 242.1875 140.09375 241.46875 140.300781 240.773438 140.578125 C 240.078125 140.855469 239.414062 141.199219 238.785156 141.605469 C 238.15625 142.011719 237.574219 142.472656 237.035156 142.996094 L 175.960938 204.066406 L 149.503906 177.609375 C 148.964844 177.089844 148.382812 176.625 147.75 176.21875 C 147.121094 175.8125 146.460938 175.46875 145.765625 175.191406 C 145.066406 174.914062 144.351562 174.707031 143.617188 174.570312 C 142.878906 174.429688 142.136719 174.363281 141.386719 174.371094 C 140.636719 174.378906 139.898438 174.457031 139.164062 174.609375 C 138.429688 174.757812 137.71875 174.980469 137.027344 175.269531 C 136.335938 175.558594 135.679688 175.914062 135.054688 176.328125 C 134.433594 176.746094 133.859375 177.222656 133.328125 177.75 C 132.800781 178.28125 132.324219 178.855469 131.90625 179.476562 C 131.488281 180.101562 131.136719 180.757812 130.847656 181.449219 C 130.558594 182.140625 130.335938 182.851562 130.1875 183.585938 C 130.035156 184.320312 129.957031 185.058594 129.949219 185.808594 C 129.941406 186.558594 130.007812 187.300781 130.148438 188.039062 C 130.285156 188.773438 130.492188 189.492188 130.769531 190.1875 C 131.046875 190.882812 131.390625 191.542969 131.796875 192.171875 C 132.203125 192.804688 132.667969 193.386719 133.1875 193.925781 Z M 167.804688 228.542969 " fill-opacity="1" fill-rule="nonzero"></path></svg>