<svg xmlns="http://www.w3.org/2000/svg" xmlns:xlink="http://www.w3.org/1999/xlink" width="60" viewBox="0 0 375 374.999991" height="60" preserveAspectRatio="xMidYMid meet"><defs><clipPath id="62a28b2a46"><path d="M 17.171875 8 L 357.671875 8 L 357.671875 367 L 17.171875 367 Z M 17.171875 8 " clip-rule="nonzero"></path></clipPath></defs><g clip-path="url(#62a28b2a46)"><path fill="#1A4159" d="M 319.632812 92.570312 L 351.234375 92.570312 C 351.636719 92.570312 352.039062 92.53125 352.433594 92.449219 C 352.832031 92.371094 353.214844 92.253906 353.589844 92.101562 C 353.964844 91.945312 354.320312 91.753906 354.65625 91.53125 C 354.992188 91.304688 355.300781 91.050781 355.589844 90.765625 C 355.875 90.480469 356.128906 90.167969 356.355469 89.832031 C 356.578125 89.496094 356.769531 89.140625 356.921875 88.765625 C 357.078125 88.394531 357.195312 88.007812 357.273438 87.609375 C 357.351562 87.214844 357.394531 86.8125 357.394531 86.410156 L 357.394531 52.40625 C 357.390625 50.988281 357.320312 49.578125 357.179688 48.167969 C 357.039062 46.757812 356.832031 45.359375 356.554688 43.96875 C 356.28125 42.582031 355.9375 41.210938 355.527344 39.855469 C 355.117188 38.5 354.640625 37.167969 354.101562 35.855469 C 353.5625 34.546875 352.960938 33.269531 352.292969 32.019531 C 351.628906 30.765625 350.90625 29.550781 350.121094 28.371094 C 349.339844 27.191406 348.5 26.054688 347.605469 24.957031 C 346.710938 23.859375 345.765625 22.808594 344.769531 21.800781 C 343.769531 20.796875 342.726562 19.839844 341.636719 18.9375 C 340.546875 18.03125 339.414062 17.183594 338.242188 16.390625 C 337.070312 15.597656 335.859375 14.863281 334.617188 14.1875 C 333.371094 13.511719 332.097656 12.898438 330.792969 12.347656 C 329.488281 11.796875 328.160156 11.308594 326.808594 10.886719 C 325.457031 10.464844 324.085938 10.113281 322.699219 9.824219 C 321.3125 9.535156 319.917969 9.316406 318.507812 9.164062 C 317.101562 9.011719 315.6875 8.929688 314.273438 8.914062 L 119.429688 8.914062 C 118.363281 8.917969 117.300781 8.949219 116.238281 9.003906 C 115.175781 9.0625 114.117188 9.144531 113.058594 9.25 C 111.996094 9.359375 110.941406 9.492188 109.890625 9.652344 C 108.839844 9.8125 107.789062 9.996094 106.746094 10.207031 C 105.703125 10.417969 104.667969 10.652344 103.636719 10.914062 C 102.605469 11.175781 101.578125 11.464844 100.5625 11.773438 C 99.542969 12.085938 98.535156 12.421875 97.535156 12.785156 C 96.53125 13.144531 95.542969 13.527344 94.558594 13.9375 C 93.578125 14.347656 92.605469 14.78125 91.644531 15.238281 C 90.683594 15.695312 89.734375 16.175781 88.796875 16.679688 C 87.859375 17.179688 86.933594 17.707031 86.023438 18.253906 C 85.109375 18.804688 84.210938 19.375 83.328125 19.964844 C 82.445312 20.558594 81.574219 21.171875 80.71875 21.808594 C 79.867188 22.441406 79.027344 23.097656 78.207031 23.773438 C 77.382812 24.449219 76.578125 25.144531 75.792969 25.859375 C 75.003906 26.574219 74.234375 27.308594 73.480469 28.0625 C 72.730469 28.816406 71.996094 29.585938 71.28125 30.375 C 70.566406 31.164062 69.871094 31.96875 69.199219 32.792969 C 68.523438 33.613281 67.867188 34.453125 67.234375 35.308594 C 66.601562 36.160156 65.988281 37.03125 65.394531 37.914062 C 64.804688 38.800781 64.234375 39.699219 63.6875 40.613281 C 63.140625 41.523438 62.613281 42.449219 62.113281 43.386719 C 61.609375 44.324219 61.128906 45.273438 60.675781 46.238281 C 60.21875 47.199219 59.785156 48.171875 59.378906 49.152344 C 58.96875 50.136719 58.585938 51.128906 58.226562 52.128906 C 57.867188 53.128906 57.53125 54.140625 57.21875 55.15625 C 56.910156 56.175781 56.625 57.199219 56.363281 58.234375 C 56.101562 59.265625 55.867188 60.300781 55.660156 61.34375 C 55.449219 62.386719 55.265625 63.4375 55.105469 64.488281 C 54.949219 65.539062 54.816406 66.597656 54.707031 67.65625 C 54.601562 68.714844 54.519531 69.773438 54.464844 70.835938 C 54.410156 71.898438 54.382812 72.964844 54.378906 74.027344 L 54.378906 281.375 L 23.148438 281.375 C 22.742188 281.375 22.34375 281.414062 21.945312 281.492188 C 21.546875 281.574219 21.164062 281.691406 20.789062 281.84375 C 20.414062 282 20.0625 282.1875 19.722656 282.414062 C 19.386719 282.636719 19.078125 282.894531 18.792969 283.179688 C 18.503906 283.464844 18.25 283.777344 18.023438 284.113281 C 17.800781 284.449219 17.609375 284.804688 17.457031 285.179688 C 17.300781 285.550781 17.183594 285.9375 17.105469 286.335938 C 17.027344 286.730469 16.988281 287.132812 16.988281 287.535156 L 16.988281 321.722656 C 16.996094 323.0625 17.0625 324.398438 17.195312 325.730469 C 17.324219 327.0625 17.519531 328.386719 17.769531 329.699219 C 18.023438 331.015625 18.335938 332.316406 18.710938 333.601562 C 19.082031 334.886719 19.511719 336.152344 20.003906 337.398438 C 20.492188 338.644531 21.039062 339.867188 21.640625 341.0625 C 22.242188 342.257812 22.898438 343.421875 23.609375 344.558594 C 24.316406 345.691406 25.078125 346.792969 25.890625 347.859375 C 26.699219 348.921875 27.558594 349.949219 28.464844 350.933594 C 29.371094 351.917969 30.320312 352.863281 31.3125 353.761719 C 32.304688 354.660156 33.335938 355.507812 34.40625 356.3125 C 35.476562 357.117188 36.582031 357.867188 37.722656 358.570312 C 38.863281 359.269531 40.035156 359.917969 41.234375 360.511719 C 42.433594 361.105469 43.65625 361.640625 44.90625 362.121094 C 46.15625 362.601562 47.425781 363.023438 48.714844 363.386719 C 50.003906 363.75 51.304688 364.054688 52.621094 364.296875 C 53.9375 364.542969 55.261719 364.722656 56.597656 364.84375 C 57.648438 365.664062 58.839844 366.09375 60.167969 366.136719 L 254.210938 366.136719 C 258.359375 366.179688 262.464844 365.789062 266.53125 364.96875 L 267.269531 364.96875 C 268.363281 364.945312 269.371094 364.636719 270.289062 364.042969 C 272.03125 363.601562 273.75 363.085938 275.449219 362.5 C 277.148438 361.917969 278.820312 361.261719 280.464844 360.539062 C 282.109375 359.816406 283.722656 359.027344 285.304688 358.171875 C 286.882812 357.316406 288.425781 356.398438 289.929688 355.414062 C 291.433594 354.433594 292.894531 353.390625 294.3125 352.285156 C 295.730469 351.183594 297.101562 350.023438 298.425781 348.808594 C 299.746094 347.589844 301.019531 346.324219 302.238281 345.003906 C 303.453125 343.683594 304.617188 342.3125 305.722656 340.898438 C 306.828125 339.480469 307.871094 338.019531 308.859375 336.519531 C 309.84375 335.015625 310.765625 333.476562 311.625 331.898438 C 312.480469 330.316406 313.273438 328.707031 314 327.0625 C 314.726562 325.417969 315.382812 323.75 315.96875 322.050781 C 316.558594 320.351562 317.074219 318.632812 317.519531 316.894531 C 317.96875 315.152344 318.339844 313.398438 318.640625 311.625 C 318.945312 309.855469 319.171875 308.074219 319.328125 306.285156 C 319.480469 304.492188 319.5625 302.699219 319.570312 300.902344 Z M 345.257812 52.40625 L 345.257812 80.679688 L 319.632812 80.679688 L 319.632812 21.175781 C 320.527344 21.34375 321.417969 21.554688 322.296875 21.804688 C 323.175781 22.050781 324.042969 22.339844 324.898438 22.664062 C 325.753906 22.988281 326.59375 23.347656 327.414062 23.746094 C 328.238281 24.140625 329.042969 24.574219 329.828125 25.039062 C 330.617188 25.507812 331.378906 26.007812 332.121094 26.539062 C 332.863281 27.074219 333.582031 27.636719 334.273438 28.234375 C 334.96875 28.828125 335.632812 29.453125 336.273438 30.109375 C 336.914062 30.761719 337.519531 31.441406 338.101562 32.148438 C 338.679688 32.855469 339.230469 33.585938 339.746094 34.339844 C 340.261719 35.09375 340.746094 35.867188 341.191406 36.664062 C 341.640625 37.460938 342.054688 38.277344 342.433594 39.109375 C 342.8125 39.941406 343.152344 40.785156 343.457031 41.648438 C 343.761719 42.511719 344.027344 43.382812 344.257812 44.269531 C 344.484375 45.152344 344.675781 46.046875 344.824219 46.949219 C 344.976562 47.851562 345.089844 48.757812 345.160156 49.667969 C 345.230469 50.578125 345.265625 51.492188 345.257812 52.40625 Z M 63.988281 354.25 C 63.019531 353.527344 61.929688 353.160156 60.722656 353.140625 C 59.6875 353.140625 58.65625 353.089844 57.625 352.988281 C 56.597656 352.886719 55.574219 352.734375 54.558594 352.535156 C 53.542969 352.332031 52.539062 352.082031 51.550781 351.78125 C 50.558594 351.480469 49.585938 351.132812 48.628906 350.734375 C 47.675781 350.339844 46.738281 349.898438 45.828125 349.410156 C 44.914062 348.921875 44.027344 348.390625 43.167969 347.816406 C 42.304688 347.238281 41.476562 346.625 40.675781 345.96875 C 39.875 345.3125 39.109375 344.617188 38.378906 343.886719 C 37.644531 343.152344 36.953125 342.386719 36.296875 341.585938 C 35.640625 340.785156 35.023438 339.957031 34.449219 339.097656 C 33.871094 338.234375 33.339844 337.347656 32.855469 336.4375 C 32.367188 335.523438 31.921875 334.589844 31.527344 333.632812 C 31.132812 332.675781 30.785156 331.703125 30.484375 330.710938 C 30.183594 329.722656 29.929688 328.71875 29.730469 327.703125 C 29.527344 326.6875 29.375 325.667969 29.273438 324.636719 C 29.171875 323.605469 29.121094 322.574219 29.121094 321.539062 L 29.121094 293.265625 L 224.148438 293.265625 L 224.148438 321.539062 C 224.15625 324.640625 224.488281 327.703125 225.148438 330.730469 C 225.808594 333.761719 226.78125 336.6875 228.066406 339.507812 C 229.351562 342.328125 230.921875 344.980469 232.773438 347.464844 C 234.625 349.949219 236.722656 352.210938 239.058594 354.25 Z M 307.679688 300.964844 C 307.675781 302.464844 307.605469 303.960938 307.476562 305.453125 C 307.34375 306.945312 307.152344 308.429688 306.894531 309.90625 C 306.636719 311.382812 306.320312 312.847656 305.941406 314.296875 C 305.5625 315.746094 305.125 317.179688 304.625 318.589844 C 304.125 320.003906 303.566406 321.394531 302.953125 322.761719 C 302.335938 324.125 301.664062 325.464844 300.9375 326.773438 C 300.207031 328.085938 299.425781 329.359375 298.589844 330.605469 C 297.753906 331.847656 296.867188 333.054688 295.933594 334.226562 C 294.996094 335.394531 294.011719 336.523438 292.980469 337.613281 C 291.945312 338.699219 290.871094 339.742188 289.753906 340.738281 C 288.632812 341.734375 287.472656 342.683594 286.277344 343.582031 C 285.078125 344.480469 283.84375 345.328125 282.574219 346.125 C 281.300781 346.917969 280 347.660156 278.667969 348.347656 C 277.335938 349.035156 275.976562 349.664062 274.59375 350.234375 C 273.207031 350.808594 271.800781 351.320312 270.371094 351.773438 C 268.945312 352.230469 267.5 352.621094 266.039062 352.957031 C 265.035156 352.914062 264.039062 352.820312 263.046875 352.683594 C 262.054688 352.546875 261.070312 352.359375 260.09375 352.128906 C 259.117188 351.894531 258.15625 351.617188 257.207031 351.292969 C 256.257812 350.96875 255.328125 350.601562 254.414062 350.191406 C 253.5 349.777344 252.605469 349.320312 251.738281 348.824219 C 250.867188 348.328125 250.019531 347.789062 249.203125 347.210938 C 248.382812 346.632812 247.59375 346.015625 246.832031 345.363281 C 246.074219 344.707031 245.34375 344.019531 244.652344 343.296875 C 243.957031 342.574219 243.296875 341.820312 242.675781 341.035156 C 242.050781 340.246094 241.46875 339.433594 240.921875 338.59375 C 240.378906 337.75 239.875 336.886719 239.410156 335.996094 C 238.949219 335.105469 238.527344 334.195312 238.152344 333.265625 C 237.777344 332.335938 237.445312 331.390625 237.160156 330.429688 C 236.875 329.46875 236.636719 328.496094 236.445312 327.511719 C 236.25 326.527344 236.105469 325.539062 236.007812 324.539062 C 235.90625 323.542969 235.855469 322.542969 235.855469 321.539062 L 235.855469 287.351562 C 235.855469 286.945312 235.816406 286.546875 235.734375 286.148438 C 235.65625 285.753906 235.539062 285.367188 235.386719 284.992188 C 235.230469 284.621094 235.039062 284.265625 234.816406 283.929688 C 234.589844 283.59375 234.335938 283.28125 234.050781 282.996094 C 233.765625 282.710938 233.453125 282.453125 233.117188 282.230469 C 232.78125 282.003906 232.425781 281.816406 232.050781 281.660156 C 231.679688 281.503906 231.292969 281.386719 230.894531 281.308594 C 230.5 281.230469 230.097656 281.191406 229.695312 281.191406 L 66.265625 281.191406 L 66.265625 74.027344 C 66.269531 72.285156 66.355469 70.546875 66.527344 68.8125 C 66.699219 67.082031 66.957031 65.359375 67.296875 63.652344 C 67.640625 61.941406 68.0625 60.253906 68.570312 58.589844 C 69.074219 56.921875 69.660156 55.285156 70.328125 53.675781 C 70.996094 52.066406 71.738281 50.492188 72.558594 48.957031 C 73.378906 47.417969 74.273438 45.925781 75.242188 44.476562 C 76.207031 43.027344 77.242188 41.628906 78.347656 40.28125 C 79.449219 38.933594 80.617188 37.644531 81.847656 36.410156 C 83.078125 35.175781 84.367188 34.007812 85.710938 32.902344 C 87.054688 31.792969 88.453125 30.753906 89.898438 29.785156 C 91.347656 28.8125 92.835938 27.917969 94.371094 27.09375 C 95.90625 26.269531 97.476562 25.519531 99.085938 24.851562 C 100.691406 24.179688 102.328125 23.589844 103.996094 23.078125 C 105.660156 22.570312 107.347656 22.140625 109.054688 21.796875 C 110.761719 21.453125 112.484375 21.191406 114.214844 21.015625 C 115.949219 20.839844 117.6875 20.75 119.429688 20.742188 L 307.679688 20.742188 Z M 307.679688 300.964844 " fill-opacity="1" fill-rule="nonzero"></path></g><path fill="#1A4159" d="M 100.949219 82.773438 C 100.949219 83.179688 100.988281 83.578125 101.066406 83.976562 C 101.144531 84.375 101.261719 84.757812 101.417969 85.132812 C 101.574219 85.503906 101.761719 85.859375 101.988281 86.195312 C 102.210938 86.535156 102.46875 86.84375 102.753906 87.128906 C 103.039062 87.417969 103.351562 87.671875 103.6875 87.898438 C 104.023438 88.121094 104.378906 88.3125 104.75 88.464844 C 105.125 88.621094 105.511719 88.738281 105.90625 88.816406 C 106.304688 88.894531 106.703125 88.933594 107.109375 88.933594 L 160.886719 88.933594 C 161.34375 89.058594 161.808594 89.128906 162.28125 89.148438 C 162.753906 89.164062 163.222656 89.125 163.6875 89.035156 C 164.152344 88.945312 164.601562 88.800781 165.03125 88.605469 C 165.464844 88.414062 165.867188 88.171875 166.242188 87.882812 C 166.617188 87.597656 166.957031 87.269531 167.257812 86.90625 C 167.558594 86.539062 167.8125 86.144531 168.023438 85.71875 C 168.234375 85.296875 168.390625 84.851562 168.5 84.390625 C 168.609375 83.929688 168.660156 83.464844 168.660156 82.992188 C 168.660156 82.515625 168.609375 82.050781 168.5 81.589844 C 168.390625 81.128906 168.234375 80.683594 168.023438 80.261719 C 167.8125 79.835938 167.558594 79.441406 167.257812 79.074219 C 166.957031 78.710938 166.617188 78.382812 166.242188 78.097656 C 165.867188 77.808594 165.464844 77.566406 165.03125 77.375 C 164.601562 77.179688 164.152344 77.035156 163.6875 76.945312 C 163.222656 76.855469 162.753906 76.816406 162.28125 76.835938 C 161.808594 76.851562 161.34375 76.921875 160.886719 77.046875 L 106.554688 77.046875 C 105.820312 77.109375 105.125 77.300781 104.460938 77.613281 C 103.796875 77.929688 103.207031 78.347656 102.691406 78.875 C 102.179688 79.398438 101.769531 79.996094 101.472656 80.667969 C 101.171875 81.339844 100.996094 82.042969 100.949219 82.773438 Z M 100.949219 82.773438 " fill-opacity="1" fill-rule="nonzero"></path><path fill="#1A4159" d="M 100.949219 123.925781 C 100.949219 124.328125 100.988281 124.730469 101.066406 125.125 C 101.144531 125.523438 101.261719 125.90625 101.417969 126.28125 C 101.574219 126.65625 101.761719 127.011719 101.988281 127.347656 C 102.210938 127.683594 102.46875 127.992188 102.753906 128.28125 C 103.039062 128.566406 103.351562 128.820312 103.6875 129.046875 C 104.023438 129.269531 104.378906 129.460938 104.75 129.617188 C 105.125 129.769531 105.511719 129.886719 105.90625 129.964844 C 106.304688 130.042969 106.703125 130.085938 107.109375 130.085938 L 175.855469 130.085938 C 176.308594 130.199219 176.769531 130.257812 177.238281 130.269531 C 177.707031 130.277344 178.167969 130.234375 178.628906 130.136719 C 179.085938 130.039062 179.527344 129.890625 179.953125 129.695312 C 180.375 129.496094 180.773438 129.253906 181.140625 128.964844 C 181.511719 128.675781 181.84375 128.351562 182.136719 127.988281 C 182.433594 127.625 182.683594 127.230469 182.886719 126.8125 C 183.09375 126.390625 183.25 125.953125 183.355469 125.496094 C 183.460938 125.039062 183.511719 124.578125 183.511719 124.109375 C 183.511719 123.640625 183.460938 123.179688 183.355469 122.722656 C 183.25 122.265625 183.09375 121.828125 182.886719 121.40625 C 182.683594 120.984375 182.433594 120.59375 182.136719 120.230469 C 181.84375 119.867188 181.511719 119.539062 181.140625 119.253906 C 180.773438 118.964844 180.375 118.722656 179.953125 118.523438 C 179.527344 118.328125 179.085938 118.179688 178.628906 118.082031 C 178.171875 117.984375 177.707031 117.941406 177.238281 117.949219 C 176.769531 117.957031 176.308594 118.019531 175.855469 118.132812 L 106.554688 118.132812 C 106.1875 118.167969 105.828125 118.230469 105.476562 118.328125 C 105.121094 118.425781 104.777344 118.550781 104.445312 118.710938 C 104.117188 118.867188 103.800781 119.054688 103.503906 119.269531 C 103.203125 119.480469 102.929688 119.722656 102.671875 119.984375 C 102.417969 120.25 102.1875 120.53125 101.984375 120.835938 C 101.777344 121.140625 101.601562 121.464844 101.457031 121.800781 C 101.308594 122.136719 101.191406 122.480469 101.105469 122.839844 C 101.023438 123.195312 100.96875 123.558594 100.949219 123.925781 Z M 100.949219 123.925781 " fill-opacity="1" fill-rule="nonzero"></path><path fill="#1A4159" d="M 259.261719 159.160156 L 106.554688 159.160156 C 105.902344 159.335938 105.296875 159.613281 104.734375 159.992188 C 104.171875 160.367188 103.6875 160.824219 103.277344 161.363281 C 102.867188 161.898438 102.550781 162.488281 102.335938 163.128906 C 102.117188 163.769531 102.007812 164.429688 102.007812 165.105469 C 102.007812 165.78125 102.117188 166.4375 102.335938 167.078125 C 102.550781 167.71875 102.867188 168.308594 103.277344 168.84375 C 103.6875 169.382812 104.171875 169.839844 104.734375 170.21875 C 105.296875 170.59375 105.902344 170.871094 106.554688 171.046875 L 259.261719 171.046875 C 259.914062 170.871094 260.523438 170.59375 261.082031 170.21875 C 261.644531 169.839844 262.128906 169.382812 262.539062 168.84375 C 262.953125 168.308594 263.265625 167.71875 263.480469 167.078125 C 263.699219 166.4375 263.808594 165.78125 263.808594 165.105469 C 263.808594 164.429688 263.699219 163.769531 263.480469 163.128906 C 263.265625 162.488281 262.953125 161.898438 262.539062 161.363281 C 262.128906 160.824219 261.644531 160.367188 261.082031 159.992188 C 260.523438 159.613281 259.914062 159.335938 259.261719 159.160156 Z M 259.261719 159.160156 " fill-opacity="1" fill-rule="nonzero"></path><path fill="#1A4159" d="M 259.261719 200.308594 L 106.554688 200.308594 C 105.886719 200.476562 105.269531 200.746094 104.691406 201.121094 C 104.117188 201.496094 103.617188 201.953125 103.195312 202.496094 C 102.773438 203.035156 102.449219 203.632812 102.226562 204.28125 C 102.003906 204.929688 101.890625 205.597656 101.890625 206.285156 C 101.890625 206.972656 102.003906 207.640625 102.226562 208.289062 C 102.449219 208.9375 102.773438 209.53125 103.195312 210.074219 C 103.617188 210.613281 104.117188 211.074219 104.691406 211.449219 C 105.269531 211.820312 105.886719 212.09375 106.554688 212.257812 L 259.261719 212.257812 C 259.929688 212.09375 260.550781 211.820312 261.125 211.449219 C 261.699219 211.074219 262.199219 210.613281 262.621094 210.074219 C 263.042969 209.53125 263.367188 208.9375 263.589844 208.289062 C 263.8125 207.640625 263.925781 206.972656 263.925781 206.285156 C 263.925781 205.597656 263.8125 204.929688 263.589844 204.28125 C 263.367188 203.632812 263.042969 203.035156 262.621094 202.496094 C 262.199219 201.953125 261.699219 201.496094 261.125 201.121094 C 260.550781 200.746094 259.929688 200.476562 259.261719 200.308594 Z M 259.261719 200.308594 " fill-opacity="1" fill-rule="nonzero"></path><path fill="#1A4159" d="M 259.261719 241.519531 L 106.554688 241.519531 C 105.902344 241.699219 105.296875 241.972656 104.734375 242.351562 C 104.171875 242.730469 103.6875 243.1875 103.277344 243.722656 C 102.867188 244.261719 102.550781 244.847656 102.335938 245.488281 C 102.117188 246.128906 102.007812 246.789062 102.007812 247.464844 C 102.007812 248.140625 102.117188 248.800781 102.335938 249.4375 C 102.550781 250.078125 102.867188 250.667969 103.277344 251.207031 C 103.6875 251.742188 104.171875 252.199219 104.734375 252.578125 C 105.296875 252.953125 105.902344 253.230469 106.554688 253.410156 L 259.261719 253.410156 C 259.914062 253.230469 260.523438 252.953125 261.082031 252.578125 C 261.644531 252.199219 262.128906 251.742188 262.539062 251.207031 C 262.953125 250.667969 263.265625 250.078125 263.480469 249.4375 C 263.699219 248.800781 263.808594 248.140625 263.808594 247.464844 C 263.808594 246.789062 263.699219 246.128906 263.480469 245.488281 C 263.265625 244.847656 262.953125 244.261719 262.539062 243.722656 C 262.128906 243.1875 261.644531 242.730469 261.082031 242.351562 C 260.523438 241.972656 259.914062 241.699219 259.261719 241.519531 Z M 259.261719 241.519531 " fill-opacity="1" fill-rule="nonzero"></path><path fill="#1A4159" d="M 206.410156 138.769531 L 221.253906 133.65625 L 227.414062 145.976562 C 227.671875 146.46875 227.988281 146.921875 228.363281 147.328125 C 228.742188 147.734375 229.164062 148.085938 229.636719 148.378906 C 230.109375 148.671875 230.609375 148.894531 231.144531 149.054688 C 231.675781 149.210938 232.21875 149.292969 232.773438 149.304688 L 233.082031 149.304688 C 233.660156 149.261719 234.222656 149.144531 234.769531 148.941406 C 235.316406 148.742188 235.824219 148.472656 236.292969 148.128906 C 236.761719 147.785156 237.171875 147.382812 237.527344 146.921875 C 237.882812 146.464844 238.167969 145.964844 238.378906 145.421875 L 246.882812 121.769531 L 255.382812 145.421875 C 255.59375 145.964844 255.878906 146.464844 256.234375 146.921875 C 256.589844 147.382812 257 147.785156 257.46875 148.128906 C 257.9375 148.472656 258.445312 148.742188 258.992188 148.941406 C 259.539062 149.144531 260.101562 149.261719 260.679688 149.304688 C 261.234375 149.292969 261.777344 149.210938 262.3125 149.054688 C 262.84375 148.894531 263.34375 148.671875 263.816406 148.378906 C 264.289062 148.085938 264.714844 147.734375 265.089844 147.328125 C 265.46875 146.921875 265.785156 146.46875 266.039062 145.976562 L 272.199219 133.65625 L 286.984375 138.769531 C 287.519531 138.929688 288.070312 139.015625 288.628906 139.023438 C 289.191406 139.035156 289.742188 138.96875 290.285156 138.828125 C 290.828125 138.683594 291.34375 138.472656 291.828125 138.191406 C 292.3125 137.910156 292.75 137.570312 293.144531 137.167969 C 293.527344 136.726562 293.839844 136.242188 294.085938 135.710938 C 294.332031 135.179688 294.496094 134.625 294.585938 134.046875 C 294.671875 133.46875 294.675781 132.890625 294.597656 132.308594 C 294.523438 131.730469 294.363281 131.171875 294.128906 130.636719 L 275.648438 91.152344 C 278.007812 86.808594 279.320312 82.167969 279.589844 77.230469 C 279.589844 76.167969 279.539062 75.105469 279.433594 74.046875 C 279.332031 72.992188 279.175781 71.941406 278.96875 70.898438 C 278.757812 69.855469 278.5 68.824219 278.191406 67.808594 C 277.882812 66.789062 277.527344 65.789062 277.121094 64.808594 C 276.710938 63.824219 276.257812 62.863281 275.757812 61.925781 C 275.257812 60.988281 274.710938 60.078125 274.121094 59.195312 C 273.527344 58.3125 272.898438 57.457031 272.222656 56.636719 C 271.546875 55.8125 270.835938 55.027344 270.082031 54.277344 C 269.332031 53.523438 268.542969 52.808594 267.722656 52.136719 C 266.898438 51.460938 266.046875 50.828125 265.164062 50.238281 C 264.277344 49.648438 263.367188 49.101562 262.429688 48.601562 C 261.492188 48.097656 260.53125 47.644531 259.550781 47.238281 C 258.566406 46.832031 257.570312 46.472656 256.550781 46.164062 C 255.535156 45.855469 254.503906 45.597656 253.460938 45.390625 C 252.417969 45.183594 251.367188 45.027344 250.308594 44.921875 C 249.25 44.820312 248.191406 44.765625 247.128906 44.765625 C 246.0625 44.765625 245.003906 44.820312 243.945312 44.921875 C 242.886719 45.027344 241.835938 45.183594 240.792969 45.390625 C 239.75 45.597656 238.722656 45.855469 237.703125 46.164062 C 236.6875 46.472656 235.6875 46.832031 234.703125 47.238281 C 233.722656 47.644531 232.761719 48.097656 231.824219 48.601562 C 230.886719 49.101562 229.976562 49.648438 229.089844 50.238281 C 228.207031 50.828125 227.355469 51.460938 226.53125 52.136719 C 225.710938 52.808594 224.925781 53.523438 224.171875 54.277344 C 223.421875 55.027344 222.707031 55.8125 222.03125 56.636719 C 221.359375 57.457031 220.726562 58.3125 220.136719 59.195312 C 219.542969 60.078125 219 60.988281 218.496094 61.925781 C 217.996094 62.863281 217.542969 63.824219 217.136719 64.808594 C 216.726562 65.789062 216.371094 66.789062 216.0625 67.808594 C 215.753906 68.824219 215.496094 69.855469 215.289062 70.898438 C 215.078125 71.941406 214.925781 72.992188 214.820312 74.046875 C 214.714844 75.105469 214.664062 76.167969 214.664062 77.230469 C 214.671875 82.113281 215.738281 86.753906 217.867188 91.152344 L 199.386719 130.636719 C 199.1875 131.167969 199.0625 131.714844 199.015625 132.277344 C 198.964844 132.839844 198.992188 133.398438 199.097656 133.953125 C 199.203125 134.511719 199.378906 135.042969 199.632812 135.546875 C 199.882812 136.054688 200.195312 136.515625 200.574219 136.9375 C 200.953125 137.355469 201.382812 137.71875 201.859375 138.019531 C 202.335938 138.320312 202.847656 138.554688 203.390625 138.714844 C 203.929688 138.875 204.484375 138.960938 205.050781 138.972656 C 205.613281 138.980469 206.171875 138.914062 206.71875 138.769531 Z M 271.398438 120.722656 C 270.714844 120.507812 270.015625 120.414062 269.300781 120.441406 C 268.585938 120.472656 267.894531 120.621094 267.230469 120.890625 C 266.570312 121.160156 265.96875 121.535156 265.4375 122.015625 C 264.90625 122.492188 264.46875 123.046875 264.128906 123.675781 L 261.851562 128.234375 L 254.949219 108.648438 C 259.902344 107.414062 264.296875 105.113281 268.132812 101.746094 L 278.050781 122.9375 Z M 246.757812 56.65625 C 247.429688 56.65625 248.105469 56.6875 248.773438 56.753906 C 249.445312 56.820312 250.109375 56.921875 250.773438 57.050781 C 251.433594 57.183594 252.085938 57.347656 252.730469 57.542969 C 253.375 57.738281 254.007812 57.964844 254.632812 58.222656 C 255.253906 58.480469 255.863281 58.769531 256.457031 59.085938 C 257.050781 59.402344 257.628906 59.75 258.1875 60.125 C 258.75 60.496094 259.289062 60.898438 259.808594 61.328125 C 260.332031 61.753906 260.828125 62.207031 261.304688 62.683594 C 261.78125 63.160156 262.234375 63.65625 262.660156 64.179688 C 263.089844 64.699219 263.492188 65.238281 263.863281 65.800781 C 264.238281 66.359375 264.585938 66.9375 264.902344 67.53125 C 265.21875 68.125 265.507812 68.734375 265.765625 69.355469 C 266.023438 69.980469 266.25 70.613281 266.445312 71.257812 C 266.640625 71.902344 266.804688 72.554688 266.9375 73.21875 C 267.070312 73.878906 267.167969 74.542969 267.234375 75.214844 C 267.300781 75.882812 267.332031 76.558594 267.332031 77.230469 C 267.332031 77.90625 267.300781 78.578125 267.234375 79.246094 C 267.167969 79.917969 267.070312 80.582031 266.9375 81.246094 C 266.804688 81.90625 266.640625 82.558594 266.445312 83.203125 C 266.25 83.847656 266.023438 84.480469 265.765625 85.105469 C 265.507812 85.726562 265.21875 86.335938 264.902344 86.929688 C 264.585938 87.523438 264.238281 88.101562 263.863281 88.660156 C 263.492188 89.222656 263.089844 89.761719 262.660156 90.28125 C 262.234375 90.804688 261.78125 91.300781 261.304688 91.777344 C 260.828125 92.253906 260.332031 92.707031 259.808594 93.136719 C 259.289062 93.5625 258.75 93.964844 258.1875 94.339844 C 257.628906 94.710938 257.050781 95.058594 256.457031 95.375 C 255.863281 95.695312 255.253906 95.980469 254.632812 96.238281 C 254.007812 96.496094 253.375 96.722656 252.730469 96.917969 C 252.085938 97.113281 251.433594 97.277344 250.773438 97.410156 C 250.109375 97.542969 249.445312 97.640625 248.773438 97.707031 C 248.105469 97.773438 247.429688 97.804688 246.757812 97.804688 C 246.082031 97.804688 245.410156 97.773438 244.742188 97.707031 C 244.070312 97.640625 243.40625 97.542969 242.742188 97.410156 C 242.082031 97.277344 241.429688 97.113281 240.785156 96.917969 C 240.140625 96.722656 239.507812 96.496094 238.882812 96.238281 C 238.261719 95.980469 237.652344 95.695312 237.058594 95.375 C 236.464844 95.058594 235.886719 94.710938 235.328125 94.339844 C 234.765625 93.964844 234.226562 93.5625 233.707031 93.136719 C 233.183594 92.707031 232.6875 92.253906 232.210938 91.777344 C 231.734375 91.300781 231.28125 90.804688 230.851562 90.28125 C 230.425781 89.761719 230.023438 89.222656 229.652344 88.660156 C 229.277344 88.101562 228.929688 87.523438 228.613281 86.929688 C 228.292969 86.335938 228.007812 85.726562 227.75 85.105469 C 227.492188 84.480469 227.265625 83.847656 227.070312 83.203125 C 226.875 82.558594 226.710938 81.90625 226.578125 81.246094 C 226.445312 80.582031 226.347656 79.917969 226.28125 79.246094 C 226.214844 78.578125 226.183594 77.90625 226.183594 77.230469 C 226.183594 76.558594 226.214844 75.882812 226.28125 75.214844 C 226.347656 74.542969 226.445312 73.878906 226.578125 73.21875 C 226.710938 72.554688 226.875 71.902344 227.070312 71.257812 C 227.265625 70.613281 227.492188 69.980469 227.75 69.355469 C 228.007812 68.734375 228.292969 68.125 228.613281 67.53125 C 228.929688 66.9375 229.277344 66.359375 229.652344 65.800781 C 230.023438 65.238281 230.425781 64.699219 230.851562 64.179688 C 231.28125 63.65625 231.734375 63.160156 232.210938 62.683594 C 232.6875 62.207031 233.183594 61.753906 233.707031 61.328125 C 234.226562 60.898438 234.765625 60.496094 235.328125 60.125 C 235.886719 59.75 236.464844 59.402344 237.058594 59.085938 C 237.652344 58.769531 238.261719 58.480469 238.882812 58.222656 C 239.507812 57.964844 240.140625 57.738281 240.785156 57.542969 C 241.429688 57.347656 242.082031 57.183594 242.742188 57.050781 C 243.40625 56.921875 244.070312 56.820312 244.742188 56.753906 C 245.410156 56.6875 246.082031 56.65625 246.757812 56.65625 Z M 225.691406 101.746094 C 229.546875 105.117188 233.960938 107.417969 238.933594 108.648438 L 231.851562 128.296875 L 229.570312 123.675781 C 229.230469 123.046875 228.796875 122.492188 228.261719 122.015625 C 227.730469 121.535156 227.132812 121.160156 226.46875 120.890625 C 225.804688 120.621094 225.117188 120.472656 224.398438 120.441406 C 223.683594 120.414062 222.984375 120.507812 222.300781 120.722656 L 215.835938 122.9375 Z M 225.691406 101.746094 " fill-opacity="1" fill-rule="nonzero"></path></svg>