<svg xmlns="http://www.w3.org/2000/svg" xmlns:xlink="http://www.w3.org/1999/xlink" width="60" viewBox="0 0 375 374.999991" height="60" preserveAspectRatio="xMidYMid meet"><defs><clipPath id="9b050c13a7"><path d="M 34 316 L 341 316 L 341 357.84375 L 34 357.84375 Z M 34 316 " clip-rule="nonzero"></path></clipPath><clipPath id="db689ffc6a"><path d="M 69 17.34375 L 306 17.34375 L 306 269 L 69 269 Z M 69 17.34375 " clip-rule="nonzero"></path></clipPath></defs><path fill="#1A4159" d="M 354.390625 325.117188 L 20.542969 325.117188 C 9.21875 325.117188 0.00390625 315.90625 0.00390625 304.582031 L 0.00390625 296.429688 C 0.00390625 289.601562 5.5625 284.039062 12.398438 284.039062 L 362.542969 284.039062 C 369.371094 284.039062 374.933594 289.59375 374.933594 296.429688 L 374.933594 304.582031 C 374.925781 315.898438 365.714844 325.117188 354.390625 325.117188 Z M 12.398438 292.519531 C 10.242188 292.519531 8.488281 294.277344 8.488281 296.429688 L 8.488281 304.582031 C 8.488281 311.230469 13.898438 316.636719 20.542969 316.636719 L 354.382812 316.636719 C 361.03125 316.636719 366.433594 311.222656 366.433594 304.582031 L 366.433594 296.429688 C 366.433594 294.277344 364.679688 292.519531 362.523438 292.519531 Z M 12.398438 292.519531 " fill-opacity="1" fill-rule="nonzero"></path><g clip-path="url(#9b050c13a7)"><path fill="#1A4159" d="M 319.816406 357.707031 L 55.117188 357.707031 C 43.792969 357.707031 34.578125 348.496094 34.578125 337.171875 L 34.578125 320.875 C 34.578125 318.535156 36.480469 316.636719 38.820312 316.636719 C 41.164062 316.636719 43.0625 318.535156 43.0625 320.875 L 43.0625 337.171875 C 43.0625 343.820312 48.472656 349.226562 55.117188 349.226562 L 319.816406 349.226562 C 326.464844 349.226562 331.871094 343.8125 331.871094 337.171875 L 331.871094 320.875 C 331.871094 318.535156 333.769531 316.636719 336.109375 316.636719 C 338.453125 316.636719 340.351562 318.535156 340.351562 320.875 L 340.351562 337.171875 C 340.351562 348.496094 331.140625 357.707031 319.816406 357.707031 Z M 319.816406 357.707031 " fill-opacity="1" fill-rule="nonzero"></path></g><path fill="#1A4159" d="M 339.207031 292.519531 C 336.867188 292.519531 334.964844 290.621094 334.964844 288.277344 C 334.964844 285.9375 336.867188 284.039062 339.207031 284.039062 C 346.460938 284.039062 352.363281 278.132812 352.363281 270.882812 L 352.363281 80.488281 C 352.363281 73.234375 346.460938 67.332031 339.207031 67.332031 L 305.785156 67.332031 L 305.785156 264.578125 C 305.785156 266.921875 303.886719 268.820312 301.546875 268.820312 L 73.386719 268.820312 C 71.046875 268.820312 69.144531 266.921875 69.144531 264.578125 L 69.144531 67.332031 L 35.726562 67.332031 C 28.472656 67.332031 22.570312 73.234375 22.570312 80.488281 L 22.570312 270.882812 C 22.570312 278.132812 28.472656 284.039062 35.726562 284.039062 C 38.066406 284.039062 39.964844 285.9375 39.964844 288.277344 C 39.964844 290.621094 38.066406 292.519531 35.726562 292.519531 C 23.789062 292.519531 14.085938 282.816406 14.085938 270.882812 L 14.085938 80.488281 C 14.085938 68.550781 23.789062 58.847656 35.726562 58.847656 L 73.386719 58.847656 C 75.726562 58.847656 77.628906 60.746094 77.628906 63.089844 L 77.628906 260.339844 L 297.304688 260.339844 L 297.304688 63.089844 C 297.304688 60.746094 299.203125 58.847656 301.546875 58.847656 L 339.207031 58.847656 C 351.140625 58.847656 360.84375 68.550781 360.84375 80.488281 L 360.84375 270.882812 C 360.84375 282.816406 351.132812 292.519531 339.207031 292.519531 Z M 339.207031 292.519531 " fill-opacity="1" fill-rule="nonzero"></path><path fill="#1A4159" d="M 332.894531 268.8125 L 301.546875 268.8125 C 299.203125 268.8125 297.304688 266.910156 297.304688 264.570312 C 297.304688 262.230469 299.203125 260.328125 301.546875 260.328125 L 328.65625 260.328125 L 328.65625 91.03125 L 301.546875 91.03125 C 299.203125 91.03125 297.304688 89.128906 297.304688 86.789062 C 297.304688 84.449219 299.203125 82.546875 301.546875 82.546875 L 332.894531 82.546875 C 335.238281 82.546875 337.136719 84.449219 337.136719 86.789062 L 337.136719 264.570312 C 337.136719 266.921875 335.238281 268.8125 332.894531 268.8125 Z M 73.386719 268.8125 L 42.035156 268.8125 C 39.695312 268.8125 37.792969 266.910156 37.792969 264.570312 L 37.792969 86.789062 C 37.792969 84.449219 39.695312 82.546875 42.035156 82.546875 L 73.386719 82.546875 C 75.726562 82.546875 77.628906 84.449219 77.628906 86.789062 C 77.628906 89.128906 75.726562 91.03125 73.386719 91.03125 L 46.277344 91.03125 L 46.277344 260.328125 L 73.386719 260.328125 C 75.726562 260.328125 77.628906 262.230469 77.628906 264.570312 C 77.628906 266.910156 75.726562 268.8125 73.386719 268.8125 Z M 73.386719 268.8125 " fill-opacity="1" fill-rule="nonzero"></path><g clip-path="url(#db689ffc6a)"><path fill="#1A4159" d="M 301.546875 268.8125 C 299.203125 268.8125 297.304688 266.910156 297.304688 264.570312 L 297.304688 37.40625 C 297.304688 31.027344 292.121094 25.84375 285.742188 25.84375 L 89.1875 25.84375 C 82.8125 25.84375 77.628906 31.027344 77.628906 37.40625 L 77.628906 264.578125 C 77.628906 266.921875 75.726562 268.820312 73.386719 268.820312 C 71.046875 268.820312 69.144531 266.921875 69.144531 264.578125 L 69.144531 37.40625 C 69.144531 26.351562 78.136719 17.359375 89.1875 17.359375 L 285.742188 17.359375 C 296.796875 17.359375 305.785156 26.351562 305.785156 37.40625 L 305.785156 264.578125 C 305.785156 266.921875 303.886719 268.8125 301.546875 268.8125 Z M 301.546875 268.8125 " fill-opacity="1" fill-rule="nonzero"></path></g><path fill="#1A4159" d="M 110.421875 72.25 L 95.957031 72.25 C 93.617188 72.25 91.71875 70.351562 91.71875 68.007812 L 91.71875 46.894531 C 91.71875 44.554688 93.617188 42.65625 95.957031 42.65625 L 110.421875 42.65625 C 118.582031 42.65625 125.214844 49.296875 125.214844 57.449219 C 125.222656 65.609375 118.582031 72.25 110.421875 72.25 Z M 100.199219 63.769531 L 110.421875 63.769531 C 113.898438 63.769531 116.730469 60.933594 116.730469 57.457031 C 116.730469 53.980469 113.898438 51.144531 110.421875 51.144531 L 100.199219 51.144531 Z M 100.199219 63.769531 " fill-opacity="1" fill-rule="nonzero"></path><path fill="#1A4159" d="M 110.421875 93.363281 L 95.957031 93.363281 C 93.617188 93.363281 91.71875 91.460938 91.71875 89.121094 L 91.71875 68.007812 C 91.71875 65.667969 93.617188 63.769531 95.957031 63.769531 C 98.300781 63.769531 100.199219 65.667969 100.199219 68.007812 L 100.199219 84.878906 L 110.421875 84.878906 C 113.898438 84.878906 116.730469 82.046875 116.730469 78.570312 C 116.730469 75.089844 113.898438 72.257812 110.421875 72.257812 C 108.078125 72.257812 106.179688 70.359375 106.179688 68.015625 C 106.179688 65.675781 108.078125 63.777344 110.421875 63.777344 C 118.582031 63.777344 125.214844 70.417969 125.214844 78.570312 C 125.222656 86.722656 118.582031 93.363281 110.421875 93.363281 Z M 110.421875 93.363281 " fill-opacity="1" fill-rule="nonzero"></path><path fill="#1A4159" d="M 134.273438 93.363281 C 131.933594 93.363281 130.03125 91.460938 130.03125 89.121094 L 130.03125 46.894531 C 130.03125 44.554688 131.933594 42.65625 134.273438 42.65625 C 136.613281 42.65625 138.515625 44.554688 138.515625 46.894531 L 138.515625 89.121094 C 138.515625 91.460938 136.613281 93.363281 134.273438 93.363281 Z M 134.273438 93.363281 " fill-opacity="1" fill-rule="nonzero"></path><path fill="#1A4159" d="M 148.742188 72.25 L 134.28125 72.25 C 131.941406 72.25 130.039062 70.351562 130.039062 68.007812 C 130.039062 65.667969 131.941406 63.769531 134.28125 63.769531 L 148.742188 63.769531 C 152.222656 63.769531 155.054688 60.933594 155.054688 57.457031 C 155.054688 53.980469 152.222656 51.144531 148.742188 51.144531 L 134.28125 51.144531 C 131.941406 51.144531 130.039062 49.246094 130.039062 46.90625 C 130.039062 44.5625 131.941406 42.664062 134.28125 42.664062 L 148.742188 42.664062 C 156.902344 42.664062 163.539062 49.304688 163.539062 57.457031 C 163.539062 65.609375 156.902344 72.25 148.742188 72.25 Z M 148.742188 72.25 " fill-opacity="1" fill-rule="nonzero"></path><path fill="#1A4159" d="M 158.726562 93.363281 C 157.140625 93.363281 155.613281 92.464844 154.894531 90.9375 L 144.910156 69.824219 C 143.910156 67.703125 144.816406 65.175781 146.929688 64.175781 C 149.050781 63.175781 151.578125 64.082031 152.578125 66.195312 L 162.5625 87.304688 C 163.5625 89.425781 162.65625 91.953125 160.542969 92.957031 C 159.957031 93.234375 159.339844 93.363281 158.726562 93.363281 Z M 158.726562 93.363281 " fill-opacity="1" fill-rule="nonzero"></path><path fill="#1A4159" d="M 187.78125 93.363281 C 185.4375 93.363281 183.539062 91.460938 183.539062 89.121094 L 183.539062 46.894531 C 183.539062 44.554688 185.4375 42.65625 187.78125 42.65625 C 190.121094 42.65625 192.019531 44.554688 192.019531 46.894531 L 192.019531 89.121094 C 192.019531 91.460938 190.121094 93.363281 187.78125 93.363281 Z M 187.78125 93.363281 " fill-opacity="1" fill-rule="nonzero"></path><path fill="#1A4159" d="M 202.125 51.136719 L 173.445312 51.136719 C 171.105469 51.136719 169.203125 49.238281 169.203125 46.894531 C 169.203125 44.554688 171.105469 42.65625 173.445312 42.65625 L 202.125 42.65625 C 204.464844 42.65625 206.363281 44.554688 206.363281 46.894531 C 206.363281 49.238281 204.464844 51.136719 202.125 51.136719 Z M 202.125 51.136719 " fill-opacity="1" fill-rule="nonzero"></path><path fill="#1A4159" d="M 202.125 93.363281 L 173.445312 93.363281 C 171.105469 93.363281 169.203125 91.460938 169.203125 89.121094 C 169.203125 86.78125 171.105469 84.878906 173.445312 84.878906 L 202.125 84.878906 C 204.464844 84.878906 206.363281 86.78125 206.363281 89.121094 C 206.363281 91.460938 204.464844 93.363281 202.125 93.363281 Z M 202.125 93.363281 " fill-opacity="1" fill-rule="nonzero"></path><path fill="#1A4159" d="M 241.820312 93.363281 L 217.113281 93.363281 C 214.769531 93.363281 212.871094 91.460938 212.871094 89.121094 L 212.871094 46.894531 C 212.871094 44.554688 214.769531 42.65625 217.113281 42.65625 L 241.820312 42.65625 C 244.164062 42.65625 246.0625 44.554688 246.0625 46.894531 C 246.0625 49.238281 244.164062 51.136719 241.820312 51.136719 L 221.351562 51.136719 L 221.351562 84.878906 L 241.820312 84.878906 C 244.164062 84.878906 246.0625 86.78125 246.0625 89.121094 C 246.0625 91.460938 244.164062 93.363281 241.820312 93.363281 Z M 241.820312 93.363281 " fill-opacity="1" fill-rule="nonzero"></path><path fill="#1A4159" d="M 241.820312 72.25 L 217.113281 72.25 C 214.769531 72.25 212.871094 70.351562 212.871094 68.007812 C 212.871094 65.667969 214.769531 63.769531 217.113281 63.769531 L 241.820312 63.769531 C 244.164062 63.769531 246.0625 65.667969 246.0625 68.007812 C 246.0625 70.351562 244.164062 72.25 241.820312 72.25 Z M 241.820312 72.25 " fill-opacity="1" fill-rule="nonzero"></path><path fill="#1A4159" d="M 255.960938 93.363281 C 253.621094 93.363281 251.71875 91.460938 251.71875 89.121094 L 251.71875 46.894531 C 251.71875 44.554688 253.621094 42.65625 255.960938 42.65625 L 280.671875 42.65625 C 283.011719 42.65625 284.910156 44.554688 284.910156 46.894531 C 284.910156 49.238281 283.011719 51.136719 280.671875 51.136719 L 260.203125 51.136719 L 260.203125 89.121094 C 260.203125 91.460938 258.3125 93.363281 255.960938 93.363281 Z M 255.960938 93.363281 " fill-opacity="1" fill-rule="nonzero"></path><path fill="#1A4159" d="M 280.671875 72.25 L 255.960938 72.25 C 253.621094 72.25 251.71875 70.351562 251.71875 68.007812 C 251.71875 65.667969 253.621094 63.769531 255.960938 63.769531 L 280.671875 63.769531 C 283.011719 63.769531 284.910156 65.667969 284.910156 68.007812 C 284.910156 70.351562 283.011719 72.25 280.671875 72.25 Z M 280.671875 72.25 " fill-opacity="1" fill-rule="nonzero"></path><path fill="#1A4159" d="M 116.824219 141.457031 L 100.03125 141.457031 C 95.449219 141.457031 91.71875 137.726562 91.71875 133.144531 L 91.71875 112.039062 C 91.71875 107.460938 95.449219 103.726562 100.03125 103.726562 L 116.824219 103.726562 C 121.40625 103.726562 125.136719 107.460938 125.136719 112.039062 L 125.136719 133.144531 C 125.136719 137.726562 121.40625 141.457031 116.824219 141.457031 Z M 100.199219 132.976562 L 116.65625 132.976562 L 116.65625 112.210938 L 100.199219 112.210938 Z M 116.824219 112.210938 Z M 116.824219 112.210938 " fill-opacity="1" fill-rule="nonzero"></path><path fill="#1A4159" d="M 116.824219 192.488281 L 100.03125 192.488281 C 95.449219 192.488281 91.71875 188.753906 91.71875 184.175781 L 91.71875 163.070312 C 91.71875 158.492188 95.449219 154.757812 100.03125 154.757812 L 116.824219 154.757812 C 121.40625 154.757812 125.136719 158.492188 125.136719 163.070312 L 125.136719 184.175781 C 125.136719 188.753906 121.40625 192.488281 116.824219 192.488281 Z M 100.199219 184.003906 L 116.65625 184.003906 L 116.65625 163.242188 L 100.199219 163.242188 Z M 116.824219 163.242188 Z M 116.824219 163.242188 " fill-opacity="1" fill-rule="nonzero"></path><path fill="#1A4159" d="M 116.824219 243.515625 L 100.03125 243.515625 C 95.449219 243.515625 91.71875 239.785156 91.71875 235.203125 L 91.71875 214.101562 C 91.71875 209.519531 95.449219 205.789062 100.03125 205.789062 L 116.824219 205.789062 C 121.40625 205.789062 125.136719 209.519531 125.136719 214.101562 L 125.136719 235.203125 C 125.136719 239.785156 121.40625 243.515625 116.824219 243.515625 Z M 100.199219 235.035156 L 116.65625 235.035156 L 116.65625 214.269531 L 100.199219 214.269531 Z M 116.824219 214.269531 Z M 116.824219 214.269531 " fill-opacity="1" fill-rule="nonzero"></path><path fill="#1A4159" d="M 278.972656 116.910156 L 144.332031 116.910156 C 141.992188 116.910156 140.09375 115.007812 140.09375 112.667969 C 140.09375 110.328125 141.992188 108.425781 144.332031 108.425781 L 278.972656 108.425781 C 281.316406 108.425781 283.214844 110.328125 283.214844 112.667969 C 283.214844 115.007812 281.316406 116.910156 278.972656 116.910156 Z M 278.972656 116.910156 " fill-opacity="1" fill-rule="nonzero"></path><path fill="#1A4159" d="M 250.191406 136.757812 L 144.332031 136.757812 C 141.992188 136.757812 140.09375 134.859375 140.09375 132.515625 C 140.09375 130.175781 141.992188 128.277344 144.332031 128.277344 L 250.191406 128.277344 C 252.535156 128.277344 254.433594 130.175781 254.433594 132.515625 C 254.433594 134.859375 252.535156 136.757812 250.191406 136.757812 Z M 250.191406 136.757812 " fill-opacity="1" fill-rule="nonzero"></path><path fill="#1A4159" d="M 278.972656 167.941406 L 144.332031 167.941406 C 141.992188 167.941406 140.09375 166.039062 140.09375 163.699219 C 140.09375 161.355469 141.992188 159.457031 144.332031 159.457031 L 278.972656 159.457031 C 281.316406 159.457031 283.214844 161.355469 283.214844 163.699219 C 283.214844 166.039062 281.316406 167.941406 278.972656 167.941406 Z M 278.972656 167.941406 " fill-opacity="1" fill-rule="nonzero"></path><path fill="#1A4159" d="M 250.191406 187.789062 L 144.332031 187.789062 C 141.992188 187.789062 140.09375 185.886719 140.09375 183.546875 C 140.09375 181.207031 141.992188 179.304688 144.332031 179.304688 L 250.191406 179.304688 C 252.535156 179.304688 254.433594 181.207031 254.433594 183.546875 C 254.433594 185.886719 252.535156 187.789062 250.191406 187.789062 Z M 250.191406 187.789062 " fill-opacity="1" fill-rule="nonzero"></path><path fill="#1A4159" d="M 278.972656 218.96875 L 144.332031 218.96875 C 141.992188 218.96875 140.09375 217.070312 140.09375 214.726562 C 140.09375 212.386719 141.992188 210.488281 144.332031 210.488281 L 278.972656 210.488281 C 281.316406 210.488281 283.214844 212.386719 283.214844 214.726562 C 283.214844 217.070312 281.316406 218.96875 278.972656 218.96875 Z M 278.972656 218.96875 " fill-opacity="1" fill-rule="nonzero"></path><path fill="#1A4159" d="M 250.191406 238.816406 L 144.332031 238.816406 C 141.992188 238.816406 140.09375 236.917969 140.09375 234.578125 C 140.09375 232.234375 141.992188 230.335938 144.332031 230.335938 L 250.191406 230.335938 C 252.535156 230.335938 254.433594 232.234375 254.433594 234.578125 C 254.433594 236.917969 252.535156 238.816406 250.191406 238.816406 Z M 250.191406 238.816406 " fill-opacity="1" fill-rule="nonzero"></path></svg>