<svg xmlns="http://www.w3.org/2000/svg" xmlns:xlink="http://www.w3.org/1999/xlink" width="40" viewBox="0 0 375 374.999991" height="500" preserveAspectRatio="xMidYMid meet"><defs><clipPath id="784f07b2ee"><path d="M 29.398438 29.398438 L 345.898438 29.398438 L 345.898438 345.898438 L 29.398438 345.898438 Z M 29.398438 29.398438 " clip-rule="nonzero"></path></clipPath></defs><g clip-path="url(#784f07b2ee)"><path fill="#ffffff" d="M 341.683594 261.519531 C 343.992188 267.6875 345.339844 274.3125 345.542969 281.242188 C 345.59375 281.902344 345.59375 282.5625 345.59375 283.246094 C 345.59375 317.671875 317.667969 345.59375 283.246094 345.59375 C 143.046875 345.59375 29.398438 231.945312 29.398438 91.742188 C 29.398438 57.324219 57.324219 29.398438 91.746094 29.398438 C 92.429688 29.398438 93.089844 29.398438 93.75 29.449219 C 100.679688 29.652344 107.332031 31 113.5 33.308594 L 136.902344 134.644531 C 136.902344 134.695312 136.878906 134.722656 136.828125 134.746094 L 93.902344 154.039062 L 93.773438 154.089844 C 113.472656 214.074219 160.917969 261.519531 220.902344 281.21875 L 220.953125 281.089844 L 240.269531 238.140625 L 341.683594 261.519531 " fill-opacity="1" fill-rule="nonzero"></path></g></svg>