<svg xmlns="http://www.w3.org/2000/svg" xmlns:xlink="http://www.w3.org/1999/xlink" width="60" viewBox="0 0 375 374.999991" height="60" preserveAspectRatio="xMidYMid meet"><defs><clipPath id="e06262e9f3"><path d="M 49.800781 10.679688 L 325.050781 10.679688 L 325.050781 364.679688 L 49.800781 364.679688 Z M 49.800781 10.679688 " clip-rule="nonzero"></path></clipPath></defs><g clip-path="url(#e06262e9f3)"><path fill="#1A4159" d="M 321.550781 53.125 L 282.816406 14.390625 C 280.402344 11.976562 277.320312 10.699219 273.90625 10.699219 L 62.421875 10.699219 C 55.472656 10.699219 49.820312 16.351562 49.820312 23.300781 L 49.820312 351.691406 C 49.820312 358.640625 55.472656 364.292969 62.421875 364.292969 L 312.640625 364.292969 C 319.589844 364.292969 325.242188 358.640625 325.242188 351.691406 L 325.242188 62.035156 C 325.242188 58.621094 323.964844 55.539062 321.550781 53.125 Z M 282.46875 30.171875 L 305.769531 53.476562 L 282.46875 53.476562 Z M 312.640625 352.886719 L 62.421875 352.886719 C 61.773438 352.886719 61.226562 352.339844 61.226562 351.691406 L 61.226562 23.300781 C 61.226562 22.652344 61.773438 22.105469 62.421875 22.105469 L 271.0625 22.105469 L 271.0625 55.726562 C 271.0625 60.773438 275.167969 64.882812 280.210938 64.882812 L 313.835938 64.882812 L 313.835938 351.691406 C 313.835938 352.339844 313.289062 352.886719 312.640625 352.886719 Z M 289.457031 282.453125 C 289.457031 285.601562 286.902344 288.15625 283.753906 288.15625 L 186.777344 288.15625 C 183.628906 288.15625 181.074219 285.601562 181.074219 282.453125 C 181.074219 279.300781 183.628906 276.75 186.777344 276.75 L 283.753906 276.75 C 286.902344 276.75 289.457031 279.300781 289.457031 282.453125 Z M 181.074219 258.878906 C 181.074219 255.730469 183.628906 253.175781 186.777344 253.175781 L 252.5625 253.175781 C 255.710938 253.175781 258.265625 255.730469 258.265625 258.878906 C 258.265625 262.03125 255.710938 264.582031 252.5625 264.582031 L 186.777344 264.582031 C 183.628906 264.582031 181.074219 262.03125 181.074219 258.878906 Z M 121.152344 209.472656 C 145.0625 209.472656 164.515625 190.019531 164.515625 166.109375 C 164.515625 142.195312 145.0625 122.742188 121.152344 122.742188 C 97.238281 122.742188 77.785156 142.195312 77.785156 166.109375 C 77.785156 190.019531 97.238281 209.472656 121.152344 209.472656 Z M 121.152344 134.148438 C 138.773438 134.148438 153.109375 148.484375 153.109375 166.109375 C 153.109375 183.730469 138.773438 198.066406 121.152344 198.066406 C 103.527344 198.066406 89.191406 183.730469 89.191406 166.109375 C 89.191406 148.484375 103.527344 134.148438 121.152344 134.148438 Z M 115.449219 166.109375 L 115.449219 143.730469 C 115.449219 140.582031 118 138.027344 121.152344 138.027344 C 124.300781 138.027344 126.855469 140.582031 126.855469 143.730469 L 126.855469 162.816406 L 140.195312 170.519531 C 142.921875 172.09375 143.859375 175.582031 142.28125 178.308594 C 141.226562 180.140625 139.308594 181.164062 137.339844 181.164062 C 136.371094 181.164062 135.390625 180.914062 134.492188 180.398438 L 118.300781 171.046875 C 116.535156 170.027344 115.449219 168.144531 115.449219 166.109375 Z M 165.144531 251.347656 C 163.039062 249.398438 161.769531 248.21875 161.332031 247.457031 C 160.890625 246.695312 160.503906 245.007812 159.867188 242.210938 C 159.679688 241.394531 159.472656 240.484375 159.234375 239.464844 C 157.679688 232.828125 152.058594 228.113281 145.253906 227.734375 C 144.207031 227.675781 143.277344 227.628906 142.441406 227.585938 C 139.574219 227.445312 137.84375 227.359375 137.019531 227.058594 C 136.191406 226.757812 134.808594 225.710938 132.523438 223.976562 C 131.855469 223.472656 131.113281 222.910156 130.277344 222.28125 C 124.820312 218.195312 117.484375 218.195312 112.023438 222.28125 C 111.1875 222.910156 110.441406 223.472656 109.777344 223.976562 C 107.488281 225.710938 106.109375 226.757812 105.28125 227.058594 C 104.453125 227.359375 102.726562 227.445312 99.859375 227.585938 C 99.023438 227.628906 98.09375 227.675781 97.046875 227.734375 C 90.238281 228.113281 84.621094 232.828125 83.066406 239.464844 C 82.828125 240.484375 82.621094 241.394531 82.433594 242.210938 C 81.792969 245.007812 81.410156 246.695312 80.96875 247.457031 C 80.53125 248.21875 79.261719 249.398438 77.15625 251.347656 C 76.542969 251.917969 75.859375 252.550781 75.097656 253.265625 C 70.125 257.933594 68.851562 265.15625 71.925781 271.242188 C 72.398438 272.175781 72.824219 273.007812 73.207031 273.75 C 74.515625 276.304688 75.304688 277.84375 75.457031 278.710938 C 75.613281 279.578125 75.394531 281.296875 75.039062 284.144531 C 74.933594 284.976562 74.816406 285.898438 74.695312 286.9375 C 73.886719 293.707031 77.554688 300.058594 83.820312 302.746094 C 84.453125 303.015625 85.023438 303.257812 85.570312 303.488281 L 76.21875 323.582031 C 75.1875 325.800781 75.46875 328.386719 76.957031 330.324219 C 78.445312 332.269531 80.871094 333.21875 83.285156 332.796875 L 92.226562 331.234375 L 96.789062 339.082031 C 97.96875 341.113281 100.117188 342.339844 102.449219 342.339844 C 102.550781 342.339844 102.648438 342.339844 102.75 342.335938 C 105.195312 342.226562 107.355469 340.777344 108.394531 338.554688 L 118.085938 317.734375 C 119.546875 317.300781 120.539062 317.050781 121.148438 317.050781 C 121.761719 317.050781 122.753906 317.300781 124.214844 317.734375 L 133.910156 338.5625 C 134.945312 340.777344 137.105469 342.226562 139.550781 342.335938 C 139.652344 342.339844 139.75 342.34375 139.851562 342.34375 C 142.183594 342.34375 144.332031 341.113281 145.511719 339.082031 L 150.070312 331.234375 L 159.015625 332.796875 C 161.433594 333.214844 163.855469 332.269531 165.339844 330.328125 C 166.828125 328.386719 167.113281 325.800781 166.078125 323.578125 L 156.726562 303.488281 C 157.273438 303.257812 157.847656 303.015625 158.480469 302.746094 C 164.746094 300.0625 168.414062 293.707031 167.605469 286.9375 C 167.480469 285.898438 167.363281 284.976562 167.261719 284.144531 C 166.902344 281.296875 166.6875 279.578125 166.839844 278.710938 C 166.992188 277.84375 167.785156 276.304688 169.09375 273.75 C 169.476562 273.003906 169.902344 272.175781 170.371094 271.242188 C 173.449219 265.15625 172.175781 257.933594 167.203125 253.269531 C 166.441406 252.550781 165.757812 251.917969 165.144531 251.347656 Z M 101.976562 325.308594 L 100.09375 322.066406 C 98.894531 320 96.53125 318.902344 94.179688 319.3125 L 90.484375 319.957031 L 94.6875 310.925781 C 95.09375 311.554688 95.53125 312.230469 96.027344 312.988281 C 98.136719 316.214844 101.253906 318.410156 104.746094 319.363281 Z M 148.121094 319.3125 C 145.769531 318.902344 143.40625 320 142.207031 322.066406 L 140.324219 325.308594 L 137.554688 319.367188 C 141.046875 318.414062 144.164062 316.214844 146.269531 312.988281 C 146.765625 312.230469 147.203125 311.554688 147.609375 310.925781 L 151.8125 319.960938 Z M 160.195312 266.097656 C 159.734375 267.007812 159.316406 267.816406 158.945312 268.546875 C 155.089844 276.066406 154.890625 277.179688 155.941406 285.5625 C 156.046875 286.375 156.160156 287.277344 156.28125 288.292969 C 156.488281 290.046875 155.609375 291.566406 153.988281 292.261719 C 153.050781 292.664062 152.210938 293.015625 151.457031 293.332031 C 143.671875 296.617188 142.804688 297.34375 138.21875 304.441406 C 137.777344 305.128906 137.285156 305.890625 136.722656 306.746094 C 135.757812 308.226562 134.105469 308.824219 132.417969 308.3125 C 131.441406 308.019531 130.570312 307.75 129.789062 307.507812 C 121.714844 305.015625 120.585938 305.015625 112.507812 307.507812 C 111.726562 307.75 110.859375 308.019531 109.878906 308.3125 C 108.191406 308.824219 106.542969 308.222656 105.574219 306.746094 C 105.015625 305.890625 104.523438 305.128906 104.078125 304.441406 C 99.496094 297.34375 98.628906 296.617188 90.84375 293.332031 C 90.089844 293.015625 89.25 292.664062 88.3125 292.261719 C 86.6875 291.566406 85.808594 290.046875 86.019531 288.292969 C 86.140625 287.277344 86.253906 286.375 86.355469 285.566406 C 87.40625 277.179688 87.210938 276.066406 83.355469 268.546875 C 82.980469 267.820312 82.566406 267.011719 82.105469 266.097656 C 81.308594 264.523438 81.613281 262.792969 82.902344 261.585938 C 83.644531 260.886719 84.3125 260.265625 84.910156 259.710938 C 91.105469 253.964844 91.671875 252.984375 93.550781 244.746094 C 93.734375 243.949219 93.9375 243.0625 94.167969 242.066406 C 94.570312 240.347656 95.917969 239.21875 97.679688 239.121094 C 98.699219 239.066406 99.609375 239.019531 100.425781 238.980469 C 108.867188 238.558594 109.929688 238.171875 116.664062 233.066406 C 117.316406 232.574219 118.039062 232.023438 118.855469 231.414062 C 119.5625 230.886719 120.355469 230.621094 121.148438 230.621094 C 121.941406 230.621094 122.734375 230.886719 123.441406 231.414062 C 124.257812 232.023438 124.980469 232.574219 125.632812 233.066406 C 132.371094 238.171875 133.429688 238.558594 141.871094 238.980469 C 142.6875 239.019531 143.597656 239.066406 144.617188 239.121094 C 146.378906 239.21875 147.726562 240.347656 148.128906 242.066406 C 148.363281 243.0625 148.5625 243.949219 148.746094 244.746094 C 150.625 252.984375 151.191406 253.964844 157.386719 259.710938 C 157.984375 260.265625 158.652344 260.886719 159.398438 261.585938 C 160.683594 262.792969 160.992188 264.523438 160.195312 266.097656 Z M 121.152344 242.753906 C 106.371094 242.753906 94.347656 254.777344 94.347656 269.558594 C 94.347656 284.335938 106.371094 296.359375 121.152344 296.359375 C 135.929688 296.359375 147.953125 284.335938 147.953125 269.558594 C 147.953125 254.777344 135.929688 242.753906 121.152344 242.753906 Z M 121.152344 284.953125 C 112.660156 284.953125 105.753906 278.046875 105.753906 269.558594 C 105.753906 261.066406 112.660156 254.160156 121.152344 254.160156 C 129.640625 254.160156 136.546875 261.066406 136.546875 269.558594 C 136.546875 278.046875 129.640625 284.953125 121.152344 284.953125 Z M 181.074219 154.324219 C 181.074219 151.171875 183.628906 148.621094 186.777344 148.621094 L 252.5625 148.621094 C 255.710938 148.621094 258.265625 151.171875 258.265625 154.324219 C 258.265625 157.472656 255.710938 160.027344 252.5625 160.027344 L 186.777344 160.027344 C 183.628906 160.027344 181.074219 157.472656 181.074219 154.324219 Z M 289.457031 177.894531 C 289.457031 181.042969 286.902344 183.597656 283.753906 183.597656 L 186.777344 183.597656 C 183.628906 183.597656 181.074219 181.042969 181.074219 177.894531 C 181.074219 174.746094 183.628906 172.191406 186.777344 172.191406 L 283.753906 172.191406 C 286.902344 172.191406 289.457031 174.746094 289.457031 177.894531 Z M 181.074219 64.023438 C 181.074219 60.875 183.628906 58.320312 186.777344 58.320312 L 252.5625 58.320312 C 255.710938 58.320312 258.265625 60.875 258.265625 64.023438 C 258.265625 67.171875 255.710938 69.726562 252.5625 69.726562 L 186.777344 69.726562 C 183.628906 69.726562 181.074219 67.171875 181.074219 64.023438 Z M 289.457031 87.597656 C 289.457031 90.746094 286.902344 93.300781 283.753906 93.300781 L 186.777344 93.300781 C 183.628906 93.300781 181.074219 90.746094 181.074219 87.597656 C 181.074219 84.445312 183.628906 81.894531 186.777344 81.894531 L 283.753906 81.894531 C 286.902344 81.894531 289.457031 84.445312 289.457031 87.597656 Z M 121.148438 117.15625 C 143.949219 117.15625 162.5 98.609375 162.5 75.808594 C 162.5 53.011719 143.949219 34.460938 121.148438 34.460938 C 98.351562 34.460938 79.800781 53.011719 79.800781 75.808594 C 79.800781 98.609375 98.351562 117.15625 121.148438 117.15625 Z M 121.148438 45.867188 C 137.660156 45.867188 151.09375 59.300781 151.09375 75.808594 C 151.09375 92.320312 137.660156 105.75 121.148438 105.75 C 104.640625 105.75 91.207031 92.320312 91.207031 75.808594 C 91.207031 59.300781 104.640625 45.867188 121.148438 45.867188 Z M 126.621094 85.902344 C 126.765625 85.734375 126.945312 85.527344 126.863281 84.839844 C 126.777344 84.160156 126.558594 82.34375 120.257812 81.308594 C 107.636719 79.238281 105.410156 71.894531 105.207031 67.703125 C 104.890625 61.199219 108.945312 55.691406 115.449219 53.527344 L 115.449219 53.253906 C 115.449219 50.105469 118 47.550781 121.152344 47.550781 C 124.300781 47.550781 126.855469 50.105469 126.855469 53.253906 L 126.855469 53.453125 C 131.300781 54.929688 134.980469 58.199219 136.902344 62.773438 C 138.121094 65.675781 136.757812 69.019531 133.851562 70.238281 C 130.953125 71.457031 127.605469 70.09375 126.386719 67.1875 C 125.011719 63.917969 121.542969 63.75 119.710938 64.167969 C 118.953125 64.339844 116.5 65.058594 116.601562 67.148438 C 116.683594 68.816406 119.640625 69.648438 122.105469 70.054688 C 131.890625 71.660156 137.300781 76.175781 138.183594 83.464844 C 138.636719 87.195312 137.621094 90.621094 135.246094 93.363281 C 133.242188 95.683594 130.273438 97.402344 126.855469 98.308594 L 126.855469 98.367188 C 126.855469 101.515625 124.300781 104.070312 121.152344 104.070312 C 118.003906 104.070312 115.449219 101.515625 115.449219 98.367188 L 115.449219 98.207031 C 109.824219 96.519531 105.574219 92.367188 104.183594 86.777344 C 103.421875 83.722656 105.28125 80.625 108.335938 79.863281 C 111.394531 79.105469 114.488281 80.964844 115.25 84.019531 C 115.9375 86.773438 119.054688 87.6875 121.480469 87.621094 C 123.929688 87.566406 125.917969 86.714844 126.621094 85.902344 Z M 126.621094 85.902344 " fill-opacity="1" fill-rule="nonzero"></path></g></svg>