<svg xmlns="http://www.w3.org/2000/svg" xmlns:xlink="http://www.w3.org/1999/xlink" width="40" viewBox="0 0 62.25 62.249997" height="40" preserveAspectRatio="xMidYMid meet"><defs><clipPath id="1bb84ef41b"><path d="M 37 37 L 59.121094 37 L 59.121094 59.179688 L 37 59.179688 Z M 37 37 " clip-rule="nonzero"></path></clipPath><clipPath id="ea9a507ae8"><path d="M 2.058594 2.117188 L 19 2.117188 L 19 25 L 2.058594 25 Z M 2.058594 2.117188 " clip-rule="nonzero"></path></clipPath><clipPath id="656edfc56b"><path d="M 56 25 L 59.121094 25 L 59.121094 32 L 56 32 Z M 56 25 " clip-rule="nonzero"></path></clipPath><clipPath id="7c541e0e38"><path d="M 2.058594 33 L 7 33 L 7 39 L 2.058594 39 Z M 2.058594 33 " clip-rule="nonzero"></path></clipPath><clipPath id="ddf8f6bbf2"><path d="M 2.058594 40 L 5 40 L 5 47 L 2.058594 47 Z M 2.058594 40 " clip-rule="nonzero"></path></clipPath></defs><g clip-path="url(#1bb84ef41b)"><path fill="#ffffff" d="M 55.246094 49.207031 L 53.621094 49.894531 C 52.839844 48.417969 51.945312 47.011719 50.945312 45.675781 L 55.164062 43.144531 C 55.964844 42.664062 56.492188 41.855469 56.605469 40.929688 C 56.714844 40.003906 56.40625 39.09375 55.742188 38.433594 C 54.765625 37.457031 53.253906 37.269531 52.066406 37.980469 L 46.839844 41.117188 L 45.234375 39.511719 C 43.636719 37.914062 41.039062 37.914062 39.441406 39.511719 C 37.84375 41.105469 37.84375 43.707031 39.441406 45.300781 L 41.050781 46.910156 L 37.914062 52.132812 C 37.203125 53.320312 37.390625 54.832031 38.367188 55.8125 C 38.9375 56.382812 39.695312 56.695312 40.488281 56.695312 C 40.613281 56.695312 40.738281 56.6875 40.863281 56.671875 C 41.789062 56.558594 42.59375 56.03125 43.078125 55.234375 L 45.609375 51.011719 C 46.941406 52.015625 48.347656 52.910156 49.824219 53.691406 L 49.144531 55.3125 C 48.667969 56.410156 48.914062 57.671875 49.765625 58.523438 C 50.320312 59.078125 51.0625 59.378906 51.828125 59.378906 C 52.007812 59.378906 52.1875 59.363281 52.367188 59.328125 C 53.320312 59.148438 54.121094 58.507812 54.511719 57.609375 L 55.425781 55.492188 L 57.542969 54.582031 C 58.4375 54.191406 59.078125 53.390625 59.257812 52.4375 C 59.4375 51.492188 59.136719 50.519531 58.453125 49.835938 C 57.601562 48.984375 56.339844 48.738281 55.246094 49.210938 Z M 53.117188 39.738281 C 53.5 39.511719 53.980469 39.570312 54.296875 39.882812 C 54.503906 40.09375 54.609375 40.386719 54.570312 40.683594 C 54.53125 40.980469 54.363281 41.238281 54.109375 41.390625 L 49.738281 44.015625 L 48.332031 42.613281 L 53.117188 39.742188 Z M 40.890625 40.957031 C 41.6875 40.160156 42.988281 40.160156 43.785156 40.957031 L 45.957031 43.132812 L 46.496094 43.671875 C 48.832031 46.007812 50.738281 48.664062 52.191406 51.597656 C 52.191406 51.601562 52.191406 51.605469 52.195312 51.609375 C 52.195312 51.617188 52.203125 51.625 52.207031 51.632812 C 52.402344 52.03125 52.59375 52.4375 52.773438 52.847656 C 52.367188 52.667969 51.960938 52.476562 51.558594 52.277344 C 51.550781 52.273438 51.546875 52.269531 51.539062 52.265625 C 51.535156 52.265625 51.53125 52.265625 51.527344 52.261719 C 48.59375 50.8125 45.9375 48.902344 43.605469 46.570312 L 40.890625 43.855469 C 40.09375 43.058594 40.09375 41.757812 40.890625 40.960938 Z M 41.320312 54.179688 C 41.167969 54.433594 40.910156 54.601562 40.613281 54.640625 C 40.320312 54.675781 40.027344 54.574219 39.816406 54.367188 C 39.503906 54.054688 39.441406 53.570312 39.667969 53.191406 C 39.667969 53.191406 42.542969 48.40625 42.542969 48.40625 L 43.945312 49.808594 Z M 51.988281 57.320312 C 51.703125 57.375 51.421875 57.285156 51.214844 57.078125 C 50.957031 56.820312 50.886719 56.445312 51.027344 56.113281 L 51.667969 54.59375 C 52.097656 54.789062 52.53125 54.976562 52.972656 55.148438 L 53.289062 55.277344 L 52.632812 56.796875 C 52.515625 57.074219 52.277344 57.265625 51.988281 57.320312 Z M 57.25 52.058594 C 57.191406 52.351562 57.003906 52.585938 56.730469 52.703125 L 55.207031 53.359375 L 55.078125 53.042969 C 54.902344 52.601562 54.714844 52.171875 54.523438 51.738281 L 56.046875 51.097656 C 56.375 50.957031 56.753906 51.03125 57.007812 51.285156 C 57.214844 51.496094 57.304688 51.777344 57.25 52.0625 Z M 57.25 52.058594 " fill-opacity="1" fill-rule="nonzero"></path></g><g clip-path="url(#ea9a507ae8)"><path fill="#ffffff" d="M 9.472656 24.285156 C 9.5 24.320312 9.535156 24.355469 9.570312 24.386719 C 9.589844 24.40625 9.613281 24.421875 9.636719 24.4375 C 9.671875 24.46875 9.710938 24.492188 9.753906 24.515625 C 9.777344 24.527344 9.796875 24.542969 9.820312 24.550781 C 9.867188 24.574219 9.917969 24.589844 9.964844 24.605469 C 9.984375 24.609375 10.003906 24.617188 10.027344 24.625 C 10.097656 24.640625 10.171875 24.648438 10.25 24.648438 L 14.34375 24.648438 C 14.910156 24.648438 15.367188 24.191406 15.367188 23.625 C 15.367188 23.058594 14.910156 22.601562 14.34375 22.601562 L 12.277344 22.601562 C 14.410156 19.628906 18.441406 13.578125 18.441406 10.316406 C 18.441406 5.796875 14.765625 2.125 10.25 2.125 C 5.730469 2.125 2.058594 5.796875 2.058594 10.316406 C 2.058594 14.5 8.679688 23.261719 9.4375 24.246094 C 9.449219 24.261719 9.460938 24.269531 9.472656 24.28125 Z M 10.25 4.171875 C 13.636719 4.171875 16.390625 6.929688 16.390625 10.316406 C 16.390625 12.921875 12.5 18.816406 10.25 21.910156 C 8 18.816406 4.105469 12.921875 4.105469 10.316406 C 4.105469 6.929688 6.863281 4.171875 10.25 4.171875 Z M 10.25 4.171875 " fill-opacity="1" fill-rule="nonzero"></path></g><path fill="#ffffff" d="M 14.34375 10.316406 C 14.34375 8.058594 12.507812 6.21875 10.25 6.21875 C 7.992188 6.21875 6.152344 8.058594 6.152344 10.316406 C 6.152344 12.574219 7.992188 14.410156 10.25 14.410156 C 12.507812 14.410156 14.34375 12.574219 14.34375 10.316406 Z M 8.203125 10.316406 C 8.203125 9.1875 9.121094 8.265625 10.25 8.265625 C 11.378906 8.265625 12.296875 9.1875 12.296875 10.316406 C 12.296875 11.445312 11.378906 12.363281 10.25 12.363281 C 9.121094 12.363281 8.203125 11.445312 8.203125 10.316406 Z M 8.203125 10.316406 " fill-opacity="1" fill-rule="nonzero"></path><path fill="#ffffff" d="M 34.53125 34.886719 L 38.625 34.886719 C 39.191406 34.886719 39.648438 34.429688 39.648438 33.863281 C 39.648438 33.296875 39.191406 32.839844 38.625 32.839844 L 34.53125 32.839844 C 33.964844 32.839844 33.507812 33.296875 33.507812 33.863281 C 33.507812 34.429688 33.964844 34.886719 34.53125 34.886719 Z M 34.53125 34.886719 " fill-opacity="1" fill-rule="nonzero"></path><path fill="#ffffff" d="M 26.339844 34.886719 L 30.433594 34.886719 C 31 34.886719 31.457031 34.429688 31.457031 33.863281 C 31.457031 33.296875 31 32.839844 30.433594 32.839844 L 26.339844 32.839844 C 25.773438 32.839844 25.316406 33.296875 25.316406 33.863281 C 25.316406 34.429688 25.773438 34.886719 26.339844 34.886719 Z M 26.339844 34.886719 " fill-opacity="1" fill-rule="nonzero"></path><path fill="#ffffff" d="M 26.628906 24.648438 L 30.726562 24.648438 C 31.292969 24.648438 31.75 24.191406 31.75 23.625 C 31.75 23.058594 31.292969 22.601562 30.726562 22.601562 L 26.628906 22.601562 C 26.066406 22.601562 25.605469 23.058594 25.605469 23.625 C 25.605469 24.191406 26.066406 24.648438 26.628906 24.648438 Z M 26.628906 24.648438 " fill-opacity="1" fill-rule="nonzero"></path><path fill="#ffffff" d="M 50.910156 34.886719 L 53.25 34.886719 C 53.960938 34.886719 54.652344 34.765625 55.316406 34.53125 C 55.847656 34.34375 56.128906 33.757812 55.9375 33.222656 C 55.746094 32.691406 55.160156 32.414062 54.628906 32.605469 C 54.1875 32.761719 53.722656 32.839844 53.25 32.839844 L 50.910156 32.839844 C 50.347656 32.839844 49.886719 33.296875 49.886719 33.863281 C 49.886719 34.429688 50.347656 34.886719 50.910156 34.886719 Z M 50.910156 34.886719 " fill-opacity="1" fill-rule="nonzero"></path><path fill="#ffffff" d="M 51.203125 24.648438 L 53.25 24.648438 C 53.804688 24.648438 54.339844 24.757812 54.84375 24.972656 C 54.976562 25.027344 55.113281 25.054688 55.246094 25.054688 C 55.644531 25.054688 56.023438 24.816406 56.1875 24.429688 C 56.410156 23.910156 56.167969 23.308594 55.644531 23.085938 C 54.886719 22.769531 54.082031 22.605469 53.253906 22.605469 L 51.207031 22.605469 C 50.640625 22.605469 50.183594 23.0625 50.183594 23.628906 C 50.183594 24.195312 50.640625 24.652344 51.207031 24.652344 Z M 51.203125 24.648438 " fill-opacity="1" fill-rule="nonzero"></path><path fill="#ffffff" d="M 34.820312 24.648438 L 38.917969 24.648438 C 39.484375 24.648438 39.941406 24.191406 39.941406 23.625 C 39.941406 23.058594 39.484375 22.601562 38.917969 22.601562 L 34.820312 22.601562 C 34.257812 22.601562 33.796875 23.058594 33.796875 23.625 C 33.796875 24.191406 34.257812 24.648438 34.820312 24.648438 Z M 34.820312 24.648438 " fill-opacity="1" fill-rule="nonzero"></path><g clip-path="url(#656edfc56b)"><path fill="#ffffff" d="M 57.480469 31.804688 C 57.621094 31.867188 57.765625 31.894531 57.90625 31.894531 C 58.296875 31.894531 58.667969 31.671875 58.839844 31.296875 C 59.207031 30.492188 59.394531 29.632812 59.394531 28.746094 C 59.394531 27.976562 59.253906 27.226562 58.976562 26.515625 C 58.773438 25.988281 58.179688 25.726562 57.652344 25.933594 C 57.125 26.140625 56.863281 26.734375 57.070312 27.261719 C 57.253906 27.734375 57.347656 28.234375 57.347656 28.746094 C 57.347656 29.339844 57.222656 29.914062 56.976562 30.449219 C 56.742188 30.964844 56.96875 31.570312 57.480469 31.804688 Z M 57.480469 31.804688 " fill-opacity="1" fill-rule="nonzero"></path></g><path fill="#ffffff" d="M 42.71875 34.886719 L 46.816406 34.886719 C 47.382812 34.886719 47.839844 34.429688 47.839844 33.863281 C 47.839844 33.296875 47.382812 32.839844 46.816406 32.839844 L 42.71875 32.839844 C 42.15625 32.839844 41.695312 33.296875 41.695312 33.863281 C 41.695312 34.429688 42.15625 34.886719 42.71875 34.886719 Z M 42.71875 34.886719 " fill-opacity="1" fill-rule="nonzero"></path><path fill="#ffffff" d="M 43.011719 24.648438 L 47.109375 24.648438 C 47.671875 24.648438 48.132812 24.191406 48.132812 23.625 C 48.132812 23.058594 47.671875 22.601562 47.109375 22.601562 L 43.011719 22.601562 C 42.445312 22.601562 41.988281 23.058594 41.988281 23.625 C 41.988281 24.191406 42.445312 24.648438 43.011719 24.648438 Z M 43.011719 24.648438 " fill-opacity="1" fill-rule="nonzero"></path><g clip-path="url(#7c541e0e38)"><path fill="#ffffff" d="M 6.859375 33.933594 C 6.609375 33.429688 5.996094 33.21875 5.488281 33.46875 C 4.007812 34.199219 2.863281 35.515625 2.355469 37.082031 C 2.179688 37.621094 2.476562 38.199219 3.011719 38.375 C 3.117188 38.40625 3.226562 38.425781 3.332031 38.425781 C 3.761719 38.425781 4.164062 38.148438 4.304688 37.714844 C 4.644531 36.671875 5.402344 35.792969 6.390625 35.304688 C 6.898438 35.054688 7.109375 34.441406 6.859375 33.933594 Z M 6.859375 33.933594 " fill-opacity="1" fill-rule="nonzero"></path></g><path fill="#ffffff" d="M 10.835938 47.171875 L 8.203125 47.171875 C 7.808594 47.171875 7.417969 47.117188 7.046875 47.011719 C 6.503906 46.851562 5.9375 47.160156 5.777344 47.703125 C 5.617188 48.246094 5.929688 48.8125 6.472656 48.972656 C 7.027344 49.136719 7.613281 49.21875 8.203125 49.222656 L 10.835938 49.222656 C 11.402344 49.222656 11.859375 48.761719 11.859375 48.199219 C 11.859375 47.632812 11.402344 47.171875 10.835938 47.171875 Z M 10.835938 47.171875 " fill-opacity="1" fill-rule="nonzero"></path><path fill="#ffffff" d="M 17.417969 23.625 C 17.417969 24.191406 17.875 24.648438 18.441406 24.648438 L 22.535156 24.648438 C 23.101562 24.648438 23.558594 24.191406 23.558594 23.625 C 23.558594 23.058594 23.101562 22.601562 22.535156 22.601562 L 18.441406 22.601562 C 17.875 22.601562 17.417969 23.058594 17.417969 23.625 Z M 17.417969 23.625 " fill-opacity="1" fill-rule="nonzero"></path><path fill="#ffffff" d="M 19.027344 47.171875 L 14.929688 47.171875 C 14.363281 47.171875 13.90625 47.632812 13.90625 48.199219 C 13.90625 48.761719 14.363281 49.222656 14.929688 49.222656 L 19.027344 49.222656 C 19.59375 49.222656 20.050781 48.761719 20.050781 48.199219 C 20.050781 47.632812 19.59375 47.171875 19.027344 47.171875 Z M 19.027344 47.171875 " fill-opacity="1" fill-rule="nonzero"></path><path fill="#ffffff" d="M 35.40625 47.171875 L 31.3125 47.171875 C 30.746094 47.171875 30.289062 47.632812 30.289062 48.199219 C 30.289062 48.761719 30.746094 49.222656 31.3125 49.222656 L 35.40625 49.222656 C 35.972656 49.222656 36.429688 48.761719 36.429688 48.199219 C 36.429688 47.632812 35.972656 47.171875 35.40625 47.171875 Z M 35.40625 47.171875 " fill-opacity="1" fill-rule="nonzero"></path><path fill="#ffffff" d="M 27.21875 47.171875 L 23.121094 47.171875 C 22.554688 47.171875 22.097656 47.632812 22.097656 48.199219 C 22.097656 48.761719 22.554688 49.222656 23.121094 49.222656 L 27.21875 49.222656 C 27.78125 49.222656 28.242188 48.761719 28.242188 48.199219 C 28.242188 47.632812 27.78125 47.171875 27.21875 47.171875 Z M 27.21875 47.171875 " fill-opacity="1" fill-rule="nonzero"></path><g clip-path="url(#ddf8f6bbf2)"><path fill="#ffffff" d="M 4.105469 43.078125 L 4.105469 41.472656 C 4.105469 40.90625 3.648438 40.445312 3.082031 40.445312 C 2.515625 40.445312 2.058594 40.90625 2.058594 41.472656 L 2.058594 43.078125 C 2.058594 44.078125 2.304688 45.070312 2.765625 45.949219 C 2.953125 46.296875 3.304688 46.492188 3.671875 46.492188 C 3.835938 46.492188 4 46.453125 4.152344 46.375 C 4.652344 46.113281 4.84375 45.492188 4.578125 44.992188 C 4.265625 44.398438 4.109375 43.753906 4.109375 43.078125 Z M 4.105469 43.078125 " fill-opacity="1" fill-rule="nonzero"></path></g><path fill="#ffffff" d="M 22.242188 32.839844 L 18.148438 32.839844 C 17.582031 32.839844 17.125 33.296875 17.125 33.863281 C 17.125 34.429688 17.582031 34.886719 18.148438 34.886719 L 22.242188 34.886719 C 22.808594 34.886719 23.265625 34.429688 23.265625 33.863281 C 23.265625 33.296875 22.808594 32.839844 22.242188 32.839844 Z M 22.242188 32.839844 " fill-opacity="1" fill-rule="nonzero"></path><path fill="#ffffff" d="M 14.054688 32.839844 L 9.957031 32.839844 C 9.390625 32.839844 8.933594 33.296875 8.933594 33.863281 C 8.933594 34.429688 9.390625 34.886719 9.957031 34.886719 L 14.054688 34.886719 C 14.617188 34.886719 15.078125 34.429688 15.078125 33.863281 C 15.078125 33.296875 14.617188 32.839844 14.054688 32.839844 Z M 14.054688 32.839844 " fill-opacity="1" fill-rule="nonzero"></path></svg>