<svg xmlns="http://www.w3.org/2000/svg" xmlns:xlink="http://www.w3.org/1999/xlink" width="60%" viewBox="0 0 62.25 62.249997" height="60%" preserveAspectRatio="xMidYMid meet"><defs><clipPath id="86fa3df163"><path d="M 23 2.765625 L 27 2.765625 L 27 11 L 23 11 Z M 23 2.765625 " clip-rule="nonzero"></path></clipPath><clipPath id="cf10798923"><path d="M 1.449219 17 L 9 17 L 9 24 L 1.449219 24 Z M 1.449219 17 " clip-rule="nonzero"></path></clipPath><clipPath id="4b27bf12e8"><path d="M 35 2.765625 L 39 2.765625 L 39 11 L 35 11 Z M 35 2.765625 " clip-rule="nonzero"></path></clipPath><clipPath id="a5ddaaa5aa"><path d="M 53 17 L 59.992188 17 L 59.992188 24 L 53 24 Z M 53 17 " clip-rule="nonzero"></path></clipPath></defs><g clip-path="url(#86fa3df163)"><path fill="#ffffff" d="M 25.496094 10.515625 L 25.234375 10.515625 C 24.644531 10.578125 24.050781 10.121094 23.984375 9.527344 L 23.328125 4.207031 C 23.261719 3.613281 23.722656 3.023438 24.316406 2.957031 L 24.578125 2.957031 C 25.167969 2.890625 25.761719 3.351562 25.824219 3.941406 L 26.484375 9.265625 C 26.550781 9.855469 26.089844 10.449219 25.496094 10.515625 Z M 25.496094 10.515625 " fill-opacity="1" fill-rule="nonzero"></path></g><path fill="#ffffff" d="M 14.128906 13.011719 L 13.933594 13.144531 C 13.40625 13.40625 12.683594 13.207031 12.421875 12.683594 L 9.925781 7.953125 C 9.660156 7.425781 9.859375 6.703125 10.382812 6.441406 L 10.582031 6.308594 C 11.105469 6.046875 11.828125 6.242188 12.09375 6.769531 L 14.589844 11.5 C 14.851562 12.027344 14.65625 12.683594 14.128906 13.011719 Z M 14.128906 13.011719 " fill-opacity="1" fill-rule="nonzero"></path><g clip-path="url(#cf10798923)"><path fill="#ffffff" d="M 8.28125 22.40625 L 8.148438 22.671875 C 7.820312 23.195312 7.097656 23.328125 6.574219 23 L 2.105469 20.042969 C 1.578125 19.714844 1.449219 18.992188 1.777344 18.464844 L 1.90625 18.269531 C 2.234375 17.742188 2.957031 17.609375 3.484375 17.941406 L 7.953125 20.898438 C 8.476562 21.226562 8.675781 21.949219 8.28125 22.40625 Z M 8.28125 22.40625 " fill-opacity="1" fill-rule="nonzero"></path></g><g clip-path="url(#4b27bf12e8)"><path fill="#ffffff" d="M 36.011719 10.515625 L 36.273438 10.578125 C 36.867188 10.644531 37.457031 10.25 37.589844 9.660156 L 38.375 4.402344 C 38.441406 3.8125 38.046875 3.21875 37.457031 3.089844 L 37.128906 2.957031 C 36.535156 2.890625 35.945312 3.285156 35.8125 3.878906 L 35.027344 9.132812 C 34.960938 9.792969 35.355469 10.382812 36.011719 10.515625 Z M 36.011719 10.515625 " fill-opacity="1" fill-rule="nonzero"></path></g><path fill="#ffffff" d="M 47.445312 13.011719 L 47.640625 13.144531 C 48.167969 13.40625 48.890625 13.207031 49.152344 12.683594 L 51.652344 7.953125 C 51.914062 7.425781 51.714844 6.703125 51.191406 6.441406 L 50.992188 6.308594 C 50.46875 6.046875 49.746094 6.242188 49.480469 6.769531 L 46.984375 11.5 C 46.65625 12.027344 46.855469 12.683594 47.445312 13.011719 Z M 47.445312 13.011719 " fill-opacity="1" fill-rule="nonzero"></path><g clip-path="url(#a5ddaaa5aa)"><path fill="#ffffff" d="M 53.226562 22.40625 L 53.359375 22.605469 C 53.6875 23.128906 54.410156 23.261719 54.9375 22.933594 L 59.40625 19.976562 C 59.929688 19.648438 60.0625 18.925781 59.734375 18.398438 L 59.601562 18.203125 C 59.273438 17.675781 58.550781 17.546875 58.023438 17.875 L 53.554688 20.898438 C 53.03125 21.226562 52.898438 21.949219 53.226562 22.40625 Z M 53.226562 22.40625 " fill-opacity="1" fill-rule="nonzero"></path></g><path fill="#ffffff" d="M 53.882812 32.265625 L 45.210938 19.253906 C 45.015625 18.925781 44.621094 18.726562 44.289062 18.726562 L 18.203125 18.726562 C 17.875 18.726562 17.480469 18.925781 17.285156 19.1875 L 9.136719 31.476562 C 8.871094 31.609375 8.675781 31.871094 8.675781 32.132812 L 8.609375 32.265625 C 8.347656 32.660156 8.347656 33.183594 8.675781 33.578125 L 30.425781 58.21875 C 30.621094 58.484375 30.953125 58.613281 31.214844 58.613281 C 31.476562 58.613281 31.804688 58.484375 32.003906 58.21875 L 53.753906 33.578125 C 54.148438 33.25 54.148438 32.722656 53.882812 32.265625 Z M 44.355469 21.882812 L 50.730469 31.476562 L 41.003906 31.476562 Z M 43.171875 20.898438 L 39.757812 30.6875 L 32.792969 20.898438 Z M 38.507812 31.410156 L 23.722656 31.410156 L 31.082031 21.027344 Z M 29.441406 20.898438 L 22.671875 30.492188 L 19.386719 20.898438 Z M 18.136719 21.882812 L 21.421875 31.476562 L 11.765625 31.476562 Z M 10.910156 32.855469 L 21.949219 32.855469 L 29.046875 53.421875 Z M 31.214844 55.328125 L 23.460938 32.855469 L 38.96875 32.855469 Z M 33.449219 53.421875 L 40.546875 32.855469 L 51.585938 32.855469 Z M 33.449219 53.421875 " fill-opacity="1" fill-rule="nonzero"></path></svg>