<svg xmlns="http://www.w3.org/2000/svg" xmlns:xlink="http://www.w3.org/1999/xlink" width="40" viewBox="0 0 375 374.999991" height="500" preserveAspectRatio="xMidYMid meet"><path fill="#ffffff" d="M 268.867188 53.761719 C 250.03125 49.996094 230.1875 55.019531 214.367188 67.074219 C 198.042969 79.628906 187.996094 97.964844 186.742188 117.804688 C 185.234375 141.160156 195.53125 164.015625 214.617188 178.582031 C 233.203125 192.898438 257.3125 196.917969 278.660156 189.382812 C 279.664062 188.878906 280.921875 189.128906 281.675781 189.882812 C 282.679688 190.636719 283.179688 191.640625 282.929688 192.898438 C 279.917969 262.214844 217.632812 289.339844 205.074219 294.109375 C 201.054688 295.617188 198.542969 299.636719 199.296875 303.90625 L 200.804688 315.457031 C 201.558594 321.234375 207.835938 325 213.363281 322.742188 C 355.511719 264.976562 345.214844 160.25 338.683594 129.359375 C 332.40625 98.464844 307.542969 61.046875 268.867188 53.761719 Z M 280.167969 99.21875 C 279.164062 99.972656 278.160156 100.226562 276.902344 100.226562 C 275.394531 100.226562 273.890625 99.472656 272.882812 98.464844 C 262.085938 85.15625 243.5 92.1875 243.5 92.1875 C 240.988281 93.191406 237.976562 91.9375 236.96875 89.425781 C 235.964844 86.914062 237.222656 83.898438 239.734375 82.894531 C 240.738281 82.394531 265.351562 73.351562 280.671875 92.1875 C 282.679688 94.195312 282.175781 97.460938 280.167969 99.21875 Z M 280.167969 99.21875 " fill-opacity="1" fill-rule="nonzero"></path><path fill="#ffffff" d="M 103.109375 53.761719 C 84.273438 49.996094 64.433594 55.019531 48.609375 67.074219 C 32.285156 79.628906 22.238281 97.964844 20.984375 117.804688 C 19.476562 141.160156 29.773438 164.015625 48.859375 178.582031 C 67.445312 192.898438 91.554688 196.917969 112.902344 189.382812 C 113.90625 188.878906 115.164062 189.128906 115.917969 189.882812 C 116.921875 190.636719 117.425781 191.640625 117.171875 192.898438 C 114.160156 262.214844 51.875 289.339844 39.316406 294.109375 C 35.300781 295.617188 32.789062 299.636719 33.542969 303.90625 L 35.046875 315.457031 C 35.800781 321.234375 42.078125 325 47.605469 322.742188 C 189.753906 264.976562 179.457031 160.25 172.929688 129.359375 C 166.648438 98.464844 141.785156 61.046875 103.109375 53.761719 Z M 114.410156 99.21875 C 112.402344 100.976562 108.886719 100.476562 107.378906 98.464844 C 96.578125 85.15625 77.992188 92.1875 77.992188 92.1875 C 75.484375 93.191406 72.46875 91.9375 71.464844 89.425781 C 70.460938 86.914062 71.714844 83.898438 74.226562 82.894531 C 75.230469 82.394531 99.84375 73.351562 115.164062 92.1875 C 116.921875 94.195312 116.417969 97.460938 114.410156 99.21875 Z M 114.410156 99.21875 " fill-opacity="1" fill-rule="nonzero"></path></svg>