<svg xmlns="http://www.w3.org/2000/svg" xmlns:xlink="http://www.w3.org/1999/xlink" width="60" viewBox="0 0 30 30.000001" height="60" preserveAspectRatio="xMidYMid meet"><defs><clipPath id="5ab79a25eb"><path d="M 0.484375 0 L 29.515625 0 L 29.515625 29.03125 L 0.484375 29.03125 Z M 0.484375 0 " clip-rule="nonzero"></path></clipPath></defs><path fill="#0071b8" d="M 3.625 13.585938 C 3.113281 13.585938 2.699219 14.003906 2.699219 14.515625 C 2.699219 15.027344 3.113281 15.445312 3.625 15.445312 C 4.140625 15.445312 4.554688 15.027344 4.554688 14.515625 C 4.554688 14.003906 4.140625 13.585938 3.625 13.585938 " fill-opacity="1" fill-rule="nonzero"></path><path fill="#0071b8" d="M 6.300781 21.902344 C 5.9375 22.265625 5.9375 22.851562 6.300781 23.214844 C 6.664062 23.578125 7.253906 23.578125 7.613281 23.214844 C 7.976562 22.851562 7.976562 22.265625 7.613281 21.902344 C 7.253906 21.539062 6.664062 21.539062 6.300781 21.902344 " fill-opacity="1" fill-rule="nonzero"></path><path fill="#0071b8" d="M 23.699219 7.128906 C 24.0625 6.769531 24.0625 6.179688 23.699219 5.816406 C 23.335938 5.457031 22.746094 5.457031 22.386719 5.816406 C 22.023438 6.179688 22.023438 6.769531 22.386719 7.128906 C 22.746094 7.492188 23.335938 7.492188 23.699219 7.128906 " fill-opacity="1" fill-rule="nonzero"></path><path fill="#0071b8" d="M 15 4.070312 C 15.511719 4.070312 15.929688 3.65625 15.929688 3.144531 C 15.929688 2.628906 15.511719 2.214844 15 2.214844 C 14.488281 2.214844 14.070312 2.628906 14.070312 3.144531 C 14.070312 3.65625 14.488281 4.070312 15 4.070312 " fill-opacity="1" fill-rule="nonzero"></path><path fill="#0071b8" d="M 7.613281 5.816406 C 7.253906 5.457031 6.664062 5.457031 6.300781 5.816406 C 5.9375 6.179688 5.9375 6.769531 6.300781 7.128906 C 6.664062 7.492188 7.253906 7.492188 7.613281 7.128906 C 7.976562 6.769531 7.976562 6.179688 7.613281 5.816406 " fill-opacity="1" fill-rule="nonzero"></path><path fill="#0071b8" d="M 26.375 13.585938 C 25.859375 13.585938 25.445312 14.003906 25.445312 14.515625 C 25.445312 15.027344 25.859375 15.445312 26.375 15.445312 C 26.886719 15.445312 27.300781 15.027344 27.300781 14.515625 C 27.300781 14.003906 26.886719 13.585938 26.375 13.585938 " fill-opacity="1" fill-rule="nonzero"></path><path fill="#0071b8" d="M 15.695312 15.097656 C 15.695312 15.128906 15.683594 15.15625 15.679688 15.183594 C 15.671875 15.230469 15.667969 15.273438 15.652344 15.320312 C 15.636719 15.363281 15.613281 15.402344 15.59375 15.441406 C 15.570312 15.480469 15.550781 15.515625 15.519531 15.546875 C 15.488281 15.585938 15.453125 15.613281 15.414062 15.640625 C 15.390625 15.660156 15.375 15.683594 15.347656 15.699219 L 13.027344 17.039062 C 12.695312 17.230469 12.265625 17.117188 12.074219 16.785156 C 11.882812 16.453125 12 16.027344 12.332031 15.832031 L 14.304688 14.695312 L 14.304688 11.613281 C 14.304688 11.230469 14.617188 10.917969 15 10.917969 C 15.382812 10.917969 15.695312 11.230469 15.695312 11.613281 Z M 15 8.25 C 11.542969 8.25 8.734375 11.058594 8.734375 14.515625 C 8.734375 17.972656 11.542969 20.78125 15 20.78125 C 18.457031 20.78125 21.265625 17.972656 21.265625 14.515625 C 21.265625 11.058594 18.457031 8.25 15 8.25 " fill-opacity="1" fill-rule="nonzero"></path><g clip-path="url(#5ab79a25eb)"><path fill="#0071b8" d="M 26.375 16.835938 C 25.335938 16.835938 24.46875 16.152344 24.171875 15.210938 L 22.625 15.210938 C 22.480469 16.804688 21.851562 18.253906 20.882812 19.414062 L 21.976562 20.507812 C 22.851562 20.054688 23.949219 20.183594 24.683594 20.917969 C 25.589844 21.824219 25.589844 23.292969 24.683594 24.199219 C 23.777344 25.105469 22.308594 25.105469 21.402344 24.199219 C 20.667969 23.464844 20.539062 22.367188 20.992188 21.492188 L 19.898438 20.398438 C 18.738281 21.367188 17.289062 21.996094 15.695312 22.140625 L 15.695312 23.6875 C 16.636719 23.984375 17.320312 24.851562 17.320312 25.890625 C 17.320312 27.171875 16.28125 28.210938 15 28.210938 C 13.71875 28.210938 12.679688 27.171875 12.679688 25.890625 C 12.679688 24.851562 13.363281 23.984375 14.304688 23.6875 L 14.304688 22.140625 C 12.710938 21.996094 11.261719 21.367188 10.101562 20.398438 L 9.007812 21.492188 C 9.460938 22.367188 9.332031 23.464844 8.597656 24.199219 C 7.691406 25.105469 6.222656 25.105469 5.316406 24.199219 C 4.410156 23.292969 4.410156 21.824219 5.316406 20.917969 C 6.050781 20.183594 7.148438 20.054688 8.023438 20.507812 L 9.117188 19.414062 C 8.148438 18.253906 7.519531 16.804688 7.375 15.210938 L 5.828125 15.210938 C 5.53125 16.152344 4.664062 16.835938 3.625 16.835938 C 2.34375 16.835938 1.304688 15.796875 1.304688 14.515625 C 1.304688 13.234375 2.34375 12.195312 3.625 12.195312 C 4.664062 12.195312 5.53125 12.878906 5.828125 13.820312 L 7.375 13.820312 C 7.519531 12.230469 8.148438 10.777344 9.117188 9.617188 L 8.023438 8.523438 C 7.148438 8.976562 6.050781 8.847656 5.316406 8.117188 C 4.410156 7.210938 4.410156 5.738281 5.316406 4.832031 C 6.222656 3.925781 7.691406 3.925781 8.597656 4.832031 C 9.332031 5.566406 9.460938 6.664062 9.007812 7.539062 L 10.101562 8.632812 C 11.261719 7.664062 12.710938 7.035156 14.304688 6.890625 L 14.304688 5.34375 C 13.363281 5.046875 12.679688 4.179688 12.679688 3.144531 C 12.679688 1.863281 13.71875 0.820312 15 0.820312 C 16.28125 0.820312 17.320312 1.863281 17.320312 3.144531 C 17.320312 4.179688 16.636719 5.046875 15.695312 5.34375 L 15.695312 6.890625 C 17.289062 7.035156 18.738281 7.664062 19.898438 8.632812 L 20.992188 7.539062 C 20.539062 6.664062 20.667969 5.566406 21.402344 4.832031 C 22.308594 3.925781 23.777344 3.925781 24.683594 4.832031 C 25.589844 5.738281 25.589844 7.210938 24.683594 8.117188 C 23.949219 8.847656 22.851562 8.976562 21.976562 8.523438 L 20.882812 9.617188 C 21.851562 10.777344 22.480469 12.230469 22.625 13.820312 L 24.171875 13.820312 C 24.46875 12.878906 25.335938 12.195312 26.375 12.195312 C 27.65625 12.195312 28.695312 13.234375 28.695312 14.515625 C 28.695312 15.796875 27.65625 16.835938 26.375 16.835938 Z M 26.375 11.375 C 25.191406 11.375 24.160156 12.03125 23.625 13 L 23.335938 13 C 23.117188 11.789062 22.644531 10.667969 21.96875 9.695312 L 22.179688 9.484375 C 22.457031 9.5625 22.746094 9.617188 23.042969 9.617188 C 23.882812 9.617188 24.671875 9.289062 25.265625 8.695312 C 26.488281 7.46875 26.488281 5.476562 25.265625 4.25 C 24.671875 3.660156 23.882812 3.332031 23.042969 3.332031 C 22.203125 3.332031 21.414062 3.660156 20.820312 4.25 C 19.988281 5.085938 19.734375 6.273438 20.035156 7.332031 L 19.820312 7.546875 C 18.847656 6.871094 17.726562 6.398438 16.519531 6.179688 L 16.519531 5.890625 C 17.484375 5.355469 18.144531 4.324219 18.144531 3.144531 C 18.144531 1.410156 16.734375 0 15 0 C 13.265625 0 11.855469 1.410156 11.855469 3.144531 C 11.855469 4.324219 12.515625 5.355469 13.480469 5.894531 L 13.480469 6.179688 C 12.273438 6.398438 11.152344 6.871094 10.179688 7.546875 L 9.964844 7.332031 C 10.265625 6.273438 10.011719 5.085938 9.179688 4.25 C 8.585938 3.660156 7.796875 3.332031 6.957031 3.332031 C 6.117188 3.332031 5.328125 3.660156 4.734375 4.25 C 3.511719 5.476562 3.511719 7.472656 4.734375 8.695312 C 5.328125 9.289062 6.117188 9.617188 6.957031 9.617188 C 7.253906 9.617188 7.539062 9.5625 7.820312 9.484375 L 8.03125 9.695312 C 7.355469 10.667969 6.882812 11.789062 6.664062 13 L 6.375 13 C 5.839844 12.03125 4.808594 11.375 3.625 11.375 C 1.894531 11.375 0.484375 12.78125 0.484375 14.515625 C 0.484375 16.25 1.894531 17.660156 3.625 17.660156 C 4.808594 17.660156 5.839844 17 6.375 16.035156 L 6.664062 16.035156 C 6.882812 17.242188 7.355469 18.363281 8.03125 19.335938 L 7.820312 19.550781 C 7.539062 19.472656 7.253906 19.417969 6.957031 19.417969 C 6.117188 19.417969 5.328125 19.742188 4.734375 20.335938 C 3.511719 21.5625 3.511719 23.554688 4.734375 24.78125 C 5.328125 25.375 6.117188 25.699219 6.957031 25.699219 C 7.796875 25.699219 8.585938 25.375 9.179688 24.78125 C 10.011719 23.945312 10.265625 22.761719 9.964844 21.699219 L 10.179688 21.484375 C 11.152344 22.160156 12.273438 22.632812 13.480469 22.855469 L 13.480469 23.140625 C 12.515625 23.675781 11.855469 24.707031 11.855469 25.890625 C 11.855469 27.621094 13.265625 29.03125 15 29.03125 C 16.734375 29.03125 18.144531 27.621094 18.144531 25.890625 C 18.144531 24.707031 17.484375 23.675781 16.519531 23.140625 L 16.519531 22.855469 C 17.726562 22.632812 18.847656 22.160156 19.820312 21.484375 L 20.035156 21.699219 C 19.734375 22.757812 19.984375 23.945312 20.820312 24.78125 C 21.414062 25.375 22.203125 25.699219 23.042969 25.699219 C 23.882812 25.699219 24.671875 25.375 25.265625 24.78125 C 26.488281 23.554688 26.488281 21.5625 25.265625 20.335938 C 24.671875 19.742188 23.882812 19.417969 23.042969 19.417969 C 22.746094 19.417969 22.457031 19.46875 22.179688 19.550781 L 21.96875 19.335938 C 22.644531 18.363281 23.117188 17.242188 23.335938 16.035156 L 23.625 16.035156 C 24.160156 17 25.191406 17.660156 26.375 17.660156 C 28.105469 17.660156 29.515625 16.25 29.515625 14.515625 C 29.515625 12.78125 28.105469 11.375 26.375 11.375 " fill-opacity="1" fill-rule="nonzero"></path></g><path fill="#0071b8" d="M 22.386719 23.214844 C 22.746094 23.578125 23.335938 23.578125 23.699219 23.214844 C 24.0625 22.851562 24.0625 22.265625 23.699219 21.902344 C 23.335938 21.539062 22.746094 21.539062 22.386719 21.902344 C 22.023438 22.265625 22.023438 22.851562 22.386719 23.214844 " fill-opacity="1" fill-rule="nonzero"></path><path fill="#0071b8" d="M 15 24.960938 C 14.488281 24.960938 14.070312 25.375 14.070312 25.890625 C 14.070312 26.402344 14.488281 26.816406 15 26.816406 C 15.511719 26.816406 15.929688 26.402344 15.929688 25.890625 C 15.929688 25.375 15.511719 24.960938 15 24.960938 " fill-opacity="1" fill-rule="nonzero"></path></svg>