<svg xmlns="http://www.w3.org/2000/svg" xmlns:xlink="http://www.w3.org/1999/xlink" width="40" viewBox="0 0 375 374.999991" height="500" preserveAspectRatio="xMidYMid meet"><defs><clipPath id="fbbb1a0634"><path d="M 43 42 L 342 42 L 342 341.445312 L 43 341.445312 Z M 43 42 " clip-rule="nonzero"></path></clipPath></defs><path fill="#ffffff" d="M 101.425781 207.671875 C 102.296875 208.546875 103.191406 209.394531 104.109375 210.226562 C 105.023438 211.054688 105.957031 211.859375 106.910156 212.644531 C 107.867188 213.425781 108.839844 214.183594 109.832031 214.921875 C 110.824219 215.65625 111.832031 216.367188 112.859375 217.050781 C 113.886719 217.738281 114.929688 218.398438 115.988281 219.03125 C 117.046875 219.667969 118.121094 220.273438 119.207031 220.855469 C 120.296875 221.4375 121.398438 221.992188 122.515625 222.519531 C 123.632812 223.046875 124.761719 223.546875 125.902344 224.019531 C 127.042969 224.492188 128.195312 224.9375 129.355469 225.351562 C 130.519531 225.769531 131.691406 226.15625 132.871094 226.511719 C 134.054688 226.871094 135.242188 227.199219 136.441406 227.5 C 137.636719 227.800781 138.84375 228.070312 140.054688 228.3125 C 141.265625 228.550781 142.480469 228.761719 143.699219 228.941406 C 144.921875 229.125 146.148438 229.273438 147.375 229.394531 C 148.605469 229.515625 149.835938 229.605469 151.066406 229.667969 C 152.300781 229.726562 153.535156 229.757812 154.769531 229.757812 C 156.003906 229.757812 157.238281 229.726562 158.472656 229.667969 C 159.703125 229.605469 160.933594 229.515625 162.164062 229.394531 C 163.390625 229.273438 164.617188 229.121094 165.839844 228.941406 C 167.058594 228.757812 168.273438 228.546875 169.484375 228.308594 C 170.695312 228.066406 171.902344 227.796875 173.097656 227.496094 C 174.296875 227.195312 175.484375 226.867188 176.667969 226.507812 C 177.847656 226.148438 179.019531 225.761719 180.183594 225.34375 C 181.34375 224.929688 182.496094 224.484375 183.636719 224.011719 C 184.777344 223.539062 185.90625 223.039062 187.019531 222.511719 C 188.136719 221.984375 189.238281 221.429688 190.328125 220.847656 C 191.417969 220.265625 192.492188 219.65625 193.550781 219.023438 C 194.609375 218.386719 195.652344 217.726562 196.675781 217.039062 C 197.703125 216.355469 198.710938 215.644531 199.703125 214.910156 C 200.695312 214.171875 201.667969 213.414062 202.625 212.628906 C 203.578125 211.847656 204.511719 211.039062 205.425781 210.210938 C 206.339844 209.382812 207.234375 208.53125 208.109375 207.660156 C 208.980469 206.785156 209.832031 205.890625 210.660156 204.976562 C 211.488281 204.0625 212.296875 203.128906 213.078125 202.171875 C 213.863281 201.21875 214.621094 200.246094 215.355469 199.253906 C 216.09375 198.261719 216.800781 197.253906 217.488281 196.226562 C 218.175781 195.199219 218.835938 194.15625 219.46875 193.097656 C 220.105469 192.039062 220.710938 190.964844 221.292969 189.878906 C 221.875 188.789062 222.429688 187.6875 222.957031 186.570312 C 223.484375 185.453125 223.984375 184.324219 224.457031 183.183594 C 224.929688 182.042969 225.375 180.894531 225.792969 179.730469 C 226.207031 178.566406 226.59375 177.394531 226.953125 176.214844 C 227.3125 175.035156 227.640625 173.84375 227.941406 172.644531 C 228.238281 171.449219 228.511719 170.246094 228.75 169.035156 C 228.992188 167.824219 229.203125 166.605469 229.382812 165.386719 C 229.566406 164.164062 229.714844 162.941406 229.835938 161.710938 C 229.957031 160.484375 230.046875 159.25 230.109375 158.019531 C 230.171875 156.785156 230.199219 155.550781 230.199219 154.316406 C 230.199219 153.082031 230.171875 151.847656 230.109375 150.617188 C 230.046875 149.382812 229.957031 148.152344 229.835938 146.921875 C 229.714844 145.695312 229.566406 144.46875 229.382812 143.25 C 229.203125 142.027344 228.992188 140.8125 228.75 139.601562 C 228.511719 138.390625 228.238281 137.1875 227.941406 135.988281 C 227.640625 134.789062 227.3125 133.601562 226.953125 132.417969 C 226.59375 131.238281 226.207031 130.066406 225.792969 128.902344 C 225.375 127.742188 224.929688 126.589844 224.457031 125.449219 C 223.984375 124.308594 223.484375 123.179688 222.957031 122.066406 C 222.429688 120.949219 221.875 119.847656 221.292969 118.757812 C 220.710938 117.667969 220.105469 116.59375 219.46875 115.535156 C 218.835938 114.476562 218.175781 113.433594 217.488281 112.40625 C 216.800781 111.382812 216.09375 110.371094 215.355469 109.378906 C 214.621094 108.390625 213.863281 107.417969 213.078125 106.460938 C 212.296875 105.507812 211.488281 104.574219 210.660156 103.65625 C 209.832031 102.742188 208.980469 101.847656 208.109375 100.976562 C 207.234375 100.101562 206.339844 99.253906 205.425781 98.421875 C 204.511719 97.59375 203.578125 96.789062 202.625 96.003906 C 201.667969 95.222656 200.695312 94.460938 199.703125 93.726562 C 198.710938 92.992188 197.703125 92.28125 196.675781 91.59375 C 195.652344 90.910156 194.609375 90.246094 193.550781 89.613281 C 192.492188 88.976562 191.417969 88.371094 190.328125 87.789062 C 189.238281 87.207031 188.136719 86.652344 187.019531 86.121094 C 185.90625 85.59375 184.777344 85.09375 183.636719 84.621094 C 182.496094 84.148438 181.34375 83.707031 180.183594 83.289062 C 179.019531 82.875 177.847656 82.484375 176.667969 82.128906 C 175.484375 81.769531 174.296875 81.441406 173.097656 81.140625 C 171.902344 80.839844 170.695312 80.570312 169.484375 80.328125 C 168.273438 80.085938 167.058594 79.875 165.839844 79.695312 C 164.617188 79.511719 163.390625 79.363281 162.164062 79.242188 C 160.933594 79.121094 159.703125 79.027344 158.472656 78.96875 C 157.238281 78.90625 156.003906 78.875 154.769531 78.875 C 153.535156 78.875 152.300781 78.90625 151.066406 78.96875 C 149.835938 79.027344 148.605469 79.117188 147.375 79.238281 C 146.148438 79.359375 144.921875 79.511719 143.699219 79.691406 C 142.480469 79.871094 141.265625 80.082031 140.054688 80.324219 C 138.84375 80.566406 137.636719 80.835938 136.441406 81.132812 C 135.242188 81.433594 134.054688 81.761719 132.871094 82.121094 C 131.691406 82.480469 130.519531 82.867188 129.355469 83.28125 C 128.195312 83.699219 127.042969 84.140625 125.902344 84.613281 C 124.761719 85.085938 123.632812 85.585938 122.515625 86.113281 C 121.398438 86.640625 120.296875 87.195312 119.207031 87.777344 C 118.121094 88.359375 117.046875 88.96875 115.988281 89.601562 C 114.929688 90.238281 113.886719 90.898438 112.859375 91.582031 C 111.832031 92.269531 110.824219 92.980469 109.832031 93.714844 C 108.839844 94.449219 107.867188 95.207031 106.910156 95.992188 C 105.957031 96.773438 105.023438 97.582031 104.109375 98.410156 C 103.191406 99.238281 102.296875 100.089844 101.425781 100.960938 C 100.546875 101.832031 99.691406 102.722656 98.859375 103.636719 C 98.023438 104.550781 97.210938 105.480469 96.425781 106.433594 C 95.636719 107.386719 94.871094 108.359375 94.132812 109.347656 C 93.394531 110.339844 92.675781 111.347656 91.988281 112.375 C 91.296875 113.398438 90.632812 114.441406 89.992188 115.5 C 89.355469 116.558594 88.742188 117.632812 88.15625 118.722656 C 87.570312 119.808594 87.011719 120.914062 86.480469 122.027344 C 85.949219 123.144531 85.445312 124.273438 84.972656 125.414062 C 84.496094 126.558594 84.046875 127.710938 83.628906 128.871094 C 83.210938 130.035156 82.820312 131.207031 82.460938 132.390625 C 82.097656 133.574219 81.769531 134.765625 81.464844 135.964844 C 81.164062 137.164062 80.890625 138.367188 80.648438 139.582031 C 80.40625 140.792969 80.195312 142.011719 80.011719 143.234375 C 79.828125 144.457031 79.675781 145.683594 79.554688 146.914062 C 79.433594 148.144531 79.34375 149.375 79.28125 150.609375 C 79.21875 151.84375 79.191406 153.082031 79.191406 154.316406 C 79.191406 155.554688 79.21875 156.789062 79.28125 158.023438 C 79.34375 159.257812 79.433594 160.492188 79.554688 161.722656 C 79.675781 162.953125 79.828125 164.179688 80.011719 165.402344 C 80.195312 166.625 80.40625 167.84375 80.648438 169.054688 C 80.890625 170.265625 81.164062 171.472656 81.464844 172.671875 C 81.769531 173.871094 82.097656 175.0625 82.460938 176.242188 C 82.820312 177.425781 83.210938 178.597656 83.628906 179.761719 C 84.046875 180.925781 84.496094 182.078125 84.972656 183.21875 C 85.445312 184.359375 85.949219 185.488281 86.480469 186.605469 C 87.011719 187.722656 87.570312 188.824219 88.15625 189.914062 C 88.742188 191.003906 89.355469 192.074219 89.992188 193.132812 C 90.632812 194.191406 91.296875 195.234375 91.988281 196.261719 C 92.675781 197.285156 93.394531 198.292969 94.132812 199.285156 C 94.871094 200.277344 95.636719 201.246094 96.425781 202.199219 C 97.210938 203.152344 98.023438 204.085938 98.859375 205 C 99.691406 205.910156 100.546875 206.800781 101.425781 207.671875 Z M 94.925781 174.027344 C 95.226562 173.910156 95.539062 173.824219 95.863281 173.765625 C 96.183594 173.707031 96.507812 173.679688 96.832031 173.683594 C 97.160156 173.6875 97.480469 173.722656 97.800781 173.785156 C 98.121094 173.851562 98.433594 173.945312 98.734375 174.070312 C 99.035156 174.191406 99.324219 174.34375 99.597656 174.523438 C 99.871094 174.699219 100.125 174.902344 100.359375 175.128906 C 100.59375 175.355469 100.804688 175.601562 100.992188 175.867188 C 101.179688 176.132812 101.34375 176.414062 101.476562 176.710938 C 104.398438 183.691406 108.546875 189.851562 113.914062 195.183594 C 118.957031 200.226562 124.738281 204.199219 131.25 207.105469 C 131.644531 207.167969 132.023438 207.273438 132.390625 207.421875 C 132.757812 207.570312 133.105469 207.757812 133.429688 207.988281 C 133.753906 208.214844 134.046875 208.480469 134.3125 208.773438 C 134.574219 209.070312 134.800781 209.394531 134.992188 209.742188 C 135.179688 210.09375 135.328125 210.457031 135.429688 210.839844 C 135.535156 211.222656 135.597656 211.613281 135.609375 212.011719 C 135.625 212.40625 135.59375 212.800781 135.519531 213.1875 C 135.445312 213.578125 135.324219 213.953125 135.164062 214.316406 C 135 214.679688 134.796875 215.015625 134.558594 215.332031 C 134.316406 215.648438 134.042969 215.933594 133.738281 216.183594 C 133.429688 216.4375 133.101562 216.652344 132.746094 216.828125 C 132.386719 217.003906 132.015625 217.136719 131.632812 217.226562 C 131.246094 217.316406 130.851562 217.363281 130.457031 217.363281 C 130.058594 217.363281 129.667969 217.320312 129.28125 217.226562 C 128.894531 217.136719 128.523438 217.003906 128.167969 216.828125 C 127.8125 216.652344 127.480469 216.4375 127.175781 216.1875 C 123.269531 214.445312 119.566406 212.351562 116.054688 209.90625 C 112.546875 207.464844 109.296875 204.714844 106.308594 201.660156 C 103.316406 198.601562 100.640625 195.292969 98.273438 191.734375 C 95.910156 188.171875 93.898438 184.421875 92.242188 180.480469 C 92.132812 180.179688 92.050781 179.867188 91.996094 179.550781 C 91.945312 179.234375 91.921875 178.917969 91.929688 178.597656 C 91.9375 178.277344 91.972656 177.960938 92.039062 177.644531 C 92.105469 177.332031 92.203125 177.027344 92.324219 176.730469 C 92.449219 176.433594 92.597656 176.152344 92.773438 175.882812 C 92.949219 175.617188 93.148438 175.367188 93.371094 175.136719 C 93.59375 174.90625 93.835938 174.695312 94.09375 174.511719 C 94.355469 174.324219 94.632812 174.164062 94.925781 174.027344 Z M 94.925781 174.027344 " fill-opacity="1" fill-rule="nonzero"></path><g clip-path="url(#fbbb1a0634)"><path fill="#ffffff" d="M 250.8125 212.574219 C 251.945312 210.695312 253.023438 208.785156 254.046875 206.839844 C 255.066406 204.898438 256.03125 202.925781 256.9375 200.925781 C 257.84375 198.925781 258.691406 196.902344 259.480469 194.851562 C 260.265625 192.800781 260.992188 190.730469 261.65625 188.636719 C 262.320312 186.546875 262.925781 184.4375 263.464844 182.308594 C 264.007812 180.179688 264.484375 178.039062 264.898438 175.882812 C 265.316406 173.726562 265.664062 171.558594 265.953125 169.382812 C 266.242188 167.207031 266.464844 165.023438 266.621094 162.832031 C 266.78125 160.644531 266.875 158.449219 266.90625 156.253906 C 266.9375 154.058594 266.902344 151.867188 266.800781 149.671875 C 266.703125 147.480469 266.539062 145.289062 266.3125 143.105469 C 266.082031 140.921875 265.789062 138.746094 265.433594 136.582031 C 265.078125 134.414062 264.660156 132.261719 264.175781 130.117188 C 263.695312 127.976562 263.148438 125.851562 262.539062 123.742188 C 261.933594 121.632812 261.261719 119.542969 260.53125 117.472656 C 259.800781 115.398438 259.007812 113.351562 258.15625 111.328125 C 257.304688 109.304688 256.394531 107.308594 255.425781 105.339844 C 254.457031 103.367188 253.433594 101.429688 252.347656 99.519531 C 251.265625 97.609375 250.128906 95.730469 248.933594 93.890625 C 247.742188 92.046875 246.492188 90.242188 245.195312 88.472656 C 243.894531 86.703125 242.542969 84.972656 241.140625 83.28125 C 239.738281 81.589844 238.289062 79.945312 236.792969 78.339844 C 235.292969 76.734375 233.75 75.175781 232.15625 73.660156 C 230.566406 72.148438 228.933594 70.683594 227.257812 69.265625 C 225.582031 67.847656 223.863281 66.480469 222.105469 65.164062 C 220.351562 63.847656 218.554688 62.582031 216.722656 61.371094 C 214.894531 60.160156 213.027344 59.003906 211.128906 57.902344 C 209.226562 56.804688 207.296875 55.757812 205.335938 54.769531 C 203.375 53.785156 201.386719 52.855469 199.371094 51.984375 C 197.355469 51.113281 195.316406 50.300781 193.253906 49.550781 C 191.191406 48.800781 189.105469 48.113281 187.003906 47.484375 C 184.898438 46.855469 182.777344 46.289062 180.640625 45.789062 C 178.503906 45.285156 176.355469 44.84375 174.191406 44.46875 C 172.027344 44.089844 169.855469 43.777344 167.675781 43.53125 C 165.492188 43.28125 163.304688 43.097656 161.113281 42.976562 C 158.921875 42.855469 156.726562 42.800781 154.53125 42.808594 C 152.335938 42.820312 150.140625 42.894531 147.949219 43.03125 C 145.757812 43.167969 143.574219 43.371094 141.394531 43.640625 C 139.214844 43.90625 137.046875 44.234375 134.886719 44.628906 C 132.726562 45.023438 130.578125 45.484375 128.445312 46.003906 C 126.3125 46.523438 124.199219 47.105469 122.097656 47.753906 C 120 48.398438 117.921875 49.105469 115.867188 49.871094 C 113.808594 50.640625 111.777344 51.464844 109.769531 52.355469 C 107.757812 53.242188 105.777344 54.1875 103.824219 55.191406 C 101.875 56.195312 99.953125 57.253906 98.0625 58.371094 C 96.171875 59.488281 94.316406 60.660156 92.492188 61.886719 C 90.671875 63.113281 88.890625 64.390625 87.144531 65.722656 C 85.398438 67.050781 83.691406 68.433594 82.027344 69.863281 C 80.359375 71.296875 78.738281 72.777344 77.164062 74.300781 C 75.585938 75.828125 74.054688 77.402344 72.566406 79.019531 C 71.082031 80.636719 69.644531 82.292969 68.257812 83.996094 C 66.871094 85.699219 65.535156 87.4375 64.25 89.21875 C 62.964844 91 61.730469 92.816406 60.554688 94.667969 C 59.375 96.519531 58.253906 98.40625 57.183594 100.324219 C 56.117188 102.242188 55.109375 104.191406 54.15625 106.171875 C 53.203125 108.148438 52.308594 110.152344 51.472656 112.183594 C 50.640625 114.214844 49.863281 116.269531 49.152344 118.34375 C 48.4375 120.421875 47.785156 122.515625 47.195312 124.628906 C 46.605469 126.746094 46.078125 128.875 45.613281 131.019531 C 45.144531 133.167969 44.746094 135.324219 44.40625 137.496094 C 44.066406 139.664062 43.792969 141.839844 43.585938 144.027344 C 43.375 146.210938 43.230469 148.402344 43.148438 150.597656 C 43.066406 152.789062 43.050781 154.984375 43.097656 157.179688 C 43.144531 159.375 43.257812 161.566406 43.433594 163.753906 C 43.613281 165.945312 43.855469 168.125 44.160156 170.300781 C 44.464844 172.472656 44.832031 174.636719 45.265625 176.789062 C 45.699219 178.941406 46.195312 181.082031 46.753906 183.203125 C 47.3125 185.328125 47.933594 187.433594 48.613281 189.519531 C 49.296875 191.605469 50.039062 193.671875 50.84375 195.714844 C 51.648438 197.757812 52.511719 199.773438 53.433594 201.765625 C 54.355469 203.757812 55.335938 205.722656 56.375 207.65625 C 57.414062 209.59375 58.507812 211.496094 59.65625 213.363281 C 60.808594 215.234375 62.011719 217.070312 63.269531 218.867188 C 64.527344 220.667969 65.839844 222.429688 67.199219 224.152344 C 68.5625 225.875 69.972656 227.554688 71.433594 229.195312 C 72.894531 230.832031 74.402344 232.425781 75.957031 233.976562 C 77.511719 235.527344 79.109375 237.03125 80.753906 238.488281 C 82.398438 239.945312 84.082031 241.351562 85.808594 242.707031 C 87.53125 244.066406 89.296875 245.371094 91.101562 246.625 C 92.902344 247.878906 94.742188 249.078125 96.613281 250.222656 C 98.488281 251.367188 100.390625 252.457031 102.328125 253.492188 C 104.265625 254.523438 106.234375 255.5 108.226562 256.417969 C 110.222656 257.332031 112.242188 258.191406 114.289062 258.988281 C 116.332031 259.789062 118.398438 260.527344 120.488281 261.203125 C 122.578125 261.878906 124.683594 262.496094 126.808594 263.046875 C 128.933594 263.601562 131.074219 264.089844 133.226562 264.519531 C 135.378906 264.945312 137.546875 265.308594 139.71875 265.609375 C 141.894531 265.90625 144.078125 266.144531 146.265625 266.3125 C 148.453125 266.484375 150.648438 266.59375 152.84375 266.632812 C 155.039062 266.675781 157.230469 266.652344 159.425781 266.566406 C 161.621094 266.480469 163.808594 266.328125 165.996094 266.113281 C 168.179688 265.898438 170.355469 265.617188 172.523438 265.273438 C 174.691406 264.929688 176.847656 264.523438 178.992188 264.050781 C 181.136719 263.582031 183.265625 263.046875 185.378906 262.449219 C 187.492188 261.855469 189.585938 261.195312 191.660156 260.476562 C 193.738281 259.757812 195.789062 258.980469 197.816406 258.136719 C 203.1875 255.960938 208.347656 253.363281 213.296875 250.347656 L 296.269531 333.476562 C 297.511719 334.714844 298.863281 335.816406 300.320312 336.789062 C 301.78125 337.757812 303.320312 338.578125 304.941406 339.246094 C 306.558594 339.914062 308.230469 340.421875 309.949219 340.761719 C 311.667969 341.101562 313.40625 341.269531 315.15625 341.269531 C 316.90625 341.28125 318.636719 341.125 320.355469 340.792969 C 322.070312 340.460938 323.738281 339.960938 325.355469 339.296875 C 326.972656 338.632812 328.507812 337.816406 329.960938 336.84375 C 331.414062 335.871094 332.757812 334.765625 333.992188 333.527344 C 334.609375 332.910156 335.195312 332.261719 335.75 331.585938 C 336.304688 330.910156 336.824219 330.207031 337.308594 329.480469 C 337.796875 328.75 338.242188 328.003906 338.65625 327.230469 C 339.066406 326.460938 339.441406 325.667969 339.773438 324.859375 C 340.109375 324.054688 340.402344 323.230469 340.65625 322.394531 C 340.910156 321.554688 341.121094 320.710938 341.292969 319.851562 C 341.464844 318.992188 341.59375 318.128906 341.675781 317.257812 C 341.761719 316.390625 341.804688 315.515625 341.804688 314.640625 C 341.804688 313.765625 341.761719 312.894531 341.675781 312.023438 C 341.59375 311.152344 341.464844 310.289062 341.292969 309.433594 C 341.121094 308.574219 340.910156 307.726562 340.65625 306.890625 C 340.402344 306.054688 340.109375 305.230469 339.773438 304.421875 C 339.441406 303.613281 339.066406 302.824219 338.65625 302.054688 C 338.242188 301.28125 337.796875 300.53125 337.308594 299.804688 C 336.824219 299.078125 336.304688 298.375 335.75 297.699219 C 335.195312 297.023438 334.609375 296.375 333.992188 295.753906 Z M 215.207031 93.890625 C 216.195312 94.882812 217.160156 95.894531 218.101562 96.929688 C 219.039062 97.964844 219.953125 99.023438 220.839844 100.105469 C 221.730469 101.1875 222.589844 102.289062 223.421875 103.410156 C 224.257812 104.535156 225.0625 105.675781 225.839844 106.839844 C 226.617188 108.003906 227.367188 109.183594 228.085938 110.382812 C 228.804688 111.582031 229.496094 112.796875 230.152344 114.03125 C 230.8125 115.265625 231.441406 116.515625 232.042969 117.777344 C 232.640625 119.042969 233.207031 120.320312 233.742188 121.613281 C 234.277344 122.90625 234.78125 124.210938 235.253906 125.527344 C 235.726562 126.84375 236.164062 128.171875 236.570312 129.507812 C 236.976562 130.847656 237.351562 132.195312 237.691406 133.550781 C 238.03125 134.90625 238.339844 136.273438 238.613281 137.644531 C 238.882812 139.015625 239.125 140.394531 239.328125 141.777344 C 239.535156 143.160156 239.707031 144.546875 239.84375 145.941406 C 239.980469 147.332031 240.085938 148.726562 240.152344 150.125 C 240.222656 151.519531 240.257812 152.917969 240.257812 154.316406 C 240.257812 155.714844 240.226562 157.113281 240.15625 158.511719 C 240.089844 159.90625 239.984375 161.300781 239.847656 162.695312 C 239.710938 164.085938 239.542969 165.472656 239.335938 166.859375 C 239.132812 168.242188 238.894531 169.621094 238.621094 170.992188 C 238.347656 172.363281 238.042969 173.726562 237.703125 175.085938 C 237.363281 176.441406 236.988281 177.789062 236.585938 179.128906 C 236.179688 180.464844 235.738281 181.792969 235.269531 183.109375 C 234.796875 184.429688 234.296875 185.734375 233.761719 187.023438 C 233.226562 188.316406 232.660156 189.59375 232.0625 190.859375 C 231.464844 192.125 230.835938 193.375 230.175781 194.609375 C 229.515625 195.839844 228.828125 197.058594 228.109375 198.257812 C 227.390625 199.457031 226.640625 200.640625 225.863281 201.800781 C 225.089844 202.964844 224.285156 204.109375 223.449219 205.230469 C 222.617188 206.355469 221.757812 207.457031 220.871094 208.539062 C 219.984375 209.621094 219.070312 210.679688 218.128906 211.714844 C 217.191406 212.753906 216.226562 213.765625 215.238281 214.753906 C 214.25 215.746094 213.238281 216.707031 212.199219 217.648438 C 211.164062 218.585938 210.105469 219.5 209.023438 220.386719 C 207.941406 221.277344 206.839844 222.136719 205.71875 222.96875 C 204.59375 223.804688 203.453125 224.609375 202.289062 225.386719 C 201.125 226.164062 199.945312 226.910156 198.746094 227.628906 C 197.542969 228.347656 196.328125 229.039062 195.09375 229.699219 C 193.859375 230.355469 192.613281 230.984375 191.347656 231.585938 C 190.082031 232.183594 188.804688 232.75 187.511719 233.285156 C 186.222656 233.820312 184.917969 234.324219 183.597656 234.792969 C 182.28125 235.265625 180.953125 235.703125 179.617188 236.109375 C 178.277344 236.515625 176.929688 236.890625 175.574219 237.230469 C 174.214844 237.570312 172.851562 237.875 171.480469 238.148438 C 170.109375 238.421875 168.730469 238.660156 167.347656 238.867188 C 165.964844 239.070312 164.574219 239.242188 163.183594 239.378906 C 161.792969 239.515625 160.398438 239.621094 159 239.6875 C 157.605469 239.757812 156.207031 239.792969 154.808594 239.792969 C 153.410156 239.792969 152.011719 239.757812 150.613281 239.6875 C 149.214844 239.621094 147.820312 239.515625 146.429688 239.378906 C 145.039062 239.242188 143.648438 239.070312 142.265625 238.867188 C 140.882812 238.660156 139.503906 238.421875 138.132812 238.148438 C 136.761719 237.875 135.398438 237.570312 134.039062 237.230469 C 132.683594 236.890625 131.335938 236.515625 129.996094 236.109375 C 128.660156 235.703125 127.332031 235.265625 126.015625 234.792969 C 124.699219 234.324219 123.394531 233.820312 122.101562 233.285156 C 120.808594 232.75 119.53125 232.183594 118.265625 231.585938 C 117 230.984375 115.753906 230.355469 114.519531 229.699219 C 113.285156 229.039062 112.070312 228.347656 110.871094 227.628906 C 109.667969 226.910156 108.488281 226.164062 107.324219 225.386719 C 106.164062 224.609375 105.019531 223.804688 103.894531 222.96875 C 102.773438 222.136719 101.671875 221.277344 100.589844 220.386719 C 99.507812 219.5 98.449219 218.585938 97.414062 217.648438 C 96.378906 216.707031 95.363281 215.746094 94.375 214.753906 C 93.386719 213.765625 92.421875 212.753906 91.484375 211.714844 C 90.542969 210.679688 89.632812 209.621094 88.742188 208.539062 C 87.855469 207.457031 86.996094 206.355469 86.164062 205.230469 C 85.332031 204.109375 84.527344 202.964844 83.75 201.800781 C 82.972656 200.640625 82.222656 199.457031 81.503906 198.257812 C 80.785156 197.058594 80.097656 195.839844 79.4375 194.609375 C 78.777344 193.375 78.152344 192.125 77.554688 190.859375 C 76.957031 189.597656 76.390625 188.316406 75.855469 187.023438 C 75.320312 185.734375 74.816406 184.429688 74.34375 183.109375 C 73.875 181.792969 73.433594 180.464844 73.03125 179.128906 C 72.625 177.789062 72.25 176.441406 71.910156 175.085938 C 71.574219 173.726562 71.265625 172.363281 70.992188 170.992188 C 70.722656 169.621094 70.480469 168.242188 70.277344 166.859375 C 70.074219 165.472656 69.902344 164.085938 69.765625 162.695312 C 69.628906 161.300781 69.527344 159.90625 69.457031 158.511719 C 69.390625 157.113281 69.355469 155.714844 69.355469 154.316406 C 69.355469 152.917969 69.390625 151.519531 69.460938 150.125 C 69.527344 148.726562 69.632812 147.332031 69.769531 145.941406 C 69.90625 144.546875 70.078125 143.160156 70.285156 141.777344 C 70.488281 140.394531 70.730469 139.015625 71.003906 137.644531 C 71.277344 136.273438 71.582031 134.90625 71.921875 133.550781 C 72.261719 132.195312 72.636719 130.847656 73.042969 129.507812 C 73.449219 128.171875 73.886719 126.84375 74.359375 125.527344 C 74.832031 124.210938 75.335938 122.90625 75.871094 121.613281 C 76.40625 120.320312 76.972656 119.042969 77.574219 117.777344 C 78.171875 116.515625 78.800781 115.265625 79.460938 114.03125 C 80.121094 112.796875 80.808594 111.582031 81.527344 110.382812 C 82.25 109.183594 82.996094 108.003906 83.773438 106.839844 C 84.550781 105.675781 85.355469 104.535156 86.191406 103.410156 C 87.023438 102.289062 87.886719 101.1875 88.773438 100.105469 C 89.660156 99.023438 90.574219 97.964844 91.515625 96.929688 C 92.453125 95.894531 93.417969 94.882812 94.40625 93.890625 C 95.398438 92.90625 96.410156 91.941406 97.445312 91.003906 C 98.484375 90.066406 99.542969 89.15625 100.621094 88.269531 C 101.703125 87.386719 102.804688 86.527344 103.929688 85.695312 C 105.050781 84.863281 106.195312 84.058594 107.359375 83.285156 C 108.519531 82.507812 109.699219 81.761719 110.898438 81.042969 C 112.097656 80.328125 113.316406 79.640625 114.546875 78.980469 C 115.78125 78.324219 117.03125 77.695312 118.292969 77.097656 C 119.558594 76.5 120.835938 75.9375 122.125 75.402344 C 123.417969 74.867188 124.722656 74.367188 126.039062 73.894531 C 127.351562 73.425781 128.679688 72.988281 130.015625 72.582031 C 131.355469 72.175781 132.703125 71.804688 134.058594 71.464844 C 135.414062 71.125 136.777344 70.820312 138.148438 70.546875 C 139.519531 70.277344 140.894531 70.039062 142.277344 69.832031 C 143.660156 69.628906 145.046875 69.457031 146.4375 69.320312 C 147.828125 69.183594 149.222656 69.082031 150.617188 69.011719 C 152.011719 68.945312 153.410156 68.910156 154.808594 68.910156 C 156.203125 68.910156 157.601562 68.945312 158.996094 69.011719 C 160.394531 69.082031 161.785156 69.183594 163.175781 69.320312 C 164.566406 69.457031 165.953125 69.628906 167.335938 69.832031 C 168.71875 70.039062 170.097656 70.277344 171.464844 70.546875 C 172.835938 70.820312 174.199219 71.125 175.554688 71.464844 C 176.914062 71.804688 178.257812 72.175781 179.597656 72.582031 C 180.933594 72.988281 182.261719 73.425781 183.578125 73.894531 C 184.894531 74.367188 186.195312 74.867188 187.488281 75.402344 C 188.78125 75.9375 190.058594 76.5 191.320312 77.097656 C 192.585938 77.695312 193.832031 78.324219 195.066406 78.980469 C 196.296875 79.640625 197.515625 80.328125 198.714844 81.042969 C 199.914062 81.761719 201.09375 82.507812 202.257812 83.285156 C 203.417969 84.058594 204.5625 84.863281 205.683594 85.695312 C 206.808594 86.527344 207.910156 87.386719 208.992188 88.269531 C 210.074219 89.15625 211.132812 90.066406 212.167969 91.003906 C 213.203125 91.941406 214.21875 92.90625 215.207031 93.890625 Z M 215.207031 93.890625 " fill-opacity="1" fill-rule="nonzero"></path></g></svg>