<svg xmlns="http://www.w3.org/2000/svg" xmlns:xlink="http://www.w3.org/1999/xlink" width="60" viewBox="0 0 30 30.000001" height="60" preserveAspectRatio="xMidYMid meet"><defs><clipPath id="c875617778"><path d="M 0.484375 1.214844 L 28 1.214844 L 28 28 L 0.484375 28 Z M 0.484375 1.214844 " clip-rule="nonzero"></path></clipPath><clipPath id="2b8d9f6086"><path d="M 15 13 L 29.515625 13 L 29.515625 28 L 15 28 Z M 15 13 " clip-rule="nonzero"></path></clipPath></defs><g clip-path="url(#c875617778)"><path fill="#0071b8" d="M 19.324219 21.945312 C 18.761719 21.945312 18.21875 21.835938 17.699219 21.628906 C 17.390625 21.503906 17.105469 21.347656 16.835938 21.15625 C 15.902344 21.585938 14.863281 21.828125 13.765625 21.828125 C 9.714844 21.828125 6.429688 18.542969 6.429688 14.488281 C 6.429688 10.4375 9.714844 7.152344 13.765625 7.152344 C 17.542969 7.152344 20.652344 10.003906 21.058594 13.671875 C 21.550781 13.886719 21.992188 14.1875 22.375 14.570312 C 22.960938 15.15625 23.363281 15.894531 23.542969 16.699219 C 23.683594 17.339844 23.675781 18.003906 23.519531 18.636719 L 23.882812 19 L 26.464844 19.042969 C 26.773438 17.890625 26.730469 18.046875 27.042969 16.894531 L 24.511719 15.492188 C 24.511719 14.59375 24.511719 14.386719 24.511719 13.488281 L 27.042969 12.082031 C 26.730469 10.929688 26.773438 11.085938 26.464844 9.9375 L 23.574219 9.984375 C 23.125 9.207031 23.019531 9.027344 22.570312 8.25 L 24.058594 5.769531 C 23.214844 4.925781 23.332031 5.039062 22.488281 4.199219 L 20.007812 5.6875 C 19.230469 5.238281 19.050781 5.132812 18.273438 4.683594 L 18.320312 1.792969 C 17.167969 1.480469 17.324219 1.523438 16.171875 1.214844 L 14.769531 3.746094 C 13.871094 3.746094 13.664062 3.746094 12.765625 3.746094 L 11.359375 1.214844 C 10.207031 1.523438 10.367188 1.480469 9.214844 1.792969 L 9.261719 4.683594 C 8.484375 5.132812 8.304688 5.238281 7.527344 5.6875 L 5.046875 4.199219 C 4.203125 5.039062 4.316406 4.925781 3.472656 5.769531 L 4.960938 8.25 C 4.511719 9.027344 4.410156 9.207031 3.960938 9.984375 L 1.066406 9.9375 C 0.757812 11.089844 0.800781 10.933594 0.492188 12.082031 L 3.023438 13.488281 C 3.023438 14.386719 3.023438 14.59375 3.023438 15.492188 L 0.492188 16.898438 C 0.800781 18.046875 0.757812 17.890625 1.066406 19.042969 L 3.960938 18.996094 C 4.410156 19.773438 4.511719 19.949219 4.960938 20.730469 L 3.472656 23.210938 C 4.316406 24.054688 4.203125 23.941406 5.046875 24.78125 L 7.527344 23.292969 C 8.304688 23.742188 8.484375 23.847656 9.261719 24.296875 L 9.214844 27.1875 C 10.367188 27.496094 10.207031 27.457031 11.359375 27.765625 L 12.765625 25.234375 C 13.664062 25.234375 13.871094 25.234375 14.769531 25.234375 L 16.171875 27.765625 C 17.324219 27.457031 17.167969 27.496094 18.320312 27.1875 L 18.273438 24.296875 C 19.050781 23.847656 19.226562 23.742188 20.007812 23.292969 L 22.488281 24.78125 C 22.65625 24.613281 22.785156 24.484375 22.890625 24.378906 L 20.335938 21.824219 C 20.003906 21.902344 19.667969 21.945312 19.324219 21.945312 Z M 19.324219 21.945312 " fill-opacity="1" fill-rule="nonzero"></path></g><g clip-path="url(#2b8d9f6086)"><path fill="#0071b8" d="M 28.890625 24.960938 L 22.761719 18.832031 C 23.210938 17.554688 22.921875 16.074219 21.898438 15.050781 C 20.8125 13.964844 19.210938 13.707031 17.882812 14.28125 L 20.210938 16.609375 L 18.308594 18.515625 L 15.976562 16.183594 C 15.40625 17.515625 15.660156 19.117188 16.746094 20.203125 C 17.769531 21.226562 19.25 21.511719 20.53125 21.0625 L 26.660156 27.195312 C 27.277344 27.808594 28.277344 27.808594 28.890625 27.195312 C 29.507812 26.578125 29.507812 25.578125 28.890625 24.960938 Z M 28.890625 24.960938 " fill-opacity="1" fill-rule="nonzero"></path></g><path fill="#0071b8" d="M 9.199219 17.449219 L 9.199219 13.019531 L 10.203125 13.019531 L 10.203125 11.746094 L 9.199219 11.746094 L 9.199219 10.519531 L 8.453125 10.519531 L 8.453125 11.746094 L 7.449219 11.746094 L 7.449219 13.019531 L 8.453125 13.019531 L 8.453125 17.449219 Z M 9.199219 17.449219 " fill-opacity="1" fill-rule="nonzero"></path><path fill="#0071b8" d="M 11.726562 17.449219 L 11.726562 16.402344 L 12.734375 16.402344 L 12.734375 15.128906 L 11.726562 15.128906 L 11.726562 10.519531 L 10.984375 10.519531 L 10.984375 15.128906 L 9.976562 15.128906 L 9.976562 16.402344 L 10.984375 16.402344 L 10.984375 17.449219 Z M 11.726562 17.449219 " fill-opacity="1" fill-rule="nonzero"></path><path fill="#0071b8" d="M 14.269531 17.449219 L 14.269531 13.867188 L 15.277344 13.867188 L 15.277344 12.597656 L 14.269531 12.597656 L 14.269531 10.519531 L 13.527344 10.519531 L 13.527344 12.597656 L 12.519531 12.597656 L 12.519531 13.867188 L 13.527344 13.867188 L 13.527344 17.449219 Z M 14.269531 17.449219 " fill-opacity="1" fill-rule="nonzero"></path></svg>