<svg xmlns="http://www.w3.org/2000/svg" xmlns:xlink="http://www.w3.org/1999/xlink" width="40" viewBox="0 0 375 374.999991" height="40" preserveAspectRatio="xMidYMid meet"><defs><clipPath id="798dceb2d6"><path d="M 22.09375 22.09375 L 352.84375 22.09375 L 352.84375 352.84375 L 22.09375 352.84375 Z M 22.09375 22.09375 " clip-rule="nonzero"></path></clipPath></defs><g clip-path="url(#798dceb2d6)"><path fill="#ffffff" d="M 348.765625 344.632812 L 341.257812 344.632812 L 341.257812 81.535156 C 341.257812 80.148438 340.5625 78.855469 339.402344 78.085938 C 338.242188 77.316406 336.777344 77.1875 335.5 77.730469 L 276.558594 102.789062 L 276.558594 66.027344 C 276.558594 63.742188 274.710938 61.894531 272.425781 61.894531 L 233.46875 61.894531 L 233.46875 26.230469 C 233.46875 23.941406 231.621094 22.09375 229.332031 22.09375 C 227.046875 22.09375 225.199219 23.941406 225.199219 26.230469 L 225.199219 61.894531 L 184.898438 61.894531 C 182.613281 61.894531 180.761719 63.742188 180.761719 66.027344 L 180.761719 155.191406 L 163.066406 155.191406 L 163.066406 143.675781 C 163.066406 141.390625 161.21875 139.539062 158.933594 139.539062 L 41.613281 139.539062 C 39.328125 139.539062 37.480469 141.390625 37.480469 143.675781 L 37.480469 254.636719 C 35.390625 254.84375 33.738281 256.546875 33.738281 258.691406 L 33.738281 344.632812 L 26.230469 344.632812 C 23.941406 344.632812 22.09375 346.480469 22.09375 348.765625 C 22.09375 351.050781 23.941406 352.902344 26.230469 352.902344 L 348.765625 352.902344 C 351.050781 352.902344 352.902344 351.050781 352.902344 348.765625 C 352.902344 346.480469 351.050781 344.632812 348.765625 344.632812 Z M 332.984375 344.632812 L 230.015625 344.632812 L 230.015625 131.5625 L 332.984375 87.785156 Z M 268.289062 70.164062 L 268.289062 101.695312 L 189.03125 101.695312 L 189.03125 70.164062 Z M 189.03125 109.964844 L 259.683594 109.964844 L 224.261719 125.023438 C 222.734375 125.667969 221.746094 127.167969 221.746094 128.828125 L 221.746094 155.191406 L 189.03125 155.191406 Z M 221.746094 163.460938 L 221.746094 344.632812 L 166.804688 344.632812 L 166.804688 258.691406 C 166.804688 256.546875 165.15625 254.84375 163.066406 254.636719 L 163.066406 163.460938 Z M 154.796875 147.8125 L 154.796875 254.554688 L 45.75 254.554688 L 45.75 147.8125 Z M 42.011719 262.828125 L 158.535156 262.828125 L 158.535156 344.632812 L 128.417969 344.632812 L 128.417969 303.082031 C 128.417969 300.796875 126.570312 298.949219 124.285156 298.949219 L 76.261719 298.949219 C 73.976562 298.949219 72.125 300.796875 72.125 303.082031 L 72.125 344.632812 L 42.011719 344.632812 Z M 120.148438 344.632812 L 80.398438 344.632812 L 80.398438 307.21875 L 120.148438 307.21875 Z M 120.148438 344.632812 " fill-opacity="1" fill-rule="nonzero"></path></g><path fill="#ffffff" d="M 71.714844 177.332031 L 129.300781 177.332031 C 131.585938 177.332031 133.433594 175.484375 133.433594 173.199219 C 133.433594 170.914062 131.585938 169.0625 129.300781 169.0625 L 71.714844 169.0625 C 69.429688 169.0625 67.578125 170.914062 67.578125 173.199219 C 67.578125 175.484375 69.429688 177.332031 71.714844 177.332031 Z M 71.714844 177.332031 " fill-opacity="1" fill-rule="nonzero"></path><path fill="#ffffff" d="M 71.714844 206.105469 L 129.300781 206.105469 C 131.585938 206.105469 133.433594 204.257812 133.433594 201.972656 C 133.433594 199.683594 131.585938 197.835938 129.300781 197.835938 L 71.714844 197.835938 C 69.429688 197.835938 67.578125 199.683594 67.578125 201.972656 C 67.578125 204.257812 69.429688 206.105469 71.714844 206.105469 Z M 71.714844 206.105469 " fill-opacity="1" fill-rule="nonzero"></path><path fill="#ffffff" d="M 71.714844 234.882812 L 129.300781 234.882812 C 131.585938 234.882812 133.433594 233.03125 133.433594 230.746094 C 133.433594 228.460938 131.585938 226.613281 129.300781 226.613281 L 71.714844 226.613281 C 69.429688 226.613281 67.578125 228.460938 67.578125 230.746094 C 67.578125 233.03125 69.429688 234.882812 71.714844 234.882812 Z M 71.714844 234.882812 " fill-opacity="1" fill-rule="nonzero"></path><path fill="#ffffff" d="M 251.925781 222.226562 L 311.078125 222.226562 C 313.363281 222.226562 315.214844 220.375 315.214844 218.089844 C 315.214844 215.804688 313.363281 213.957031 311.078125 213.957031 L 251.925781 213.957031 C 249.640625 213.957031 247.792969 215.804688 247.792969 218.089844 C 247.792969 220.375 249.640625 222.226562 251.925781 222.226562 Z M 251.925781 222.226562 " fill-opacity="1" fill-rule="nonzero"></path><path fill="#ffffff" d="M 183.105469 202.394531 C 185.390625 202.394531 187.238281 200.546875 187.238281 198.257812 L 187.238281 187.496094 C 187.238281 185.210938 185.390625 183.363281 183.105469 183.363281 C 180.820312 183.363281 178.96875 185.210938 178.96875 187.496094 L 178.96875 198.257812 C 178.96875 200.546875 180.820312 202.394531 183.105469 202.394531 Z M 183.105469 202.394531 " fill-opacity="1" fill-rule="nonzero"></path><path fill="#ffffff" d="M 202.910156 202.394531 C 205.199219 202.394531 207.046875 200.546875 207.046875 198.257812 L 207.046875 187.496094 C 207.046875 185.210938 205.199219 183.363281 202.910156 183.363281 C 200.625 183.363281 198.777344 185.210938 198.777344 187.496094 L 198.777344 198.257812 C 198.777344 200.546875 200.625 202.394531 202.910156 202.394531 Z M 202.910156 202.394531 " fill-opacity="1" fill-rule="nonzero"></path><path fill="#ffffff" d="M 183.105469 232.992188 C 185.390625 232.992188 187.238281 231.144531 187.238281 228.855469 L 187.238281 218.089844 C 187.238281 215.804688 185.390625 213.957031 183.105469 213.957031 C 180.820312 213.957031 178.96875 215.804688 178.96875 218.089844 L 178.96875 228.855469 C 178.96875 231.144531 180.820312 232.992188 183.105469 232.992188 Z M 183.105469 232.992188 " fill-opacity="1" fill-rule="nonzero"></path><path fill="#ffffff" d="M 202.910156 232.992188 C 205.199219 232.992188 207.046875 231.144531 207.046875 228.855469 L 207.046875 218.089844 C 207.046875 215.804688 205.199219 213.957031 202.910156 213.957031 C 200.625 213.957031 198.777344 215.804688 198.777344 218.089844 L 198.777344 228.855469 C 198.777344 231.144531 200.625 232.992188 202.910156 232.992188 Z M 202.910156 232.992188 " fill-opacity="1" fill-rule="nonzero"></path><path fill="#ffffff" d="M 183.105469 263.585938 C 185.390625 263.585938 187.238281 261.734375 187.238281 259.449219 L 187.238281 248.6875 C 187.238281 246.402344 185.390625 244.554688 183.105469 244.554688 C 180.820312 244.554688 178.96875 246.402344 178.96875 248.6875 L 178.96875 259.449219 C 178.96875 261.734375 180.820312 263.585938 183.105469 263.585938 Z M 183.105469 263.585938 " fill-opacity="1" fill-rule="nonzero"></path><path fill="#ffffff" d="M 202.910156 263.585938 C 205.199219 263.585938 207.046875 261.734375 207.046875 259.449219 L 207.046875 248.6875 C 207.046875 246.402344 205.199219 244.554688 202.910156 244.554688 C 200.625 244.554688 198.777344 246.402344 198.777344 248.6875 L 198.777344 259.449219 C 198.777344 261.734375 200.625 263.585938 202.910156 263.585938 Z M 202.910156 263.585938 " fill-opacity="1" fill-rule="nonzero"></path><path fill="#ffffff" d="M 183.105469 294.183594 C 185.390625 294.183594 187.238281 292.332031 187.238281 290.046875 L 187.238281 279.285156 C 187.238281 277 185.390625 275.152344 183.105469 275.152344 C 180.820312 275.152344 178.96875 277 178.96875 279.285156 L 178.96875 290.046875 C 178.96875 292.332031 180.820312 294.183594 183.105469 294.183594 Z M 183.105469 294.183594 " fill-opacity="1" fill-rule="nonzero"></path><path fill="#ffffff" d="M 202.910156 294.183594 C 205.199219 294.183594 207.046875 292.332031 207.046875 290.046875 L 207.046875 279.285156 C 207.046875 277 205.199219 275.152344 202.910156 275.152344 C 200.625 275.152344 198.777344 277 198.777344 279.285156 L 198.777344 290.046875 C 198.777344 292.332031 200.625 294.183594 202.910156 294.183594 Z M 202.910156 294.183594 " fill-opacity="1" fill-rule="nonzero"></path><path fill="#ffffff" d="M 183.105469 324.78125 C 185.390625 324.78125 187.238281 322.929688 187.238281 320.644531 L 187.238281 309.878906 C 187.238281 307.59375 185.390625 305.746094 183.105469 305.746094 C 180.820312 305.746094 178.96875 307.59375 178.96875 309.878906 L 178.96875 320.644531 C 178.96875 322.929688 180.820312 324.78125 183.105469 324.78125 Z M 183.105469 324.78125 " fill-opacity="1" fill-rule="nonzero"></path><path fill="#ffffff" d="M 202.910156 324.78125 C 205.199219 324.78125 207.046875 322.929688 207.046875 320.644531 L 207.046875 309.878906 C 207.046875 307.59375 205.199219 305.746094 202.910156 305.746094 C 200.625 305.746094 198.777344 307.59375 198.777344 309.878906 L 198.777344 320.644531 C 198.777344 322.929688 200.625 324.78125 202.910156 324.78125 Z M 202.910156 324.78125 " fill-opacity="1" fill-rule="nonzero"></path><path fill="#ffffff" d="M 251.925781 247.035156 L 311.078125 247.035156 C 313.363281 247.035156 315.214844 245.1875 315.214844 242.902344 C 315.214844 240.617188 313.363281 238.765625 311.078125 238.765625 L 251.925781 238.765625 C 249.640625 238.765625 247.792969 240.617188 247.792969 242.902344 C 247.792969 245.1875 249.640625 247.035156 251.925781 247.035156 Z M 251.925781 247.035156 " fill-opacity="1" fill-rule="nonzero"></path><path fill="#ffffff" d="M 251.925781 271.847656 L 311.078125 271.847656 C 313.363281 271.847656 315.214844 270 315.214844 267.710938 C 315.214844 265.425781 313.363281 263.578125 311.078125 263.578125 L 251.925781 263.578125 C 249.640625 263.578125 247.792969 265.425781 247.792969 267.710938 C 247.792969 270 249.640625 271.847656 251.925781 271.847656 Z M 251.925781 271.847656 " fill-opacity="1" fill-rule="nonzero"></path><path fill="#ffffff" d="M 251.925781 172.203125 L 311.078125 172.203125 C 313.363281 172.203125 315.214844 170.351562 315.214844 168.066406 C 315.214844 165.78125 313.363281 163.929688 311.078125 163.929688 L 251.925781 163.929688 C 249.640625 163.929688 247.792969 165.78125 247.792969 168.066406 C 247.792969 170.351562 249.640625 172.203125 251.925781 172.203125 Z M 251.925781 172.203125 " fill-opacity="1" fill-rule="nonzero"></path><path fill="#ffffff" d="M 251.925781 197.011719 L 311.078125 197.011719 C 313.363281 197.011719 315.214844 195.164062 315.214844 192.875 C 315.214844 190.589844 313.363281 188.742188 311.078125 188.742188 L 251.925781 188.742188 C 249.640625 188.742188 247.792969 190.589844 247.792969 192.875 C 247.792969 195.164062 249.640625 197.011719 251.925781 197.011719 Z M 251.925781 197.011719 " fill-opacity="1" fill-rule="nonzero"></path><path fill="#ffffff" d="M 251.925781 296.660156 L 311.078125 296.660156 C 313.363281 296.660156 315.214844 294.808594 315.214844 292.523438 C 315.214844 290.238281 313.363281 288.386719 311.078125 288.386719 L 251.925781 288.386719 C 249.640625 288.386719 247.792969 290.238281 247.792969 292.523438 C 247.792969 294.808594 249.640625 296.660156 251.925781 296.660156 Z M 251.925781 296.660156 " fill-opacity="1" fill-rule="nonzero"></path><path fill="#ffffff" d="M 251.925781 321.46875 L 311.078125 321.46875 C 313.363281 321.46875 315.214844 319.621094 315.214844 317.332031 C 315.214844 315.046875 313.363281 313.199219 311.078125 313.199219 L 251.925781 313.199219 C 249.640625 313.199219 247.792969 315.046875 247.792969 317.332031 C 247.792969 319.621094 249.640625 321.46875 251.925781 321.46875 Z M 251.925781 321.46875 " fill-opacity="1" fill-rule="nonzero"></path></svg>